<svg width="16" height="21" viewBox="0 0 16 21" fill="none" xmlns="http://www.w3.org/2000/svg">
<path d="M15.0313 3.78841C11.788 3.78841 8.42692 0.782119 8.39364 0.752002C8.17024 0.549463 7.82973 0.549463 7.60637 0.752002C7.57289 0.782354 4.22063 3.78841 0.96875 3.78841C0.645156 3.78841 0.382812 4.05075 0.382812 4.37435V11.3915C0.382812 17.076 4.61078 19.3475 7.79102 20.5616C7.85832 20.5873 7.92914 20.6001 8 20.6001C8.07086 20.6001 8.14168 20.5872 8.20899 20.5616C12.6681 18.8592 15.6172 16.2038 15.6172 11.3915V4.37435C15.6172 4.05075 15.3548 3.78841 15.0313 3.78841Z" fill="url(#paint0_linear)"/>
<path d="M8 6.49854C5.7384 6.49854 3.89844 8.3385 3.89844 10.6001C3.89844 12.8617 5.7384 14.7017 8 14.7017C10.2616 14.7017 12.1016 12.8617 12.1016 10.6001C12.1016 8.3385 10.2616 6.49854 8 6.49854ZM9.58617 10.4285L7.82836 12.1863C7.71399 12.3007 7.56402 12.3579 7.41406 12.3579C7.2641 12.3579 7.11414 12.3007 6.99977 12.1863L6.41383 11.6003C6.185 11.3715 6.185 11.0005 6.41383 10.7717C6.64262 10.5429 7.01363 10.5429 7.24246 10.7717L7.4141 10.9433L8.75762 9.59983C8.98641 9.371 9.35742 9.371 9.58625 9.59983C9.81504 9.82865 9.81504 10.1996 9.58617 10.4285Z" fill="url(#paint1_linear)"/>
<defs>
<linearGradient id="paint0_linear" x1="8" y1="20.6001" x2="8" y2="0.600088" gradientUnits="userSpaceOnUse">
<stop stop-color="#00B59C"/>
<stop offset="1" stop-color="#9CFFAC"/>
</linearGradient>
<linearGradient id="paint1_linear" x1="8" y1="14.7017" x2="8" y2="6.49854" gradientUnits="userSpaceOnUse">
<stop stop-color="#C3FFE8"/>
<stop offset="0.9973" stop-color="#F0FFF4"/>
</linearGradient>
</defs>
</svg>
