<svg width="202" height="100" viewBox="0 0 202 100" fill="none" xmlns="http://www.w3.org/2000/svg">
<path d="M138.9 9.04695C138.748 8.40345 138.37 6.09439 139.316 0C136.78 0.984187 133.222 3.36895 132.313 7.45711" stroke="#595E67" stroke-width="1.5"/>
<path d="M150.248 53C144.039 53 139 55.8812 139 59.4313C139 60.5825 139.529 61.6629 140.451 62.5954L145.276 61.4185L146.761 62.2674L143.814 64.6534C143.814 64.6534 143.848 64.7242 143.927 64.7499C145.726 65.4509 147.897 65.8561 150.237 65.8561C156.446 65.8561 161.485 62.9749 161.485 59.4248C161.496 55.8812 156.457 53 150.248 53Z" fill="#39B002"/>
<path d="M149.551 53C150.023 53 150.484 53 150.957 53C150.979 53.0386 151.047 53.0257 151.092 53.0257C151.418 53.0193 151.744 53.0515 152.059 53.0836C153.094 53.1865 154.095 53.3602 155.051 53.6174C156.592 54.029 157.886 54.6207 158.965 55.3667C159.73 55.9005 160.326 56.4922 160.754 57.1417C161.08 57.6369 161.305 58.145 161.417 58.6724C161.44 58.7946 161.395 58.9168 161.496 59.0325C161.496 59.3091 161.496 59.5856 161.496 59.8622C161.44 59.875 161.451 59.9007 161.451 59.9265C161.462 60.158 161.384 60.3895 161.305 60.6146C161.125 61.1548 160.833 61.6822 160.416 62.1838C159.696 63.0649 158.662 63.8045 157.357 64.4219C156.423 64.8592 155.388 65.2001 154.252 65.4445C153.386 65.631 152.498 65.7596 151.575 65.8239C151.362 65.8368 151.148 65.8111 150.945 65.869C150.462 65.869 149.978 65.869 149.494 65.869C149.483 65.8432 149.438 65.8432 149.404 65.8432C148.73 65.8304 148.077 65.7596 147.425 65.6632C146.176 65.4766 145.006 65.1808 143.938 64.7628C143.87 64.7371 143.837 64.7113 143.814 64.6599C143.735 64.4284 143.938 64.2547 144.118 64.0746C144.568 63.6373 145.074 63.2193 145.58 62.8012C145.951 62.6083 146.367 62.4475 146.761 62.2739C146.761 62.6405 146.84 63.007 147.031 63.3608C147.166 63.5987 147.076 63.6502 147.594 63.4894C148.178 63.3093 148.696 63.0649 149.18 62.8012C149.191 62.8398 149.225 62.872 149.225 62.9106C149.247 63.3415 149.404 63.7659 149.584 64.184C149.731 64.5184 149.899 64.8464 150.169 65.1551C150.192 65.1744 150.181 65.2065 150.248 65.2065C150.304 65.2065 150.316 65.1744 150.327 65.1551C150.394 65.0715 150.451 64.9879 150.507 64.9043C150.822 64.4219 151.035 63.9203 151.17 63.4122C151.215 63.2193 151.26 63.0199 151.305 62.827C151.474 62.9106 151.643 63.0006 151.812 63.0778C152.205 63.2643 152.621 63.4315 153.083 63.5537C153.206 63.5859 153.274 63.5859 153.33 63.4894C153.578 63.0842 153.668 62.6662 153.679 62.2417C154.027 62.3961 154.365 62.5569 154.725 62.6983C155.512 63.0199 156.345 63.3029 157.256 63.5023C157.301 63.5151 157.346 63.5408 157.391 63.5151C157.436 63.4894 157.391 63.4637 157.368 63.4379C157.177 63.1292 156.896 62.8398 156.615 62.5569C156.21 62.1517 155.703 61.7851 155.208 61.4185C155.85 61.4185 156.491 61.3735 157.109 61.2642C157.571 61.187 157.571 61.1806 157.334 60.9426C157.008 60.6082 156.592 60.3123 156.131 60.0358C156.659 59.9908 157.188 59.9651 157.717 59.9072C158.572 59.8171 159.415 59.6821 160.225 59.4891C160.27 59.4763 160.349 59.4698 160.349 59.4313C160.349 59.3927 160.27 59.3927 160.225 59.3798C159.145 59.1033 158.009 58.9618 156.851 58.8717C156.615 58.8524 156.367 58.8782 156.142 58.8203C156.3 58.7174 156.468 58.6145 156.615 58.5116C156.941 58.2865 157.233 58.0485 157.458 57.7849C157.526 57.7077 157.514 57.6627 157.346 57.6305C156.659 57.4955 155.951 57.4376 155.22 57.4376C155.546 57.1932 155.895 56.9552 156.187 56.698C156.648 56.2992 157.076 55.8876 157.368 55.431C157.391 55.4053 157.447 55.3731 157.391 55.341C157.334 55.3088 157.278 55.3474 157.233 55.3538C156.491 55.5146 155.805 55.7397 155.141 55.9841C154.646 56.1642 154.196 56.3828 153.724 56.5886C153.724 56.2221 153.645 55.8555 153.454 55.5018C153.319 55.2381 153.308 55.2381 152.891 55.3731C152.306 55.5596 151.789 55.7976 151.305 56.0613C151.204 55.9841 151.272 55.8876 151.26 55.804C151.159 55.3924 151.058 54.9808 150.867 54.5821C150.721 54.2798 150.574 53.984 150.327 53.701C150.316 53.6817 150.316 53.6431 150.259 53.6496C150.214 53.6496 150.192 53.6753 150.169 53.701C150.113 53.7782 150.046 53.8618 150.001 53.939C149.562 54.6142 149.326 55.3153 149.202 56.0356C149.033 55.9519 148.865 55.8619 148.696 55.7847C148.302 55.5982 147.886 55.431 147.425 55.3088C147.301 55.2767 147.234 55.2767 147.177 55.3731C146.93 55.7783 146.84 56.1963 146.829 56.6208C146.48 56.4665 146.143 56.3057 145.783 56.1642C144.995 55.8426 144.163 55.5596 143.252 55.3603C143.207 55.3474 143.162 55.3281 143.117 55.3538C143.072 55.3796 143.117 55.4053 143.139 55.431C143.331 55.7461 143.612 56.0356 143.904 56.3185C144.309 56.7173 144.804 57.0839 145.299 57.444C144.647 57.444 144.005 57.4955 143.376 57.5984C142.937 57.6691 142.937 57.6884 143.151 57.9071C143.488 58.2415 143.904 58.5437 144.365 58.8267C144.298 58.8332 144.23 58.8524 144.174 58.8524C143.42 58.8653 142.678 58.9553 141.947 59.0582C141.362 59.1419 140.788 59.2383 140.249 59.3927C140.215 59.4055 140.159 59.3991 140.159 59.4377C140.159 59.4698 140.215 59.4763 140.249 59.4827C140.429 59.5277 140.62 59.5728 140.8 59.6113C141.947 59.8557 143.151 59.9715 144.365 60.0422C144.208 60.1451 144.039 60.248 143.893 60.3509C143.567 60.576 143.274 60.814 143.049 61.0777C142.982 61.1548 142.993 61.1999 143.162 61.232C143.848 61.3671 144.557 61.425 145.288 61.425C145.243 61.4571 145.198 61.4828 145.164 61.515C145.13 61.5214 145.074 61.5214 145.051 61.5471H145.04V61.5536C144.332 61.7851 143.623 62.0231 142.903 62.2482C142.363 62.4218 141.812 62.589 141.227 62.7112C140.833 62.7948 140.597 62.7434 140.462 62.6019C139.731 61.8366 139.247 61.0391 139.079 60.1837C139.056 60.0744 139.112 59.9586 139 59.8622C139 59.5792 139 59.2898 139 59.0068C139.056 58.9939 139.045 58.9682 139.045 58.9425C139.034 58.711 139.112 58.4794 139.18 58.2543C139.36 57.7141 139.652 57.1868 140.069 56.6851C140.8 55.804 141.835 55.0644 143.139 54.447C144.062 54.0097 145.108 53.6689 146.233 53.4245C147.099 53.238 147.987 53.1093 148.91 53.045C149.123 53.0322 149.348 53.0579 149.551 53Z" fill="#39B002"/>
<path d="M146.818 56.6143C146.818 56.1898 146.908 55.7718 147.166 55.3666C147.223 55.2702 147.29 55.2702 147.414 55.3023C147.875 55.4245 148.291 55.5917 148.685 55.7782C148.854 55.8618 149.022 55.9455 149.191 56.0291C149.607 56.2992 149.99 56.5821 150.271 56.9359C150.541 56.595 150.912 56.3185 151.306 56.0548C151.789 55.7911 152.307 55.5531 152.892 55.3666C153.308 55.2316 153.319 55.2316 153.454 55.4953C153.645 55.849 153.724 56.2091 153.724 56.5821C153.724 56.8844 153.645 57.1803 153.499 57.4697C153.443 57.5919 153.454 57.5983 153.679 57.5597C154.005 57.5083 154.343 57.4568 154.691 57.4568C154.748 57.4825 154.77 57.4697 154.781 57.4375C154.928 57.4375 155.074 57.4311 155.22 57.4311C155.951 57.4311 156.66 57.489 157.346 57.624C157.515 57.6562 157.526 57.7012 157.458 57.7784C157.233 58.042 156.952 58.2864 156.615 58.5051C156.457 58.608 156.3 58.7109 156.142 58.8138C156.109 58.8267 156.086 58.8331 156.052 58.846C155.94 58.8074 155.94 58.8588 155.917 58.9038C155.794 58.981 155.659 59.0518 155.479 59.0968C155.355 59.0903 155.242 59.1032 155.254 59.1932C155.175 59.219 155.107 59.2447 155.029 59.2704C154.883 59.2511 154.624 59.3219 154.545 59.399C154.545 59.4119 154.545 59.4248 154.545 59.4376C154.613 59.5148 154.871 59.5855 155.029 59.5663C155.107 59.592 155.175 59.6177 155.254 59.6434C155.265 59.7077 155.276 59.7656 155.434 59.7142C155.692 59.7978 155.906 59.92 156.131 60.0229C156.592 60.2994 157.008 60.5953 157.335 60.9297C157.571 61.1676 157.571 61.1741 157.11 61.2512C156.491 61.3606 155.861 61.4056 155.209 61.4056C155.074 61.4056 154.939 61.3992 154.815 61.3992C154.793 61.3541 154.748 61.3477 154.68 61.3799C154.253 61.3799 153.848 61.322 153.454 61.232C153.443 61.1869 153.42 61.1419 153.319 61.1291C153.319 61.1162 153.319 61.1033 153.319 61.0905C153.319 61.0583 153.297 61.0326 153.24 61.0262C153.038 60.8011 152.824 60.576 152.622 60.3509C152.622 60.3123 152.61 60.2801 152.532 60.2737C152.532 60.2351 152.52 60.2029 152.442 60.1965C152.307 60.1065 152.183 60.01 152.048 59.92C152.115 59.8364 152.003 59.8557 151.924 59.8428C151.846 59.7913 151.846 59.7721 151.981 59.7656C152.183 59.7592 152.385 59.7399 152.588 59.727C153.105 59.6884 153.611 59.592 154.118 59.5148C154.174 59.5405 154.196 59.5277 154.208 59.4955C154.286 59.4698 154.365 59.4505 154.478 59.4183C154.365 59.3862 154.286 59.3605 154.208 59.3412C154.196 59.309 154.174 59.2961 154.118 59.3219C153.42 59.1997 152.712 59.0968 151.981 59.0646C151.823 59.0582 151.981 59.0132 152.003 58.9874C152.037 59.0067 152.071 59.0196 152.115 58.9939C152.16 58.9681 152.138 58.9424 152.104 58.9167C152.239 58.8267 152.363 58.7302 152.498 58.6402C152.61 58.6144 152.757 58.5951 152.678 58.4858C152.88 58.2671 153.083 58.0485 153.285 57.8298C153.42 57.7977 153.432 57.7784 153.342 57.7333C153.353 57.7076 153.398 57.6755 153.353 57.6497C153.297 57.6176 153.24 57.6433 153.195 57.6562C152.43 57.8427 151.711 58.0678 151.092 58.3893C151.047 58.4086 151.002 58.4472 150.946 58.4279C150.889 58.4151 150.923 58.3765 150.912 58.3507C150.844 58.0806 150.788 57.8041 150.642 57.5404C150.541 57.3475 150.44 57.1481 150.271 56.9487C149.9 57.4439 149.697 57.9456 149.618 58.4729C149.517 58.4344 149.45 58.4086 149.393 58.3765C148.786 58.0613 148.077 57.8362 147.335 57.6562C147.29 57.6433 147.245 57.6112 147.2 57.6497C147.166 57.6755 147.211 57.7076 147.223 57.7333C147.493 58.1064 147.83 58.4536 148.269 58.7752C148.392 58.8652 148.572 58.9296 148.64 59.0582C147.74 59.0903 146.885 59.2061 146.008 59.4183C146.874 59.6306 147.717 59.7335 148.629 59.7785C148.561 59.8364 148.516 59.875 148.46 59.9071C147.897 60.2608 147.504 60.6724 147.178 61.1098C147.155 61.1355 147.121 61.1676 147.166 61.1869C147.211 61.2062 147.268 61.1869 147.313 61.1805C147.425 61.2512 147.459 61.1998 147.481 61.1483C147.864 61.0326 148.246 60.9168 148.629 60.8011C148.809 60.8525 148.842 60.7689 148.899 60.6982C149.056 60.621 149.225 60.5502 149.382 60.4731C149.45 60.5181 149.528 60.4795 149.596 60.4731C149.641 60.621 149.686 60.7689 149.72 60.9168C149.776 61.1483 149.945 61.3606 150.001 61.5921C150.001 61.6307 149.99 61.6693 150.08 61.6821C150.125 61.7465 150.17 61.8172 150.215 61.8815C150.057 61.9523 149.967 62.0359 149.99 62.1581C149.945 62.2031 149.9 62.2417 149.855 62.2867C149.742 62.2931 149.641 62.2995 149.731 62.3896C149.596 62.5439 149.371 62.6533 149.191 62.7883C148.707 63.052 148.19 63.29 147.605 63.4765C147.088 63.6372 147.178 63.5858 147.043 63.3478C146.851 62.9941 146.773 62.634 146.773 62.261C146.773 62.1838 146.784 62.1066 146.784 62.0359C146.863 62.023 146.874 61.9973 146.818 61.9587C146.806 61.7657 146.896 61.5792 146.986 61.3927C147.054 61.2512 147.043 61.2384 146.806 61.2834C146.311 61.367 145.794 61.412 145.277 61.412C144.546 61.412 143.837 61.3541 143.151 61.2191C142.982 61.1869 142.971 61.1419 143.038 61.0647C143.263 60.8011 143.544 60.5567 143.882 60.338C144.039 60.2351 144.197 60.1322 144.354 60.0293C144.838 59.7978 145.333 59.5727 145.952 59.4248C145.322 59.2704 144.827 59.0518 144.354 58.8202C143.893 58.5437 143.477 58.2414 143.14 57.9006C142.915 57.6755 142.926 57.6626 143.364 57.5919C143.994 57.489 144.636 57.4375 145.288 57.4375C145.907 57.4375 146.503 57.5018 147.121 57.6112C146.93 57.2767 146.818 56.9552 146.818 56.6143Z" fill="#FA40ED"/>
<path d="M149.99 62.171C149.956 62.0552 150.057 61.9652 150.214 61.8945C150.417 61.708 150.496 61.4957 150.608 61.2899C150.766 60.9941 150.833 60.6918 150.889 60.3831C151.013 60.4024 151.092 60.4539 151.171 60.4924C151.778 60.7947 152.464 61.0134 153.206 61.1935C153.308 61.2192 153.341 61.1999 153.33 61.142C153.431 61.1549 153.454 61.1935 153.465 61.2449C153.353 61.2642 153.42 61.3092 153.443 61.3349C153.6 61.6308 153.69 61.9395 153.701 62.2482C153.701 62.6726 153.611 63.0907 153.353 63.4958C153.296 63.5923 153.24 63.5923 153.105 63.5602C152.644 63.438 152.228 63.2708 151.834 63.0842C151.665 63.0006 151.497 62.917 151.328 62.8334C150.912 62.5633 150.529 62.2803 150.248 61.9395C150.136 62.0167 150.057 62.0938 149.99 62.171Z" fill="#FA40ED"/>
<path d="M156.142 60.0359C155.906 59.933 155.703 59.8108 155.445 59.7272C155.411 59.6886 155.332 59.6757 155.265 59.6564C155.186 59.6307 155.118 59.605 155.04 59.5792C154.893 59.5149 154.736 59.4699 154.556 59.4506C154.556 59.4378 154.556 59.4249 154.556 59.412C154.736 59.3927 154.893 59.3413 155.04 59.2834C155.118 59.2577 155.186 59.232 155.265 59.2062C155.355 59.1869 155.433 59.1548 155.49 59.1098C155.658 59.0647 155.793 58.994 155.928 58.9168C155.985 58.9104 156.03 58.8911 156.063 58.8589C156.097 58.8461 156.12 58.8396 156.153 58.8268C156.378 58.8847 156.626 58.8589 156.862 58.8782C158.02 58.9683 159.156 59.1098 160.236 59.3863C160.281 59.3992 160.36 59.3992 160.36 59.4378C160.36 59.4763 160.281 59.4828 160.236 59.4956C159.426 59.6886 158.594 59.8236 157.728 59.9137C157.188 59.9651 156.659 59.9908 156.142 60.0359Z" fill="#FA9EF4"/>
<path d="M144.354 58.8268C144.838 59.0583 145.321 59.2834 145.951 59.4313C145.321 59.5857 144.838 59.8108 144.354 60.0359C143.139 59.9651 141.936 59.8494 140.788 59.605C140.597 59.5664 140.417 59.5214 140.237 59.4763C140.203 59.4699 140.147 59.457 140.147 59.4313C140.147 59.3992 140.203 59.3992 140.237 59.3863C140.777 59.232 141.351 59.1355 141.936 59.0519C142.667 58.949 143.409 58.8654 144.163 58.8461C144.23 58.8525 144.298 58.8332 144.354 58.8268Z" fill="#FA9EF4"/>
<path d="M151.306 56.0677C150.912 56.3314 150.541 56.608 150.271 56.9488C149.99 56.6015 149.607 56.3121 149.191 56.042C149.315 55.3281 149.551 54.6207 149.99 53.9454C150.046 53.8618 150.102 53.7846 150.158 53.7075C150.181 53.6817 150.192 53.6624 150.248 53.656C150.304 53.656 150.304 53.6882 150.316 53.7075C150.563 53.9904 150.709 54.2863 150.856 54.5885C151.047 54.9873 151.159 55.3989 151.249 55.8105C151.283 55.8941 151.216 55.9841 151.306 56.0677Z" fill="#FA9EF4"/>
<path d="M149.99 62.1709C150.068 62.0938 150.147 62.023 150.237 61.933C150.507 62.2738 150.889 62.5568 151.317 62.8269C151.272 63.0199 151.227 63.2192 151.182 63.4122C151.058 63.9267 150.844 64.4219 150.518 64.9042C150.462 64.9878 150.394 65.0714 150.338 65.155C150.327 65.1743 150.304 65.2065 150.259 65.2065C150.203 65.2065 150.203 65.1743 150.181 65.155C149.911 64.8463 149.742 64.5184 149.596 64.1839C149.416 63.7659 149.27 63.3414 149.236 62.9105C149.236 62.8719 149.202 62.8398 149.191 62.8012C149.371 62.6661 149.596 62.5504 149.731 62.4025C149.798 62.3832 149.821 62.3382 149.855 62.2996C149.9 62.2545 149.945 62.2095 149.99 62.1709Z" fill="#FA9EF4"/>
<path d="M146.818 56.6143C146.818 56.9488 146.93 57.2767 147.121 57.6176C146.503 57.5083 145.906 57.4375 145.288 57.444C144.793 57.0838 144.298 56.7172 143.893 56.3185C143.601 56.0291 143.319 55.7397 143.128 55.431C143.117 55.4052 143.072 55.3795 143.106 55.3538C143.151 55.3281 143.196 55.3538 143.241 55.3602C144.152 55.5532 144.984 55.8426 145.772 56.1641C146.131 56.3056 146.469 56.4664 146.818 56.6143Z" fill="#FA9EF4"/>
<path d="M153.679 62.2481C153.668 61.933 153.589 61.6307 153.42 61.3349C153.409 61.3091 153.33 61.2641 153.443 61.2448C153.836 61.3348 154.241 61.3927 154.669 61.3927C154.702 61.4185 154.747 61.4185 154.804 61.412C154.939 61.412 155.074 61.4185 155.197 61.4185C155.692 61.785 156.198 62.1516 156.603 62.5568C156.885 62.8398 157.166 63.1292 157.357 63.4379C157.368 63.4636 157.413 63.4893 157.38 63.515C157.335 63.5408 157.29 63.515 157.245 63.5022C156.333 63.3092 155.501 63.0198 154.714 62.6983C154.365 62.5568 154.028 62.396 153.679 62.2481Z" fill="#FA9EF4"/>
<path d="M146.784 62.0424C146.784 62.1196 146.773 62.1967 146.773 62.2675C146.379 62.4411 145.974 62.6083 145.592 62.7948C145.232 62.9106 144.872 63.0328 144.523 63.1486C144.141 63.2772 143.736 63.3929 143.319 63.483C143.252 63.4958 143.184 63.5409 143.117 63.5087C143.038 63.4701 143.117 63.4187 143.139 63.3801C143.454 62.9492 143.837 62.544 144.298 62.1646C144.5 61.9974 144.714 61.843 144.917 61.6822C144.973 61.6436 145.018 61.5986 145.018 61.5472V61.5407H145.029C145.085 61.5407 145.119 61.5279 145.142 61.5086C145.187 61.4764 145.232 61.4507 145.265 61.4185C145.783 61.4185 146.289 61.3735 146.795 61.2899C147.031 61.2513 147.043 61.2578 146.975 61.3993C146.885 61.5858 146.795 61.7658 146.806 61.9652C146.784 61.9909 146.773 62.0167 146.784 62.0424Z" fill="#FA9EF4"/>
<path d="M155.22 57.4439C155.073 57.4439 154.927 57.4503 154.781 57.4503C154.747 57.4503 154.713 57.4503 154.691 57.4696C154.342 57.4696 154.016 57.5211 153.679 57.5725C153.454 57.6047 153.442 57.6047 153.499 57.4825C153.645 57.1931 153.724 56.8972 153.724 56.595C154.196 56.3956 154.646 56.1769 155.141 55.9904C155.805 55.746 156.491 55.5209 157.233 55.3602C157.278 55.3473 157.334 55.3151 157.391 55.3473C157.447 55.3794 157.379 55.4116 157.368 55.4373C157.076 55.8875 156.648 56.2991 156.187 56.7043C155.883 56.9615 155.535 57.1995 155.22 57.4439Z" fill="#FA9EF4"/>
<path d="M145.153 61.5085C145.13 61.5342 145.096 61.5471 145.04 61.5406C145.063 61.5149 145.119 61.5149 145.153 61.5085Z" fill="#FEFEFE"/>
<path d="M153.319 61.142C153.33 61.1999 153.296 61.2192 153.195 61.1934C152.453 61.0134 151.767 60.7947 151.159 60.4924C151.081 60.4538 151.002 60.4024 150.878 60.3831C150.822 60.6918 150.754 60.9941 150.597 61.2899C150.484 61.4957 150.406 61.7079 150.203 61.8944C150.158 61.8301 150.113 61.7594 150.068 61.6951C150.08 61.6565 150.035 61.6308 149.99 61.605C149.933 61.3735 149.753 61.1613 149.708 60.9298C149.675 60.7818 149.63 60.6339 149.585 60.486C149.585 60.4603 149.585 60.4346 149.585 60.4088C149.573 60.3895 149.551 60.396 149.54 60.4088C149.472 60.4281 149.405 60.4474 149.371 60.486C149.213 60.5632 149.045 60.6339 148.887 60.7111C148.786 60.7304 148.696 60.7625 148.617 60.814C148.235 60.9298 147.852 61.0455 147.47 61.1613C147.414 61.1741 147.357 61.187 147.301 61.1934C147.256 61.1999 147.2 61.2256 147.155 61.1999C147.11 61.1741 147.144 61.1484 147.166 61.1227C147.492 60.6854 147.886 60.2738 148.449 59.92C148.505 59.8879 148.539 59.8493 148.617 59.7914C147.706 59.7464 146.863 59.6435 145.996 59.4313C146.874 59.219 147.729 59.1097 148.629 59.0711C148.561 58.9425 148.381 58.8782 148.257 58.7881C147.83 58.4666 147.492 58.1193 147.211 57.7463C147.189 57.7206 147.144 57.6948 147.189 57.6627C147.234 57.6305 147.279 57.6627 147.324 57.6691C148.077 57.8492 148.786 58.0743 149.382 58.3894C149.438 58.4216 149.506 58.4409 149.607 58.4859C149.686 57.9521 149.888 57.4569 150.259 56.9617C150.439 57.161 150.529 57.3604 150.631 57.5533C150.777 57.817 150.833 58.0871 150.901 58.3637C150.912 58.3894 150.878 58.428 150.934 58.4409C150.991 58.4537 151.047 58.4216 151.081 58.4023C151.699 58.0807 152.419 57.8556 153.184 57.6691C153.24 57.6562 153.296 57.6305 153.341 57.6627C153.386 57.6884 153.341 57.7206 153.33 57.7463C153.308 57.7784 153.285 57.8106 153.274 57.8428C153.072 58.0614 152.869 58.2801 152.667 58.4987C152.577 58.5373 152.52 58.5888 152.487 58.6531C152.352 58.7431 152.228 58.8396 152.093 58.9296C152.048 58.9425 152.014 58.9682 152.003 59.0004C151.992 59.0261 151.823 59.0711 151.98 59.0776C152.712 59.1097 153.42 59.2126 154.118 59.3348C154.14 59.3541 154.174 59.3541 154.208 59.3541C154.286 59.3798 154.365 59.3991 154.478 59.4313C154.365 59.4634 154.286 59.4892 154.208 59.5084C154.174 59.5084 154.14 59.5084 154.118 59.5277C153.611 59.6049 153.116 59.7078 152.588 59.74C152.385 59.7528 152.183 59.7721 151.98 59.7786C151.845 59.785 151.845 59.8043 151.924 59.8557C151.947 59.8879 151.992 59.9136 152.048 59.9329C152.183 60.0229 152.307 60.1194 152.442 60.2095C152.453 60.2416 152.475 60.2673 152.532 60.2866C152.532 60.3188 152.565 60.3445 152.622 60.3638C152.824 60.5889 153.038 60.814 153.24 61.0391C153.24 61.0712 153.274 61.0905 153.319 61.1034C153.319 61.1163 153.319 61.1291 153.319 61.142ZM150.698 59.1933C150.844 58.9682 150.923 58.756 150.901 58.5052C150.619 58.6724 150.428 58.8267 150.237 59.0197C150.08 58.8267 149.9 58.6788 149.63 58.5373C149.618 58.7753 149.708 58.9875 149.832 59.2062C149.461 59.1226 149.112 59.084 148.707 59.0776C148.955 59.2319 149.225 59.3284 149.528 59.4248C149.202 59.5213 148.921 59.6178 148.674 59.7786C149.078 59.7914 149.427 59.74 149.787 59.6757C149.641 59.8943 149.562 60.113 149.585 60.3638C149.866 60.203 150.057 60.0422 150.237 59.8493C150.406 60.0358 150.574 60.1902 150.844 60.3252C150.856 60.0873 150.766 59.8815 150.642 59.6564C151.013 59.74 151.362 59.7786 151.755 59.785C151.508 59.6306 151.238 59.5406 150.934 59.4377C151.272 59.3477 151.542 59.2448 151.8 59.084C151.418 59.0776 151.069 59.1226 150.698 59.1933Z" fill="#FA9EF4"/>
<path d="M155.04 59.2768C154.893 59.3411 154.736 59.3861 154.556 59.4054C154.624 59.3347 154.882 59.2639 155.04 59.2768Z" fill="#FA40ED"/>
<path d="M154.556 59.4506C154.736 59.4699 154.893 59.5213 155.04 59.5792C154.882 59.5985 154.624 59.5342 154.556 59.4506Z" fill="#FA40ED"/>
<path d="M152.486 58.653C152.52 58.5951 152.576 58.5437 152.666 58.4987C152.745 58.608 152.599 58.6209 152.486 58.653Z" fill="#FA40ED"/>
<path d="M148.617 60.814C148.685 60.7625 148.775 60.7304 148.887 60.7111C148.831 60.7754 148.808 60.859 148.617 60.814Z" fill="#FA40ED"/>
<path d="M149.585 60.4088C149.585 60.4345 149.585 60.4603 149.585 60.486C149.517 60.486 149.438 60.531 149.371 60.486C149.405 60.4474 149.472 60.4281 149.54 60.4088C149.551 60.4088 149.573 60.4088 149.585 60.4088Z" fill="#FA40ED"/>
<path d="M155.49 59.1097C155.433 59.1547 155.355 59.1869 155.265 59.2062C155.253 59.1097 155.355 59.1033 155.49 59.1097Z" fill="#FA40ED"/>
<path d="M149.854 62.2932C149.821 62.3318 149.798 62.3704 149.731 62.3961C149.641 62.3125 149.742 62.2996 149.854 62.2932Z" fill="#FA40ED"/>
<path d="M155.254 59.6564C155.321 59.6757 155.389 59.6885 155.434 59.7271C155.287 59.7786 155.265 59.7207 155.254 59.6564Z" fill="#FA40ED"/>
<path d="M151.992 58.9939C152.003 58.9617 152.037 58.9425 152.082 58.9232C152.127 58.9489 152.138 58.9682 152.093 59.0003C152.07 59.0261 152.025 59.0132 151.992 58.9939Z" fill="#FA40ED"/>
<path d="M153.274 57.8491C153.296 57.8169 153.319 57.7848 153.33 57.7526C153.409 57.7976 153.398 57.8169 153.274 57.8491Z" fill="#FA40ED"/>
<path d="M147.301 61.1935C147.357 61.1806 147.414 61.1742 147.47 61.1613C147.447 61.2128 147.414 61.2642 147.301 61.1935Z" fill="#FA40ED"/>
<path d="M152.048 59.9329C151.992 59.9136 151.947 59.8879 151.924 59.8557C151.992 59.8686 152.116 59.8493 152.048 59.9329Z" fill="#FA40ED"/>
<path d="M156.052 58.8524C156.018 58.8846 155.973 58.8974 155.917 58.9103C155.94 58.8717 155.928 58.8202 156.052 58.8524Z" fill="#FA40ED"/>
<path d="M146.784 62.0424C146.773 62.0167 146.784 61.9845 146.818 61.9652C146.874 62.0038 146.862 62.0295 146.784 62.0424Z" fill="#FA40ED"/>
<path d="M154.815 61.412C154.77 61.4184 154.714 61.412 154.68 61.3927C154.747 61.3606 154.792 61.367 154.815 61.412Z" fill="#FA40ED"/>
<path d="M152.532 60.2866C152.475 60.2738 152.453 60.2481 152.442 60.2095C152.52 60.2159 152.532 60.2481 152.532 60.2866Z" fill="#FA40ED"/>
<path d="M152.622 60.3637C152.565 60.3444 152.543 60.3187 152.532 60.2866C152.61 60.293 152.622 60.3251 152.622 60.3637Z" fill="#FA40ED"/>
<path d="M149.99 61.605C150.035 61.6308 150.068 61.6565 150.068 61.6951C149.99 61.6758 149.99 61.6436 149.99 61.605Z" fill="#FA40ED"/>
<path d="M153.319 61.1033C153.274 61.0905 153.24 61.0712 153.24 61.039C153.296 61.0454 153.319 61.0712 153.319 61.1033Z" fill="#FA40ED"/>
<path d="M154.68 57.4697C154.702 57.4504 154.736 57.4504 154.77 57.4504C154.759 57.4826 154.736 57.4955 154.68 57.4697Z" fill="#FA40ED"/>
<path d="M154.207 59.3541C154.174 59.3541 154.14 59.3541 154.117 59.3348C154.162 59.3026 154.185 59.3219 154.207 59.3541Z" fill="#FA40ED"/>
<path d="M154.117 59.5277C154.14 59.5084 154.174 59.5084 154.207 59.5084C154.185 59.5405 154.162 59.5598 154.117 59.5277Z" fill="#FA40ED"/>
<path d="M150.698 59.1933C151.069 59.1225 151.418 59.0775 151.823 59.0839C151.564 59.2383 151.283 59.3476 150.957 59.4377C151.261 59.5406 151.542 59.6306 151.778 59.7849C151.384 59.7849 151.036 59.7464 150.664 59.6563C150.799 59.8814 150.889 60.0872 150.867 60.3252C150.597 60.1837 150.428 60.0358 150.26 59.8493C150.08 60.0422 149.888 60.1965 149.607 60.3638C149.585 60.1129 149.663 59.9007 149.81 59.6756C149.45 59.7399 149.101 59.7914 148.696 59.7785C148.955 59.6242 149.236 59.5213 149.551 59.4248C149.247 59.3283 148.977 59.2319 148.73 59.0775C149.135 59.0775 149.483 59.1161 149.855 59.2061C149.72 58.981 149.63 58.7752 149.652 58.5373C149.911 58.6788 150.091 58.8267 150.26 59.0196C150.439 58.8267 150.642 58.6659 150.923 58.5051C150.923 58.7495 150.844 58.9682 150.698 59.1933ZM150.293 59.3798C150.282 59.2897 150.338 59.1868 150.203 59.1032C150.203 59.1933 150.203 59.2897 150.203 59.3798C150.046 59.4312 149.855 59.3798 149.686 59.4377C149.855 59.4505 150.035 59.4634 150.203 59.4762C150.215 59.5663 150.158 59.6692 150.26 59.7528C150.248 59.6628 150.383 59.5599 150.203 59.4762C150.203 59.4441 150.237 59.4055 150.203 59.3733C150.237 59.3798 150.26 59.3798 150.293 59.3798C150.428 59.5277 150.642 59.4248 150.799 59.4505C150.799 59.4377 150.811 59.4312 150.811 59.4184C150.642 59.4055 150.462 59.3926 150.293 59.3798ZM149.888 59.6242C149.9 59.6242 149.9 59.6306 149.911 59.6242V59.6177C149.9 59.6177 149.9 59.6177 149.9 59.6177C149.888 59.6113 149.888 59.6177 149.888 59.6242ZM150.608 59.2447V59.2383C150.597 59.2383 150.597 59.2383 150.586 59.2447V59.2512C150.597 59.2512 150.608 59.2512 150.608 59.2447Z" fill="#FA40ED"/>
<path d="M149.583 60.4078C149.572 60.4078 149.55 60.4078 149.54 60.4078C149.55 60.3963 149.572 60.3963 149.583 60.4078Z" fill="#FA40ED"/>
<path d="M150.203 59.3798C150.237 59.412 150.203 59.4506 150.203 59.4827C150.034 59.4699 149.855 59.457 149.686 59.4441C149.855 59.3798 150.046 59.4313 150.203 59.3798Z" fill="#FA9BF4"/>
<path d="M150.293 59.3798C150.462 59.3927 150.642 59.4055 150.811 59.4184C150.811 59.4313 150.799 59.4377 150.799 59.4506C150.631 59.4248 150.417 59.5342 150.293 59.3798Z" fill="#FA9BF4"/>
<path d="M150.203 59.3797C150.203 59.2897 150.203 59.1932 150.203 59.1031C150.327 59.1932 150.27 59.2897 150.293 59.3797C150.259 59.3797 150.237 59.3797 150.203 59.3797Z" fill="#FA9BF4"/>
<path d="M150.203 59.4827C150.383 59.5663 150.248 59.6692 150.259 59.7593C150.169 59.6692 150.225 59.5728 150.203 59.4827Z" fill="#FA9BF4"/>
<path d="M149.888 59.6226V59.6179H149.898V59.6226H149.888Z" fill="#FA9BF4"/>
<path d="M150.608 59.2442C150.597 59.2442 150.597 59.2442 150.586 59.2502V59.2442C150.586 59.2442 150.597 59.2442 150.608 59.2383V59.2442Z" fill="#FA9BF4"/>
<path d="M179.626 71C174.864 71 171 73.2095 171 75.932C171 76.8148 171.405 77.6434 172.113 78.3586L175.813 77.456L176.952 78.107L174.692 79.9368C174.692 79.9368 174.718 79.9911 174.778 80.0108C176.158 80.5484 177.823 80.8591 179.617 80.8591C184.379 80.8591 188.243 78.6495 188.243 75.9271C188.252 73.2095 184.387 71 179.626 71Z" fill="#39B002"/>
<path d="M179.091 71C179.453 71 179.807 71 180.169 71C180.187 71.0296 180.238 71.0197 180.273 71.0197C180.523 71.0148 180.773 71.0395 181.015 71.0641C181.808 71.143 182.576 71.2762 183.309 71.4735C184.491 71.7891 185.483 72.2429 186.311 72.815C186.898 73.2243 187.355 73.6781 187.683 74.1762C187.933 74.556 188.105 74.9456 188.191 75.35C188.209 75.4437 188.174 75.5375 188.252 75.6262C188.252 75.8383 188.252 76.0504 188.252 76.2625C188.209 76.2723 188.217 76.292 188.217 76.3118C188.226 76.4893 188.166 76.6669 188.105 76.8395C187.967 77.2538 187.743 77.6582 187.424 78.0429C186.872 78.7186 186.078 79.2858 185.078 79.7593C184.362 80.0946 183.568 80.356 182.697 80.5434C182.033 80.6865 181.351 80.7851 180.644 80.8344C180.48 80.8443 180.316 80.8246 180.161 80.869C179.79 80.869 179.419 80.869 179.048 80.869C179.039 80.8492 179.005 80.8492 178.979 80.8492C178.461 80.8394 177.961 80.7851 177.461 80.7111C176.503 80.5681 175.606 80.3412 174.787 80.0206C174.735 80.0009 174.709 79.9812 174.692 79.9417C174.632 79.7642 174.787 79.631 174.925 79.4929C175.27 79.1575 175.658 78.837 176.046 78.5164C176.331 78.3684 176.65 78.2451 176.952 78.112C176.952 78.3931 177.012 78.6742 177.159 78.9455C177.262 79.128 177.193 79.1674 177.59 79.0441C178.039 78.906 178.436 78.7186 178.806 78.5164C178.815 78.546 178.841 78.5706 178.841 78.6002C178.858 78.9307 178.979 79.2562 179.117 79.5768C179.229 79.8332 179.359 80.0848 179.566 80.3215C179.583 80.3363 179.574 80.361 179.626 80.361C179.669 80.361 179.678 80.3363 179.686 80.3215C179.738 80.2574 179.781 80.1933 179.824 80.1292C180.066 79.7593 180.23 79.3746 180.333 78.9849C180.368 78.837 180.402 78.6841 180.437 78.5361C180.566 78.6002 180.696 78.6693 180.825 78.7285C181.127 78.8715 181.446 78.9997 181.8 79.0934C181.895 79.1181 181.946 79.1181 181.989 79.0441C182.179 78.7334 182.248 78.4128 182.257 78.0873C182.524 78.2057 182.783 78.329 183.059 78.4375C183.663 78.6841 184.301 78.9011 185 79.054C185.034 79.0638 185.069 79.0836 185.103 79.0638C185.138 79.0441 185.103 79.0244 185.086 79.0047C184.94 78.7679 184.724 78.546 184.508 78.329C184.198 78.0183 183.81 77.7371 183.43 77.456C183.922 77.456 184.413 77.4215 184.888 77.3376C185.241 77.2785 185.241 77.2735 185.06 77.091C184.81 76.8346 184.491 76.6077 184.137 76.3956C184.543 76.3611 184.948 76.3414 185.354 76.297C186.009 76.2279 186.656 76.1244 187.277 75.9764C187.312 75.9665 187.372 75.9616 187.372 75.932C187.372 75.9024 187.312 75.9024 187.277 75.8926C186.449 75.6805 185.578 75.572 184.689 75.5029C184.508 75.4881 184.318 75.5079 184.146 75.4635C184.267 75.3846 184.396 75.3056 184.508 75.2267C184.758 75.0541 184.983 74.8716 185.155 74.6694C185.207 74.6102 185.198 74.5757 185.069 74.551C184.543 74.4475 183.999 74.4031 183.439 74.4031C183.689 74.2157 183.956 74.0332 184.18 73.8359C184.534 73.5301 184.862 73.2145 185.086 72.8643C185.103 72.8446 185.147 72.8199 185.103 72.7953C185.06 72.7706 185.017 72.8002 184.983 72.8051C184.413 72.9284 183.887 73.101 183.378 73.2885C182.999 73.4265 182.654 73.5942 182.291 73.7521C182.291 73.4709 182.231 73.1898 182.084 72.9186C181.981 72.7163 181.972 72.7163 181.653 72.8199C181.204 72.9629 180.808 73.1454 180.437 73.3476C180.359 73.2885 180.411 73.2145 180.402 73.1504C180.325 72.8347 180.247 72.5191 180.1 72.2133C179.988 71.9815 179.876 71.7546 179.686 71.5376C179.678 71.5228 179.678 71.4932 179.635 71.4981C179.6 71.4981 179.583 71.5179 179.566 71.5376C179.522 71.5968 179.471 71.6609 179.436 71.7201C179.1 72.2379 178.919 72.7755 178.824 73.3279C178.694 73.2638 178.565 73.1947 178.436 73.1356C178.134 72.9925 177.814 72.8643 177.461 72.7706C177.366 72.7459 177.314 72.7459 177.271 72.8199C177.081 73.1306 177.012 73.4512 177.004 73.7767C176.736 73.6584 176.477 73.5351 176.201 73.4265C175.598 73.1799 174.959 72.9629 174.261 72.81C174.226 72.8002 174.192 72.7854 174.157 72.8051C174.123 72.8248 174.157 72.8446 174.174 72.8643C174.321 73.106 174.537 73.3279 174.761 73.5449C175.071 73.8507 175.451 74.1318 175.831 74.408C175.33 74.408 174.839 74.4475 174.355 74.5264C174.019 74.5806 174.019 74.5954 174.183 74.7631C174.442 75.0196 174.761 75.2514 175.115 75.4684C175.063 75.4733 175.011 75.4881 174.968 75.4881C174.39 75.498 173.821 75.567 173.26 75.646C172.811 75.7101 172.372 75.7841 171.957 75.9024C171.932 75.9123 171.888 75.9074 171.888 75.9369C171.888 75.9616 171.932 75.9665 171.957 75.9715C172.095 76.006 172.242 76.0405 172.38 76.0701C173.26 76.2575 174.183 76.3463 175.115 76.4006C174.994 76.4795 174.864 76.5584 174.752 76.6373C174.502 76.8099 174.278 76.9924 174.105 77.1946C174.054 77.2538 174.062 77.2883 174.192 77.313C174.718 77.4165 175.261 77.4609 175.822 77.4609C175.787 77.4856 175.753 77.5053 175.727 77.53C175.701 77.5349 175.658 77.5349 175.641 77.5546H175.632V77.5596C175.089 77.7371 174.545 77.9196 173.993 78.0922C173.579 78.2254 173.156 78.3536 172.708 78.4473C172.406 78.5115 172.225 78.472 172.121 78.3635C171.561 77.7766 171.19 77.165 171.06 76.5091C171.043 76.4252 171.086 76.3364 171 76.2625C171 76.0454 171 75.8235 171 75.6065C171.043 75.5966 171.035 75.5769 171.035 75.5572C171.026 75.3796 171.086 75.2021 171.138 75.0295C171.276 74.6152 171.5 74.2107 171.819 73.826C172.38 73.1504 173.174 72.5832 174.174 72.1097C174.882 71.7743 175.684 71.5129 176.546 71.3255C177.211 71.1825 177.892 71.0838 178.599 71.0345C178.763 71.0247 178.936 71.0444 179.091 71Z" fill="#39B002"/>
<path d="M176.995 73.7717C176.995 73.4462 177.064 73.1256 177.263 72.8149C177.306 72.7409 177.357 72.7409 177.452 72.7656C177.806 72.8593 178.125 72.9875 178.427 73.1306C178.556 73.1947 178.686 73.2588 178.815 73.3229C179.134 73.53 179.428 73.7471 179.643 74.0183C179.85 73.7569 180.135 73.5448 180.437 73.3426C180.808 73.1404 181.205 72.9579 181.653 72.8149C181.972 72.7113 181.981 72.7113 182.084 72.9135C182.231 73.1848 182.291 73.461 182.291 73.7471C182.291 73.9789 182.231 74.2057 182.119 74.4277C182.076 74.5214 182.084 74.5263 182.257 74.4967C182.507 74.4573 182.766 74.4178 183.033 74.4178C183.076 74.4375 183.094 74.4277 183.102 74.403C183.214 74.403 183.327 74.3981 183.439 74.3981C183.999 74.3981 184.543 74.4425 185.069 74.546C185.198 74.5707 185.207 74.6052 185.155 74.6644C184.983 74.8666 184.767 75.054 184.508 75.2217C184.388 75.3006 184.267 75.3796 184.146 75.4585C184.12 75.4683 184.103 75.4733 184.077 75.4831C183.991 75.4535 183.991 75.493 183.974 75.5275C183.879 75.5867 183.775 75.641 183.637 75.6755C183.542 75.6705 183.456 75.6804 183.465 75.7495C183.404 75.7692 183.352 75.7889 183.292 75.8086C183.18 75.7938 182.982 75.8481 182.921 75.9073C182.921 75.9171 182.921 75.927 182.921 75.9369C182.973 75.9961 183.171 76.0503 183.292 76.0355C183.352 76.0552 183.404 76.075 183.465 76.0947C183.473 76.144 183.482 76.1884 183.603 76.1489C183.801 76.2131 183.965 76.3068 184.137 76.3857C184.491 76.5978 184.81 76.8246 185.06 77.0811C185.242 77.2636 185.242 77.2685 184.888 77.3277C184.413 77.4115 183.93 77.4461 183.43 77.4461C183.327 77.4461 183.223 77.4411 183.128 77.4411C183.111 77.4066 183.076 77.4017 183.025 77.4263C182.697 77.4263 182.386 77.382 182.084 77.3129C182.076 77.2784 182.059 77.2439 181.981 77.234C181.981 77.2241 181.981 77.2143 181.981 77.2044C181.981 77.1797 181.964 77.16 181.921 77.1551C181.765 76.9825 181.601 76.8098 181.446 76.6372C181.446 76.6076 181.438 76.583 181.377 76.578C181.377 76.5484 181.368 76.5238 181.308 76.5188C181.205 76.4498 181.11 76.3758 181.006 76.3068C181.058 76.2427 180.972 76.2575 180.911 76.2476C180.851 76.2081 180.851 76.1933 180.954 76.1884C181.11 76.1835 181.265 76.1687 181.42 76.1588C181.817 76.1292 182.205 76.0552 182.593 75.9961C182.637 76.0158 182.654 76.0059 182.662 75.9813C182.723 75.9615 182.783 75.9467 182.869 75.9221C182.783 75.8974 182.723 75.8777 182.662 75.8629C182.654 75.8382 182.637 75.8284 182.593 75.8481C182.059 75.7544 181.515 75.6755 180.954 75.6508C180.834 75.6459 180.954 75.6114 180.972 75.5916C180.998 75.6064 181.023 75.6163 181.058 75.5966C181.092 75.5768 181.075 75.5571 181.049 75.5374C181.153 75.4683 181.248 75.3943 181.351 75.3253C181.438 75.3056 181.55 75.2908 181.489 75.2069C181.645 75.0392 181.8 74.8716 181.955 74.7039C182.059 74.6792 182.067 74.6644 181.998 74.6299C182.007 74.6102 182.041 74.5855 182.007 74.5658C181.964 74.5411 181.921 74.5608 181.886 74.5707C181.299 74.7137 180.747 74.8864 180.273 75.133C180.238 75.1477 180.204 75.1773 180.161 75.1625C180.118 75.1527 180.144 75.1231 180.135 75.1034C180.083 74.8962 180.04 74.6841 179.928 74.4819C179.85 74.334 179.773 74.1811 179.643 74.0282C179.359 74.4079 179.203 74.7926 179.143 75.1971C179.065 75.1675 179.014 75.1477 178.97 75.1231C178.505 74.8814 177.961 74.7088 177.392 74.5707C177.357 74.5608 177.323 74.5362 177.288 74.5658C177.263 74.5855 177.297 74.6102 177.306 74.6299C177.513 74.9159 177.771 75.1823 178.108 75.4289C178.203 75.4979 178.341 75.5472 178.393 75.6459C177.702 75.6705 177.047 75.7593 176.374 75.9221C177.038 76.0848 177.685 76.1637 178.384 76.1983C178.332 76.2427 178.298 76.2722 178.255 76.2969C177.823 76.5682 177.521 76.8838 177.271 77.2192C177.254 77.2389 177.228 77.2636 177.263 77.2784C177.297 77.2932 177.34 77.2784 177.375 77.2734C177.461 77.3277 177.487 77.2882 177.504 77.2488C177.797 77.16 178.091 77.0712 178.384 76.9825C178.522 77.0219 178.548 76.9578 178.591 76.9035C178.712 76.8444 178.841 76.7901 178.962 76.7309C179.014 76.7654 179.074 76.7359 179.126 76.7309C179.16 76.8444 179.195 76.9578 179.221 77.0712C179.264 77.2488 179.393 77.4115 179.436 77.5891C179.436 77.6187 179.428 77.6483 179.497 77.6581C179.531 77.7075 179.566 77.7617 179.6 77.811C179.479 77.8653 179.41 77.9294 179.428 78.0231C179.393 78.0576 179.359 78.0872 179.324 78.1218C179.238 78.1267 179.16 78.1316 179.229 78.2007C179.126 78.319 178.953 78.4029 178.815 78.5064C178.444 78.7087 178.048 78.8911 177.599 79.0342C177.202 79.1575 177.271 79.118 177.168 78.9355C177.021 78.6643 176.961 78.3881 176.961 78.102C176.961 78.0428 176.969 77.9837 176.969 77.9294C177.03 77.9195 177.038 77.8998 176.995 77.8702C176.987 77.7223 177.056 77.5792 177.125 77.4362C177.176 77.3277 177.168 77.3178 176.987 77.3524C176.607 77.4165 176.21 77.451 175.813 77.451C175.253 77.451 174.709 77.4066 174.183 77.303C174.054 77.2784 174.045 77.2439 174.097 77.1847C174.269 76.9825 174.485 76.795 174.744 76.6274C174.865 76.5484 174.985 76.4695 175.106 76.3906C175.477 76.2131 175.857 76.0404 176.331 75.927C175.848 75.8086 175.468 75.641 175.106 75.4634C174.752 75.2513 174.433 75.0195 174.174 74.7581C174.002 74.5855 174.011 74.5756 174.347 74.5214C174.83 74.4425 175.322 74.403 175.822 74.403C176.296 74.403 176.754 74.4523 177.228 74.5362C177.081 74.2797 176.995 74.0331 176.995 73.7717Z" fill="#FA40ED"/>
<path d="M179.428 78.0331C179.402 77.9443 179.479 77.8753 179.6 77.821C179.755 77.678 179.816 77.5152 179.902 77.3574C180.023 77.1305 180.075 76.8987 180.118 76.662C180.213 76.6768 180.273 76.7162 180.333 76.7458C180.799 76.9776 181.325 77.1453 181.895 77.2834C181.972 77.3031 181.998 77.2884 181.99 77.244C182.067 77.2538 182.084 77.2834 182.093 77.3229C182.007 77.3377 182.059 77.3722 182.076 77.3919C182.197 77.6188 182.266 77.8555 182.274 78.0923C182.274 78.4178 182.205 78.7384 182.007 79.0491C181.964 79.1231 181.921 79.1231 181.817 79.0984C181.463 79.0047 181.144 78.8765 180.842 78.7334C180.713 78.6693 180.584 78.6052 180.454 78.5411C180.135 78.3339 179.842 78.1169 179.626 77.8555C179.54 77.9147 179.479 77.9739 179.428 78.0331Z" fill="#FA40ED"/>
<path d="M184.146 76.3957C183.965 76.3168 183.809 76.223 183.611 76.1589C183.585 76.1293 183.525 76.1195 183.473 76.1047C183.413 76.0849 183.361 76.0652 183.3 76.0455C183.188 75.9962 183.068 75.9616 182.93 75.9468C182.93 75.937 182.93 75.9271 182.93 75.9173C183.068 75.9025 183.188 75.863 183.3 75.8186C183.361 75.7989 183.413 75.7792 183.473 75.7594C183.542 75.7446 183.602 75.72 183.646 75.6855C183.775 75.6509 183.878 75.5967 183.982 75.5375C184.025 75.5326 184.06 75.5178 184.085 75.4931C184.111 75.4832 184.129 75.4783 184.154 75.4684C184.327 75.5128 184.517 75.4931 184.698 75.5079C185.586 75.5769 186.458 75.6855 187.286 75.8975C187.32 75.9074 187.381 75.9074 187.381 75.937C187.381 75.9666 187.32 75.9715 187.286 75.9814C186.665 76.1293 186.026 76.2329 185.362 76.302C184.948 76.3414 184.543 76.3611 184.146 76.3957Z" fill="#FA9EF4"/>
<path d="M175.106 75.4684C175.477 75.646 175.848 75.8186 176.331 75.9321C175.848 76.0504 175.477 76.223 175.106 76.3957C174.174 76.3414 173.251 76.2526 172.371 76.0652C172.225 76.0356 172.087 76.0011 171.949 75.9666C171.923 75.9616 171.88 75.9518 171.88 75.9321C171.88 75.9074 171.923 75.9074 171.949 75.8975C172.363 75.7792 172.803 75.7052 173.251 75.6411C173.812 75.5622 174.381 75.498 174.959 75.4832C175.011 75.4882 175.063 75.4734 175.106 75.4684Z" fill="#FA9EF4"/>
<path d="M180.437 73.3526C180.135 73.5548 179.85 73.7668 179.643 74.0282C179.428 73.7619 179.134 73.54 178.815 73.3328C178.91 72.7854 179.091 72.2429 179.428 71.725C179.471 71.6609 179.514 71.6017 179.557 71.5425C179.574 71.5228 179.583 71.508 179.626 71.5031C179.669 71.5031 179.669 71.5277 179.678 71.5425C179.868 71.7595 179.98 71.9864 180.092 72.2182C180.238 72.524 180.325 72.8396 180.394 73.1553C180.42 73.2194 180.368 73.2884 180.437 73.3526Z" fill="#FA9EF4"/>
<path d="M179.428 78.033C179.488 77.9738 179.548 77.9196 179.617 77.8505C179.824 78.1119 180.118 78.3289 180.445 78.5361C180.411 78.684 180.376 78.8369 180.342 78.9849C180.247 79.3794 180.083 79.7592 179.833 80.1291C179.79 80.1932 179.738 80.2573 179.695 80.3215C179.686 80.3363 179.669 80.3609 179.635 80.3609C179.592 80.3609 179.592 80.3363 179.574 80.3215C179.367 80.0847 179.238 79.8332 179.126 79.5767C178.988 79.2561 178.876 78.9306 178.85 78.6002C178.85 78.5706 178.824 78.5459 178.815 78.5163C178.953 78.4128 179.126 78.324 179.229 78.2106C179.281 78.1958 179.298 78.1612 179.324 78.1317C179.359 78.0971 179.393 78.0626 179.428 78.033Z" fill="#FA9EF4"/>
<path d="M176.995 73.7718C176.995 74.0282 177.081 74.2798 177.228 74.5412C176.754 74.4573 176.296 74.4031 175.822 74.408C175.443 74.1318 175.063 73.8507 174.752 73.5449C174.528 73.323 174.313 73.101 174.166 72.8643C174.157 72.8446 174.123 72.8248 174.149 72.8051C174.183 72.7854 174.218 72.8051 174.252 72.81C174.951 72.958 175.589 73.1799 176.193 73.4265C176.469 73.535 176.728 73.6583 176.995 73.7718Z" fill="#FA9EF4"/>
<path d="M182.257 78.0922C182.248 77.8505 182.188 77.6187 182.059 77.3919C182.05 77.3721 181.99 77.3376 182.076 77.3228C182.378 77.3919 182.688 77.4363 183.016 77.4363C183.042 77.456 183.076 77.456 183.12 77.451C183.223 77.451 183.327 77.456 183.422 77.456C183.801 77.7371 184.189 78.0182 184.5 78.3289C184.715 78.546 184.931 78.7679 185.078 79.0046C185.086 79.0244 185.121 79.0441 185.095 79.0638C185.06 79.0835 185.026 79.0638 184.991 79.054C184.293 78.906 183.654 78.6841 183.051 78.4375C182.783 78.3289 182.524 78.2056 182.257 78.0922Z" fill="#FA9EF4"/>
<path d="M176.969 77.9344C176.969 77.9936 176.961 78.0528 176.961 78.1071C176.659 78.2402 176.348 78.3685 176.055 78.5115C175.779 78.6003 175.503 78.694 175.235 78.7828C174.942 78.8814 174.632 78.9702 174.312 79.0392C174.261 79.0491 174.209 79.0836 174.157 79.0589C174.097 79.0294 174.157 78.9899 174.174 78.9603C174.416 78.6299 174.709 78.3191 175.063 78.0282C175.218 77.8999 175.382 77.7816 175.537 77.6583C175.581 77.6287 175.615 77.5941 175.615 77.5547V77.5497H175.624C175.667 77.5497 175.693 77.5399 175.71 77.5251C175.744 77.5004 175.779 77.4807 175.805 77.456C176.202 77.456 176.59 77.4215 176.978 77.3574C177.159 77.3278 177.168 77.3327 177.116 77.4412C177.047 77.5843 176.978 77.7224 176.987 77.8753C176.969 77.895 176.961 77.9147 176.969 77.9344Z" fill="#FA9EF4"/>
<path d="M183.439 74.408C183.326 74.408 183.214 74.4129 183.102 74.4129C183.076 74.4129 183.05 74.4129 183.033 74.4277C182.766 74.4277 182.516 74.4671 182.257 74.5066C182.084 74.5313 182.076 74.5313 182.119 74.4375C182.231 74.2156 182.291 73.9887 182.291 73.7569C182.654 73.604 182.999 73.4363 183.378 73.2933C183.887 73.1059 184.413 72.9333 184.983 72.81C185.017 72.8001 185.06 72.7755 185.103 72.8001C185.146 72.8248 185.095 72.8494 185.086 72.8692C184.862 73.2144 184.534 73.5301 184.18 73.8408C183.947 74.0381 183.68 74.2205 183.439 74.408Z" fill="#FA9EF4"/>
<path d="M175.718 77.525C175.701 77.5447 175.675 77.5546 175.632 77.5496C175.649 77.5299 175.692 77.5299 175.718 77.525Z" fill="#FEFEFE"/>
<path d="M181.981 77.244C181.99 77.2883 181.964 77.3031 181.886 77.2834C181.317 77.1453 180.791 76.9776 180.325 76.7458C180.264 76.7162 180.204 76.6768 180.109 76.662C180.066 76.8987 180.014 77.1305 179.893 77.3574C179.807 77.5152 179.747 77.678 179.592 77.821C179.557 77.7717 179.523 77.7174 179.488 77.6681C179.497 77.6385 179.462 77.6188 179.428 77.5991C179.385 77.4215 179.247 77.2587 179.212 77.0812C179.186 76.9678 179.152 76.8543 179.117 76.7409C179.117 76.7212 179.117 76.7014 179.117 76.6817C179.109 76.6669 179.091 76.6718 179.083 76.6817C179.031 76.6965 178.979 76.7113 178.953 76.7409C178.832 76.8001 178.703 76.8543 178.582 76.9135C178.505 76.9283 178.436 76.953 178.375 76.9924C178.082 77.0812 177.789 77.17 177.495 77.2587C177.452 77.2686 177.409 77.2785 177.366 77.2834C177.332 77.2883 177.288 77.3081 177.254 77.2883C177.219 77.2686 177.245 77.2489 177.263 77.2292C177.513 76.8938 177.815 76.5781 178.246 76.3069C178.289 76.2822 178.315 76.2526 178.375 76.2082C177.677 76.1737 177.03 76.0948 176.365 75.932C177.038 75.7693 177.694 75.6854 178.384 75.6558C178.332 75.5572 178.194 75.5079 178.099 75.4388C177.772 75.1922 177.513 74.9259 177.297 74.6399C177.28 74.6201 177.245 74.6004 177.28 74.5757C177.314 74.5511 177.349 74.5757 177.383 74.5807C177.961 74.7188 178.505 74.8914 178.962 75.1331C179.005 75.1577 179.057 75.1725 179.134 75.207C179.195 74.7977 179.35 74.4179 179.635 74.0381C179.773 74.191 179.842 74.3439 179.919 74.4919C180.032 74.6941 180.075 74.9012 180.126 75.1133C180.135 75.1331 180.109 75.1626 180.152 75.1725C180.195 75.1824 180.239 75.1577 180.264 75.1429C180.739 74.8963 181.291 74.7237 181.877 74.5807C181.921 74.5708 181.964 74.5511 181.998 74.5757C182.033 74.5955 181.998 74.6201 181.99 74.6399C181.972 74.6645 181.955 74.6892 181.946 74.7138C181.791 74.8815 181.636 75.0492 181.481 75.2169C181.412 75.2465 181.369 75.2859 181.343 75.3353C181.239 75.4043 181.144 75.4783 181.041 75.5473C181.006 75.5572 180.98 75.5769 180.972 75.6016C180.963 75.6213 180.834 75.6558 180.954 75.6608C181.515 75.6854 182.059 75.7644 182.593 75.8581C182.611 75.8729 182.637 75.8729 182.662 75.8729C182.723 75.8926 182.783 75.9074 182.869 75.932C182.783 75.9567 182.723 75.9764 182.662 75.9912C182.637 75.9912 182.611 75.9912 182.593 76.006C182.205 76.0652 181.826 76.1441 181.42 76.1688C181.265 76.1786 181.11 76.1934 180.954 76.1984C180.851 76.2033 180.851 76.2181 180.911 76.2576C180.929 76.2822 180.963 76.3019 181.006 76.3167C181.11 76.3858 181.205 76.4598 181.308 76.5288C181.317 76.5535 181.334 76.5732 181.377 76.588C181.377 76.6127 181.403 76.6324 181.446 76.6472C181.601 76.8198 181.765 76.9924 181.921 77.165C181.921 77.1897 181.946 77.2045 181.981 77.2144C181.981 77.2242 181.981 77.2341 181.981 77.244ZM179.971 75.7496C180.083 75.5769 180.144 75.4142 180.126 75.2218C179.911 75.3501 179.764 75.4684 179.617 75.6164C179.497 75.4684 179.359 75.355 179.152 75.2465C179.143 75.429 179.212 75.5917 179.307 75.7594C179.022 75.6953 178.755 75.6657 178.444 75.6608C178.634 75.7791 178.841 75.8531 179.074 75.9271C178.824 76.0011 178.608 76.0751 178.418 76.1984C178.729 76.2082 178.996 76.1688 179.272 76.1195C179.16 76.2871 179.1 76.4548 179.117 76.6472C179.333 76.5239 179.479 76.4006 179.617 76.2526C179.747 76.3956 179.876 76.514 180.083 76.6176C180.092 76.4351 180.023 76.2773 179.928 76.1047C180.213 76.1688 180.48 76.1984 180.782 76.2033C180.592 76.0849 180.385 76.0159 180.152 75.937C180.411 75.8679 180.618 75.789 180.816 75.6657C180.523 75.6608 180.256 75.6953 179.971 75.7496Z" fill="#FA9EF4"/>
<path d="M183.3 75.8135C183.188 75.8629 183.068 75.8974 182.93 75.9122C182.981 75.8579 183.18 75.8037 183.3 75.8135Z" fill="#FA40ED"/>
<path d="M182.93 75.9468C183.068 75.9616 183.188 76.0011 183.3 76.0455C183.18 76.0603 182.981 76.011 182.93 75.9468Z" fill="#FA40ED"/>
<path d="M181.342 75.3352C181.368 75.2908 181.411 75.2513 181.48 75.2168C181.541 75.3006 181.429 75.3105 181.342 75.3352Z" fill="#FA40ED"/>
<path d="M178.375 76.9924C178.427 76.9529 178.496 76.9282 178.582 76.9135C178.539 76.9628 178.522 77.0269 178.375 76.9924Z" fill="#FA40ED"/>
<path d="M179.117 76.6817C179.117 76.7014 179.117 76.7212 179.117 76.7409C179.065 76.7409 179.005 76.7754 178.953 76.7409C178.979 76.7113 179.031 76.6965 179.083 76.6817C179.091 76.6817 179.109 76.6817 179.117 76.6817Z" fill="#FA40ED"/>
<path d="M183.646 75.6854C183.602 75.7199 183.542 75.7446 183.473 75.7594C183.464 75.6854 183.542 75.6805 183.646 75.6854Z" fill="#FA40ED"/>
<path d="M179.324 78.1268C179.298 78.1564 179.281 78.186 179.229 78.2057C179.16 78.1416 179.238 78.1317 179.324 78.1268Z" fill="#FA40ED"/>
<path d="M183.464 76.1046C183.516 76.1194 183.568 76.1293 183.602 76.1589C183.49 76.1983 183.473 76.1539 183.464 76.1046Z" fill="#FA40ED"/>
<path d="M180.963 75.5966C180.972 75.572 180.998 75.5572 181.032 75.5424C181.067 75.5621 181.075 75.5769 181.041 75.6015C181.023 75.6213 180.989 75.6114 180.963 75.5966Z" fill="#FA40ED"/>
<path d="M181.946 74.7187C181.964 74.694 181.981 74.6694 181.989 74.6447C182.05 74.6792 182.041 74.694 181.946 74.7187Z" fill="#FA40ED"/>
<path d="M177.366 77.2834C177.409 77.2735 177.452 77.2686 177.495 77.2587C177.478 77.2982 177.452 77.3376 177.366 77.2834Z" fill="#FA40ED"/>
<path d="M181.006 76.3167C180.963 76.3019 180.929 76.2822 180.911 76.2575C180.963 76.2674 181.058 76.2526 181.006 76.3167Z" fill="#FA40ED"/>
<path d="M184.077 75.4881C184.051 75.5128 184.017 75.5226 183.973 75.5325C183.991 75.5029 183.982 75.4634 184.077 75.4881Z" fill="#FA40ED"/>
<path d="M176.969 77.9344C176.961 77.9147 176.969 77.89 176.995 77.8752C177.038 77.9048 177.03 77.9246 176.969 77.9344Z" fill="#FA40ED"/>
<path d="M183.128 77.451C183.094 77.4559 183.05 77.451 183.025 77.4362C183.076 77.4115 183.111 77.4165 183.128 77.451Z" fill="#FA40ED"/>
<path d="M181.377 76.588C181.334 76.5781 181.317 76.5584 181.308 76.5288C181.368 76.5337 181.377 76.5584 181.377 76.588Z" fill="#FA40ED"/>
<path d="M181.446 76.6471C181.403 76.6323 181.386 76.6126 181.377 76.588C181.438 76.5929 181.446 76.6175 181.446 76.6471Z" fill="#FA40ED"/>
<path d="M179.428 77.5991C179.462 77.6188 179.488 77.6385 179.488 77.6681C179.428 77.6533 179.428 77.6287 179.428 77.5991Z" fill="#FA40ED"/>
<path d="M181.981 77.2143C181.946 77.2044 181.921 77.1896 181.921 77.165C181.964 77.1699 181.981 77.1896 181.981 77.2143Z" fill="#FA40ED"/>
<path d="M183.025 74.4278C183.042 74.413 183.068 74.413 183.094 74.413C183.085 74.4376 183.068 74.4475 183.025 74.4278Z" fill="#FA40ED"/>
<path d="M182.662 75.8728C182.636 75.8728 182.61 75.8728 182.593 75.858C182.628 75.8333 182.645 75.8481 182.662 75.8728Z" fill="#FA40ED"/>
<path d="M182.593 76.0059C182.61 75.9912 182.636 75.9911 182.662 75.9911C182.645 76.0158 182.628 76.0306 182.593 76.0059Z" fill="#FA40ED"/>
<path d="M179.971 75.7495C180.256 75.6953 180.523 75.6608 180.834 75.6657C180.635 75.7841 180.42 75.8679 180.169 75.9369C180.402 76.0159 180.618 76.0849 180.799 76.2033C180.497 76.2033 180.23 76.1737 179.945 76.1046C180.049 76.2773 180.118 76.4351 180.1 76.6176C179.893 76.5091 179.764 76.3956 179.635 76.2526C179.497 76.4006 179.35 76.5189 179.134 76.6472C179.117 76.4548 179.177 76.292 179.29 76.1194C179.014 76.1687 178.746 76.2082 178.436 76.1983C178.634 76.08 178.85 76.0011 179.091 75.9271C178.858 75.8531 178.651 75.7791 178.462 75.6608C178.772 75.6608 179.039 75.6903 179.324 75.7594C179.221 75.5868 179.152 75.4289 179.169 75.2465C179.367 75.355 179.505 75.4684 179.635 75.6164C179.773 75.4684 179.928 75.3451 180.144 75.2218C180.144 75.4092 180.083 75.5769 179.971 75.7495ZM179.661 75.8926C179.652 75.8235 179.695 75.7446 179.592 75.6805C179.592 75.7495 179.592 75.8235 179.592 75.8926C179.471 75.932 179.324 75.8926 179.195 75.9369C179.324 75.9468 179.462 75.9567 179.592 75.9665C179.6 76.0356 179.557 76.1145 179.635 76.1786C179.626 76.1096 179.73 76.0307 179.592 75.9665C179.592 75.9419 179.617 75.9123 179.592 75.8876C179.617 75.8926 179.635 75.8926 179.661 75.8926C179.764 76.006 179.928 75.9271 180.049 75.9468C180.049 75.9369 180.057 75.932 180.057 75.9221C179.928 75.9123 179.79 75.9024 179.661 75.8926ZM179.35 76.08C179.359 76.08 179.359 76.0849 179.367 76.08V76.075C179.359 76.075 179.359 76.075 179.359 76.075C179.35 76.0701 179.35 76.075 179.35 76.08ZM179.902 75.789V75.7841C179.893 75.7841 179.893 75.7841 179.885 75.789V75.7939C179.893 75.7939 179.902 75.7939 179.902 75.789Z" fill="#FA40ED"/>
<path d="M179.116 76.6809C179.108 76.6809 179.091 76.6809 179.083 76.6809C179.091 76.6721 179.108 76.6721 179.116 76.6809Z" fill="#FA40ED"/>
<path d="M179.591 75.8926C179.617 75.9172 179.591 75.9468 179.591 75.9715C179.462 75.9616 179.324 75.9518 179.195 75.9419C179.324 75.8926 179.471 75.932 179.591 75.8926Z" fill="#FA9BF4"/>
<path d="M179.661 75.8926C179.79 75.9024 179.928 75.9123 180.057 75.9222C180.057 75.932 180.049 75.937 180.049 75.9468C179.919 75.9271 179.755 76.0109 179.661 75.8926Z" fill="#FA9BF4"/>
<path d="M179.591 75.8924C179.591 75.8234 179.591 75.7494 179.591 75.6804C179.686 75.7494 179.643 75.8234 179.66 75.8924C179.634 75.8924 179.617 75.8924 179.591 75.8924Z" fill="#FA9BF4"/>
<path d="M179.591 75.9715C179.729 76.0356 179.626 76.1145 179.634 76.1836C179.565 76.1145 179.609 76.0405 179.591 75.9715Z" fill="#FA9BF4"/>
<path d="M179.35 76.0792V76.0751H179.358V76.0792H179.35Z" fill="#FA9BF4"/>
<path d="M179.902 75.7886C179.893 75.7886 179.893 75.7886 179.885 75.7931V75.7886C179.885 75.7886 179.893 75.7886 179.902 75.784V75.7886Z" fill="#FA9BF4"/>
<path d="M144.237 14.46C145.978 11.9617 148.136 9.57689 150.331 8.517C142.004 5.90512 137.007 9.6526 135.266 12.0752C134.055 8.36559 128.528 2.19549 122.547 3.89889C124.553 7.64637 125.348 11.5074 125.31 14.46" stroke="#595E67" stroke-width="1.5"/>
<path d="M145.221 95.9961C132.048 96.6017 116.604 96.8289 99.1914 96.791C59.4076 96.8667 39.2317 91.2266 31.169 83.6937M27.8757 69.423C37.0362 49.3229 102.106 58.5213 101.803 46.2189C102.144 36.7556 79.7727 39.6324 80.4162 26.9137C80.8704 18.2074 106.762 19.1916 124.515 19.2295C139.43 19.0781 157.675 16.8826 157.599 26.3838C157.41 34.5979 143.518 29.4877 144.199 35.9607C145.108 44.5155 177.472 54.0924 185.611 58.2563C203.818 67.3032 204.651 79.4542 194.468 87.5926C192.008 89.561 187.39 91.1887 180.879 92.4757" stroke="#595E67" stroke-width="1.5" stroke-linecap="round"/>
<path d="M22.3114 59.884C24.1662 56.5908 23.7877 49.7393 20.5323 44.7806C28.5194 45.8026 30.2985 54.6224 30.412 57.3479M35.1437 56.5908C34.8409 52.8433 38.0963 46.7489 43.1308 43.6828C35.4844 41.1845 30.1092 48.4523 28.8601 50.8749M18.9425 63.2908C18.2233 59.5812 13.4916 54.5846 7.8136 52.9569C14.5515 48.528 21.6301 54.0925 23.4849 56.1366" stroke="#595E67" stroke-width="1.5"/>
<path d="M160.363 91.87C160.855 86.3056 161.347 82.1417 159.151 78.8106C165.321 79.1134 167.706 84.1479 168.842 89.6367" stroke="#595E67" stroke-width="1.5"/>
<path d="M152.943 98.6836C150.521 95.0497 147.682 91.6808 144.578 90.1666C156.994 86.3056 161.801 93.2706 164.186 95.2011C165.889 92.0593 170.318 86.457 178.343 86.192C176.564 89.9395 174.974 94.7847 174.671 98.6836" stroke="#595E67" stroke-width="1.5"/>
<path d="M26.2482 84.8294C26.9674 81.1198 31.6991 76.1231 37.3771 74.4954C30.6392 70.0666 23.5606 75.631 21.7058 77.6751" stroke="#595E67" stroke-width="1.5"/>
<path d="M10.0469 78.1294C10.3497 74.3819 7.09431 68.2875 2.05981 65.2214C9.70619 62.7609 15.0814 69.9909 16.3305 72.4135" stroke="#595E67" stroke-width="1.5"/>
<path d="M22.8793 81.3847C21.0245 78.0915 21.403 71.24 24.6584 66.2812C16.6714 67.2654 14.8922 76.1231 14.7787 78.8486" stroke="#595E67" stroke-width="1.5"/>
<path d="M10.0847 36.6042C12.5073 41.0709 12.6587 42.8121 12.6587 47.5438" stroke="#595E67" stroke-width="1.5"/>
<path d="M33.4403 30.6991C31.0177 35.1658 31.2069 36.907 31.2069 41.6387M21.1001 27.2166C22.9549 34.6737 23.447 38.4969 23.7498 41.6008L21.1001 27.2166Z" stroke="#595E67" stroke-width="1.5"/>
<path d="M150.823 72.2242C152.678 79.7192 153.511 83.5045 153.814 86.6085" stroke="#595E67" stroke-width="1.5"/>
<path d="M67.3948 60.8303H78.9022M174.217 71.5428C172.362 79.0377 172.816 80.2112 172.476 83.3152L174.217 71.5428ZM77.1988 67.1139H88.7062H77.1988ZM59.9755 67.0382H71.4829H59.9755ZM63.3823 74.5332H74.8897H63.3823ZM83.6339 81.8389H95.1413H83.6339ZM66.8648 81.7632H78.3722H66.8648ZM46.5376 81.7632H61.906H46.5376ZM43.4336 67.0382H54.941H43.4336ZM79.6592 74.5332H98.9645H79.6592ZM60.0134 88.3496H71.5208H60.0134Z" stroke="#595E67" stroke-width="1.5"/>
<path d="M2.04195 28.9616C1.4665 28.0188 1.76436 26.788 2.70723 26.2125L4.44092 25.1545C5.38375 24.5791 6.61453 24.8769 7.18996 25.8197L10.027 30.4682C10.6025 31.411 10.3046 32.6419 9.36177 33.2173L7.62808 34.2753C6.68524 34.8508 5.45447 34.5529 4.87904 33.6101L2.04195 28.9616Z" fill="#595E67"/>
<path d="M16.0569 17.4134C15.8528 16.3264 16.5696 15.2801 17.657 15.078L19.6295 14.7113C20.7141 14.5097 21.7571 15.2243 21.9607 16.3086L22.9638 21.6513C23.1679 22.7383 22.451 23.7846 21.3637 23.9867L19.3912 24.3534C18.3066 24.555 17.2636 23.8403 17.06 22.7561L16.0569 17.4134Z" fill="#595E67"/>
<path d="M35.7692 20.1014C36.2804 19.1192 37.4923 18.7392 38.4728 19.2537L40.2683 20.196C41.2439 20.7081 41.6216 21.9127 41.113 22.8902L38.6063 27.7074C38.0952 28.6897 36.8832 29.0697 35.9027 28.5551L34.1073 27.6128C33.1316 27.1008 32.7539 25.8961 33.2625 24.9187L35.7692 20.1014Z" fill="#595E67"/>
<path d="M146.121 62.4211C145.917 61.3341 146.634 60.2878 147.721 60.0857L149.693 59.719C150.778 59.5174 151.821 60.232 152.025 61.3163L153.028 66.659C153.232 67.746 152.515 68.7922 151.428 68.9944L149.455 69.3611C148.371 69.5627 147.328 68.848 147.124 67.7638L146.121 62.4211Z" fill="#595E67"/>
<path d="M179.374 61.6639C179.578 60.5769 178.861 59.5307 177.774 59.3285L175.801 58.9619C174.717 58.7602 173.674 59.4749 173.47 60.5591L172.467 65.9019C172.263 66.9888 172.98 68.0351 174.067 68.2372L176.039 68.6039C177.124 68.8056 178.167 68.0909 178.371 67.0067L179.374 61.6639Z" fill="#595E67"/>
</svg>
