<svg width="103" height="98" viewBox="0 0 103 98" fill="none" xmlns="http://www.w3.org/2000/svg">
<path d="M51.353 69.4175H62.8357C62.8357 69.4175 62.8357 30.1851 62.8357 23.4869C62.8357 16.7886 59.1676 4.03014 51.353 1C43.5384 4.03014 39.8704 16.7886 39.8704 23.4869C39.8704 30.1851 39.8704 69.4175 39.8704 69.4175H51.353Z" stroke="#595E67" stroke-width="1.5" stroke-miterlimit="10"/>
<path d="M42.8687 69.4175L42.9006 75.6373H59.8056V69.4175" stroke="#595E67" stroke-width="1.5" stroke-miterlimit="10"/>
<path d="M51.3531 26.9955C54.9643 26.9955 57.8918 24.068 57.8918 20.4567C57.8918 16.8455 54.9643 13.918 51.3531 13.918C47.7418 13.918 44.8143 16.8455 44.8143 20.4567C44.8143 24.068 47.7418 26.9955 51.3531 26.9955Z" stroke="#595E67" stroke-width="1.5" stroke-miterlimit="10"/>
<path d="M30.1419 50.9176C30.1419 50.9176 30.1419 34.4911 30.1419 31.6204C30.1419 27.6334 33.4911 24.4438 33.4911 24.4438C33.4911 24.4438 36.8402 27.6334 36.8402 31.6204C36.8402 34.4911 36.8402 45.4953 36.8402 45.4953C36.8402 45.4953 26.6334 53.7883 24.8791 55.0642C23.1248 56.34 21.0515 58.5727 21.0515 61.2839C21.0515 63.9951 21.0515 69.4175 21.0515 69.4175H37.4781" stroke="#595E67" stroke-width="1.5" stroke-miterlimit="10"/>
<path d="M21.0515 62.0223H37.4781" stroke="#595E67" stroke-width="1.5" stroke-miterlimit="10"/>
<path d="M72.5638 50.9176C72.5638 50.9176 72.5638 34.4911 72.5638 31.6204C72.5638 27.6334 69.2147 24.4438 69.2147 24.4438C69.2147 24.4438 65.8656 27.6334 65.8656 31.6204C65.8656 34.4911 65.8656 45.4953 65.8656 45.4953C65.8656 45.4953 76.0724 53.7883 77.8267 55.0642C79.581 56.34 81.6542 58.5727 81.6542 61.2839C81.6542 63.9951 81.6542 69.4175 81.6542 69.4175H65.2277" stroke="#595E67" stroke-width="1.5" stroke-miterlimit="10"/>
<path d="M81.6541 62.0223H65.2275" stroke="#595E67" stroke-width="1.5" stroke-miterlimit="10"/>
<path d="M30 58C27.792 58 26 59.792 26 62C26 62.716 26.188 63.388 26.516 63.968L28.232 63.236L28.76 63.764L27.712 65.248C27.712 65.248 27.724 65.292 27.752 65.308C28.392 65.744 29.164 65.996 29.996 65.996C32.204 65.996 33.996 64.204 33.996 61.996C34 59.792 32.208 58 30 58Z" fill="#39B002"/>
<path d="M29.752 58C29.92 58 30.084 58 30.252 58C30.26 58.024 30.284 58.016 30.3 58.016C30.416 58.012 30.532 58.032 30.644 58.052C31.012 58.116 31.368 58.224 31.708 58.384C32.256 58.64 32.716 59.008 33.1 59.472C33.372 59.804 33.584 60.172 33.736 60.576C33.852 60.884 33.932 61.2 33.972 61.528C33.98 61.604 33.964 61.68 34 61.752C34 61.924 34 62.096 34 62.268C33.98 62.276 33.984 62.292 33.984 62.308C33.988 62.452 33.96 62.596 33.932 62.736C33.868 63.072 33.764 63.4 33.616 63.712C33.36 64.26 32.992 64.72 32.528 65.104C32.196 65.376 31.828 65.588 31.424 65.74C31.116 65.856 30.8 65.936 30.472 65.976C30.396 65.984 30.32 65.968 30.248 66.004C30.076 66.004 29.904 66.004 29.732 66.004C29.728 65.988 29.712 65.988 29.7 65.988C29.46 65.98 29.228 65.936 28.996 65.876C28.552 65.76 28.136 65.576 27.756 65.316C27.732 65.3 27.72 65.284 27.712 65.252C27.684 65.108 27.756 65 27.82 64.888C27.98 64.616 28.16 64.356 28.34 64.096C28.472 63.976 28.62 63.876 28.76 63.768C28.76 63.996 28.788 64.224 28.856 64.444C28.904 64.592 28.872 64.624 29.056 64.524C29.264 64.412 29.448 64.26 29.62 64.096C29.624 64.12 29.636 64.14 29.636 64.164C29.644 64.432 29.7 64.696 29.764 64.956C29.816 65.164 29.876 65.368 29.972 65.56C29.98 65.572 29.976 65.592 30 65.592C30.02 65.592 30.024 65.572 30.028 65.56C30.052 65.508 30.072 65.456 30.092 65.404C30.204 65.104 30.28 64.792 30.328 64.476C30.344 64.356 30.36 64.232 30.376 64.112C30.436 64.164 30.496 64.22 30.556 64.268C30.696 64.384 30.844 64.488 31.008 64.564C31.052 64.584 31.076 64.584 31.096 64.524C31.184 64.272 31.216 64.012 31.22 63.748C31.344 63.844 31.464 63.944 31.592 64.032C31.872 64.232 32.168 64.408 32.492 64.532C32.508 64.54 32.524 64.556 32.54 64.54C32.556 64.524 32.54 64.508 32.532 64.492C32.464 64.3 32.364 64.12 32.264 63.944C32.12 63.692 31.94 63.464 31.764 63.236C31.992 63.236 32.22 63.208 32.44 63.14C32.604 63.092 32.604 63.088 32.52 62.94C32.404 62.732 32.256 62.548 32.092 62.376C32.28 62.348 32.468 62.332 32.656 62.296C32.96 62.24 33.26 62.156 33.548 62.036C33.564 62.028 33.592 62.024 33.592 62C33.592 61.976 33.564 61.976 33.548 61.968C33.164 61.796 32.76 61.708 32.348 61.652C32.264 61.64 32.176 61.656 32.096 61.62C32.152 61.556 32.212 61.492 32.264 61.428C32.38 61.288 32.484 61.14 32.564 60.976C32.588 60.928 32.584 60.9 32.524 60.88C32.28 60.796 32.028 60.76 31.768 60.76C31.884 60.608 32.008 60.46 32.112 60.3C32.276 60.052 32.428 59.796 32.532 59.512C32.54 59.496 32.56 59.476 32.54 59.456C32.52 59.436 32.5 59.46 32.484 59.464C32.22 59.564 31.976 59.704 31.74 59.856C31.564 59.968 31.404 60.104 31.236 60.232C31.236 60.004 31.208 59.776 31.14 59.556C31.092 59.392 31.088 59.392 30.94 59.476C30.732 59.592 30.548 59.74 30.376 59.904C30.34 59.856 30.364 59.796 30.36 59.744C30.324 59.488 30.288 59.232 30.22 58.984C30.168 58.796 30.116 58.612 30.028 58.436C30.024 58.424 30.024 58.4 30.004 58.404C29.988 58.404 29.98 58.42 29.972 58.436C29.952 58.484 29.928 58.536 29.912 58.584C29.756 59.004 29.672 59.44 29.628 59.888C29.568 59.836 29.508 59.78 29.448 59.732C29.308 59.616 29.16 59.512 28.996 59.436C28.952 59.416 28.928 59.416 28.908 59.476C28.82 59.728 28.788 59.988 28.784 60.252C28.66 60.156 28.54 60.056 28.412 59.968C28.132 59.768 27.836 59.592 27.512 59.468C27.496 59.46 27.48 59.448 27.464 59.464C27.448 59.48 27.464 59.496 27.472 59.512C27.54 59.708 27.64 59.888 27.744 60.064C27.888 60.312 28.064 60.54 28.24 60.764C28.008 60.764 27.78 60.796 27.556 60.86C27.4 60.904 27.4 60.916 27.476 61.052C27.596 61.26 27.744 61.448 27.908 61.624C27.884 61.628 27.86 61.64 27.84 61.64C27.572 61.648 27.308 61.704 27.048 61.768C26.84 61.82 26.636 61.88 26.444 61.976C26.432 61.984 26.412 61.98 26.412 62.004C26.412 62.024 26.432 62.028 26.444 62.032C26.508 62.06 26.576 62.088 26.64 62.112C27.048 62.264 27.476 62.336 27.908 62.38C27.852 62.444 27.792 62.508 27.74 62.572C27.624 62.712 27.52 62.86 27.44 63.024C27.416 63.072 27.42 63.1 27.48 63.12C27.724 63.204 27.976 63.24 28.236 63.24C28.22 63.26 28.204 63.276 28.192 63.296C28.18 63.3 28.16 63.3 28.152 63.316H28.148V63.32C27.896 63.464 27.644 63.612 27.388 63.752C27.196 63.86 27 63.964 26.792 64.04C26.652 64.092 26.568 64.06 26.52 63.972C26.26 63.496 26.088 63 26.028 62.468C26.02 62.4 26.04 62.328 26 62.268C26 62.092 26 61.912 26 61.736C26.02 61.728 26.016 61.712 26.016 61.696C26.012 61.552 26.04 61.408 26.064 61.268C26.128 60.932 26.232 60.604 26.38 60.292C26.64 59.744 27.008 59.284 27.472 58.9C27.8 58.628 28.172 58.416 28.572 58.264C28.88 58.148 29.196 58.068 29.524 58.028C29.6 58.02 29.68 58.036 29.752 58Z" fill="#39B002"/>
<path d="M28.78 60.248C28.78 59.984 28.812 59.724 28.904 59.472C28.924 59.412 28.948 59.412 28.992 59.432C29.156 59.508 29.304 59.612 29.444 59.728C29.504 59.78 29.564 59.832 29.624 59.884C29.772 60.052 29.908 60.228 30.008 60.448C30.104 60.236 30.236 60.064 30.376 59.9C30.548 59.736 30.732 59.588 30.94 59.472C31.088 59.388 31.092 59.388 31.14 59.552C31.208 59.772 31.236 59.996 31.236 60.228C31.236 60.416 31.208 60.6 31.156 60.78C31.136 60.856 31.14 60.86 31.22 60.836C31.336 60.804 31.456 60.772 31.58 60.772C31.6 60.788 31.608 60.78 31.612 60.76C31.664 60.76 31.716 60.756 31.768 60.756C32.028 60.756 32.28 60.792 32.524 60.876C32.584 60.896 32.588 60.924 32.564 60.972C32.484 61.136 32.384 61.288 32.264 61.424C32.208 61.488 32.152 61.552 32.096 61.616C32.084 61.624 32.076 61.628 32.064 61.636C32.024 61.612 32.024 61.644 32.016 61.672C31.972 61.72 31.924 61.764 31.86 61.792C31.816 61.788 31.776 61.796 31.78 61.852C31.752 61.868 31.728 61.884 31.7 61.9C31.648 61.888 31.556 61.932 31.528 61.98C31.528 61.988 31.528 61.996 31.528 62.004C31.552 62.052 31.644 62.096 31.7 62.084C31.728 62.1 31.752 62.116 31.78 62.132C31.784 62.172 31.788 62.208 31.844 62.176C31.936 62.228 32.012 62.304 32.092 62.368C32.256 62.54 32.404 62.724 32.52 62.932C32.604 63.08 32.604 63.084 32.44 63.132C32.22 63.2 31.996 63.228 31.764 63.228C31.716 63.228 31.668 63.224 31.624 63.224C31.616 63.196 31.6 63.192 31.576 63.212C31.424 63.212 31.28 63.176 31.14 63.12C31.136 63.092 31.128 63.064 31.092 63.056C31.092 63.048 31.092 63.04 31.092 63.032C31.092 63.012 31.084 62.996 31.064 62.992C30.992 62.852 30.916 62.712 30.844 62.572C30.844 62.548 30.84 62.528 30.812 62.524C30.812 62.5 30.808 62.48 30.78 62.476C30.732 62.42 30.688 62.36 30.64 62.304C30.664 62.252 30.624 62.264 30.596 62.256C30.568 62.224 30.568 62.212 30.616 62.208C30.688 62.204 30.76 62.192 30.832 62.184C31.016 62.16 31.196 62.1 31.376 62.052C31.396 62.068 31.404 62.06 31.408 62.04C31.436 62.024 31.464 62.012 31.504 61.992C31.464 61.972 31.436 61.956 31.408 61.944C31.404 61.924 31.396 61.916 31.376 61.932C31.128 61.856 30.876 61.792 30.616 61.772C30.56 61.768 30.616 61.74 30.624 61.724C30.636 61.736 30.648 61.744 30.664 61.728C30.68 61.712 30.672 61.696 30.66 61.68C30.708 61.624 30.752 61.564 30.8 61.508C30.84 61.492 30.892 61.48 30.864 61.412C30.936 61.276 31.008 61.14 31.08 61.004C31.128 60.984 31.132 60.972 31.1 60.944C31.104 60.928 31.12 60.908 31.104 60.892C31.084 60.872 31.064 60.888 31.048 60.896C30.776 61.012 30.52 61.152 30.3 61.352C30.284 61.364 30.268 61.388 30.248 61.376C30.228 61.368 30.24 61.344 30.236 61.328C30.212 61.16 30.192 60.988 30.14 60.824C30.104 60.704 30.068 60.58 30.008 60.456C29.876 60.764 29.804 61.076 29.776 61.404C29.74 61.38 29.716 61.364 29.696 61.344C29.48 61.148 29.228 61.008 28.964 60.896C28.948 60.888 28.932 60.868 28.916 60.892C28.904 60.908 28.92 60.928 28.924 60.944C29.02 61.176 29.14 61.392 29.296 61.592C29.34 61.648 29.404 61.688 29.428 61.768C29.108 61.788 28.804 61.86 28.492 61.992C28.8 62.124 29.1 62.188 29.424 62.216C29.4 62.252 29.384 62.276 29.364 62.296C29.164 62.516 29.024 62.772 28.908 63.044C28.9 63.06 28.888 63.08 28.904 63.092C28.92 63.104 28.94 63.092 28.956 63.088C28.996 63.132 29.008 63.1 29.016 63.068C29.152 62.996 29.288 62.924 29.424 62.852C29.488 62.884 29.5 62.832 29.52 62.788C29.576 62.74 29.636 62.696 29.692 62.648C29.716 62.676 29.744 62.652 29.768 62.648C29.784 62.74 29.8 62.832 29.812 62.924C29.832 63.068 29.892 63.2 29.912 63.344C29.912 63.368 29.908 63.392 29.94 63.4C29.956 63.44 29.972 63.484 29.988 63.524C29.932 63.568 29.9 63.62 29.908 63.696C29.892 63.724 29.876 63.748 29.86 63.776C29.82 63.78 29.784 63.784 29.816 63.84C29.768 63.936 29.688 64.004 29.624 64.088C29.452 64.252 29.268 64.4 29.06 64.516C28.876 64.616 28.908 64.584 28.86 64.436C28.792 64.216 28.764 63.992 28.764 63.76C28.764 63.712 28.768 63.664 28.768 63.62C28.796 63.612 28.8 63.596 28.78 63.572C28.776 63.452 28.808 63.336 28.84 63.22C28.864 63.132 28.86 63.124 28.776 63.152C28.6 63.204 28.416 63.232 28.232 63.232C27.972 63.232 27.72 63.196 27.476 63.112C27.416 63.092 27.412 63.064 27.436 63.016C27.516 62.852 27.616 62.7 27.736 62.564C27.792 62.5 27.848 62.436 27.904 62.372C28.076 62.228 28.252 62.088 28.472 61.996C28.248 61.9 28.072 61.764 27.904 61.62C27.74 61.448 27.592 61.26 27.472 61.048C27.392 60.908 27.396 60.9 27.552 60.856C27.776 60.792 28.004 60.76 28.236 60.76C28.456 60.76 28.668 60.8 28.888 60.868C28.82 60.66 28.78 60.46 28.78 60.248Z" fill="#FA40ED"/>
<path d="M29.9079 63.704C29.8959 63.632 29.9319 63.576 29.9879 63.532C30.0599 63.416 30.0879 63.284 30.1279 63.156C30.1839 62.972 30.2079 62.784 30.2279 62.592C30.2719 62.604 30.2999 62.636 30.3279 62.66C30.5439 62.848 30.7879 62.984 31.0519 63.096C31.0879 63.112 31.0999 63.1 31.0959 63.064C31.1319 63.072 31.1399 63.096 31.1439 63.128C31.1039 63.14 31.1279 63.168 31.1359 63.184C31.1919 63.368 31.2239 63.56 31.2279 63.752C31.2279 64.016 31.1959 64.276 31.1039 64.528C31.0839 64.588 31.0639 64.588 31.0159 64.568C30.8519 64.492 30.7039 64.388 30.5639 64.272C30.5039 64.22 30.4439 64.168 30.3839 64.116C30.2359 63.948 30.0999 63.772 29.9999 63.56C29.9599 63.608 29.9319 63.656 29.9079 63.704Z" fill="#FA40ED"/>
<path d="M32.096 62.376C32.012 62.312 31.94 62.236 31.848 62.184C31.836 62.16 31.808 62.152 31.784 62.14C31.756 62.124 31.732 62.108 31.704 62.092C31.652 62.052 31.596 62.024 31.532 62.012C31.532 62.004 31.532 61.996 31.532 61.988C31.596 61.976 31.652 61.944 31.704 61.908C31.732 61.892 31.756 61.876 31.784 61.86C31.816 61.848 31.844 61.828 31.864 61.8C31.924 61.772 31.972 61.728 32.02 61.68C32.04 61.676 32.056 61.664 32.068 61.644C32.08 61.636 32.088 61.632 32.1 61.624C32.18 61.66 32.268 61.644 32.352 61.656C32.764 61.712 33.168 61.8 33.552 61.972C33.568 61.98 33.596 61.98 33.596 62.004C33.596 62.028 33.568 62.032 33.552 62.04C33.264 62.16 32.968 62.244 32.66 62.3C32.468 62.332 32.28 62.348 32.096 62.376Z" fill="#FA9EF4"/>
<path d="M27.904 61.624C28.076 61.768 28.248 61.908 28.472 62C28.248 62.096 28.076 62.236 27.904 62.376C27.472 62.332 27.044 62.26 26.636 62.108C26.568 62.084 26.504 62.056 26.44 62.028C26.428 62.024 26.408 62.016 26.408 62C26.408 61.98 26.428 61.98 26.44 61.972C26.632 61.876 26.836 61.816 27.044 61.764C27.304 61.7 27.568 61.648 27.836 61.636C27.86 61.64 27.884 61.628 27.904 61.624Z" fill="#FA9EF4"/>
<path d="M30.376 59.908C30.236 60.072 30.104 60.244 30.008 60.456C29.908 60.24 29.772 60.06 29.624 59.892C29.668 59.448 29.752 59.008 29.908 58.588C29.928 58.536 29.948 58.488 29.968 58.44C29.976 58.424 29.98 58.412 30 58.408C30.02 58.408 30.02 58.428 30.024 58.44C30.112 58.616 30.164 58.8 30.216 58.988C30.284 59.236 30.324 59.492 30.356 59.748C30.368 59.8 30.344 59.856 30.376 59.908Z" fill="#FA9EF4"/>
<path d="M29.908 63.704C29.936 63.656 29.964 63.612 29.996 63.556C30.092 63.768 30.228 63.944 30.38 64.112C30.364 64.232 30.348 64.356 30.332 64.476C30.288 64.796 30.212 65.104 30.096 65.404C30.076 65.456 30.052 65.508 30.032 65.56C30.028 65.572 30.02 65.592 30.004 65.592C29.984 65.592 29.984 65.572 29.976 65.56C29.88 65.368 29.82 65.164 29.768 64.956C29.704 64.696 29.652 64.432 29.64 64.164C29.64 64.14 29.628 64.12 29.624 64.096C29.688 64.012 29.768 63.94 29.816 63.848C29.84 63.836 29.848 63.808 29.86 63.784C29.876 63.756 29.892 63.728 29.908 63.704Z" fill="#FA9EF4"/>
<path d="M28.7801 60.248C28.7801 60.456 28.8201 60.66 28.8881 60.872C28.6681 60.804 28.4561 60.76 28.2361 60.764C28.0601 60.54 27.8841 60.312 27.7401 60.064C27.6361 59.884 27.5361 59.704 27.4681 59.512C27.4641 59.496 27.4481 59.48 27.4601 59.464C27.4761 59.448 27.4921 59.464 27.5081 59.468C27.8321 59.588 28.1281 59.768 28.4081 59.968C28.5361 60.056 28.6561 60.156 28.7801 60.248Z" fill="#FA9EF4"/>
<path d="M31.2201 63.752C31.2161 63.556 31.1881 63.368 31.1281 63.184C31.1241 63.168 31.0961 63.14 31.1361 63.128C31.2761 63.184 31.4201 63.22 31.5721 63.22C31.5841 63.236 31.6001 63.236 31.6201 63.232C31.6681 63.232 31.7161 63.236 31.7601 63.236C31.9361 63.464 32.1161 63.692 32.2601 63.944C32.3601 64.12 32.4601 64.3 32.5281 64.492C32.5321 64.508 32.5481 64.524 32.5361 64.54C32.5201 64.556 32.5041 64.54 32.4881 64.532C32.1641 64.412 31.8681 64.232 31.5881 64.032C31.4641 63.944 31.3441 63.844 31.2201 63.752Z" fill="#FA9EF4"/>
<path d="M28.7681 63.624C28.7681 63.672 28.7641 63.72 28.7641 63.764C28.6241 63.872 28.4801 63.976 28.3441 64.092C28.2161 64.164 28.0881 64.24 27.9641 64.312C27.8281 64.392 27.6841 64.464 27.5361 64.52C27.5121 64.528 27.4881 64.556 27.4641 64.536C27.4361 64.512 27.4641 64.48 27.4721 64.456C27.5841 64.188 27.7201 63.936 27.8841 63.7C27.9561 63.596 28.0321 63.5 28.1041 63.4C28.1241 63.376 28.1401 63.348 28.1401 63.316V63.312H28.1441C28.1641 63.312 28.1761 63.304 28.1841 63.292C28.2001 63.272 28.2161 63.256 28.2281 63.236C28.4121 63.236 28.5921 63.208 28.7721 63.156C28.8561 63.132 28.8601 63.136 28.8361 63.224C28.8041 63.34 28.7721 63.452 28.7761 63.576C28.7681 63.592 28.7641 63.608 28.7681 63.624Z" fill="#FA9EF4"/>
<path d="M31.768 60.764C31.716 60.764 31.664 60.768 31.612 60.768C31.6 60.768 31.588 60.768 31.58 60.78C31.456 60.78 31.34 60.812 31.22 60.844C31.14 60.864 31.136 60.864 31.156 60.788C31.208 60.608 31.236 60.424 31.236 60.236C31.404 60.112 31.564 59.976 31.74 59.86C31.976 59.708 32.22 59.568 32.484 59.468C32.5 59.46 32.52 59.44 32.54 59.46C32.56 59.48 32.536 59.5 32.532 59.516C32.428 59.796 32.276 60.052 32.112 60.304C32.004 60.464 31.88 60.612 31.768 60.764Z" fill="#FA9EF4"/>
<path d="M28.1881 63.292C28.1801 63.308 28.1681 63.316 28.1481 63.312C28.1561 63.296 28.1761 63.296 28.1881 63.292Z" fill="#FEFEFE"/>
<path d="M31.092 63.064C31.096 63.1 31.084 63.112 31.048 63.096C30.784 62.984 30.54 62.848 30.324 62.66C30.296 62.636 30.268 62.604 30.224 62.592C30.204 62.784 30.18 62.972 30.124 63.156C30.084 63.284 30.056 63.416 29.984 63.532C29.968 63.492 29.952 63.448 29.936 63.408C29.94 63.384 29.924 63.368 29.908 63.352C29.888 63.208 29.824 63.076 29.808 62.932C29.796 62.84 29.78 62.748 29.764 62.656C29.764 62.64 29.764 62.624 29.764 62.608C29.76 62.596 29.752 62.6 29.748 62.608C29.724 62.62 29.7 62.632 29.688 62.656C29.632 62.704 29.572 62.748 29.516 62.796C29.48 62.808 29.448 62.828 29.42 62.86C29.284 62.932 29.148 63.004 29.012 63.076C28.992 63.084 28.972 63.092 28.952 63.096C28.936 63.1 28.916 63.116 28.9 63.1C28.884 63.084 28.896 63.068 28.904 63.052C29.02 62.78 29.16 62.524 29.36 62.304C29.38 62.284 29.392 62.26 29.42 62.224C29.096 62.196 28.796 62.132 28.488 62C28.8 61.868 29.104 61.8 29.424 61.776C29.4 61.696 29.336 61.656 29.292 61.6C29.14 61.4 29.02 61.184 28.92 60.952C28.912 60.936 28.896 60.92 28.912 60.9C28.928 60.88 28.944 60.9 28.96 60.904C29.228 61.016 29.48 61.156 29.692 61.352C29.712 61.372 29.736 61.384 29.772 61.412C29.8 61.08 29.872 60.772 30.004 60.464C30.068 60.588 30.1 60.712 30.136 60.832C30.188 60.996 30.208 61.164 30.232 61.336C30.236 61.352 30.224 61.376 30.244 61.384C30.264 61.392 30.284 61.372 30.296 61.36C30.516 61.16 30.772 61.02 31.044 60.904C31.064 60.896 31.084 60.88 31.1 60.9C31.116 60.916 31.1 60.936 31.096 60.952C31.088 60.972 31.08 60.992 31.076 61.012C31.004 61.148 30.932 61.284 30.86 61.42C30.828 61.444 30.808 61.476 30.796 61.516C30.748 61.572 30.704 61.632 30.656 61.688C30.64 61.696 30.628 61.712 30.624 61.732C30.62 61.748 30.56 61.776 30.616 61.78C30.876 61.8 31.128 61.864 31.376 61.94C31.384 61.952 31.396 61.952 31.408 61.952C31.436 61.968 31.464 61.98 31.504 62C31.464 62.02 31.436 62.036 31.408 62.048C31.396 62.048 31.384 62.048 31.376 62.06C31.196 62.108 31.02 62.172 30.832 62.192C30.76 62.2 30.688 62.212 30.616 62.216C30.568 62.22 30.568 62.232 30.596 62.264C30.604 62.284 30.62 62.3 30.64 62.312C30.688 62.368 30.732 62.428 30.78 62.484C30.784 62.504 30.792 62.52 30.812 62.532C30.812 62.552 30.824 62.568 30.844 62.58C30.916 62.72 30.992 62.86 31.064 63C31.064 63.02 31.076 63.032 31.092 63.04C31.092 63.048 31.092 63.056 31.092 63.064ZM30.16 61.852C30.212 61.712 30.24 61.58 30.232 61.424C30.132 61.528 30.064 61.624 29.996 61.744C29.94 61.624 29.876 61.532 29.78 61.444C29.776 61.592 29.808 61.724 29.852 61.86C29.72 61.808 29.596 61.784 29.452 61.78C29.54 61.876 29.636 61.936 29.744 61.996C29.628 62.056 29.528 62.116 29.44 62.216C29.584 62.224 29.708 62.192 29.836 62.152C29.784 62.288 29.756 62.424 29.764 62.58C29.864 62.48 29.932 62.38 29.996 62.26C30.056 62.376 30.116 62.472 30.212 62.556C30.216 62.408 30.184 62.28 30.14 62.14C30.272 62.192 30.396 62.216 30.536 62.22C30.448 62.124 30.352 62.068 30.244 62.004C30.364 61.948 30.46 61.884 30.552 61.784C30.416 61.78 30.292 61.808 30.16 61.852Z" fill="#FA9EF4"/>
<path d="M31.704 61.904C31.652 61.944 31.596 61.972 31.532 61.984C31.556 61.94 31.648 61.896 31.704 61.904Z" fill="#FA40ED"/>
<path d="M31.532 62.012C31.596 62.024 31.652 62.056 31.704 62.092C31.648 62.104 31.556 62.064 31.532 62.012Z" fill="#FA40ED"/>
<path d="M30.796 61.516C30.808 61.48 30.828 61.448 30.86 61.42C30.888 61.488 30.836 61.496 30.796 61.516Z" fill="#FA40ED"/>
<path d="M29.42 62.8601C29.444 62.8281 29.476 62.8081 29.516 62.7961C29.496 62.8361 29.488 62.8881 29.42 62.8601Z" fill="#FA40ED"/>
<path d="M29.7641 62.608C29.7641 62.624 29.7641 62.64 29.7641 62.656C29.7401 62.656 29.7121 62.684 29.6881 62.656C29.7001 62.632 29.7241 62.62 29.7481 62.608C29.7521 62.608 29.7601 62.608 29.7641 62.608Z" fill="#FA40ED"/>
<path d="M31.8641 61.8C31.8441 61.828 31.8161 61.848 31.7841 61.86C31.7801 61.8 31.8161 61.796 31.8641 61.8Z" fill="#FA40ED"/>
<path d="M29.86 63.78C29.848 63.804 29.84 63.828 29.816 63.844C29.784 63.792 29.82 63.784 29.86 63.78Z" fill="#FA40ED"/>
<path d="M31.78 62.14C31.804 62.152 31.828 62.16 31.844 62.184C31.792 62.216 31.784 62.18 31.78 62.14Z" fill="#FA40ED"/>
<path d="M30.62 61.728C30.624 61.708 30.636 61.696 30.652 61.684C30.668 61.7 30.672 61.712 30.656 61.732C30.648 61.748 30.632 61.74 30.62 61.728Z" fill="#FA40ED"/>
<path d="M31.076 61.016C31.084 60.996 31.092 60.976 31.096 60.956C31.124 60.984 31.12 60.996 31.076 61.016Z" fill="#FA40ED"/>
<path d="M28.952 63.096C28.972 63.088 28.992 63.084 29.012 63.076C29.004 63.108 28.992 63.14 28.952 63.096Z" fill="#FA40ED"/>
<path d="M30.6399 62.312C30.6199 62.3 30.6039 62.284 30.5959 62.264C30.6199 62.272 30.6639 62.26 30.6399 62.312Z" fill="#FA40ED"/>
<path d="M32.064 61.64C32.052 61.66 32.036 61.668 32.016 61.676C32.024 61.652 32.02 61.62 32.064 61.64Z" fill="#FA40ED"/>
<path d="M28.768 63.624C28.764 63.608 28.768 63.588 28.78 63.576C28.8 63.6 28.796 63.616 28.768 63.624Z" fill="#FA40ED"/>
<path d="M31.6241 63.232C31.6081 63.236 31.588 63.232 31.576 63.22C31.6 63.2 31.6161 63.204 31.6241 63.232Z" fill="#FA40ED"/>
<path d="M30.812 62.532C30.792 62.524 30.784 62.508 30.78 62.484C30.808 62.488 30.812 62.508 30.812 62.532Z" fill="#FA40ED"/>
<path d="M30.8439 62.58C30.8239 62.568 30.8159 62.552 30.8119 62.532C30.8399 62.536 30.8439 62.556 30.8439 62.58Z" fill="#FA40ED"/>
<path d="M29.9081 63.352C29.9241 63.368 29.9361 63.384 29.9361 63.408C29.9081 63.396 29.9081 63.376 29.9081 63.352Z" fill="#FA40ED"/>
<path d="M31.0921 63.04C31.0761 63.032 31.0641 63.02 31.0641 63C31.0841 63.004 31.0921 63.02 31.0921 63.04Z" fill="#FA40ED"/>
<path d="M31.576 60.78C31.584 60.768 31.596 60.768 31.608 60.768C31.604 60.788 31.596 60.796 31.576 60.78Z" fill="#FA40ED"/>
<path d="M31.408 61.952C31.396 61.952 31.384 61.952 31.376 61.94C31.392 61.92 31.4 61.932 31.408 61.952Z" fill="#FA40ED"/>
<path d="M31.376 62.06C31.384 62.048 31.396 62.048 31.408 62.048C31.4 62.068 31.392 62.08 31.376 62.06Z" fill="#FA40ED"/>
<path d="M30.16 61.852C30.292 61.808 30.416 61.78 30.56 61.784C30.468 61.88 30.368 61.948 30.252 62.004C30.36 62.068 30.46 62.124 30.544 62.22C30.404 62.22 30.28 62.196 30.148 62.14C30.196 62.28 30.228 62.408 30.22 62.556C30.124 62.468 30.064 62.376 30.004 62.26C29.94 62.38 29.872 62.476 29.772 62.58C29.764 62.424 29.792 62.292 29.844 62.152C29.716 62.192 29.592 62.224 29.448 62.216C29.54 62.12 29.64 62.056 29.752 61.996C29.644 61.936 29.548 61.876 29.46 61.78C29.604 61.78 29.728 61.804 29.86 61.86C29.812 61.72 29.78 61.592 29.788 61.444C29.88 61.532 29.944 61.624 30.004 61.744C30.068 61.624 30.14 61.524 30.24 61.424C30.24 61.576 30.212 61.712 30.16 61.852ZM30.016 61.968C30.012 61.912 30.032 61.848 29.984 61.796C29.984 61.852 29.984 61.912 29.984 61.968C29.928 62 29.86 61.968 29.8 62.004C29.86 62.012 29.924 62.02 29.984 62.028C29.988 62.084 29.968 62.148 30.004 62.2C30 62.144 30.048 62.08 29.984 62.028C29.984 62.008 29.996 61.984 29.984 61.964C29.996 61.968 30.004 61.968 30.016 61.968C30.064 62.06 30.14 61.996 30.196 62.012C30.196 62.004 30.2 62 30.2 61.992C30.14 61.984 30.076 61.976 30.016 61.968ZM29.872 62.12C29.876 62.12 29.876 62.124 29.88 62.12V62.116C29.876 62.116 29.876 62.116 29.876 62.116C29.872 62.112 29.872 62.116 29.872 62.12ZM30.128 61.884V61.88C30.124 61.88 30.124 61.88 30.12 61.884V61.888C30.124 61.888 30.128 61.888 30.128 61.884Z" fill="#FA40ED"/>
<path d="M29.764 62.608C29.76 62.608 29.752 62.608 29.748 62.608C29.752 62.6 29.76 62.6 29.764 62.608Z" fill="#FA40ED"/>
<path d="M29.9839 61.968C29.9959 61.988 29.9839 62.012 29.9839 62.032C29.9239 62.024 29.8599 62.016 29.7999 62.008C29.8599 61.968 29.9279 62 29.9839 61.968Z" fill="#FA9BF4"/>
<path d="M30.016 61.968C30.076 61.976 30.14 61.984 30.2 61.992C30.2 62 30.196 62.004 30.196 62.012C30.136 61.996 30.06 62.064 30.016 61.968Z" fill="#FA9BF4"/>
<path d="M29.984 61.9681C29.984 61.9121 29.984 61.8521 29.984 61.7961C30.028 61.8521 30.008 61.9121 30.016 61.9681C30.004 61.9681 29.996 61.9681 29.984 61.9681Z" fill="#FA9BF4"/>
<path d="M29.984 62.032C30.048 62.084 30 62.148 30.004 62.204C29.972 62.148 29.992 62.088 29.984 62.032Z" fill="#FA9BF4"/>
<path d="M29.8719 62.121V62.116H29.8769V62.121H29.8719Z" fill="#FA9BF4"/>
<path d="M30.1288 61.8844C30.1244 61.8844 30.1244 61.8844 30.12 61.8888V61.8844C30.12 61.8844 30.1244 61.8844 30.1288 61.88V61.8844Z" fill="#FA9BF4"/>
<path d="M73 58C70.792 58 69 59.792 69 62C69 62.716 69.188 63.388 69.516 63.968L71.232 63.236L71.76 63.764L70.712 65.248C70.712 65.248 70.724 65.292 70.752 65.308C71.392 65.744 72.164 65.996 72.996 65.996C75.204 65.996 76.996 64.204 76.996 61.996C77 59.792 75.208 58 73 58Z" fill="#39B002"/>
<path d="M72.752 58C72.92 58 73.084 58 73.252 58C73.26 58.024 73.284 58.016 73.3 58.016C73.416 58.012 73.532 58.032 73.644 58.052C74.012 58.116 74.368 58.224 74.708 58.384C75.256 58.64 75.716 59.008 76.1 59.472C76.372 59.804 76.584 60.172 76.736 60.576C76.852 60.884 76.932 61.2 76.972 61.528C76.98 61.604 76.964 61.68 77 61.752C77 61.924 77 62.096 77 62.268C76.98 62.276 76.984 62.292 76.984 62.308C76.988 62.452 76.96 62.596 76.932 62.736C76.868 63.072 76.764 63.4 76.616 63.712C76.36 64.26 75.992 64.72 75.528 65.104C75.196 65.376 74.828 65.588 74.424 65.74C74.116 65.856 73.8 65.936 73.472 65.976C73.396 65.984 73.32 65.968 73.248 66.004C73.076 66.004 72.904 66.004 72.732 66.004C72.728 65.988 72.712 65.988 72.7 65.988C72.46 65.98 72.228 65.936 71.996 65.876C71.552 65.76 71.136 65.576 70.756 65.316C70.732 65.3 70.72 65.284 70.712 65.252C70.684 65.108 70.756 65 70.82 64.888C70.98 64.616 71.16 64.356 71.34 64.096C71.472 63.976 71.62 63.876 71.76 63.768C71.76 63.996 71.788 64.224 71.856 64.444C71.904 64.592 71.872 64.624 72.056 64.524C72.264 64.412 72.448 64.26 72.62 64.096C72.624 64.12 72.636 64.14 72.636 64.164C72.644 64.432 72.7 64.696 72.764 64.956C72.816 65.164 72.876 65.368 72.972 65.56C72.98 65.572 72.976 65.592 73 65.592C73.02 65.592 73.024 65.572 73.028 65.56C73.052 65.508 73.072 65.456 73.092 65.404C73.204 65.104 73.28 64.792 73.328 64.476C73.344 64.356 73.36 64.232 73.376 64.112C73.436 64.164 73.496 64.22 73.556 64.268C73.696 64.384 73.844 64.488 74.008 64.564C74.052 64.584 74.076 64.584 74.096 64.524C74.184 64.272 74.216 64.012 74.22 63.748C74.344 63.844 74.464 63.944 74.592 64.032C74.872 64.232 75.168 64.408 75.492 64.532C75.508 64.54 75.524 64.556 75.54 64.54C75.556 64.524 75.54 64.508 75.532 64.492C75.464 64.3 75.364 64.12 75.264 63.944C75.12 63.692 74.94 63.464 74.764 63.236C74.992 63.236 75.22 63.208 75.44 63.14C75.604 63.092 75.604 63.088 75.52 62.94C75.404 62.732 75.256 62.548 75.092 62.376C75.28 62.348 75.468 62.332 75.656 62.296C75.96 62.24 76.26 62.156 76.548 62.036C76.564 62.028 76.592 62.024 76.592 62C76.592 61.976 76.564 61.976 76.548 61.968C76.164 61.796 75.76 61.708 75.348 61.652C75.264 61.64 75.176 61.656 75.096 61.62C75.152 61.556 75.212 61.492 75.264 61.428C75.38 61.288 75.484 61.14 75.564 60.976C75.588 60.928 75.584 60.9 75.524 60.88C75.28 60.796 75.028 60.76 74.768 60.76C74.884 60.608 75.008 60.46 75.112 60.3C75.276 60.052 75.428 59.796 75.532 59.512C75.54 59.496 75.56 59.476 75.54 59.456C75.52 59.436 75.5 59.46 75.484 59.464C75.22 59.564 74.976 59.704 74.74 59.856C74.564 59.968 74.404 60.104 74.236 60.232C74.236 60.004 74.208 59.776 74.14 59.556C74.092 59.392 74.088 59.392 73.94 59.476C73.732 59.592 73.548 59.74 73.376 59.904C73.34 59.856 73.364 59.796 73.36 59.744C73.324 59.488 73.288 59.232 73.22 58.984C73.168 58.796 73.116 58.612 73.028 58.436C73.024 58.424 73.024 58.4 73.004 58.404C72.988 58.404 72.98 58.42 72.972 58.436C72.952 58.484 72.928 58.536 72.912 58.584C72.756 59.004 72.672 59.44 72.628 59.888C72.568 59.836 72.508 59.78 72.448 59.732C72.308 59.616 72.16 59.512 71.996 59.436C71.952 59.416 71.928 59.416 71.908 59.476C71.82 59.728 71.788 59.988 71.784 60.252C71.66 60.156 71.54 60.056 71.412 59.968C71.132 59.768 70.836 59.592 70.512 59.468C70.496 59.46 70.48 59.448 70.464 59.464C70.448 59.48 70.464 59.496 70.472 59.512C70.54 59.708 70.64 59.888 70.744 60.064C70.888 60.312 71.064 60.54 71.24 60.764C71.008 60.764 70.78 60.796 70.556 60.86C70.4 60.904 70.4 60.916 70.476 61.052C70.596 61.26 70.744 61.448 70.908 61.624C70.884 61.628 70.86 61.64 70.84 61.64C70.572 61.648 70.308 61.704 70.048 61.768C69.84 61.82 69.636 61.88 69.444 61.976C69.432 61.984 69.412 61.98 69.412 62.004C69.412 62.024 69.432 62.028 69.444 62.032C69.508 62.06 69.576 62.088 69.64 62.112C70.048 62.264 70.476 62.336 70.908 62.38C70.852 62.444 70.792 62.508 70.74 62.572C70.624 62.712 70.52 62.86 70.44 63.024C70.416 63.072 70.42 63.1 70.48 63.12C70.724 63.204 70.976 63.24 71.236 63.24C71.22 63.26 71.204 63.276 71.192 63.296C71.18 63.3 71.16 63.3 71.152 63.316H71.148V63.32C70.896 63.464 70.644 63.612 70.388 63.752C70.196 63.86 70 63.964 69.792 64.04C69.652 64.092 69.568 64.06 69.52 63.972C69.26 63.496 69.088 63 69.028 62.468C69.02 62.4 69.04 62.328 69 62.268C69 62.092 69 61.912 69 61.736C69.02 61.728 69.016 61.712 69.016 61.696C69.012 61.552 69.04 61.408 69.064 61.268C69.128 60.932 69.232 60.604 69.38 60.292C69.64 59.744 70.008 59.284 70.472 58.9C70.8 58.628 71.172 58.416 71.572 58.264C71.88 58.148 72.196 58.068 72.524 58.028C72.6 58.02 72.68 58.036 72.752 58Z" fill="#39B002"/>
<path d="M71.78 60.248C71.78 59.984 71.812 59.724 71.904 59.472C71.924 59.412 71.948 59.412 71.992 59.432C72.156 59.508 72.304 59.612 72.444 59.728C72.504 59.78 72.564 59.832 72.624 59.884C72.772 60.052 72.908 60.228 73.008 60.448C73.104 60.236 73.236 60.064 73.376 59.9C73.548 59.736 73.732 59.588 73.94 59.472C74.088 59.388 74.092 59.388 74.14 59.552C74.208 59.772 74.236 59.996 74.236 60.228C74.236 60.416 74.208 60.6 74.156 60.78C74.136 60.856 74.14 60.86 74.22 60.836C74.336 60.804 74.456 60.772 74.58 60.772C74.6 60.788 74.608 60.78 74.612 60.76C74.664 60.76 74.716 60.756 74.768 60.756C75.028 60.756 75.28 60.792 75.524 60.876C75.584 60.896 75.588 60.924 75.564 60.972C75.484 61.136 75.384 61.288 75.264 61.424C75.208 61.488 75.152 61.552 75.096 61.616C75.084 61.624 75.076 61.628 75.064 61.636C75.024 61.612 75.024 61.644 75.016 61.672C74.972 61.72 74.924 61.764 74.86 61.792C74.816 61.788 74.776 61.796 74.78 61.852C74.752 61.868 74.728 61.884 74.7 61.9C74.648 61.888 74.556 61.932 74.528 61.98C74.528 61.988 74.528 61.996 74.528 62.004C74.552 62.052 74.644 62.096 74.7 62.084C74.728 62.1 74.752 62.116 74.78 62.132C74.784 62.172 74.788 62.208 74.844 62.176C74.936 62.228 75.012 62.304 75.092 62.368C75.256 62.54 75.404 62.724 75.52 62.932C75.604 63.08 75.604 63.084 75.44 63.132C75.22 63.2 74.996 63.228 74.764 63.228C74.716 63.228 74.668 63.224 74.624 63.224C74.616 63.196 74.6 63.192 74.576 63.212C74.424 63.212 74.28 63.176 74.14 63.12C74.136 63.092 74.128 63.064 74.092 63.056C74.092 63.048 74.092 63.04 74.092 63.032C74.092 63.012 74.084 62.996 74.064 62.992C73.992 62.852 73.916 62.712 73.844 62.572C73.844 62.548 73.84 62.528 73.812 62.524C73.812 62.5 73.808 62.48 73.78 62.476C73.732 62.42 73.688 62.36 73.64 62.304C73.664 62.252 73.624 62.264 73.596 62.256C73.568 62.224 73.568 62.212 73.616 62.208C73.688 62.204 73.76 62.192 73.832 62.184C74.016 62.16 74.196 62.1 74.376 62.052C74.396 62.068 74.404 62.06 74.408 62.04C74.436 62.024 74.464 62.012 74.504 61.992C74.464 61.972 74.436 61.956 74.408 61.944C74.404 61.924 74.396 61.916 74.376 61.932C74.128 61.856 73.876 61.792 73.616 61.772C73.56 61.768 73.616 61.74 73.624 61.724C73.636 61.736 73.648 61.744 73.664 61.728C73.68 61.712 73.672 61.696 73.66 61.68C73.708 61.624 73.752 61.564 73.8 61.508C73.84 61.492 73.892 61.48 73.864 61.412C73.936 61.276 74.008 61.14 74.08 61.004C74.128 60.984 74.132 60.972 74.1 60.944C74.104 60.928 74.12 60.908 74.104 60.892C74.084 60.872 74.064 60.888 74.048 60.896C73.776 61.012 73.52 61.152 73.3 61.352C73.284 61.364 73.268 61.388 73.248 61.376C73.228 61.368 73.24 61.344 73.236 61.328C73.212 61.16 73.192 60.988 73.14 60.824C73.104 60.704 73.068 60.58 73.008 60.456C72.876 60.764 72.804 61.076 72.776 61.404C72.74 61.38 72.716 61.364 72.696 61.344C72.48 61.148 72.228 61.008 71.964 60.896C71.948 60.888 71.932 60.868 71.916 60.892C71.904 60.908 71.92 60.928 71.924 60.944C72.02 61.176 72.14 61.392 72.296 61.592C72.34 61.648 72.404 61.688 72.428 61.768C72.108 61.788 71.804 61.86 71.492 61.992C71.8 62.124 72.1 62.188 72.424 62.216C72.4 62.252 72.384 62.276 72.364 62.296C72.164 62.516 72.024 62.772 71.908 63.044C71.9 63.06 71.888 63.08 71.904 63.092C71.92 63.104 71.94 63.092 71.956 63.088C71.996 63.132 72.008 63.1 72.016 63.068C72.152 62.996 72.288 62.924 72.424 62.852C72.488 62.884 72.5 62.832 72.52 62.788C72.576 62.74 72.636 62.696 72.692 62.648C72.716 62.676 72.744 62.652 72.768 62.648C72.784 62.74 72.8 62.832 72.812 62.924C72.832 63.068 72.892 63.2 72.912 63.344C72.912 63.368 72.908 63.392 72.94 63.4C72.956 63.44 72.972 63.484 72.988 63.524C72.932 63.568 72.9 63.62 72.908 63.696C72.892 63.724 72.876 63.748 72.86 63.776C72.82 63.78 72.784 63.784 72.816 63.84C72.768 63.936 72.688 64.004 72.624 64.088C72.452 64.252 72.268 64.4 72.06 64.516C71.876 64.616 71.908 64.584 71.86 64.436C71.792 64.216 71.764 63.992 71.764 63.76C71.764 63.712 71.768 63.664 71.768 63.62C71.796 63.612 71.8 63.596 71.78 63.572C71.776 63.452 71.808 63.336 71.84 63.22C71.864 63.132 71.86 63.124 71.776 63.152C71.6 63.204 71.416 63.232 71.232 63.232C70.972 63.232 70.72 63.196 70.476 63.112C70.416 63.092 70.412 63.064 70.436 63.016C70.516 62.852 70.616 62.7 70.736 62.564C70.792 62.5 70.848 62.436 70.904 62.372C71.076 62.228 71.252 62.088 71.472 61.996C71.248 61.9 71.072 61.764 70.904 61.62C70.74 61.448 70.592 61.26 70.472 61.048C70.392 60.908 70.396 60.9 70.552 60.856C70.776 60.792 71.004 60.76 71.236 60.76C71.456 60.76 71.668 60.8 71.888 60.868C71.82 60.66 71.78 60.46 71.78 60.248Z" fill="#FA40ED"/>
<path d="M72.9079 63.704C72.8959 63.632 72.9319 63.576 72.9879 63.532C73.0599 63.416 73.0879 63.284 73.1279 63.156C73.1839 62.972 73.2079 62.784 73.2279 62.592C73.2719 62.604 73.2999 62.636 73.3279 62.66C73.5439 62.848 73.7879 62.984 74.0519 63.096C74.0879 63.112 74.0999 63.1 74.0959 63.064C74.1319 63.072 74.1399 63.096 74.1439 63.128C74.1039 63.14 74.1279 63.168 74.1359 63.184C74.1919 63.368 74.2239 63.56 74.2279 63.752C74.2279 64.016 74.1959 64.276 74.1039 64.528C74.0839 64.588 74.0639 64.588 74.0159 64.568C73.8519 64.492 73.7039 64.388 73.5639 64.272C73.5039 64.22 73.4439 64.168 73.3839 64.116C73.2359 63.948 73.0999 63.772 72.9999 63.56C72.9599 63.608 72.9319 63.656 72.9079 63.704Z" fill="#FA40ED"/>
<path d="M75.096 62.376C75.012 62.312 74.94 62.236 74.848 62.184C74.836 62.16 74.808 62.152 74.784 62.14C74.756 62.124 74.732 62.108 74.704 62.092C74.652 62.052 74.596 62.024 74.532 62.012C74.532 62.004 74.532 61.996 74.532 61.988C74.596 61.976 74.652 61.944 74.704 61.908C74.732 61.892 74.756 61.876 74.784 61.86C74.816 61.848 74.844 61.828 74.864 61.8C74.924 61.772 74.972 61.728 75.02 61.68C75.04 61.676 75.056 61.664 75.068 61.644C75.08 61.636 75.088 61.632 75.1 61.624C75.18 61.66 75.268 61.644 75.352 61.656C75.764 61.712 76.168 61.8 76.552 61.972C76.568 61.98 76.596 61.98 76.596 62.004C76.596 62.028 76.568 62.032 76.552 62.04C76.264 62.16 75.968 62.244 75.66 62.3C75.468 62.332 75.28 62.348 75.096 62.376Z" fill="#FA9EF4"/>
<path d="M70.904 61.624C71.076 61.768 71.248 61.908 71.472 62C71.248 62.096 71.076 62.236 70.904 62.376C70.472 62.332 70.044 62.26 69.636 62.108C69.568 62.084 69.504 62.056 69.44 62.028C69.428 62.024 69.408 62.016 69.408 62C69.408 61.98 69.428 61.98 69.44 61.972C69.632 61.876 69.836 61.816 70.044 61.764C70.304 61.7 70.568 61.648 70.836 61.636C70.86 61.64 70.884 61.628 70.904 61.624Z" fill="#FA9EF4"/>
<path d="M73.376 59.908C73.236 60.072 73.104 60.244 73.008 60.456C72.908 60.24 72.772 60.06 72.624 59.892C72.668 59.448 72.752 59.008 72.908 58.588C72.928 58.536 72.948 58.488 72.968 58.44C72.976 58.424 72.98 58.412 73 58.408C73.02 58.408 73.02 58.428 73.024 58.44C73.112 58.616 73.164 58.8 73.216 58.988C73.284 59.236 73.324 59.492 73.356 59.748C73.368 59.8 73.344 59.856 73.376 59.908Z" fill="#FA9EF4"/>
<path d="M72.908 63.704C72.936 63.656 72.964 63.612 72.996 63.556C73.092 63.768 73.228 63.944 73.38 64.112C73.364 64.232 73.348 64.356 73.332 64.476C73.288 64.796 73.212 65.104 73.096 65.404C73.076 65.456 73.052 65.508 73.032 65.56C73.028 65.572 73.02 65.592 73.004 65.592C72.984 65.592 72.984 65.572 72.976 65.56C72.88 65.368 72.82 65.164 72.768 64.956C72.704 64.696 72.652 64.432 72.64 64.164C72.64 64.14 72.628 64.12 72.624 64.096C72.688 64.012 72.768 63.94 72.816 63.848C72.84 63.836 72.848 63.808 72.86 63.784C72.876 63.756 72.892 63.728 72.908 63.704Z" fill="#FA9EF4"/>
<path d="M71.7801 60.248C71.7801 60.456 71.8201 60.66 71.8881 60.872C71.6681 60.804 71.4561 60.76 71.2361 60.764C71.0601 60.54 70.8841 60.312 70.7401 60.064C70.6361 59.884 70.5361 59.704 70.4681 59.512C70.4641 59.496 70.4481 59.48 70.4601 59.464C70.4761 59.448 70.4921 59.464 70.5081 59.468C70.8321 59.588 71.1281 59.768 71.4081 59.968C71.5361 60.056 71.6561 60.156 71.7801 60.248Z" fill="#FA9EF4"/>
<path d="M74.2201 63.752C74.2161 63.556 74.1881 63.368 74.1281 63.184C74.1241 63.168 74.0961 63.14 74.1361 63.128C74.2761 63.184 74.4201 63.22 74.5721 63.22C74.5841 63.236 74.6001 63.236 74.6201 63.232C74.6681 63.232 74.7161 63.236 74.7601 63.236C74.9361 63.464 75.1161 63.692 75.2601 63.944C75.3601 64.12 75.4601 64.3 75.5281 64.492C75.5321 64.508 75.5481 64.524 75.5361 64.54C75.5201 64.556 75.5041 64.54 75.4881 64.532C75.1641 64.412 74.8681 64.232 74.5881 64.032C74.4641 63.944 74.3441 63.844 74.2201 63.752Z" fill="#FA9EF4"/>
<path d="M71.7681 63.624C71.7681 63.672 71.7641 63.72 71.7641 63.764C71.6241 63.872 71.4801 63.976 71.3441 64.092C71.2161 64.164 71.0881 64.24 70.9641 64.312C70.8281 64.392 70.6841 64.464 70.5361 64.52C70.5121 64.528 70.4881 64.556 70.4641 64.536C70.4361 64.512 70.4641 64.48 70.4721 64.456C70.5841 64.188 70.7201 63.936 70.8841 63.7C70.9561 63.596 71.0321 63.5 71.1041 63.4C71.1241 63.376 71.1401 63.348 71.1401 63.316V63.312H71.1441C71.1641 63.312 71.1761 63.304 71.1841 63.292C71.2001 63.272 71.2161 63.256 71.2281 63.236C71.4121 63.236 71.5921 63.208 71.7721 63.156C71.8561 63.132 71.8601 63.136 71.8361 63.224C71.8041 63.34 71.7721 63.452 71.7761 63.576C71.7681 63.592 71.7641 63.608 71.7681 63.624Z" fill="#FA9EF4"/>
<path d="M74.768 60.764C74.716 60.764 74.664 60.768 74.612 60.768C74.6 60.768 74.588 60.768 74.58 60.78C74.456 60.78 74.34 60.812 74.22 60.844C74.14 60.864 74.136 60.864 74.156 60.788C74.208 60.608 74.236 60.424 74.236 60.236C74.404 60.112 74.564 59.976 74.74 59.86C74.976 59.708 75.22 59.568 75.484 59.468C75.5 59.46 75.52 59.44 75.54 59.46C75.56 59.48 75.536 59.5 75.532 59.516C75.428 59.796 75.276 60.052 75.112 60.304C75.004 60.464 74.88 60.612 74.768 60.764Z" fill="#FA9EF4"/>
<path d="M71.1881 63.292C71.1801 63.308 71.1681 63.316 71.1481 63.312C71.1561 63.296 71.1761 63.296 71.1881 63.292Z" fill="#FEFEFE"/>
<path d="M74.092 63.064C74.096 63.1 74.084 63.112 74.048 63.096C73.784 62.984 73.54 62.848 73.324 62.66C73.296 62.636 73.268 62.604 73.224 62.592C73.204 62.784 73.18 62.972 73.124 63.156C73.084 63.284 73.056 63.416 72.984 63.532C72.968 63.492 72.952 63.448 72.936 63.408C72.94 63.384 72.924 63.368 72.908 63.352C72.888 63.208 72.824 63.076 72.808 62.932C72.796 62.84 72.78 62.748 72.764 62.656C72.764 62.64 72.764 62.624 72.764 62.608C72.76 62.596 72.752 62.6 72.748 62.608C72.724 62.62 72.7 62.632 72.688 62.656C72.632 62.704 72.572 62.748 72.516 62.796C72.48 62.808 72.448 62.828 72.42 62.86C72.284 62.932 72.148 63.004 72.012 63.076C71.992 63.084 71.972 63.092 71.952 63.096C71.936 63.1 71.916 63.116 71.9 63.1C71.884 63.084 71.896 63.068 71.904 63.052C72.02 62.78 72.16 62.524 72.36 62.304C72.38 62.284 72.392 62.26 72.42 62.224C72.096 62.196 71.796 62.132 71.488 62C71.8 61.868 72.104 61.8 72.424 61.776C72.4 61.696 72.336 61.656 72.292 61.6C72.14 61.4 72.02 61.184 71.92 60.952C71.912 60.936 71.896 60.92 71.912 60.9C71.928 60.88 71.944 60.9 71.96 60.904C72.228 61.016 72.48 61.156 72.692 61.352C72.712 61.372 72.736 61.384 72.772 61.412C72.8 61.08 72.872 60.772 73.004 60.464C73.068 60.588 73.1 60.712 73.136 60.832C73.188 60.996 73.208 61.164 73.232 61.336C73.236 61.352 73.224 61.376 73.244 61.384C73.264 61.392 73.284 61.372 73.296 61.36C73.516 61.16 73.772 61.02 74.044 60.904C74.064 60.896 74.084 60.88 74.1 60.9C74.116 60.916 74.1 60.936 74.096 60.952C74.088 60.972 74.08 60.992 74.076 61.012C74.004 61.148 73.932 61.284 73.86 61.42C73.828 61.444 73.808 61.476 73.796 61.516C73.748 61.572 73.704 61.632 73.656 61.688C73.64 61.696 73.628 61.712 73.624 61.732C73.62 61.748 73.56 61.776 73.616 61.78C73.876 61.8 74.128 61.864 74.376 61.94C74.384 61.952 74.396 61.952 74.408 61.952C74.436 61.968 74.464 61.98 74.504 62C74.464 62.02 74.436 62.036 74.408 62.048C74.396 62.048 74.384 62.048 74.376 62.06C74.196 62.108 74.02 62.172 73.832 62.192C73.76 62.2 73.688 62.212 73.616 62.216C73.568 62.22 73.568 62.232 73.596 62.264C73.604 62.284 73.62 62.3 73.64 62.312C73.688 62.368 73.732 62.428 73.78 62.484C73.784 62.504 73.792 62.52 73.812 62.532C73.812 62.552 73.824 62.568 73.844 62.58C73.916 62.72 73.992 62.86 74.064 63C74.064 63.02 74.076 63.032 74.092 63.04C74.092 63.048 74.092 63.056 74.092 63.064ZM73.16 61.852C73.212 61.712 73.24 61.58 73.232 61.424C73.132 61.528 73.064 61.624 72.996 61.744C72.94 61.624 72.876 61.532 72.78 61.444C72.776 61.592 72.808 61.724 72.852 61.86C72.72 61.808 72.596 61.784 72.452 61.78C72.54 61.876 72.636 61.936 72.744 61.996C72.628 62.056 72.528 62.116 72.44 62.216C72.584 62.224 72.708 62.192 72.836 62.152C72.784 62.288 72.756 62.424 72.764 62.58C72.864 62.48 72.932 62.38 72.996 62.26C73.056 62.376 73.116 62.472 73.212 62.556C73.216 62.408 73.184 62.28 73.14 62.14C73.272 62.192 73.396 62.216 73.536 62.22C73.448 62.124 73.352 62.068 73.244 62.004C73.364 61.948 73.46 61.884 73.552 61.784C73.416 61.78 73.292 61.808 73.16 61.852Z" fill="#FA9EF4"/>
<path d="M74.704 61.904C74.652 61.944 74.596 61.972 74.532 61.984C74.556 61.94 74.648 61.896 74.704 61.904Z" fill="#FA40ED"/>
<path d="M74.532 62.012C74.596 62.024 74.652 62.056 74.704 62.092C74.648 62.104 74.556 62.064 74.532 62.012Z" fill="#FA40ED"/>
<path d="M73.796 61.516C73.808 61.48 73.828 61.448 73.86 61.42C73.888 61.488 73.836 61.496 73.796 61.516Z" fill="#FA40ED"/>
<path d="M72.42 62.8601C72.444 62.8281 72.476 62.8081 72.516 62.7961C72.496 62.8361 72.488 62.8881 72.42 62.8601Z" fill="#FA40ED"/>
<path d="M72.7641 62.608C72.7641 62.624 72.7641 62.64 72.7641 62.656C72.7401 62.656 72.7121 62.684 72.6881 62.656C72.7001 62.632 72.7241 62.62 72.7481 62.608C72.7521 62.608 72.7601 62.608 72.7641 62.608Z" fill="#FA40ED"/>
<path d="M74.8641 61.8C74.8441 61.828 74.8161 61.848 74.7841 61.86C74.7801 61.8 74.8161 61.796 74.8641 61.8Z" fill="#FA40ED"/>
<path d="M72.86 63.78C72.848 63.804 72.84 63.828 72.816 63.844C72.784 63.792 72.82 63.784 72.86 63.78Z" fill="#FA40ED"/>
<path d="M74.78 62.14C74.804 62.152 74.828 62.16 74.844 62.184C74.792 62.216 74.784 62.18 74.78 62.14Z" fill="#FA40ED"/>
<path d="M73.62 61.728C73.624 61.708 73.636 61.696 73.652 61.684C73.668 61.7 73.672 61.712 73.656 61.732C73.648 61.748 73.632 61.74 73.62 61.728Z" fill="#FA40ED"/>
<path d="M74.076 61.016C74.084 60.996 74.092 60.976 74.096 60.956C74.124 60.984 74.12 60.996 74.076 61.016Z" fill="#FA40ED"/>
<path d="M71.952 63.096C71.972 63.088 71.992 63.084 72.012 63.076C72.004 63.108 71.992 63.14 71.952 63.096Z" fill="#FA40ED"/>
<path d="M73.6399 62.312C73.6199 62.3 73.6039 62.284 73.5959 62.264C73.6199 62.272 73.6639 62.26 73.6399 62.312Z" fill="#FA40ED"/>
<path d="M75.064 61.64C75.052 61.66 75.036 61.668 75.016 61.676C75.024 61.652 75.02 61.62 75.064 61.64Z" fill="#FA40ED"/>
<path d="M71.768 63.624C71.764 63.608 71.768 63.588 71.78 63.576C71.8 63.6 71.796 63.616 71.768 63.624Z" fill="#FA40ED"/>
<path d="M74.6241 63.232C74.6081 63.236 74.588 63.232 74.576 63.22C74.6 63.2 74.6161 63.204 74.6241 63.232Z" fill="#FA40ED"/>
<path d="M73.812 62.532C73.792 62.524 73.784 62.508 73.78 62.484C73.808 62.488 73.812 62.508 73.812 62.532Z" fill="#FA40ED"/>
<path d="M73.8439 62.58C73.8239 62.568 73.8159 62.552 73.8119 62.532C73.8399 62.536 73.8439 62.556 73.8439 62.58Z" fill="#FA40ED"/>
<path d="M72.9081 63.352C72.9241 63.368 72.9361 63.384 72.9361 63.408C72.9081 63.396 72.9081 63.376 72.9081 63.352Z" fill="#FA40ED"/>
<path d="M74.0921 63.04C74.0761 63.032 74.0641 63.02 74.0641 63C74.0841 63.004 74.0921 63.02 74.0921 63.04Z" fill="#FA40ED"/>
<path d="M74.576 60.78C74.584 60.768 74.596 60.768 74.608 60.768C74.604 60.788 74.596 60.796 74.576 60.78Z" fill="#FA40ED"/>
<path d="M74.408 61.952C74.396 61.952 74.384 61.952 74.376 61.94C74.392 61.92 74.4 61.932 74.408 61.952Z" fill="#FA40ED"/>
<path d="M74.376 62.06C74.384 62.048 74.396 62.048 74.408 62.048C74.4 62.068 74.392 62.08 74.376 62.06Z" fill="#FA40ED"/>
<path d="M73.16 61.852C73.292 61.808 73.416 61.78 73.56 61.784C73.468 61.88 73.368 61.948 73.252 62.004C73.36 62.068 73.46 62.124 73.544 62.22C73.404 62.22 73.28 62.196 73.148 62.14C73.196 62.28 73.228 62.408 73.22 62.556C73.124 62.468 73.064 62.376 73.004 62.26C72.94 62.38 72.872 62.476 72.772 62.58C72.764 62.424 72.792 62.292 72.844 62.152C72.716 62.192 72.592 62.224 72.448 62.216C72.54 62.12 72.64 62.056 72.752 61.996C72.644 61.936 72.548 61.876 72.46 61.78C72.604 61.78 72.728 61.804 72.86 61.86C72.812 61.72 72.78 61.592 72.788 61.444C72.88 61.532 72.944 61.624 73.004 61.744C73.068 61.624 73.14 61.524 73.24 61.424C73.24 61.576 73.212 61.712 73.16 61.852ZM73.016 61.968C73.012 61.912 73.032 61.848 72.984 61.796C72.984 61.852 72.984 61.912 72.984 61.968C72.928 62 72.86 61.968 72.8 62.004C72.86 62.012 72.924 62.02 72.984 62.028C72.988 62.084 72.968 62.148 73.004 62.2C73 62.144 73.048 62.08 72.984 62.028C72.984 62.008 72.996 61.984 72.984 61.964C72.996 61.968 73.004 61.968 73.016 61.968C73.064 62.06 73.14 61.996 73.196 62.012C73.196 62.004 73.2 62 73.2 61.992C73.14 61.984 73.076 61.976 73.016 61.968ZM72.872 62.12C72.876 62.12 72.876 62.124 72.88 62.12V62.116C72.876 62.116 72.876 62.116 72.876 62.116C72.872 62.112 72.872 62.116 72.872 62.12ZM73.128 61.884V61.88C73.124 61.88 73.124 61.88 73.12 61.884V61.888C73.124 61.888 73.128 61.888 73.128 61.884Z" fill="#FA40ED"/>
<path d="M72.764 62.608C72.76 62.608 72.752 62.608 72.748 62.608C72.752 62.6 72.76 62.6 72.764 62.608Z" fill="#FA40ED"/>
<path d="M72.9839 61.968C72.9959 61.988 72.9839 62.012 72.9839 62.032C72.9239 62.024 72.8599 62.016 72.7999 62.008C72.8599 61.968 72.9279 62 72.9839 61.968Z" fill="#FA9BF4"/>
<path d="M73.016 61.968C73.076 61.976 73.14 61.984 73.2 61.992C73.2 62 73.196 62.004 73.196 62.012C73.136 61.996 73.06 62.064 73.016 61.968Z" fill="#FA9BF4"/>
<path d="M72.984 61.9681C72.984 61.9121 72.984 61.8521 72.984 61.7961C73.028 61.8521 73.008 61.9121 73.016 61.9681C73.004 61.9681 72.996 61.9681 72.984 61.9681Z" fill="#FA9BF4"/>
<path d="M72.984 62.032C73.048 62.084 73 62.148 73.004 62.204C72.972 62.148 72.992 62.088 72.984 62.032Z" fill="#FA9BF4"/>
<path d="M72.8719 62.121V62.116H72.8769V62.121H72.8719Z" fill="#FA9BF4"/>
<path d="M73.1288 61.8844C73.1244 61.8844 73.1244 61.8844 73.12 61.8888V61.8844C73.12 61.8844 73.1244 61.8844 73.1288 61.88V61.8844Z" fill="#FA9BF4"/>
<path d="M23.7627 97C29.504 97 43.6979 94.1774 43.6979 78.925" stroke="#595E67" stroke-width="1.5" stroke-miterlimit="10"/>
<path d="M19.9352 97C19.9352 90.5713 25.836 81.8736 40.8272 81.8736" stroke="#595E67" stroke-width="1.5" stroke-miterlimit="10"/>
<path d="M4.14648 97C5.26285 90.4452 8.293 85.7812 22.3274 85.7812" stroke="#595E67" stroke-width="1.5" stroke-miterlimit="10"/>
<path d="M0 97H44.8142" stroke="#595E67" stroke-width="1.5" stroke-miterlimit="10"/>
<path d="M78.9433 97C73.202 97 59.0082 94.1774 59.0082 78.925" stroke="#595E67" stroke-width="1.5" stroke-miterlimit="10"/>
<path d="M82.7708 97C82.7708 90.5713 76.87 81.8736 61.8788 81.8736" stroke="#595E67" stroke-width="1.5" stroke-miterlimit="10"/>
<path d="M98.5594 97C97.443 90.4452 94.4129 85.7812 80.3785 85.7812" stroke="#595E67" stroke-width="1.5" stroke-miterlimit="10"/>
<path d="M102.706 97H57.8916" stroke="#595E67" stroke-width="1.5" stroke-miterlimit="10"/>
<path d="M48.4569 97H54.514" stroke="#595E67" stroke-width="1.5" stroke-miterlimit="10"/>
</svg>
