<svg width="220" height="100" viewBox="0 0 220 100" fill="none" xmlns="http://www.w3.org/2000/svg">
<mask id="mask0" style="mask-type:alpha" maskUnits="userSpaceOnUse" x="0" y="0" width="220" height="100">
<rect width="220" height="100" fill="#C4C4C4"/>
</mask>
<g mask="url(#mask0)">
<path d="M134.757 109.239H155M102.973 109.239H123.216M71 109.239H91.2432M150.838 99.0331H171.081M119.054 99.0331H139.297M87.0811 99.0331H107.324M55.2973 99.0331H75.3514M156.514 1H160.676M134.378 19.0884H138.541M143.459 12.4736H147.622M136.649 1.70095H140.811M150.838 6.6148H155M140.054 6.6148H144.216M130.216 6.6148H134.378M139.108 63.6911V87.6934H166.162C166.162 79.1886 166.162 71.8179 166.162 63.3131L168.243 64.0691V58.9662L145.541 48.5716V42.5237L149.514 44.2247V38.7438L120.946 20.7894L92.3784 38.7438V44.2247L96.3513 42.5237V48.5716L73.6486 58.9662V64.0691L75.5405 63.5021C75.5405 72.0069 75.5405 79.3776 75.5405 87.8824V87.6934H102.595V63.6911H139.108ZM139.108 63.6911L120.757 88.2604L102.405 63.6911M86.3243 50.8395V20.4114C86.3243 2.64592 53.4054 1.88994 52.6487 20.4114V41.3898M22 87.8824H71.9459M52.0811 19.4664H70.8108M176 54.2414V88.6384M169.946 53.4854L168.622 56.6983M182.054 53.4854L197 88.8274M168.432 74.6528L185.081 60.2892M194.919 84.6695L170.324 63.6911M120.757 88.6384V63.6911L139.108 88.2604M102.595 88.2604L120.946 63.6911M102.595 87.8824H139.108M77.4324 19.4664H86.1351M56.6216 22.3013V40.4448M51.1351 87.8824V59.7222M51.1351 66.904L55.8649 64.0691M51.1351 70.6839L42.8108 65.5811M51.1351 75.5977L59.6486 70.3059M32.973 83.3465C29.3784 83.1575 25.7838 80.8896 25.2162 78.6217C23.5135 73.8968 23.3243 71.4399 24.2703 69.5499C24.8378 68.416 25.5946 67.471 25.5946 66.148C25.5946 62.5571 29.9459 60.2892 32.973 60.6672C33.1622 60.6672 34.2973 61.0452 35.2432 61.2342M40.7297 79.1886C39.4054 81.2676 37.1351 82.9685 34.8649 83.1575M32.973 87.8824V80.1336M115.838 43.4687H125.865V51.5955H115.838V43.4687ZM176 28.1602C177.324 28.1602 178.27 29.1051 178.27 30.4281C178.27 31.7511 177.324 32.696 176 32.696C174.676 32.696 173.73 31.7511 173.73 30.4281C173.73 29.1051 174.676 28.1602 176 28.1602ZM155.757 26.6482C155.568 27.9712 155.378 29.2941 155.378 30.4281C155.378 31.7511 155.568 33.074 155.757 34.208L169.189 30.8061C169.189 30.6171 169.189 30.6171 169.189 30.4281C169.189 30.2391 169.189 30.2391 169.189 30.0501L155.757 26.6482ZM172.027 10.2057L175.432 23.6243C175.622 23.6243 175.622 23.6243 175.811 23.6243C176 23.6243 176 23.6243 176.189 23.6243L179.784 10.2057C178.459 10.0167 177.135 9.82771 176 9.82771C174.676 9.82771 173.351 10.0167 172.027 10.2057ZM187.541 13.4186L180.541 25.3252C180.73 25.5142 180.919 25.7032 181.108 25.8922L193.027 18.8994C191.514 16.6315 189.622 14.9306 187.541 13.4186ZM196.243 26.6482L182.811 30.0501C182.811 30.2391 182.811 30.2391 182.811 30.4281C182.811 30.6171 182.811 30.6171 182.811 30.8061L196.243 34.208C196.432 32.885 196.622 31.5621 196.622 30.4281C196.622 29.1051 196.432 27.7822 196.243 26.6482ZM193.027 41.9567L181.108 34.964C180.919 35.1529 180.73 35.3419 180.541 35.5309L187.541 47.4376C189.622 45.9256 191.514 44.2247 193.027 41.9567ZM179.784 50.6505L176.378 37.2319C176.189 37.2319 176.189 37.2319 176 37.2319C175.811 37.2319 175.811 37.2319 175.622 37.2319L172.216 50.6505C173.541 50.8395 174.865 51.0285 176 51.0285C177.324 51.0285 178.649 50.8395 179.784 50.6505ZM164.459 47.4376L171.459 35.5309C171.27 35.3419 171.081 35.1529 170.892 34.964L158.973 41.9567C160.297 44.2247 162.189 45.9256 164.459 47.4376ZM158.973 18.8994L170.892 25.8922C171.081 25.7032 171.27 25.5142 171.459 25.3252L164.459 13.4186C162.189 14.9306 160.297 16.6315 158.973 18.8994ZM54.7297 80.3226C59.6486 79.5666 63.6216 76.7317 64.7568 73.1408C67.2162 65.77 67.2162 61.8012 65.3243 58.9662C64.9459 58.3993 64.7568 58.0213 64.3784 57.4543C63.6216 56.3203 62.8649 55.1864 62.6757 53.6744C62.4865 50.8395 60.2162 48.7605 58.1351 47.2486C55.6757 45.5476 53.5946 44.6027 49.6216 45.1697C42.8108 46.3036 40.1622 47.6266 37.3243 54.2414C35.6216 58.0213 37.8919 61.0452 36.5676 62.7461C34.8649 64.6361 35.4324 68.794 36 71.0619C37.3243 76.5427 45.4595 80.7006 50.9459 80.7006L54.7297 80.3226Z" stroke="#595E67" stroke-width="1.5" stroke-miterlimit="22.9256"/>
<path d="M129.24 97.8221V97.8511C129.356 98.257 129.472 98.6629 129.588 99.0687C129.588 99.0977 129.588 99.1267 129.588 99.1557C129.588 99.1847 129.53 99.2137 129.472 99.2137C128.139 99.3587 126.979 98.7498 126.051 97.8511C125.848 97.6482 125.674 97.4162 125.385 97.3003C125.095 97.1843 124.776 97.2713 124.515 97.3582C122.717 98.054 120.891 98.6339 119.006 99.0398C115.556 99.7645 111.99 99.9965 108.424 99.9385C101.003 99.8515 93.5517 98.7208 86.5358 96.3145C84.9122 95.7927 83.3467 95.1259 81.8391 94.3141C81.0563 93.9082 80.3316 93.4154 79.6358 92.9225C79.1429 92.5456 78.4471 91.6759 77.8673 92.4007C76.5626 93.9952 74.9681 96.3725 72.5908 95.7347L73.8084 94.0242L71.6341 94.1982L74.3303 89.8494C73.9244 89.6465 73.4026 89.3566 72.8807 89.1536C72.6488 89.0666 72.3879 89.0666 72.1849 89.1826C70.7063 89.9944 67.9811 90.4003 66.5026 89.3566C66.2416 89.1826 66.0677 88.9507 65.9807 88.6608C65.7778 88.0519 66.1547 87.675 66.5026 87.3271C67.2853 86.5444 68.0101 85.6746 68.6769 84.8049C68.7929 84.6599 68.8799 84.486 68.9089 84.283C68.8799 84.1381 68.8219 83.9641 68.7059 83.8481C66.9664 81.3549 65.8357 78.4847 65.3429 75.4696C64.85 72.4544 64.7051 69.2074 66.1837 66.4242C66.5895 65.6414 67.1694 64.8876 67.9521 64.4238C68.7639 63.9309 69.7496 63.786 70.7063 63.786C71.837 63.757 73.0547 63.9019 73.8954 64.6557C73.7215 64.4818 74.8811 62.2204 75.0261 61.9305C75.9538 60.104 77.1135 58.4225 78.5051 56.9149C79.0269 56.3641 80.2446 55.6103 80.3895 54.8565C81.0853 50.8267 83.4337 48.1595 87.1736 46.6809C89.9278 45.6082 92.595 45.8111 95.1463 47.2317C95.6101 47.4927 95.958 47.4347 96.4509 47.3187C97.7845 47.0288 99.1181 46.8259 100.452 46.7099C104.482 46.362 108.453 46.8838 112.367 47.8696C113.353 48.1305 114.107 48.1305 115.035 47.5796C116.861 46.5359 118.948 46.478 121.007 46.6519C124.254 46.9128 126.631 48.5364 128.545 51.1456C129.559 52.5372 129.82 54.1317 130.342 55.6683C130.458 55.9872 130.603 56.3061 130.777 56.567C131.763 58.1326 132.777 59.6981 133.763 61.2927C134.778 62.9162 135.619 64.6267 136.343 66.4242C136.691 67.2939 137.039 68.1927 137.387 69.0914C137.677 69.8452 137.764 70.8019 138.605 71.1788C139.011 71.3818 139.503 71.4397 139.938 71.5267C143.069 72.2515 145.215 75.1797 144.983 78.3977C144.838 80.1082 144.055 81.6738 143.127 83.1234C142.2 84.5439 141.127 85.8776 140.315 87.3851C140.228 87.5301 140.17 87.675 140.17 87.849C140.199 88.0229 140.257 88.1679 140.373 88.2839C140.866 88.9217 141.533 89.3855 142.287 89.6465C142.779 89.7914 143.33 89.8784 143.562 90.4292C143.649 90.6902 143.649 90.9801 143.562 91.212C143.33 91.7918 142.837 92.1108 142.287 92.3427C140.663 93.0385 138.837 93.0385 137.184 92.3427C136.981 92.2557 136.72 92.1397 136.517 92.2267C136.401 92.2847 136.285 92.3717 136.198 92.4876C135.474 93.3284 134.662 94.0532 133.763 94.72C133.154 95.1549 132.516 95.5608 131.821 95.9087C131.647 95.9956 131.444 96.1116 131.357 96.3145C131.328 96.4885 131.328 96.6914 131.386 96.8654C131.444 97.1553 131.502 97.4452 131.531 97.7351C131.531 97.7641 131.531 97.8221 131.502 97.8511C131.502 97.8511 131.473 97.8511 131.444 97.8511C130.748 97.8801 130.023 97.8511 129.327 97.8511C129.269 97.7931 129.24 97.7931 129.24 97.8221Z" fill="#010202"/>
<path d="M123.384 88.9221C123.355 90.2557 123.21 91.5604 122.978 92.836C122.891 93.3288 122.775 93.8507 122.456 94.2276C122.137 94.6045 121.616 94.8074 121.152 94.9524C115.962 96.6339 110.106 96.6919 104.714 96.402C98.1325 96.0541 90.7106 94.9524 84.7673 91.9083C83.7236 91.3574 82.7089 90.7196 81.9261 89.8209C80.6505 88.3713 80.4476 86.0809 80.4186 84.2255C80.3896 82.0511 80.9404 79.9057 82.0421 78.0503C83.5497 75.528 86.5068 74.0204 89.29 73.4116C92.3341 72.7448 95.4652 72.9767 98.5383 73.1797C104.279 73.5856 110.135 74.0204 115.353 76.3977C117.847 77.5284 120.224 79.1809 121.674 81.5293C123.065 83.7326 123.442 86.3419 123.384 88.9221Z" fill="#F99DF3"/>
<path d="M98.2107 87.2593H101.321V88.436H96.7458V81.3267H98.2107V87.2593ZM104.631 85.9312V88.436H103.166V81.3267H105.939C106.473 81.3267 106.942 81.4243 107.345 81.6196C107.752 81.8149 108.065 82.0933 108.283 82.4546C108.501 82.8127 108.61 83.2212 108.61 83.6802C108.61 84.3768 108.371 84.9269 107.892 85.3306C107.417 85.731 106.758 85.9312 105.915 85.9312H104.631ZM104.631 84.7446H105.939C106.327 84.7446 106.621 84.6535 106.823 84.4712C107.028 84.2889 107.131 84.0285 107.131 83.6899C107.131 83.3416 107.028 83.0601 106.823 82.8452C106.618 82.6304 106.335 82.5197 105.973 82.5132H104.631V84.7446Z" fill="white"/>
<path d="M74.7363 84.5148C72.4749 76.6 75.809 65.9891 80.0417 59.9589C80.0997 59.9009 80.1867 59.8719 80.2737 59.9299C80.3027 59.9299 80.3027 59.9589 80.3316 59.9879C80.4766 60.3358 80.6216 60.6547 80.7665 60.9736C81.4623 62.4522 82.477 63.7278 83.8686 64.6265C84.8833 65.2643 86.014 65.6992 87.1737 66.0471C89.3481 66.7139 91.8123 67.0908 94.0447 66.366C95.9871 65.7282 97.6396 63.8437 98.6544 62.1912C99.698 60.4807 100.684 58.1614 100.742 56.132C100.8 54.1026 100.278 52.0731 99.0023 50.4786C98.9153 50.3626 98.8283 50.1887 98.9443 50.1017C98.9733 50.0727 99.0312 50.0727 99.0892 50.0727C102.713 49.6379 106.395 49.8118 109.961 50.6236C110.077 50.6236 110.164 50.6816 110.251 50.7685C110.338 50.9135 110.251 51.1164 110.164 51.2614C109.091 52.9429 108.338 54.8563 108.019 56.8278C107.729 58.7412 107.903 60.7706 108.656 62.5681C110.106 66.0181 113.585 68.3085 117.238 69.0912C119.615 69.6131 122.196 69.5551 124.457 68.5984C127.124 67.4677 128.922 64.9164 130.052 62.3362C130.11 62.1912 130.255 62.1332 130.4 62.1912C130.458 62.2202 130.487 62.2492 130.516 62.3072C130.777 62.7421 131.212 63.3219 131.27 63.4379C131.589 64.0177 131.908 64.6265 132.198 65.2063C132.777 66.424 133.27 67.6416 133.705 68.9173C134.546 71.3526 135.358 73.8748 135.619 76.4841C135.909 79.1223 135.59 81.7896 135.242 84.4278C135.01 86.1383 134.778 87.8778 134.024 89.4433C133.067 91.4148 131.386 92.5454 129.617 93.7051C129.472 93.7921 129.327 93.8791 129.154 93.7631C129.067 93.6761 128.98 93.5602 128.98 93.4442C128.458 90.0522 129.183 86.5442 128.342 83.2391C128.313 83.0652 128.139 82.8622 127.994 82.9492C127.965 82.9782 127.936 83.0362 127.907 83.0942C127.82 83.3841 127.82 83.674 127.762 83.9639C127.559 85.2685 127.559 86.6022 127.501 87.9068L127.269 91.9946V92.0236C127.24 92.6324 127.182 93.3282 127.356 93.908C127.53 94.4009 127.965 94.8648 128.371 95.1837C128.922 95.6186 129.414 96.1404 129.936 96.6043C130.023 96.6912 130.11 96.8362 130.023 96.9232C129.965 96.9812 129.878 96.9522 129.791 96.9232C129.472 96.8072 129.183 96.6622 128.864 96.5173C128.429 96.2854 128.023 95.9375 127.617 95.6475C127.53 95.5606 127.414 95.5026 127.269 95.4446C127.211 95.4156 127.153 95.4156 127.095 95.4736C127.095 95.4736 127.095 95.4736 127.095 95.5026C127.037 95.6475 127.066 95.8215 127.124 95.9375C127.298 96.3433 127.501 96.7202 127.733 97.1261C127.878 97.387 128.052 97.619 128.168 97.9089C128.168 97.9379 128.197 97.9959 128.168 98.0249C128.139 98.0249 128.139 98.0249 128.11 98.0249C127.762 97.9089 127.53 97.677 127.298 97.387C127.066 97.1261 126.892 96.8362 126.718 96.5463C126.08 95.3866 126.399 94.14 126.515 92.8643C126.631 91.5307 126.689 90.1681 126.689 88.8345C126.689 86.5442 126.689 84.2538 125.819 82.0795C125.095 80.282 123.906 78.6875 122.514 77.3248C121.094 75.9622 119.47 74.7736 117.702 73.8458C117.151 73.5559 116.6 73.266 116.02 73.0051C115.73 72.8891 115.469 72.7442 115.18 72.6572C114.948 72.5702 114.6 72.3383 114.339 72.3383C109.178 70.4248 103.699 70.2509 98.2485 69.961C94.7985 69.787 91.2905 69.5551 87.8985 70.2509C84.1006 71.0337 80.8825 73.0631 78.969 76.4551C78.5632 77.2089 78.1863 77.9917 77.8964 78.8034C77.6064 79.5862 77.3165 80.137 76.5048 80.5139C75.4321 81.0358 75.2291 82.2244 75.0842 83.3551C75.0262 83.819 74.9102 84.1089 74.8522 84.5148C74.7943 84.5438 74.7653 84.5438 74.7363 84.5148C74.7363 84.5438 74.7653 84.5438 74.7363 84.5148Z" fill="#FB40EE"/>
<path d="M119.789 66.9749C115.672 66.8879 111.208 64.2787 110.367 60.0459C110.048 58.3354 110.367 56.5959 111.034 54.9724C111.904 52.914 113.411 51.0295 115.412 49.9568C117.586 48.7972 120.427 48.9131 122.717 49.6959C124.399 50.2757 125.906 51.3484 126.834 52.827C127.704 54.1896 128.023 55.8421 128.11 57.4656C128.197 59.843 127.733 62.3362 126.225 64.1917C124.66 66.0762 122.196 67.0039 119.789 66.9749Z" fill="#FEFEFE"/>
<path d="M82.2161 56.8572C82.2451 53.6971 84.1296 50.8559 86.9997 49.5803C88.9712 48.6816 91.1166 48.6816 93.146 49.3484C93.2909 49.3774 93.4069 49.4353 93.5229 49.4933C95.1464 50.1022 96.567 50.9429 97.3787 52.5664C97.9006 53.6101 98.1035 54.7698 98.1035 55.9295C98.1035 57.7559 97.6397 59.6114 96.6829 61.1769C96.1901 62.0177 95.4943 62.7715 94.6825 63.3223C93.5518 64.0761 92.1603 64.366 90.7977 64.424C89.3191 64.453 88.0145 64.1051 86.6808 63.4963C85.5502 62.9744 84.4485 62.2786 83.6367 61.3219C82.651 60.0463 82.1871 58.4517 82.2161 56.8572Z" fill="#FEFEFE"/>
<path d="M70.5904 80.572C70.5034 80.514 70.4454 80.456 70.4164 80.369C69.4017 78.3976 68.7639 76.2812 68.474 74.1068C68.2131 71.9615 68.2131 69.6711 69.3438 67.7577C69.4887 67.4678 69.7206 67.2068 69.9816 67.0039C70.7353 66.511 71.7501 66.772 72.2719 67.4968C72.4169 67.6997 72.5039 67.9316 72.5328 68.1636C72.5328 68.4245 72.4748 68.6854 72.3589 68.9463C71.4312 71.6426 70.9093 74.4547 70.7643 77.2959C70.7064 78.3686 70.7643 79.4413 70.7643 80.514C70.7064 80.601 70.6484 80.601 70.5904 80.572Z" fill="#FB40EE"/>
<path d="M138.518 84.0218C139.098 81.0937 139.04 78.1075 138.808 75.1214C138.808 74.9474 138.808 74.7445 138.982 74.6865C139.04 74.6865 139.098 74.6865 139.156 74.6865C141.011 75.1504 141.968 77.0928 141.475 78.8903C141.214 79.789 140.721 80.6008 140.228 81.3546L138.518 84.0218Z" fill="#FB40EE"/>
<path d="M76.7945 81.9929C76.7945 81.9059 76.8525 81.8479 76.9395 81.8479C76.9975 81.8479 77.0845 81.9059 77.0845 81.9929C77.1714 82.5727 77.2004 83.1815 77.2294 83.7613C77.2874 85.037 77.3164 86.3126 77.3164 87.5592C77.3164 88.429 77.2004 89.2698 76.9975 90.1105C76.7366 91.0962 76.3887 92.0819 75.9248 92.9807C75.9248 93.0097 75.8668 93.0097 75.8668 92.9807C75.7509 92.7198 75.6349 92.4878 75.5189 92.2269C75.5189 92.1979 75.4899 92.1399 75.4609 92.1109C75.4319 92.1109 75.374 92.1109 75.345 92.1109L74.5912 92.4298C74.5622 92.4298 74.5332 92.4008 74.5332 92.3719C74.8521 91.937 75.171 91.6181 75.4609 91.2412C75.8958 90.6034 76.1857 89.8786 76.2727 89.0958C76.3887 88.2261 76.3017 87.3273 76.4177 86.4576C76.5046 85.5298 76.5336 84.5731 76.5916 83.6454C76.5626 83.1235 76.6496 82.5437 76.7945 81.9929Z" fill="#FB40EE"/>
<path d="M137.735 88.4292C137.764 88.3422 137.851 88.2842 137.938 88.3132C137.967 88.3132 137.996 88.3422 138.025 88.3712L139.793 90.7485C139.822 90.7775 139.851 90.8355 139.822 90.8935C139.793 90.9514 139.706 90.9514 139.619 90.9225L137.822 90.4876C137.648 90.4586 137.445 90.4006 137.358 90.2267C137.271 90.0527 137.3 89.8498 137.358 89.6468L137.735 88.4292Z" fill="#FB40EE"/>
<path d="M68.851 87.9069C68.793 87.9069 68.7351 87.8489 68.7641 87.7909C68.7641 87.7619 68.7641 87.7619 68.793 87.7329C69.1409 87.298 69.5178 86.8342 69.9237 86.3993C70.0397 86.2833 70.2136 86.1094 70.3586 86.1964C70.3876 86.2254 70.4456 86.2543 70.4746 86.3123C70.6195 86.5153 71.2283 87.0661 71.2283 87.356C71.2283 88.0228 69.5468 87.9938 68.851 87.9069Z" fill="#FB40EE"/>
<path d="M102.713 66.0767C103.409 66.1057 104.105 66.3086 104.743 66.6565C104.974 66.7725 105.177 66.9464 105.322 67.1784C105.467 67.4973 105.322 67.8741 105.119 68.1641C104.801 68.541 104.337 68.8309 103.844 68.8889C103.351 68.9758 102.829 68.9468 102.365 68.8019C101.756 68.6569 100.916 68.338 100.626 67.7582C100.307 67.0914 100.945 66.4536 101.524 66.2506C101.872 66.1346 102.278 66.0477 102.684 66.0767H102.713Z" fill="#010202"/>
<path d="M123.848 57.9007C123.848 58.0457 123.819 58.2196 123.79 58.3646C123.326 60.539 121.616 62.8293 119.238 62.9453C117.296 63.0612 115.643 62.5104 114.397 61.0318C113.44 59.9301 113.382 58.5675 113.498 57.176C113.527 56.7991 113.614 56.3932 113.701 56.0163C114.397 53.2041 116.89 51.8995 119.586 52.9432C121.442 53.668 123.761 55.4365 123.877 57.6398C123.848 57.7268 123.848 57.8138 123.848 57.9007Z" fill="#010202"/>
<path d="M89.1739 51.2324C92.45 51.0295 96.2769 54.3635 94.4794 57.7556C94.0445 58.5673 93.4067 59.2341 92.624 59.727C91.9282 60.1909 91.1454 60.5098 90.3046 60.5967C88.5361 60.7707 87.0866 59.582 86.1008 58.2484C85.2311 57.0888 84.9122 55.5812 85.2311 54.1606C85.579 52.653 86.9126 51.4064 88.4492 51.2904C88.7391 51.2614 89.029 51.2324 89.1739 51.2324Z" fill="#010202"/>
<path d="M117.122 61.0897C117.122 61.0608 117.151 61.0318 117.209 60.9738C117.673 60.4809 118.281 60.133 118.832 59.7271C119.267 59.4372 119.673 59.0603 119.992 58.6255C120.311 58.1906 120.514 57.6397 120.92 57.2628C121.123 57.0599 121.47 56.9729 121.615 57.2918C121.905 57.9586 121.876 58.6544 121.557 59.3213C120.833 60.7708 118.977 61.3797 117.441 61.2927H117.296C117.238 61.2927 117.151 61.2927 117.122 61.2057C117.093 61.1477 117.122 61.1187 117.122 61.0897Z" fill="#FEFEFE"/>
<path d="M117.702 55.6687C117.731 55.6687 117.76 55.6687 117.789 55.6687C117.876 55.6687 117.934 55.6977 118.021 55.7267C118.137 55.8137 118.224 55.9296 118.224 56.0746C118.224 56.4225 118.108 56.7704 117.905 57.0603C117.818 57.2053 117.673 57.2922 117.528 57.3212C116.948 57.3792 116.252 56.5095 116.745 56.0456C116.977 55.8137 117.325 55.6687 117.702 55.6687Z" fill="#FEFEFE"/>
<path d="M89.8987 57.0314C90.1307 57.0314 90.3046 57.2053 90.5945 57.1473C90.7975 57.0894 90.9714 56.9734 91.1164 56.7994C91.4933 56.3935 91.8122 55.8427 92.1601 55.3788C92.421 55.0309 92.6819 54.799 93.1168 55.0599C93.2328 55.1469 93.2618 55.4368 93.2618 55.6398C93.1748 56.7994 92.5949 57.6982 91.8701 58.5389C91.1454 59.3507 89.4928 58.6549 89.1739 58.0171C88.942 57.5242 89.2899 57.0024 89.8987 57.0314Z" fill="#FEFEFE"/>
<path d="M89.3479 53.4067C89.3769 53.4937 89.3769 53.6097 89.3769 53.6966C89.3189 54.2185 89.058 54.8563 88.4492 54.8563C88.1013 54.8563 87.7534 54.6244 87.6084 54.2765C87.5214 54.1315 87.5214 53.9575 87.5504 53.7836C87.6084 53.6386 87.7244 53.4937 87.8693 53.4067C88.2462 53.1748 89.174 52.8849 89.3479 53.4067Z" fill="#FEFEFE"/>
</g>
</svg>
