<svg width="30" height="30" viewBox="0 0 30 30" fill="none" xmlns="http://www.w3.org/2000/svg">
<path d="M29.848 12.4549C29.839 12.4399 29.798 12.3769 29.788 12.3629C29.679 12.2059 29.541 12.0849 29.38 12.0019C29.356 11.9899 29.33 11.9789 29.305 11.9709C29.272 11.9579 29.238 11.9449 29.228 11.9419L15.792 7.13689C15.763 7.12589 15.732 7.11889 15.703 7.11389C15.222 6.96189 14.78 6.96089 14.299 7.11389C14.268 7.11789 14.236 7.12689 14.205 7.13789L0.785 12.0249C0.759 12.0319 0.646 12.0749 0.622 12.0879C0.46 12.1699 0.321 12.2919 0.217 12.4429C0.205 12.4579 0.164 12.5199 0.155 12.5369C0.051 12.7209 0 12.8999 0 13.0869C0 13.2729 0.051 13.4519 0.155 13.6379C0.163 13.6509 0.203 13.7109 0.211 13.7229C0.32 13.8799 0.458 14.0019 0.62 14.0849C0.648 14.0989 0.679 14.1109 0.709 14.1199C0.727 14.1279 0.743 14.1339 0.747 14.1359L6 16.3329V19.9999C6 21.9699 10.527 22.9999 15 22.9999C19.473 22.9999 24 21.9699 24 19.9999V16.3279L26 15.4599V20.3799L25.052 22.2759C24.929 22.5229 25.029 22.8229 25.276 22.9469C25.524 23.0689 25.824 22.9709 25.947 22.7229L26.5 21.6179L27.053 22.7239C27.141 22.8989 27.317 22.9999 27.5 22.9999C27.575 22.9999 27.651 22.9829 27.723 22.9469C27.97 22.8229 28.07 22.5229 27.947 22.2759L27 20.3819V15.0259L29.225 14.0599C29.248 14.0519 29.356 14.0099 29.378 13.9989C29.54 13.9169 29.679 13.7949 29.786 13.6409C29.797 13.6259 29.835 13.5679 29.845 13.5509C29.949 13.3669 30 13.1869 30 12.9999C30 12.8129 29.949 12.6329 29.848 12.4549ZM15 21.9999C9.748 21.9999 7 20.6979 7 19.9999C7 19.3019 9.748 17.9999 15 17.9999C20.252 17.9999 23 19.3019 23 19.9999C23 20.6979 20.252 21.9999 15 21.9999ZM23 18.5539C21.423 17.5309 18.203 16.9999 15 16.9999C11.797 16.9999 8.577 17.5309 7 18.5539V16.0039C7 15.9989 7 15.9939 7 15.9879V14.9999C7 14.3019 9.748 12.9999 15 12.9999C20.252 12.9999 23 14.3019 23 14.9999V18.5539ZM29 12.9999C29 12.9999 28.942 13.0829 28.93 13.1029C28.9 13.1139 28.873 13.1239 28.862 13.1289L24 15.2379V14.9999C24 13.0299 19.473 11.9999 15 11.9999C10.527 11.9999 6 13.0299 6 14.9999V15.2469L1.073 13.1919L0.849 13.6389L1.001 13.0859L1.07 12.9859C1.086 12.9799 1.101 12.9739 1.112 12.9679L14.469 8.10389C14.494 8.09989 14.52 8.09289 14.545 8.08389C14.871 7.96889 15.129 7.96889 15.455 8.08389C15.48 8.09289 15.507 8.09989 15.532 8.10489L28.928 12.8939L29.152 12.4469L29 12.9999Z" fill="white"/>
</svg>
