<svg width="24" height="24" viewBox="0 0 24 24" fill="none" xmlns="http://www.w3.org/2000/svg">
<path d="M2.5 19H5.5C5.776 19 6 18.776 6 18.5V16C6 14.897 5.103 14 4 14C2.897 14 2 14.897 2 16V18.5C2 18.776 2.224 19 2.5 19ZM3 16C3 15.449 3.449 15 4 15C4.551 15 5 15.449 5 16V18H3V16ZM18.5 19H21.5C21.776 19 22 18.776 22 18.5V16C22 14.897 21.103 14 20 14C18.897 14 18 14.897 18 16V18.5C18 18.776 18.224 19 18.5 19ZM19 16C19 15.449 19.449 15 20 15C20.551 15 21 15.449 21 16V18H19V16ZM23.732 13.056L17 9.544V9H18.5C18.724 9 18.92 8.852 18.981 8.636C19.042 8.421 18.952 8.191 18.762 8.074L12.5 4.22V2H13.5C13.776 2 14 1.776 14 1.5C14 1.224 13.776 1 13.5 1H12.5V0.5C12.5 0.224 12.276 0 12 0C11.724 0 11.5 0.224 11.5 0.5V1H10.5C10.224 1 10 1.224 10 1.5C10 1.776 10.224 2 10.5 2H11.5V4.22L5.237 8.074C5.046 8.191 4.957 8.421 5.018 8.636C5.08 8.852 5.276 9 5.5 9H7V9.545L0.269 13.057C0.104 13.143 0 13.313 0 13.5V21.5C0 21.776 0.224 22 0.5 22H7V23.5C7 23.776 7.224 24 7.5 24H9.5C9.776 24 10 23.776 10 23.5V16C10 14.897 10.897 14 12 14C13.103 14 14 14.897 14 16V23.5C14 23.776 14.224 24 14.5 24H16.5C16.776 24 17 23.776 17 23.5V22H23.5C23.776 22 24 21.776 24.001 21.499V13.499C24 13.313 23.896 13.142 23.732 13.056ZM7 21H1V13.803L7 10.672V21ZM16.5 8C16.224 8 16 8.224 16 8.5V23H15V16C15 14.346 13.654 13 12 13C10.346 13 9 14.346 9 16V23H8V21.505C8 21.503 8 21.502 8 21.5V9.849C8 9.848 8 9.847 8 9.845V8.5C8 8.224 7.776 8 7.5 8H7.266L12 5.087L16.732 8H16.5ZM23 21H17V10.672L23 13.803V21Z" fill="white"/>
</svg>
