<svg width="24" height="24" viewBox="0 0 24 24" fill="none" xmlns="http://www.w3.org/2000/svg">
<path fill-rule="evenodd" clip-rule="evenodd" d="M19.2721 19.0466V19.0553L19.3765 19.4206V19.4467C19.3765 19.4554 19.3591 19.4641 19.3417 19.4641C18.9416 19.5076 18.5937 19.325 18.3154 19.0553C18.3032 19.0432 18.2914 19.0306 18.2796 19.0181C18.2323 18.968 18.1849 18.9179 18.1154 18.8901C18.0284 18.8553 17.9327 18.8814 17.8544 18.9075C17.3152 19.1162 16.7672 19.2902 16.2019 19.4119C15.1669 19.6294 14.0971 19.6989 13.0273 19.6815C10.8008 19.6555 8.56552 19.3163 6.46073 18.5944C5.97367 18.4378 5.50401 18.2378 5.05174 17.9942C4.8169 17.8725 4.59947 17.7246 4.39073 17.5768C4.36497 17.5571 4.33735 17.5329 4.3084 17.5075C4.17118 17.3873 4.00382 17.2407 3.86018 17.4202C3.82299 17.4657 3.78501 17.5132 3.74612 17.562C3.37576 18.0259 2.92266 18.5936 2.27724 18.4204L2.64253 17.9073L1.99022 17.9594L2.79909 16.6548C2.77015 16.6404 2.73926 16.6244 2.70686 16.6077L2.70676 16.6077C2.60285 16.554 2.48353 16.4925 2.36421 16.4461C2.29463 16.42 2.21636 16.42 2.15548 16.4548C1.7119 16.6983 0.894338 16.8201 0.450766 16.507C0.372489 16.4548 0.320305 16.3852 0.294212 16.2982C0.23333 16.1156 0.346396 16.0025 0.450766 15.8981C0.685598 15.6633 0.903035 15.4024 1.10308 15.1415C1.13787 15.098 1.16396 15.0458 1.17266 14.9849C1.16396 14.9414 1.14657 14.8892 1.11178 14.8544C0.589929 14.1065 0.250724 13.2454 0.102867 12.3409C-0.0449905 11.4363 -0.0884757 10.4622 0.355096 9.62726C0.476861 9.39243 0.650808 9.16629 0.88564 9.02713C1.12917 8.87927 1.42488 8.83579 1.7119 8.83579C2.0511 8.82709 2.4164 8.87058 2.66862 9.09671C2.61991 9.048 2.91984 8.45358 2.99532 8.30399L3.00783 8.27915C3.28615 7.73121 3.63405 7.22675 4.05153 6.77448C4.09807 6.72535 4.16306 6.67084 4.23256 6.61255C4.39684 6.47477 4.5863 6.31587 4.61686 6.15696C4.8256 4.94801 5.5301 4.14784 6.65208 3.70427C7.47834 3.38246 8.2785 3.44334 9.04388 3.86952C9.18304 3.9478 9.28741 3.93041 9.43527 3.89562C9.83535 3.80864 10.2354 3.74776 10.6355 3.71297C11.8445 3.6086 13.036 3.76515 14.2102 4.06087C14.5059 4.13914 14.732 4.13914 15.0104 3.97389C15.5583 3.66078 16.1845 3.64339 16.802 3.69557C17.7762 3.77385 18.4893 4.26091 19.0634 5.04368C19.2903 5.35484 19.3915 5.69981 19.4932 6.0462C19.528 6.16456 19.5628 6.28309 19.6026 6.40049C19.6374 6.49616 19.6809 6.59184 19.7331 6.67011C19.8452 6.84823 19.9586 7.02636 20.0723 7.20495C20.2584 7.49727 20.4454 7.79086 20.6289 8.0878C20.9333 8.57486 21.1856 9.08801 21.403 9.62726C21.5072 9.88786 21.6115 10.1571 21.7157 10.4264L21.7161 10.4274C21.7354 10.4775 21.7517 10.5306 21.7681 10.5842C21.8258 10.7722 21.8851 10.9656 22.0814 11.0536C22.1791 11.1025 22.2937 11.1234 22.4025 11.1432L22.4026 11.1432C22.4293 11.1481 22.4558 11.1529 22.4815 11.158C23.4208 11.3755 24.0644 12.2539 23.9949 13.2193C23.9514 13.7325 23.7165 14.2021 23.4382 14.637C23.3409 14.7861 23.2382 14.9319 23.1355 15.0779L23.1354 15.078C22.9444 15.3494 22.7529 15.6214 22.5946 15.9155C22.5685 15.959 22.5511 16.0025 22.5511 16.0547C22.5598 16.1069 22.5772 16.1504 22.612 16.1852C22.7598 16.3765 22.9599 16.5157 23.186 16.5939C23.2034 16.5991 23.2211 16.604 23.2388 16.6089L23.239 16.6089C23.3716 16.6455 23.5073 16.6831 23.5687 16.8288C23.5948 16.9071 23.5948 16.994 23.5687 17.0636C23.4991 17.2376 23.3512 17.3332 23.186 17.4028C22.6989 17.6115 22.151 17.6115 21.6552 17.4028L21.6511 17.401C21.5908 17.3752 21.5147 17.3425 21.4552 17.368C21.4204 17.3854 21.3856 17.4115 21.3595 17.4463C21.1421 17.6985 20.8985 17.916 20.6289 18.116C20.4463 18.2465 20.2549 18.3682 20.0462 18.4726C19.994 18.4987 19.9331 18.5335 19.907 18.5944C19.8983 18.6465 19.8983 18.7074 19.9157 18.7596C19.9331 18.8466 19.9505 18.9336 19.9592 19.0205C19.9592 19.0292 19.9592 19.0466 19.9505 19.0553H19.9331C19.7937 19.0611 19.6504 19.0592 19.5084 19.0573H19.5084H19.5084H19.5083H19.5083H19.5083H19.5083H19.5083H19.5083H19.5082C19.4377 19.0563 19.3675 19.0553 19.2982 19.0553C19.2808 19.0379 19.2721 19.0379 19.2721 19.0466ZM16.4368 9.7923C15.2017 9.7662 13.8623 8.98343 13.6101 7.7136C13.5144 7.20045 13.6101 6.6786 13.8101 6.19154C14.071 5.57402 14.5233 5.00868 15.1234 4.68687C15.7757 4.33897 16.6281 4.37376 17.3152 4.60859C17.8196 4.78254 18.2719 5.10435 18.5502 5.54792C18.8112 5.95671 18.9068 6.45246 18.9329 6.93952C18.959 7.65272 18.8199 8.4007 18.3676 8.95734C17.8979 9.52267 17.1586 9.80099 16.4368 9.7923ZM6.59992 4.57395C5.73887 4.95664 5.17353 5.80899 5.16483 6.75702C5.15614 7.23538 5.2953 7.71374 5.59101 8.09643C5.83454 8.38344 6.16505 8.59218 6.50425 8.74874C6.90433 8.93139 7.29572 9.03576 7.73929 9.02706C8.14808 9.00966 8.56555 8.92269 8.90475 8.69655C9.14828 8.5313 9.35702 8.30517 9.50488 8.05294C9.7919 7.58328 9.93106 7.02664 9.93106 6.47869C9.93106 6.1308 9.87017 5.7829 9.71362 5.46979C9.47009 4.98273 9.04391 4.7305 8.55685 4.54786C8.52206 4.53046 8.48727 4.51307 8.44379 4.50437C7.83496 4.30433 7.19135 4.30432 6.59992 4.57395ZM17.5153 16.3764C17.5066 16.7765 17.4631 17.1679 17.3935 17.5506C17.3674 17.6984 17.3326 17.855 17.2369 17.968C17.1413 18.0811 16.9847 18.142 16.8455 18.1855C15.2887 18.6899 13.5318 18.7073 11.9141 18.6204C9.93975 18.516 7.71319 18.1855 5.9302 17.2722C5.61709 17.107 5.31268 16.9156 5.07785 16.646C4.69516 16.2112 4.63428 15.524 4.62558 14.9674C4.61688 14.3151 4.78214 13.6715 5.11264 13.1148C5.56491 12.3582 6.45205 11.9059 7.28701 11.7232C8.17524 11.5287 9.08814 11.5892 9.98572 11.6487L10.0615 11.6537C11.7836 11.7754 13.5405 11.9059 15.106 12.6191C15.854 12.9583 16.5672 13.454 17.0021 14.1585C17.4196 14.8196 17.5327 15.6023 17.5153 16.3764ZM4.51253 7.68749C3.2427 9.49657 2.24249 12.6798 2.92089 15.0543C2.92959 15.063 2.93829 15.063 2.95568 15.0543C2.96373 14.9979 2.97549 14.9491 2.98753 14.8991C3.00153 14.8409 3.01591 14.7812 3.02526 14.7064C3.06875 14.3672 3.12963 14.0106 3.45143 13.854C3.69496 13.7409 3.78194 13.5757 3.86892 13.3409C3.95589 13.0973 4.06896 12.8625 4.19072 12.6364C4.76475 11.6188 5.73018 11.0099 6.86955 10.7751C7.82985 10.5781 8.82112 10.629 9.79953 10.6792H9.79954L9.97455 10.6881L10.2822 10.7042C11.8154 10.7837 13.3506 10.8633 14.8017 11.4013C14.8551 11.4013 14.9208 11.4338 14.9792 11.4627C15.0063 11.4761 15.0318 11.4887 15.0539 11.497C15.1085 11.5134 15.1597 11.5366 15.2117 11.5602L15.2117 11.5603L15.2118 11.5603C15.2426 11.5743 15.2738 11.5884 15.3061 11.6014C15.48 11.6796 15.6453 11.7666 15.8105 11.8536L15.8106 11.8536C16.3411 12.1319 16.8282 12.4885 17.2543 12.8973C17.6718 13.3061 18.0284 13.7844 18.2459 14.3237C18.5068 14.976 18.5068 15.6631 18.5068 16.3502C18.5068 16.7503 18.4894 17.159 18.4546 17.5591C18.4484 17.6277 18.4402 17.6959 18.432 17.7638C18.3947 18.0749 18.3584 18.3781 18.5155 18.6637C18.5677 18.7507 18.6199 18.8377 18.6894 18.9159C18.759 19.0029 18.8286 19.0725 18.933 19.1073H18.9504C18.9564 19.1012 18.954 19.0909 18.952 19.0823C18.9512 19.0786 18.9504 19.0751 18.9504 19.0725C18.9272 19.0145 18.8962 18.9643 18.8653 18.914C18.8499 18.8889 18.8344 18.8638 18.8199 18.8377C18.7503 18.7159 18.6894 18.6028 18.6372 18.4811C18.6198 18.4463 18.6112 18.3941 18.6285 18.3506V18.3419C18.6459 18.3245 18.6633 18.3245 18.6807 18.3332C18.7242 18.3506 18.759 18.368 18.7851 18.3941C18.8211 18.4198 18.8572 18.4471 18.8935 18.4745L18.8935 18.4746C18.9797 18.5398 19.0673 18.606 19.1591 18.655C19.1821 18.6655 19.2047 18.676 19.2269 18.6863L19.227 18.6863C19.2972 18.719 19.3648 18.7504 19.4374 18.7768C19.4635 18.7855 19.4896 18.7942 19.507 18.7768C19.5331 18.7507 19.507 18.7072 19.4809 18.6811C19.4221 18.6288 19.3645 18.5741 19.3067 18.5192C19.2108 18.428 19.1144 18.3364 19.0112 18.2549C18.8895 18.1593 18.759 18.0201 18.7068 17.8722C18.6597 17.7153 18.6693 17.5301 18.678 17.3612L18.6807 17.3069V17.2982L18.7503 16.0719C18.7542 15.9841 18.7572 15.8958 18.7603 15.8074C18.7708 15.5014 18.7814 15.1926 18.8286 14.889C18.8356 14.8542 18.8397 14.8194 18.8439 14.7846C18.8502 14.7324 18.8564 14.6803 18.8721 14.6281L18.8721 14.628C18.8808 14.6106 18.8895 14.5933 18.8982 14.5846C18.9417 14.5585 18.9938 14.6194 19.0025 14.6716C19.1429 15.2235 19.1378 15.7942 19.1327 16.3673C19.1286 16.8239 19.1245 17.2819 19.1939 17.7331C19.1939 17.7679 19.22 17.8027 19.2461 17.8288C19.2983 17.8635 19.3417 17.8375 19.3852 17.8114C19.9158 17.4635 20.4202 17.1243 20.7072 16.5328C20.9318 16.0665 21.0019 15.5488 21.071 15.0392L21.0725 15.0282C21.1769 14.2367 21.2726 13.4365 21.1856 12.6451C21.1073 11.8623 20.8638 11.1056 20.6116 10.375C20.4811 9.99232 20.3333 9.62703 20.1593 9.26173C20.0723 9.08778 19.9767 8.90514 19.881 8.73119C19.8736 8.71643 19.8459 8.67663 19.8104 8.62573C19.7623 8.55664 19.6999 8.4671 19.6549 8.39198C19.6462 8.37459 19.6375 8.36589 19.6201 8.35719C19.5766 8.3398 19.5331 8.35719 19.5157 8.40068C19.1765 9.17476 18.6372 9.94014 17.8371 10.2793C17.1587 10.5664 16.3846 10.5838 15.6714 10.4272C14.5755 10.1924 13.5318 9.50526 13.0969 8.47026C12.8708 7.93102 12.8186 7.32219 12.9056 6.74816C13.0013 6.15673 13.2274 5.5827 13.5492 5.07824C13.5753 5.03476 13.6014 4.97387 13.5753 4.93039C13.5492 4.90429 13.5231 4.8869 13.4883 4.8869C12.4185 4.64337 11.314 4.59118 10.2268 4.72165C10.2094 4.72165 10.192 4.72165 10.1833 4.73034C10.1485 4.75644 10.1746 4.80862 10.2007 4.84341C10.5834 5.32177 10.7399 5.9306 10.7225 6.53942C10.7051 7.14824 10.4094 7.84404 10.0963 8.35719C9.7919 8.85295 9.29614 9.41829 8.71341 9.60963C8.04371 9.82707 7.30442 9.714 6.65211 9.51396C6.30421 9.40959 5.96501 9.27913 5.6606 9.08778C5.24312 8.81816 4.9387 8.43547 4.72997 7.9919C4.68648 7.89623 4.64299 7.80055 4.5995 7.69618C4.59618 7.69286 4.59413 7.68954 4.59237 7.6867C4.58954 7.68211 4.58748 7.67879 4.58211 7.67879C4.55601 7.6614 4.52992 7.67009 4.51253 7.68749ZM1.67711 13.8714C1.65102 13.8541 1.63362 13.8367 1.62492 13.8106C1.32051 13.2191 1.12917 12.5842 1.04219 11.9319C0.963917 11.2883 0.963917 10.6012 1.30312 10.0272C1.34661 9.94019 1.41618 9.86191 1.49446 9.80103C1.72059 9.65317 2.02501 9.73145 2.18156 9.94889C2.22505 10.0098 2.25115 10.0793 2.25984 10.1489C2.25984 10.2272 2.24244 10.3055 2.20765 10.3838C1.92933 11.1926 1.77278 12.0363 1.72929 12.8886C1.7177 13.1032 1.72156 13.3177 1.72543 13.5322C1.72736 13.6395 1.72929 13.7468 1.72929 13.8541C1.7119 13.8801 1.6945 13.8801 1.67711 13.8714ZM22.1423 12.2362C22.2119 13.1321 22.2293 14.0279 22.0554 14.9063L22.5685 14.1062C22.7164 13.88 22.8642 13.6365 22.9425 13.3669C23.0903 12.8276 22.8033 12.2449 22.2467 12.1057H22.1945C22.1423 12.1231 22.1423 12.184 22.1423 12.2362ZM3.53835 14.2977C3.53835 14.2716 3.55574 14.2542 3.58183 14.2542C3.59923 14.2542 3.62532 14.2716 3.62532 14.2977C3.65079 14.4675 3.65969 14.6456 3.66819 14.8158L3.66819 14.8158L3.66881 14.8282C3.6862 15.2109 3.69491 15.5936 3.69491 15.9676C3.69491 16.2285 3.66011 16.4808 3.59923 16.733C3.52095 17.0287 3.41658 17.3244 3.27742 17.594C3.27742 17.6027 3.26003 17.6027 3.26003 17.594C3.24264 17.5549 3.22525 17.518 3.20786 17.481L3.20785 17.481C3.19045 17.444 3.17306 17.4071 3.15566 17.3679C3.15566 17.3592 3.14696 17.3418 3.13826 17.3331H3.10347L2.87734 17.4288C2.86864 17.4288 2.85994 17.4201 2.85994 17.4114C2.91339 17.3385 2.96683 17.2765 3.01876 17.2162L3.01876 17.2162L3.01877 17.2162L3.01877 17.2162C3.0598 17.1686 3.09988 17.1221 3.13826 17.0722C3.26873 16.8809 3.3557 16.6634 3.38179 16.4286C3.39919 16.2981 3.40136 16.1655 3.40354 16.0328C3.40571 15.9002 3.40789 15.7676 3.42528 15.6371C3.44253 15.4531 3.45218 15.2653 3.46177 15.0787C3.46668 14.9831 3.47157 14.8878 3.47747 14.7935C3.46877 14.6369 3.49486 14.463 3.53835 14.2977ZM21.8814 16.1937C21.8553 16.185 21.8292 16.2024 21.8205 16.2285L21.7075 16.5938C21.6901 16.6547 21.6814 16.7156 21.7075 16.7677C21.7336 16.8199 21.7944 16.8373 21.8466 16.846L22.3859 16.9765C22.412 16.9852 22.438 16.9852 22.4467 16.9678C22.4554 16.9504 22.4467 16.933 22.438 16.9243L21.9075 16.2111C21.8988 16.2024 21.8901 16.1937 21.8814 16.1937ZM1.15532 16.0719C1.13793 16.0719 1.12054 16.0545 1.12923 16.0371C1.12923 16.0284 1.12923 16.0284 1.13793 16.0197C1.2423 15.8892 1.35537 15.7501 1.47713 15.6196C1.51192 15.5848 1.56411 15.5326 1.6076 15.5587C1.61023 15.5614 1.61366 15.564 1.6174 15.5669C1.62603 15.5735 1.63632 15.5814 1.64238 15.5935C1.65464 15.6107 1.67796 15.6362 1.70514 15.6658L1.70514 15.6658C1.77435 15.7414 1.86852 15.8442 1.86852 15.9066C1.86852 16.1067 1.36406 16.098 1.15532 16.0719Z" fill="white"/>
<path d="M11.3139 9.52317C11.5227 9.53187 11.7314 9.59275 11.9227 9.69712C11.9923 9.73191 12.0532 9.7841 12.0967 9.85368C12.1402 9.94935 12.0967 10.0624 12.0358 10.1494C11.9401 10.2625 11.801 10.3494 11.6531 10.3668C11.5053 10.3929 11.3487 10.3842 11.2095 10.3407C11.0269 10.2972 10.7747 10.2016 10.6877 10.0276C10.592 9.82758 10.7834 9.63624 10.9573 9.57536C11.0617 9.54057 11.1835 9.51447 11.3052 9.52317H11.3139Z" fill="white"/>
<path fill-rule="evenodd" clip-rule="evenodd" d="M17.6544 7.07017C17.6544 7.11366 17.6457 7.16585 17.637 7.20933C17.4979 7.86164 16.9847 8.54875 16.2715 8.58354C15.6888 8.61833 15.193 8.45307 14.819 8.0095C14.532 7.679 14.5146 7.27022 14.5494 6.85274C14.5581 6.73967 14.5842 6.6179 14.6103 6.50484C14.8191 5.66118 15.567 5.26979 16.3759 5.5829C16.9325 5.80034 17.6283 6.33089 17.6631 6.9919C17.6544 7.01798 17.6544 7.04407 17.6544 7.07015V7.07017ZM15.6365 8.02688C15.6365 8.01818 15.6452 8.00949 15.6626 7.99209C15.762 7.88648 15.8836 7.80305 16.0052 7.71963L16.0052 7.71962C16.0538 7.68625 16.1025 7.65289 16.1497 7.6181C16.2801 7.53112 16.4019 7.41806 16.4976 7.28759C16.5336 7.23853 16.5646 7.18453 16.5958 7.13025C16.6477 7.04021 16.6999 6.94935 16.7759 6.87881C16.8368 6.81793 16.9411 6.79184 16.9846 6.88751C17.0716 7.08755 17.0629 7.29629 16.9672 7.49633C16.7498 7.93121 16.1932 8.11385 15.7322 8.08776H15.6887H15.6887C15.6713 8.08776 15.6452 8.08776 15.6365 8.06167C15.6305 8.04954 15.6328 8.04164 15.6349 8.03502C15.6357 8.03215 15.6365 8.02951 15.6365 8.02688ZM15.8366 6.40051H15.8106C15.6975 6.40051 15.5931 6.444 15.5235 6.51358C15.3757 6.65274 15.5844 6.91366 15.7584 6.89626C15.8019 6.88757 15.8453 6.86148 15.8714 6.81799C15.9323 6.73101 15.9671 6.62664 15.9671 6.52227C15.9671 6.47878 15.941 6.444 15.9062 6.4179C15.9008 6.41609 15.8957 6.41427 15.8909 6.41253C15.8725 6.40595 15.8573 6.40051 15.8366 6.40051Z" fill="white"/>
<path fill-rule="evenodd" clip-rule="evenodd" d="M7.2522 5.07003C8.23502 5.00915 9.38309 6.00936 8.84384 7.02696C8.71338 7.27049 8.52204 7.47053 8.2872 7.61839C8.07847 7.75755 7.84363 7.85322 7.59141 7.87931C7.06086 7.9315 6.62599 7.5749 6.33027 7.17482C6.06935 6.82692 5.97367 6.37465 6.06935 5.94847C6.17372 5.49621 6.5738 5.12221 7.03476 5.08742C7.12174 5.07872 7.20871 5.07003 7.2522 5.07003ZM7.4696 6.8096C7.49855 6.8096 7.5245 6.81864 7.5512 6.82794C7.58864 6.84099 7.62756 6.85454 7.67834 6.84439C7.73922 6.82699 7.7914 6.7922 7.83489 6.74002C7.90723 6.66212 7.97245 6.56641 8.03738 6.47113L8.03738 6.47113L8.03738 6.47112C8.07394 6.41748 8.1104 6.36397 8.148 6.31384C8.22628 6.20947 8.30456 6.13989 8.43502 6.21817C8.46981 6.24426 8.47851 6.33124 8.47851 6.39212C8.45241 6.74002 8.27846 7.00964 8.06102 7.26187C7.84359 7.5054 7.34783 7.29666 7.25216 7.10531C7.18258 6.95746 7.28695 6.8009 7.4696 6.8096ZM7.31306 5.80924C7.31306 5.78315 7.31306 5.74837 7.30436 5.72228C7.25218 5.56573 6.97386 5.65271 6.86079 5.72228C6.8173 5.74838 6.78251 5.79186 6.76512 5.83535C6.75642 5.88754 6.75642 5.93972 6.78252 5.98321C6.826 6.08758 6.93037 6.15716 7.03474 6.15716C7.21739 6.15716 7.29567 5.96581 7.31306 5.80926V5.80924Z" fill="white"/>
</svg>
