<svg width="24" height="24" viewBox="0 0 24 24" fill="none" xmlns="http://www.w3.org/2000/svg">
<path d="M23.776 23.083C21.412 21.516 20 13.074 20 0.5C20 0.224 19.776 0 19.5 0H0.5C0.224 0 0 0.224 0 0.5C0 8.2 0.549 21.481 4.224 23.917C4.306 23.971 4.401 24 4.5 24H23.5C23.721 24 23.915 23.855 23.978 23.644C24.042 23.433 23.96 23.205 23.776 23.083ZM4.66 23C2.396 21.26 1.037 13.092 1.001 1H19.001C19.023 8.043 19.521 19.211 22.3 23H4.66ZM9.5 4C9.776 4 10 3.776 10 3.5C10 3.224 9.776 3 9.5 3H3.5C3.224 3 3 3.224 3 3.5C3 3.776 3.224 4 3.5 4H9.5ZM17 11C17.276 11 17.5 10.776 17.5 10.5C17.5 10.224 17.276 10 17 10H4.5C4.224 10 4 10.224 4 10.5C4 10.776 4.224 11 4.5 11H17ZM16.5 8C16.776 8 17 7.776 17 7.5C17 7.224 16.776 7 16.5 7H4C3.724 7 3.5 7.224 3.5 7.5C3.5 7.776 3.724 8 4 8H16.5ZM17.5 13H5C4.724 13 4.5 13.224 4.5 13.5C4.5 13.776 4.724 14 5 14H17.5C17.776 14 18 13.776 18 13.5C18 13.224 17.776 13 17.5 13ZM12.5 19H6.5C6.224 19 6 19.224 6 19.5C6 19.776 6.224 20 6.5 20H12.5C12.776 20 13 19.776 13 19.5C13 19.224 12.776 19 12.5 19Z" fill="white"/>
</svg>
