<svg width="24" height="24" viewBox="0 0 24 24" fill="none" xmlns="http://www.w3.org/2000/svg">
<g clip-path="url(#clip0)">
<path d="M16.5 15.979C16.433 15.979 16.365 15.965 16.301 15.937C16.247 15.914 15.174 15.441 14.452 14.707C13.227 15.765 12.084 15.978 10.5 15.978C8.419 15.978 6 14.231 6 11.978C6 8.85 8.471 7.306 13.994 7.001C13.951 5.581 13.669 4.978 12.5 4.978C11.492 4.978 11.27 5.224 10.976 6.132C10.906 6.35 10.701 6.487 10.468 6.477C9.474 6.413 7.479 5.985 7.395 5.967C7.261 5.938 7.145 5.855 7.073 5.738C7.001 5.621 6.981 5.481 7.017 5.349C7.816 2.409 9.773 0.979004 13 0.979004C16.668 0.979004 18 3.67 18 5.479V10.979C18 11.425 18.545 12.562 18.932 13.228C19.046 13.424 19.014 13.672 18.853 13.833L16.853 15.833C16.758 15.929 16.63 15.979 16.5 15.979ZM12.5 3.979C15 3.979 15 6.256 15 7.479C15 7.747 14.789 7.968 14.521 7.979C7.855 8.251 7 10.26 7 11.979C7 13.641 8.915 14.979 10.5 14.979C12.257 14.979 13.109 14.663 14.146 13.625C14.252 13.518 14.401 13.464 14.553 13.481C14.703 13.497 14.839 13.581 14.92 13.708C15.231 14.19 15.937 14.632 16.398 14.874L17.879 13.393C17.558 12.801 17 11.67 17 10.979V5.479C17 4.269 16.164 1.979 13 1.979C10.446 1.979 8.889 2.974 8.141 5.101C8.683 5.209 9.531 5.369 10.161 5.445C10.539 4.491 11.098 3.979 12.5 3.979Z" fill="white"/>
<path d="M12 13.979C11.544 13.979 10.054 13.799 10 11.491C9.98901 11.03 10.172 10.594 10.528 10.229C11.372 9.366 13.131 8.979 14.5 8.979C14.768 8.979 14.988 9.189 15 9.457C15.085 11.376 14.422 12.491 13.852 13.088C13.317 13.646 12.625 13.979 12 13.979ZM14.002 9.997C12.825 10.08 11.714 10.446 11.243 10.929C11.075 11.101 10.995 11.278 10.999 11.468C11.034 12.98 11.76 12.98 11.999 12.98C12.275 12.98 12.717 12.827 13.127 12.398C13.66 11.842 13.963 11.001 14.002 9.997Z" fill="white"/>
<path d="M22 21.9792C21.799 21.9792 21.609 21.8572 21.533 21.6582C21.434 21.4002 21.563 21.1112 21.821 21.0122C22.504 20.7512 22.886 19.1402 22.979 17.8752C21.983 17.6832 20.154 17.5312 19.353 18.3332C19.158 18.5282 18.841 18.5282 18.646 18.3332C18.451 18.1382 18.451 17.8212 18.646 17.6262C20.163 16.1062 23.485 16.9582 23.627 16.9962C23.851 17.0552 24.005 17.2602 24 17.4922C23.991 17.8802 23.86 21.3042 22.179 21.9472C22.12 21.9692 22.059 21.9792 22 21.9792Z" fill="white"/>
<path d="M11.768 23.0211C7.541 23.0211 3.656 21.2911 0.149001 17.8361C-0.0279989 17.6621 -0.0499989 17.3831 0.0980011 17.1831C0.246001 16.9841 0.519001 16.9221 0.737001 17.0401C7.804 20.8541 13.699 21.3421 20.432 18.6641C20.602 18.5431 20.797 18.4801 20.999 18.4801C21.55 18.4801 21.999 18.9291 21.999 19.4801C21.999 19.9831 21.625 20.4011 21.141 20.4701C17.859 22.1701 14.729 23.0201 11.768 23.0211ZM4.053 19.6981C8.824 22.7241 14.241 22.7701 20.204 19.8231C14.648 21.9011 9.617 21.8871 4.053 19.6981Z" fill="white"/>
</g>
<defs>
<clipPath id="clip0">
<rect width="24" height="24" fill="white"/>
</clipPath>
</defs>
</svg>
