<svg width="24" height="24" viewBox="0 0 24 24" fill="none" xmlns="http://www.w3.org/2000/svg">
<g clip-path="url(#clip0)">
<path d="M11.5 24C11.45 24 11.4 23.993 11.352 23.978C7.742 22.855 1 18.922 1 14.5V3.5C1 3.279 1.145 3.084 1.356 3.021L11.356 0.021C11.45 -0.007 11.549 -0.007 11.643 0.021L21.643 3.021C21.855 3.085 22 3.279 22 3.5V14.5C22 18.922 15.258 22.854 11.648 23.978C11.6 23.993 11.55 24 11.5 24ZM2 3.872V14.5C2 18.011 7.563 21.703 11.5 22.976C15.437 21.703 21 18.011 21 14.5V3.872L11.5 1.022L2 3.872Z" fill="white"/>
<path d="M14.852 9.147C14.657 8.952 14.34 8.952 14.145 9.147L10.499 12.793L8.853 11.147C8.658 10.952 8.341 10.952 8.146 11.147C7.951 11.342 7.951 11.659 8.146 11.854L10.146 13.854C10.244 13.951 10.372 14 10.5 14C10.628 14 10.756 13.951 10.852 13.854L14.852 9.854C15.047 9.659 15.047 9.342 14.852 9.147ZM11.5 6C8.467 6 6 8.468 6 11.5C6 14.532 8.467 17 11.5 17C14.533 17 17 14.532 17 11.5C17 8.468 14.533 6 11.5 6ZM11.5 16C9.019 16 7 13.981 7 11.5C7 9.019 9.019 7 11.5 7C13.981 7 16 9.019 16 11.5C16 13.981 13.981 16 11.5 16Z" fill="white"/>
</g>
<defs>
<clipPath id="clip0">
<rect width="24" height="24" fill="white"/>
</clipPath>
</defs>
</svg>
