<svg width="24" height="24" viewBox="0 0 24 24" fill="none" xmlns="http://www.w3.org/2000/svg">
<path d="M21.5 22H2.5C2.224 22 2 21.776 2 21.5C2 21.224 2.224 21 2.5 21H21.5C22.327 21 23 20.327 23 19.5V5.5C23 4.673 22.327 4 21.5 4H4.5C3.673 4 3 4.673 3 5.5V19.5C3 19.776 2.776 20 2.5 20C2.224 20 2 19.776 2 19.5V5.5C2 4.121 3.121 3 4.5 3H21.5C22.879 3 24 4.121 24 5.5V19.5C24 20.879 22.879 22 21.5 22Z" fill="white"/>
<path d="M4.5 22H2.5C1.121 22 0 20.879 0 19.5V8.5C0 7.121 1.121 6 2.5 6C2.776 6 3 6.224 3 6.5C3 6.776 2.776 7 2.5 7C1.673 7 1 7.673 1 8.5V19.5C1 20.327 1.673 21 2.5 21H4.5C4.776 21 5 21.224 5 21.5C5 21.776 4.776 22 4.5 22Z" fill="white"/>
<path d="M12.5 19H4.5C4.224 19 4 18.776 4 18.5V12.5C4 12.224 4.224 12 4.5 12H12.5C12.776 12 13 12.224 13 12.5V18.5C13 18.776 12.776 19 12.5 19ZM5 18H12V13H5V18Z" fill="white"/>
<path d="M21.5 13H14.5C14.224 13 14 12.776 14 12.5C14 12.224 14.224 12 14.5 12H21.5C21.776 12 22 12.224 22 12.5C22 12.776 21.776 13 21.5 13Z" fill="white"/>
<path d="M21.5 16H14.5C14.224 16 14 15.776 14 15.5C14 15.224 14.224 15 14.5 15H21.5C21.776 15 22 15.224 22 15.5C22 15.776 21.776 16 21.5 16Z" fill="white"/>
<path d="M21.5 19H14.5C14.224 19 14 18.776 14 18.5C14 18.224 14.224 18 14.5 18H21.5C21.776 18 22 18.224 22 18.5C22 18.776 21.776 19 21.5 19Z" fill="white"/>
<path d="M21.5 10H4.5C4.224 10 4 9.776 4 9.5C4 9.224 4.224 9 4.5 9H21.5C21.776 9 22 9.224 22 9.5C22 9.776 21.776 10 21.5 10Z" fill="white"/>
<path d="M21.5 7H4.5C4.224 7 4 6.776 4 6.5C4 6.224 4.224 6 4.5 6H21.5C21.776 6 22 6.224 22 6.5C22 6.776 21.776 7 21.5 7Z" fill="white"/>
</svg>
