<svg width="24" height="24" viewBox="0 0 24 24" fill="none" xmlns="http://www.w3.org/2000/svg">
<g clip-path="url(#clip0)">
<mask id="path-1-inside-1" fill="white">
<path d="M8.00001 17.5C7.65625 17.9922 4.93931 21.1183 5.20418 21.8491C5.22547 21.9079 5.27924 21.9455 5.33116 21.9803C7.24297 23.2591 9.52341 24 11.9894 24C18.6196 24 24 18.6291 24 12.0106C24 5.39207 18.662 0 12.0106 0C5.38041 0 5.72205e-06 5.37093 5.72205e-06 11.9894C5.72205e-06 13.8179 0.419213 15.5688 1.15129 17.1228C1.36243 17.571 1.88906 17.7583 2.352 17.5818L6.50001 16"/>
</mask>
<path d="M1.15129 17.1228L1.875 16.7819L1.15129 17.1228ZM2.352 17.5818L2.06696 16.8343L2.352 17.5818ZM5.33116 21.9803L4.88637 22.6452L5.33116 21.9803ZM5.20418 21.8491L4.45205 22.1217L5.20418 21.8491ZM4.88637 22.6452C6.92535 24.0091 9.35977 24.8 11.9894 24.8V23.2C9.68706 23.2 7.5606 22.5091 5.77595 21.3153L4.88637 22.6452ZM11.9894 24.8C19.0601 24.8 24.8 19.0722 24.8 12.0106H23.2C23.2 18.1859 18.1791 23.2 11.9894 23.2V24.8ZM24.8 12.0106C24.8 4.95351 19.1071 -0.8 12.0106 -0.8V0.8C18.2169 0.8 23.2 5.83063 23.2 12.0106H24.8ZM12.0106 -0.8C4.93991 -0.8 -0.799994 4.92777 -0.799994 11.9894H0.800006C0.800006 5.81408 5.82091 0.8 12.0106 0.8V-0.8ZM-0.799994 11.9894C-0.799994 13.9402 -0.352781 15.8072 0.427569 17.4637L1.875 16.7819C1.19121 15.3303 0.800006 13.6955 0.800006 11.9894H-0.799994ZM2.63704 18.3293L6.78505 16.7475L6.21496 15.2525L2.06696 16.8343L2.63704 18.3293ZM7.34414 17.0419C7.278 17.1366 7.07364 17.3878 6.75615 17.7847C6.45575 18.1603 6.08419 18.63 5.73001 19.1102C5.37931 19.5858 5.02908 20.0938 4.78063 20.5437C4.65741 20.7669 4.54389 21.0029 4.47162 21.2307C4.41042 21.4236 4.32462 21.7701 4.45205 22.1217L5.95631 21.5765C6.01753 21.7455 5.95869 21.8344 5.99671 21.7145C6.02368 21.6295 6.08165 21.4976 6.18127 21.3172C6.37849 20.96 6.67931 20.5187 7.01771 20.0599C7.35262 19.6058 7.7082 19.156 8.00562 18.7841C8.28597 18.4336 8.55013 18.1095 8.65587 17.9581L7.34414 17.0419ZM0.427569 17.4637C0.832334 18.323 1.81787 18.6416 2.63704 18.3293L2.06696 16.8343C2.01841 16.8528 1.97203 16.8502 1.93754 16.8373C1.90562 16.8253 1.88662 16.8065 1.875 16.7819L0.427569 17.4637ZM5.77595 21.3153C5.74712 21.296 5.77152 21.3104 5.80221 21.339C5.83862 21.373 5.91062 21.4505 5.95631 21.5765L4.45205 22.1217C4.57647 22.465 4.87114 22.635 4.88637 22.6452L5.77595 21.3153Z" fill="white" mask="url(#path-1-inside-1)"/>
<path d="M18.3018 13.1315C18.8738 13.0469 19.4245 13.0046 19.9965 12.8989C20.9073 12.7297 21.8182 12.476 22.6655 12.1165C22.729 12.0954 22.7926 12.0742 22.7926 12.0108C22.7926 11.9474 22.7079 11.9262 22.6655 11.9051C21.5216 11.3976 18.7891 10.8055 18.3018 10.8689" stroke="white" stroke-width="0.8" stroke-miterlimit="10"/>
<path d="M5.71934 10.8691C5.65579 10.8903 3.34688 11.0172 1.31334 11.9264C1.27097 11.9476 1.20743 11.9476 1.20743 12.011C1.20743 12.0744 1.27097 12.0744 1.31334 12.0956C1.50398 12.1802 1.71581 12.2647 1.90645 12.3282C3.13505 12.7934 4.4272 13.0048 5.71934 13.1317" stroke="white" stroke-width="0.8" stroke-miterlimit="10"/>
<path d="M13.1545 5.70919C13.1545 5.56117 13.1333 5.39201 13.1121 5.22285C13.0062 4.46162 12.9003 3.70038 12.6885 2.93915C12.5402 2.38937 12.3707 1.81844 12.1165 1.28981C12.0954 1.24752 12.0954 1.18408 12.0318 1.18408C11.9894 1.18408 11.9683 1.22637 11.9471 1.26866C11.8835 1.41668 11.82 1.5647 11.7564 1.71272C11.2904 2.98144 11.0362 4.29245 10.9091 5.62461" stroke="white" stroke-width="0.8" stroke-miterlimit="10"/>
<path d="M10.8879 18.2695C10.9091 18.333 10.9303 18.3964 10.9303 18.4598C10.9515 19.2634 11.1209 20.0669 11.3116 20.8493C11.4598 21.4625 11.6505 22.0757 11.9259 22.6678C11.947 22.7101 11.947 22.7735 12.0106 22.7735C12.0741 22.7735 12.0741 22.7101 12.0953 22.6678C12.1589 22.5198 12.2224 22.3506 12.286 22.2026C12.6249 21.2933 12.8579 20.3629 12.985 19.4114C13.0274 19.0519 13.0909 18.6713 13.1333 18.3118" stroke="white" stroke-width="0.8" stroke-miterlimit="10"/>
<path d="M8.34597 6.74526C7.96468 6.44923 7.60458 6.15319 7.22329 5.89945C6.37598 5.30738 5.4863 4.77874 4.5119 4.39813C4.46953 4.37698 4.40599 4.33469 4.36362 4.37698C4.32126 4.41927 4.36362 4.48271 4.3848 4.525C4.59663 5.11707 4.89319 5.6457 5.21093 6.19548C5.63458 6.93557 6.16415 7.61222 6.69372 8.28888" stroke="white" stroke-width="0.8" stroke-miterlimit="10"/>
<path d="M15.6964 17.2545C16.0565 17.5506 16.4378 17.8466 16.819 18.1004C17.6664 18.6924 18.556 19.2422 19.5304 19.6017C19.5728 19.6228 19.6363 19.6651 19.6787 19.6228C19.7211 19.5805 19.6787 19.5171 19.6575 19.4748C19.4457 18.9039 19.1491 18.3541 18.8526 17.8255C18.4289 17.0642 17.8782 16.3876 17.3486 15.7109" stroke="white" stroke-width="0.8" stroke-miterlimit="10"/>
<path d="M6.71493 15.7109C6.10063 16.4087 4.9144 17.9523 4.4272 19.3691C4.40601 19.4325 4.32128 19.5383 4.40601 19.6017C4.46956 19.6651 4.55429 19.5805 4.61784 19.5594C5.95235 19.1153 7.87998 17.614 8.30363 17.2968" stroke="white" stroke-width="0.8" stroke-miterlimit="10"/>
<path d="M17.3275 8.28897C17.6664 7.82377 18.0477 7.37972 18.3654 6.91452C18.8526 6.17443 19.3186 5.39206 19.6364 4.54624C19.6576 4.4828 19.7211 4.44051 19.6576 4.37708C19.594 4.31364 19.5517 4.37708 19.4881 4.39822C18.6832 4.69426 17.963 5.11717 17.2639 5.56122C16.7344 5.89954 16.2472 6.30131 15.7388 6.68192" stroke="white" stroke-width="0.8" stroke-miterlimit="10"/>
<path d="M15.2939 15.1824C15.2939 15.2881 15.2727 15.3304 15.1668 15.2881C14.3831 14.9498 13.6417 14.548 12.985 13.9771C12.9003 13.8925 12.8156 13.8079 12.6885 13.7656C12.6249 14.3366 12.5614 14.9075 12.3919 15.4573C12.2648 15.8379 12.1801 16.2396 11.9682 16.578C11.9259 16.4511 11.5658 15.6476 11.4387 14.7806C11.3751 14.3789 11.3539 14.2308 11.3116 13.9559C11.3116 13.9137 11.3116 13.8714 11.3116 13.8079C11.2904 13.7868 11.2904 13.7868 11.2692 13.8079C11.2057 13.8502 11.1209 13.8714 11.0786 13.9559C10.9091 14.104 9.68051 14.9921 9.06621 15.2247C9.00266 15.2458 8.93911 15.267 8.87557 15.2881C8.8332 15.3092 8.76965 15.3515 8.72729 15.3092C8.68492 15.267 8.7061 15.2035 8.72729 15.1612C9.06621 14.3366 9.48986 13.5753 10.1042 12.9198C10.1677 12.8564 10.2101 12.7929 10.2736 12.6872C9.29922 12.6026 8.38836 12.4123 7.47751 12.0106C8.40955 11.6088 9.3204 11.3974 10.2948 11.3339C10.2313 11.1013 10.0194 10.9744 9.89234 10.8053C9.42632 10.2132 9.06621 9.55771 8.76965 8.85991C8.74847 8.81762 8.7061 8.75418 8.74847 8.71189C8.79084 8.64846 8.85438 8.71189 8.89675 8.73304C9.70169 9.07136 10.4431 9.49427 11.0998 10.0863C11.1633 10.1498 11.2268 10.1921 11.3328 10.2555C11.4175 9.26167 11.6293 8.33128 12.0318 7.40088C12.2224 7.7815 12.3072 8.14097 12.4343 8.50044C12.5825 8.98678 12.6461 9.49427 12.7096 10.0018C12.7096 10.0441 12.6885 10.1286 12.752 10.1498C12.8156 10.1709 12.8579 10.1075 12.9003 10.0652C13.5569 9.45198 14.3195 9.02907 15.1456 8.69075C15.2092 8.6696 15.2516 8.60617 15.3151 8.6696C15.3575 8.71189 15.3151 8.77533 15.2939 8.81762C15.2727 8.88106 15.2516 8.94449 15.2304 9.00793C15.0186 9.40969 14.489 10.5727 13.9594 11.0167C13.9171 11.0379 13.6629 11.2705 13.8323 11.2916C14.6161 11.3551 15.7599 11.5454 16.5013 11.9471C16.4166 12.0529 15.5058 12.4969 14.5102 12.5815C14.2983 12.6026 14.0865 12.6449 13.8535 12.6449C13.7052 12.6449 13.7052 12.7084 13.79 12.7929C14.6584 13.6176 15.2939 15.1612 15.2939 15.1824ZM12.4978 11.5454C12.6673 11.1225 12.7308 10.7207 12.7096 10.2555C12.4131 10.5515 12.2013 10.8687 12.0106 11.2282C11.8411 10.8687 11.6505 10.5938 11.3751 10.3189C11.3539 10.763 11.4599 11.1648 11.587 11.5665C11.1845 11.3974 10.8244 11.3339 10.3795 11.3339C10.6549 11.6088 10.9303 11.7991 11.248 11.9683C10.9091 12.1586 10.6125 12.3278 10.3372 12.6238C10.7608 12.6449 11.1421 12.5392 11.5234 12.4335C11.3751 12.8564 11.2904 13.237 11.3116 13.7022C11.6081 13.4062 11.82 13.089 12.0106 12.7507C12.2013 13.089 12.3707 13.385 12.6673 13.6388C12.6885 13.1947 12.5825 12.8141 12.4554 12.3912C12.8579 12.5603 13.218 12.6238 13.6417 12.6238C13.3875 12.3278 13.0909 12.1586 12.752 11.9683C13.1121 11.7991 13.4087 11.6088 13.684 11.3128C13.2604 11.3339 12.9003 11.4185 12.4978 11.5454Z" stroke="white" stroke-width="0.8" stroke-miterlimit="10"/>
<path d="M12.4978 11.5451C12.9003 11.4182 13.2604 11.3336 13.7052 11.3336C13.4298 11.6297 13.1333 11.82 12.7732 11.9891C13.1121 12.1795 13.3875 12.3486 13.6628 12.6446C13.2392 12.6446 12.8579 12.5812 12.4766 12.4121C12.6249 12.835 12.7096 13.2156 12.6884 13.6596C12.4131 13.4059 12.2224 13.1098 12.0318 12.7715C11.8411 13.131 11.6293 13.427 11.3328 13.7231C11.3116 13.2579 11.3963 12.8561 11.5446 12.4543C11.1633 12.5601 10.782 12.6658 10.3583 12.6446C10.6337 12.3486 10.9303 12.1583 11.2692 11.9891C10.9515 11.7988 10.6549 11.6297 10.4007 11.3548C10.8244 11.3548 11.2057 11.4182 11.6081 11.5874C11.4598 11.1645 11.3751 10.7839 11.3963 10.3398C11.6717 10.6147 11.8623 10.8896 12.0318 11.2491C12.2224 10.8896 12.4343 10.5935 12.7308 10.2764C12.7308 10.7204 12.6673 11.1222 12.4978 11.5451Z" stroke="white" stroke-width="0.8" stroke-miterlimit="10"/>
<path d="M12.0106 7.37958C12.3072 6.72407 12.6884 6.21658 13.1121 5.73024C13.6205 5.2439 14.1924 4.79984 14.8067 4.44037C15.2727 4.20777 15.2727 4.20777 15.421 4.69412C15.6328 5.37077 15.7176 6.02628 15.7176 6.72407C15.7176 7.27385 15.6328 7.82363 15.4846 8.37341C15.421 8.60601 15.4422 8.62716 15.6752 8.54258C16.7979 8.20425 18.8526 8.4157 19.594 8.66945C19.7846 8.71174 19.7846 8.79632 19.7211 8.94434C19.4881 9.43068 18.3654 11.2915 16.6284 11.9681C16.6284 11.9893 18.6408 13.1311 19.594 14.8228C19.8482 15.2668 19.8482 15.2668 19.2974 15.3937C18.6408 15.6051 16.9462 15.732 15.3998 15.3514C15.2939 15.3937 15.3575 15.4783 15.3786 15.5205C15.5481 16.0915 15.654 16.6413 15.654 17.2333C15.654 18.0368 15.5693 18.7981 15.2939 19.5593C15.2304 19.7285 15.1668 19.7285 15.0397 19.665C14.5525 19.4324 14.1077 19.1153 13.684 18.7769C13.4934 18.6289 13.3027 18.4598 13.1333 18.3117C12.6884 17.8042 12.286 17.2756 11.9894 16.6413C11.8835 16.8104 11.7988 16.9373 11.714 17.0853C11.6717 17.1699 10.4007 19.0307 9.17211 19.5382C8.60018 19.7919 8.72728 19.7496 8.579 19.3056C8.36717 18.6501 8.28244 17.9523 8.28244 17.2756C8.28244 16.6624 8.40954 16.0069 8.51545 15.6686C8.60018 15.3937 8.579 15.3725 8.32481 15.4571C7.79524 15.6051 7.24449 15.6897 6.69374 15.6897C5.93116 15.6897 5.16858 15.584 4.42719 15.3302C4.23654 15.2879 4.25773 15.2034 4.30009 15.0553C4.57547 14.0827 6.7361 12.2642 7.41395 11.9893C6.7361 11.7144 6.20654 11.2915 5.69815 10.8686C5.21095 10.3399 4.76611 9.79015 4.40601 9.15579C4.173 8.75403 4.173 8.71174 4.63902 8.58487C5.31686 8.37341 5.99471 8.28883 6.69374 8.28883C7.3504 8.28883 7.98588 8.4157 8.64255 8.62716C8.4519 7.9928 8.32481 7.40072 8.32481 6.76636C8.32481 5.96284 8.40954 5.20161 8.68491 4.44037C8.74846 4.27121 8.81201 4.27121 8.9391 4.33465C9.42631 4.56724 9.87114 4.88443 10.2948 5.22275C10.4854 5.37077 10.6761 5.53993 10.8455 5.68795C11.2904 6.19544 11.714 6.72407 12.0106 7.37958ZM12.0106 7.37958C11.6081 8.30998 11.3963 9.24037 11.3116 10.2342C11.2057 10.1708 11.1421 10.1285 11.0786 10.065C10.4219 9.47297 9.6805 9.05006 8.87556 8.71174C8.83319 8.69059 8.76964 8.62716 8.72728 8.69059C8.68491 8.73288 8.72728 8.79632 8.74846 8.83861C9.04502 9.53641 9.40512 10.1919 9.87114 10.784C9.99824 10.9531 10.1465 11.08 10.2736 11.3126C9.29921 11.3761 8.38835 11.5875 7.45632 11.9893C8.36717 12.391 9.27803 12.5813 10.2524 12.6659C10.1889 12.7717 10.1465 12.8351 10.083 12.8985C9.46867 13.554 9.04502 14.3153 8.70609 15.1399C8.68491 15.1822 8.66373 15.2457 8.70609 15.288C8.74846 15.3302 8.81201 15.2879 8.85437 15.2668C8.91792 15.2457 8.98147 15.2245 9.04502 15.2034C10.1465 14.6959 11.1845 13.8501 11.248 13.8078C11.2692 13.7866 11.2692 13.7866 11.2904 13.8078C11.2904 13.8712 11.2904 13.9135 11.2904 13.9558C11.3327 14.2307 11.3751 14.5056 11.4175 14.7805C11.4598 15.2034 11.7352 16.2395 11.947 16.5778C12.1589 16.2395 12.2436 15.8377 12.3707 15.4571C12.5402 14.9073 12.6037 14.3364 12.6673 13.7655C12.7944 13.8078 12.8791 13.8924 12.9638 13.9769C13.6205 14.5479 14.3619 14.9496 15.1456 15.288C15.2515 15.3302 15.2727 15.288 15.2727 15.1822C15.2727 15.1611 14.8279 13.8924 13.7899 12.7928C13.7052 12.7082 13.7052 12.6448 13.8535 12.6448C14.0865 12.6448 14.2983 12.6025 14.5102 12.5813C15.3786 12.5179 16.4166 12.0527 16.5013 11.9258C15.7388 11.5029 14.6161 11.3338 13.8323 11.2703C13.6628 11.2492 13.917 11.0166 13.9594 10.9954C13.9594 10.9954 15.0609 9.70557 15.2939 8.6483C15.3151 8.56372 15.188 8.6483 15.1245 8.66945C14.2983 9.00777 13.5357 9.43068 12.8791 10.0439C12.8367 10.0862 12.7944 10.1496 12.7308 10.1285C12.6673 10.1073 12.6884 10.0228 12.6884 9.98046C12.6249 9.47297 12.5613 8.96548 12.4131 8.47914C12.286 8.11967 12.2012 7.7602 12.0106 7.37958Z" stroke="white" stroke-width="0.8" stroke-miterlimit="10"/>
</g>
<defs>
<clipPath id="clip0">
<rect width="24" height="24" fill="white"/>
</clipPath>
</defs>
</svg>
