<svg width="24" height="24" viewBox="0 0 24 24" fill="none" xmlns="http://www.w3.org/2000/svg">
<g clip-path="url(#clip0)">
<path d="M0.5 7.99923H22.293L18.146 12.1462C17.951 12.3412 17.951 12.6582 18.146 12.8532C18.244 12.9502 18.372 12.9992 18.5 12.9992C18.628 12.9992 18.756 12.9502 18.853 12.8542L23.853 7.85423C23.867 7.84023 23.872 7.82223 23.884 7.80823C23.913 7.77223 23.943 7.73523 23.961 7.69123C23.979 7.64823 23.983 7.60223 23.988 7.55723C23.991 7.53723 24 7.52023 24 7.49923C24 7.45223 23.985 7.41023 23.973 7.36723C23.968 7.34923 23.969 7.32923 23.962 7.31123C23.936 7.24623 23.897 7.18923 23.847 7.14123L18.853 2.14723C18.658 1.95223 18.341 1.95223 18.146 2.14723C17.951 2.34223 17.951 2.65923 18.146 2.85423L22.291 6.99923H0.5C0.224 6.99923 1.37836e-07 7.22323 1.37836e-07 7.49923C1.37836e-07 7.77523 0.224 7.99923 0.5 7.99923ZM23.5 15.9992H1.707L5.853 11.8532C6.048 11.6582 6.048 11.3412 5.853 11.1462C5.658 10.9512 5.341 10.9512 5.146 11.1462L0.146 16.1462C0.142 16.1502 0.141 16.1562 0.136 16.1602C0.0960001 16.2032 0.0610001 16.2522 0.0380001 16.3072C-0.0129999 16.4302 -0.0129999 16.5682 0.0380001 16.6912C0.0520001 16.7242 0.0760001 16.7492 0.0960001 16.7782C0.113 16.8032 0.123 16.8302 0.145 16.8522L5.145 21.8522C5.243 21.9492 5.371 21.9982 5.499 21.9982C5.627 21.9982 5.755 21.9492 5.852 21.8512C6.047 21.6562 6.047 21.3392 5.852 21.1442L1.706 16.9982H23.5C23.776 16.9982 24 16.7742 24 16.4982C24 16.2222 23.776 15.9992 23.5 15.9992Z" fill="white"/>
</g>
<defs>
<clipPath id="clip0">
<rect width="24" height="24" fill="white"/>
</clipPath>
</defs>
</svg>
