<svg width="55" height="30" viewBox="0 0 55 30" fill="none" xmlns="http://www.w3.org/2000/svg">
<mask id="mask0" style="mask-type:alpha" maskUnits="userSpaceOnUse" x="25" y="0" width="30" height="30">
<circle cx="40" cy="15" r="15" fill="white"/>
</mask>
<g mask="url(#mask0)">
<circle cx="40" cy="15" r="15" fill="white"/>
<path d="M49.0902 24.4333V24.4442C49.1336 24.5964 49.1771 24.7486 49.2206 24.9008C49.2206 24.9116 49.2206 24.9225 49.2206 24.9334C49.2206 24.9443 49.1989 24.9551 49.1771 24.9551C48.677 25.0095 48.2421 24.7812 47.8942 24.4442C47.8181 24.3681 47.7529 24.2811 47.6442 24.2376C47.5355 24.1941 47.4159 24.2267 47.318 24.2593C46.644 24.5203 45.9591 24.7377 45.2524 24.8899C43.9586 25.1617 42.6214 25.2487 41.2842 25.2269C38.501 25.1943 35.7069 24.7703 33.0759 23.868C32.4671 23.6723 31.88 23.4222 31.3147 23.1178C31.0211 22.9656 30.7493 22.7808 30.4884 22.5959C30.3036 22.4546 30.0427 22.1285 29.8252 22.4003C29.336 22.9982 28.738 23.8897 27.8465 23.6505L28.3032 23.0091L27.4878 23.0743L28.4989 21.4435C28.3467 21.3674 28.151 21.2587 27.9553 21.1826C27.8683 21.15 27.7704 21.15 27.6943 21.1935C27.1399 21.4979 26.1179 21.6501 25.5635 21.2587C25.4656 21.1935 25.4004 21.1065 25.3678 20.9978C25.2917 20.7695 25.433 20.6281 25.5635 20.4977C25.857 20.2041 26.1288 19.878 26.3788 19.5518C26.4223 19.4975 26.455 19.4322 26.4658 19.3561C26.455 19.3018 26.4332 19.2365 26.3897 19.1931C25.7374 18.2581 25.3134 17.1818 25.1286 16.0511C24.9438 14.9204 24.8894 13.7028 25.4439 12.6591C25.5961 12.3655 25.8135 12.0829 26.1071 11.9089C26.4115 11.7241 26.7811 11.6697 27.1399 11.6697C27.5639 11.6589 28.0205 11.7132 28.3358 11.9959C28.2705 11.9307 28.7054 11.0827 28.7598 10.9739C29.1077 10.289 29.5426 9.65844 30.0644 9.0931C30.2601 8.88654 30.7167 8.60387 30.7711 8.3212C31.032 6.81001 31.9126 5.8098 33.3151 5.25534C34.3479 4.85308 35.3481 4.92918 36.3049 5.4619C36.4788 5.55975 36.6093 5.53801 36.7941 5.49452C37.2942 5.3858 37.7943 5.3097 38.2944 5.26621C39.8056 5.13575 41.295 5.33144 42.7627 5.70108C43.1324 5.79893 43.415 5.79893 43.7629 5.59237C44.4479 5.20098 45.2306 5.17923 46.0025 5.24446C47.2202 5.34231 48.1117 5.95114 48.8292 6.9296C49.2097 7.45145 49.3076 8.0494 49.5033 8.62561C49.5468 8.7452 49.6011 8.86479 49.6664 8.96264C50.036 9.54972 50.4165 10.1368 50.7862 10.7348C51.1667 11.3436 51.482 11.985 51.7538 12.6591C51.8842 12.9852 52.0147 13.3223 52.1451 13.6593C52.2539 13.942 52.2865 14.3007 52.6018 14.4421C52.754 14.5182 52.9388 14.5399 53.1019 14.5725C54.276 14.8443 55.0805 15.9424 54.9936 17.1491C54.9392 17.7906 54.6457 18.3777 54.2978 18.9213C53.9499 19.454 53.5476 19.9541 53.2432 20.5194C53.2106 20.5738 53.1888 20.6281 53.1888 20.6934C53.1997 20.7586 53.2215 20.813 53.2649 20.8564C53.4498 21.0956 53.6998 21.2696 53.9825 21.3674C54.1673 21.4218 54.3739 21.4544 54.4608 21.661C54.4935 21.7588 54.4935 21.8675 54.4608 21.9545C54.3739 22.1719 54.1891 22.2915 53.9825 22.3785C53.3737 22.6394 52.6887 22.6394 52.069 22.3785C51.9929 22.3459 51.8951 22.3024 51.819 22.335C51.7755 22.3568 51.732 22.3894 51.6994 22.4329C51.4276 22.7481 51.1232 23.0199 50.7862 23.27C50.5578 23.4331 50.3187 23.5853 50.0578 23.7157C49.9925 23.7484 49.9164 23.7918 49.8838 23.868C49.8729 23.9332 49.8729 24.0093 49.8947 24.0745C49.9164 24.1832 49.9382 24.292 49.949 24.4007C49.949 24.4115 49.949 24.4333 49.9382 24.4442C49.9382 24.4442 49.9273 24.4442 49.9164 24.4442C49.6555 24.455 49.3837 24.4442 49.1228 24.4442C49.101 24.4224 49.0902 24.4224 49.0902 24.4333Z" fill="#010202"/>
<path d="M46.8942 21.0956C46.8834 21.5957 46.829 22.085 46.742 22.5633C46.7094 22.7482 46.6659 22.9439 46.5463 23.0852C46.4267 23.2265 46.231 23.3026 46.0571 23.357C44.111 23.9876 41.9149 24.0093 39.8928 23.9006C37.4249 23.7701 34.6417 23.357 32.4129 22.2154C32.0215 22.0089 31.641 21.7697 31.3475 21.4327C30.8691 20.8891 30.793 20.0302 30.7821 19.3344C30.7713 18.519 30.9778 17.7145 31.391 17.0187C31.9563 16.0728 33.0652 15.5075 34.1089 15.2792C35.2505 15.0291 36.4246 15.1161 37.5771 15.1922C39.7297 15.3444 41.9258 15.5075 43.8827 16.399C44.8177 16.823 45.7092 17.4427 46.2528 18.3233C46.7746 19.1496 46.916 20.128 46.8942 21.0956Z" fill="#CFFEDD"/>
<path d="M28.6513 19.4431C27.8032 16.475 29.0535 12.496 30.6408 10.2346C30.6625 10.2129 30.6952 10.202 30.7278 10.2237C30.7386 10.2237 30.7386 10.2346 30.7495 10.2455C30.8039 10.3759 30.8582 10.4955 30.9126 10.6151C31.1735 11.1696 31.554 11.6479 32.0759 11.985C32.4564 12.2242 32.8804 12.3872 33.3153 12.5177C34.1307 12.7677 35.0548 12.9091 35.8919 12.6373C36.6203 12.3981 37.24 11.6914 37.6205 11.0717C38.0119 10.4303 38.3816 9.56055 38.4033 8.79952C38.4251 8.03849 38.2294 7.27746 37.751 6.67951C37.7184 6.63602 37.6858 6.57079 37.7293 6.53818C37.7401 6.5273 37.7619 6.5273 37.7836 6.5273C39.1426 6.36423 40.5233 6.42946 41.8606 6.73387C41.904 6.73387 41.9367 6.75561 41.9693 6.78823C42.0019 6.84259 41.9693 6.91869 41.9367 6.97305C41.5344 7.60362 41.2517 8.32116 41.1321 9.06044C41.0234 9.77799 41.0887 10.539 41.3713 11.2131C41.9149 12.5068 43.2195 13.3657 44.5894 13.6592C45.4809 13.8549 46.4485 13.8332 47.2965 13.4744C48.2967 13.0504 48.9708 12.0937 49.3948 11.1261C49.4165 11.0717 49.4709 11.05 49.5252 11.0717C49.547 11.0826 49.5578 11.0935 49.5687 11.1152C49.6666 11.2783 49.8296 11.4957 49.8514 11.5392C49.971 11.7567 50.0905 11.985 50.1993 12.2024C50.4167 12.659 50.6015 13.1156 50.7646 13.594C51.0799 14.5072 51.3843 15.4531 51.4821 16.4316C51.5909 17.4209 51.4713 18.4211 51.3408 19.4104C51.2538 20.0519 51.1669 20.7042 50.8842 21.2913C50.5254 22.0306 49.8949 22.4546 49.2317 22.8894C49.1773 22.9221 49.123 22.9547 49.0577 22.9112C49.0251 22.8786 48.9925 22.8351 48.9925 22.7916C48.7968 21.5196 49.0686 20.2041 48.7533 18.9647C48.7424 18.8995 48.6772 18.8234 48.6228 18.856C48.612 18.8669 48.6011 18.8886 48.5902 18.9103C48.5576 19.0191 48.5576 19.1278 48.5359 19.2365C48.4598 19.7257 48.4598 20.2258 48.438 20.7151L48.351 22.248V22.2589C48.3402 22.4872 48.3184 22.7481 48.3837 22.9655C48.4489 23.1504 48.612 23.3243 48.7642 23.4439C48.9708 23.607 49.1556 23.8027 49.3513 23.9766C49.3839 24.0092 49.4165 24.0636 49.3839 24.0962C49.3621 24.118 49.3295 24.1071 49.2969 24.0962C49.1773 24.0527 49.0686 23.9984 48.949 23.944C48.7859 23.857 48.6337 23.7266 48.4815 23.6179C48.4489 23.5852 48.4054 23.5635 48.351 23.5418C48.3293 23.5309 48.3076 23.5309 48.2858 23.5526C48.2858 23.5526 48.2858 23.5526 48.2858 23.5635C48.2641 23.6179 48.2749 23.6831 48.2967 23.7266C48.3619 23.8788 48.438 24.0201 48.525 24.1723C48.5794 24.2702 48.6446 24.3571 48.6881 24.4659C48.6881 24.4767 48.699 24.4985 48.6881 24.5093C48.6772 24.5093 48.6772 24.5093 48.6663 24.5093C48.5359 24.4659 48.4489 24.3789 48.3619 24.2702C48.275 24.1723 48.2097 24.0636 48.1445 23.9549C47.9053 23.52 48.0249 23.0525 48.0684 22.5742C48.1119 22.0741 48.1336 21.5631 48.1336 21.063C48.1336 20.2041 48.1336 19.3452 47.8075 18.5298C47.5357 17.8558 47.0899 17.2578 46.5681 16.7468C46.0354 16.2359 45.4265 15.7901 44.7633 15.4422C44.5568 15.3335 44.3502 15.2248 44.1328 15.1269C44.0241 15.0835 43.9262 15.0291 43.8175 14.9965C43.7305 14.9639 43.6001 14.8769 43.5022 14.8769C41.567 14.1593 39.5122 14.0941 37.4683 13.9854C36.1746 13.9202 34.8591 13.8332 33.5871 14.0941C32.1629 14.3877 30.9561 15.1487 30.2385 16.4207C30.0863 16.7034 29.945 16.9969 29.8363 17.3013C29.7276 17.5949 29.6188 17.8014 29.3144 17.9427C28.9122 18.1384 28.8361 18.5842 28.7817 19.0082C28.76 19.1821 28.7165 19.2909 28.6947 19.4431C28.673 19.4539 28.6621 19.4539 28.6513 19.4431C28.6621 19.4539 28.6513 19.4539 28.6513 19.4431Z" fill="#00FC4C"/>
<path d="M45.5459 12.8656C44.0021 12.833 42.3278 11.8545 42.0125 10.2672C41.8929 9.6258 42.0125 8.97349 42.2626 8.36467C42.5887 7.59277 43.1541 6.8861 43.9042 6.48384C44.7196 6.04896 45.7851 6.09245 46.6439 6.38599C47.2745 6.60343 47.8398 7.00569 48.1877 7.56015C48.5139 8.07113 48.6335 8.69082 48.6661 9.29965C48.6987 10.1911 48.5248 11.1261 47.9594 11.8219C47.3723 12.5286 46.4482 12.8765 45.5459 12.8656Z" fill="#FEFEFE"/>
<path d="M31.456 9.07133C31.4669 7.88629 32.1736 6.82085 33.2499 6.34249C33.9892 6.00546 34.7937 6.00546 35.5547 6.25552C35.6091 6.26639 35.6526 6.28813 35.6961 6.30988C36.3049 6.53819 36.8376 6.85347 37.142 7.46229C37.3377 7.85368 37.4138 8.28855 37.4138 8.72343C37.4138 9.40835 37.2399 10.1042 36.8811 10.6912C36.6963 11.0065 36.4354 11.2892 36.1309 11.4957C35.7069 11.7784 35.1851 11.8871 34.6741 11.9089C34.1197 11.9198 33.6304 11.7893 33.1303 11.561C32.7063 11.3653 32.2932 11.1044 31.9888 10.7456C31.6191 10.2672 31.4452 9.66928 31.456 9.07133Z" fill="#FEFEFE"/>
<path d="M27.0964 17.9644C27.0637 17.9426 27.042 17.9209 27.0311 17.8883C26.6506 17.149 26.4114 16.3553 26.3027 15.5399C26.2049 14.7354 26.2049 13.8765 26.6289 13.159C26.6832 13.0503 26.7702 12.9524 26.868 12.8763C27.1507 12.6915 27.5312 12.7894 27.7269 13.0612C27.7813 13.1373 27.8139 13.2242 27.8248 13.3112C27.8248 13.4091 27.803 13.5069 27.7595 13.6048C27.4116 14.6158 27.2159 15.6704 27.1616 16.7358C27.1398 17.1381 27.1616 17.5404 27.1616 17.9426C27.1398 17.9752 27.1181 17.9752 27.0964 17.9644Z" fill="#00FC4C"/>
<path d="M52.5693 19.2581C52.7868 18.16 52.765 17.0402 52.6781 15.9204C52.6781 15.8552 52.6781 15.7791 52.7433 15.7573C52.765 15.7573 52.7868 15.7573 52.8085 15.7573C53.5043 15.9313 53.8631 16.6597 53.6783 17.3337C53.5804 17.6708 53.3956 17.9752 53.2108 18.2579L52.5693 19.2581Z" fill="#00FC4C"/>
<path d="M29.4227 18.4971C29.4227 18.4645 29.4445 18.4427 29.4771 18.4427C29.4988 18.4427 29.5314 18.4645 29.5314 18.4971C29.564 18.7145 29.5749 18.9429 29.5858 19.1603C29.6075 19.6387 29.6184 20.117 29.6184 20.5845C29.6184 20.9107 29.5749 21.2259 29.4988 21.5412C29.401 21.9109 29.2705 22.2805 29.0966 22.6175C29.0966 22.6284 29.0748 22.6284 29.0748 22.6175C29.0313 22.5197 28.9878 22.4327 28.9444 22.3349C28.9444 22.324 28.9335 22.3023 28.9226 22.2914C28.9117 22.2914 28.89 22.2914 28.8791 22.2914L28.5965 22.411C28.5856 22.411 28.5747 22.4001 28.5747 22.3892C28.6943 22.2262 28.8139 22.1066 28.9226 21.9652C29.0857 21.726 29.1944 21.4543 29.227 21.1607C29.2705 20.8346 29.2379 20.4975 29.2814 20.1714C29.314 19.8235 29.3249 19.4647 29.3466 19.1168C29.3357 18.9211 29.3684 18.7037 29.4227 18.4971Z" fill="#00FC4C"/>
<path d="M52.2757 20.9107C52.2866 20.8781 52.3192 20.8563 52.3518 20.8672C52.3627 20.8672 52.3735 20.8781 52.3844 20.889L53.0476 21.7804C53.0585 21.7913 53.0693 21.8131 53.0585 21.8348C53.0476 21.8565 53.015 21.8565 52.9824 21.8457L52.3083 21.6826C52.2431 21.6717 52.167 21.65 52.1344 21.5848C52.1017 21.5195 52.1126 21.4434 52.1344 21.3673L52.2757 20.9107Z" fill="#00FC4C"/>
<path d="M26.4442 20.715C26.4225 20.715 26.4007 20.6932 26.4116 20.6715C26.4116 20.6606 26.4116 20.6606 26.4225 20.6497C26.5529 20.4866 26.6943 20.3127 26.8465 20.1496C26.8899 20.1061 26.9552 20.0409 27.0095 20.0735C27.0204 20.0844 27.0421 20.0953 27.053 20.117C27.1074 20.1931 27.3357 20.3997 27.3357 20.5084C27.3357 20.7584 26.7051 20.7476 26.4442 20.715Z" fill="#00FC4C"/>
<path d="M39.1424 12.5286C39.4033 12.5395 39.6642 12.6156 39.9034 12.746C39.9904 12.7895 40.0665 12.8548 40.1208 12.9417C40.1752 13.0613 40.1208 13.2027 40.0447 13.3114C39.9251 13.4527 39.7512 13.5614 39.5664 13.5832C39.3815 13.6158 39.1858 13.6049 39.0119 13.5506C38.7836 13.4962 38.4683 13.3766 38.3596 13.1592C38.24 12.9091 38.4792 12.6699 38.6966 12.5938C38.8271 12.5503 38.9793 12.5177 39.1315 12.5286H39.1424Z" fill="#010202"/>
<path d="M47.068 9.46284C47.068 9.5172 47.0571 9.58243 47.0463 9.63679C46.8723 10.4522 46.2309 11.3111 45.3394 11.3545C44.611 11.398 43.9913 11.1915 43.5238 10.637C43.165 10.2239 43.1433 9.71289 43.1868 9.19104C43.1976 9.04971 43.2303 8.8975 43.2629 8.75617C43.5238 7.7016 44.4588 7.21236 45.4698 7.60375C46.1656 7.87555 47.0354 8.53873 47.0789 9.36499C47.068 9.39761 47.068 9.43022 47.068 9.46284Z" fill="#010202"/>
<path d="M34.0654 6.96217C35.294 6.88607 36.729 8.13633 36.055 9.40834C35.8919 9.71275 35.6527 9.9628 35.3592 10.1476C35.0983 10.3216 34.8047 10.4412 34.4894 10.4738C33.8263 10.539 33.2827 10.0933 32.913 9.59316C32.5869 9.15828 32.4673 8.59295 32.5869 8.06023C32.7173 7.49489 33.2174 7.0274 33.7936 6.98391C33.9024 6.97304 34.0111 6.96217 34.0654 6.96217Z" fill="#010202"/>
<path d="M44.5458 10.6587C44.5458 10.6478 44.5567 10.6369 44.5785 10.6152C44.7524 10.4303 44.9807 10.2999 45.1873 10.1477C45.3504 10.039 45.5026 9.89762 45.6222 9.73455C45.7417 9.57147 45.8179 9.3649 45.9701 9.22357C46.0462 9.14747 46.1766 9.11485 46.231 9.23444C46.3397 9.48449 46.3288 9.74542 46.2092 9.99547C45.9374 10.5391 45.2416 10.7674 44.6654 10.7348H44.6111C44.5893 10.7348 44.5567 10.7348 44.5458 10.7021C44.535 10.6804 44.5458 10.6695 44.5458 10.6587Z" fill="#FEFEFE"/>
<path d="M44.7634 8.62573C44.7743 8.62573 44.7851 8.62573 44.796 8.62573C44.8286 8.62573 44.8504 8.63661 44.883 8.64748C44.9265 8.68009 44.9591 8.72358 44.9591 8.77794C44.9591 8.9084 44.9156 9.03886 44.8395 9.14758C44.8069 9.20194 44.7525 9.23456 44.6981 9.24543C44.4807 9.26717 44.2198 8.94102 44.4046 8.76707C44.4916 8.68009 44.622 8.62573 44.7634 8.62573Z" fill="#FEFEFE"/>
<path d="M34.337 9.13661C34.424 9.13661 34.4892 9.20184 34.5979 9.1801C34.6741 9.15835 34.7393 9.11487 34.7936 9.04963C34.935 8.89743 35.0546 8.69086 35.185 8.51691C35.2829 8.38645 35.3807 8.29948 35.5438 8.39732C35.5873 8.42994 35.5982 8.53866 35.5982 8.61476C35.5655 9.04963 35.3481 9.38666 35.0763 9.70195C34.8045 10.0064 34.1848 9.74543 34.0652 9.50625C33.9782 9.32143 34.1087 9.12574 34.337 9.13661Z" fill="#FEFEFE"/>
<path d="M34.1303 7.77752C34.1411 7.81013 34.1411 7.85362 34.1411 7.88624C34.1194 8.08193 34.0215 8.32111 33.7932 8.32111C33.6628 8.32111 33.5323 8.23414 33.478 8.10367C33.4453 8.04931 33.4453 7.98408 33.4562 7.91885C33.478 7.86449 33.5214 7.81013 33.5758 7.77752C33.7171 7.69054 34.065 7.58182 34.1303 7.77752Z" fill="#FEFEFE"/>
</g>
<path d="M15 0C6.72 0 0 6.71664 0 14.9925C0 17.6762 0.705 20.1949 1.935 22.3688L8.37 19.6252L10.35 21.6042L6.42 27.1664C6.42 27.1664 6.465 27.3313 6.57 27.3913C8.97 29.0255 11.865 29.97 14.985 29.97C23.265 29.97 29.985 23.2534 29.985 14.9775C30 6.71664 23.28 0 15 0Z" fill="#39B002"/>
<path d="M14.07 0C14.7 0 15.315 0 15.945 0C15.975 0.089955 16.065 0.05997 16.125 0.05997C16.56 0.0449775 16.995 0.11994 17.415 0.194903C18.795 0.434783 20.13 0.83958 21.405 1.43928C23.46 2.3988 25.185 3.77811 26.625 5.51724C27.645 6.76162 28.44 8.14093 29.01 9.65517C29.445 10.8096 29.745 11.994 29.895 13.2234C29.925 13.5082 29.865 13.7931 30 14.063C30 14.7076 30 15.3523 30 15.997C29.925 16.027 29.94 16.087 29.94 16.1469C29.955 16.6867 29.85 17.2264 29.745 17.7511C29.505 19.0105 29.115 20.2399 28.56 21.4093C27.6 23.4633 26.22 25.1874 24.48 26.6267C23.235 27.6462 21.855 28.4408 20.34 29.0105C19.185 29.4453 18 29.7451 16.77 29.8951C16.485 29.925 16.2 29.8651 15.93 30C15.285 30 14.64 30 13.995 30C13.98 29.94 13.92 29.94 13.875 29.94C12.975 29.91 12.105 29.7451 11.235 29.5202C9.57 29.0855 8.01 28.3958 6.585 27.4213C6.495 27.3613 6.45 27.3013 6.42 27.1814C6.315 26.6417 6.585 26.2369 6.825 25.8171C7.425 24.7976 8.1 23.8231 8.775 22.8486C9.27 22.3988 9.825 22.024 10.35 21.6192C10.35 22.4738 10.455 23.3283 10.71 24.1529C10.89 24.7076 10.77 24.8276 11.46 24.4528C12.24 24.033 12.93 23.4633 13.575 22.8486C13.59 22.9385 13.635 23.0135 13.635 23.1034C13.665 24.1079 13.875 25.0975 14.115 26.072C14.31 26.8516 14.535 27.6162 14.895 28.3358C14.925 28.3808 14.91 28.4558 15 28.4558C15.075 28.4558 15.09 28.3808 15.105 28.3358C15.195 28.1409 15.27 27.946 15.345 27.7511C15.765 26.6267 16.05 25.4573 16.23 24.2729C16.29 23.8231 16.35 23.3583 16.41 22.9085C16.635 23.1034 16.86 23.3133 17.085 23.4933C17.61 23.928 18.165 24.3178 18.78 24.6027C18.945 24.6777 19.035 24.6777 19.11 24.4528C19.44 23.5082 19.56 22.5337 19.575 21.5442C20.04 21.904 20.49 22.2789 20.97 22.6087C22.02 23.3583 23.13 24.018 24.345 24.4828C24.405 24.5127 24.465 24.5727 24.525 24.5127C24.585 24.4528 24.525 24.3928 24.495 24.3328C24.24 23.6132 23.865 22.9385 23.49 22.2789C22.95 21.3343 22.275 20.4798 21.615 19.6252C22.47 19.6252 23.325 19.5202 24.15 19.2654C24.765 19.0855 24.765 19.0705 24.45 18.5157C24.015 17.7361 23.46 17.0465 22.845 16.4018C23.55 16.2969 24.255 16.2369 24.96 16.1019C26.1 15.8921 27.225 15.5772 28.305 15.1274C28.365 15.0975 28.47 15.0825 28.47 14.9925C28.47 14.9025 28.365 14.9025 28.305 14.8726C26.865 14.2279 25.35 13.8981 23.805 13.6882C23.49 13.6432 23.16 13.7031 22.86 13.5682C23.07 13.3283 23.295 13.0885 23.49 12.8486C23.925 12.3238 24.315 11.7691 24.615 11.1544C24.705 10.9745 24.69 10.8696 24.465 10.7946C23.55 10.4798 22.605 10.3448 21.63 10.3448C22.065 9.77511 22.53 9.22039 22.92 8.62069C23.535 7.69115 24.105 6.73163 24.495 5.66717C24.525 5.6072 24.6 5.53223 24.525 5.45727C24.45 5.38231 24.375 5.47226 24.315 5.48726C23.325 5.86207 22.41 6.38681 21.525 6.95652C20.865 7.37631 20.265 7.88606 19.635 8.36582C19.635 7.51124 19.53 6.65667 19.275 5.83208C19.095 5.21739 19.08 5.21739 18.525 5.53223C17.745 5.96702 17.055 6.52174 16.41 7.13643C16.275 6.95652 16.365 6.73163 16.35 6.53673C16.215 5.57721 16.08 4.61769 15.825 3.68816C15.63 2.98351 15.435 2.29385 15.105 1.63418C15.09 1.58921 15.09 1.49925 15.015 1.51424C14.955 1.51424 14.925 1.57421 14.895 1.63418C14.82 1.81409 14.73 2.009 14.67 2.18891C14.085 3.76312 13.77 5.3973 13.605 7.07646C13.38 6.88156 13.155 6.67166 12.93 6.49175C12.405 6.05697 11.85 5.66717 11.235 5.38231C11.07 5.30735 10.98 5.30735 10.905 5.53223C10.575 6.47676 10.455 7.45127 10.44 8.44078C9.975 8.08096 9.525 7.70615 9.045 7.37631C7.995 6.62669 6.885 5.96702 5.67 5.50225C5.61 5.47226 5.55 5.42729 5.49 5.48726C5.43 5.54723 5.49 5.6072 5.52 5.66717C5.775 6.4018 6.15 7.07646 6.54 7.73613C7.08 8.66567 7.74 9.52024 8.4 10.3598C7.53 10.3598 6.675 10.4798 5.835 10.7196C5.25 10.8846 5.25 10.9295 5.535 11.4393C5.985 12.2189 6.54 12.9235 7.155 13.5832C7.065 13.5982 6.975 13.6432 6.9 13.6432C5.895 13.6732 4.905 13.8831 3.93 14.1229C3.15 14.3178 2.385 14.5427 1.665 14.9025C1.62 14.9325 1.545 14.9175 1.545 15.0075C1.545 15.0825 1.62 15.0975 1.665 15.1124C1.905 15.2174 2.16 15.3223 2.4 15.4123C3.93 15.982 5.535 16.2519 7.155 16.4168C6.945 16.6567 6.72 16.8966 6.525 17.1364C6.09 17.6612 5.7 18.2159 5.4 18.8306C5.31 19.0105 5.325 19.1154 5.55 19.1904C6.465 19.5052 7.41 19.6402 8.385 19.6402C8.325 19.7151 8.265 19.7751 8.22 19.8501C8.175 19.8651 8.1 19.8651 8.07 19.925H8.055V19.94C7.11 20.4798 6.165 21.0345 5.205 21.5592C4.485 21.964 3.75 22.3538 2.97 22.6387C2.445 22.8336 2.13 22.7136 1.95 22.3838C0.975 20.5997 0.33 18.7406 0.105 16.7466C0.075 16.4918 0.15 16.2219 0 15.997C0 15.3373 0 14.6627 0 14.003C0.075 13.973 0.06 13.913 0.06 13.8531C0.045 13.3133 0.15 12.7736 0.24 12.2489C0.48 10.9895 0.87 9.76012 1.425 8.5907C2.4 6.53673 3.78 4.81259 5.52 3.37331C6.75 2.35382 8.145 1.55922 9.645 0.989505C10.8 0.554723 11.985 0.254873 13.215 0.104948C13.5 0.0749625 13.8 0.134933 14.07 0Z" fill="#39B002"/>
<path d="M10.4252 8.42575C10.4252 7.43625 10.5452 6.46174 10.8902 5.51721C10.9652 5.29232 11.0552 5.29232 11.2202 5.36728C11.8352 5.65214 12.3902 6.04195 12.9152 6.47673C13.1402 6.67163 13.3652 6.86653 13.5902 7.06144C14.1452 7.69112 14.6552 8.35079 15.0302 9.17538C15.3902 8.38078 15.8852 7.7361 16.4102 7.12141C17.0552 6.50671 17.7452 5.95199 18.5252 5.51721C19.0802 5.20237 19.0952 5.20237 19.2752 5.81706C19.5302 6.64165 19.6352 7.48123 19.6352 8.35079C19.6352 9.05544 19.5302 9.7451 19.3352 10.4198C19.2602 10.7046 19.2752 10.7196 19.5752 10.6297C20.0102 10.5097 20.4602 10.3898 20.9252 10.3898C21.0002 10.4497 21.0302 10.4198 21.0452 10.3448C21.2402 10.3448 21.4352 10.3298 21.6302 10.3298C22.6052 10.3298 23.5502 10.4647 24.4652 10.7796C24.6902 10.8545 24.7052 10.9595 24.6152 11.1394C24.3152 11.7541 23.9402 12.3238 23.4902 12.8336C23.2802 13.0734 23.0702 13.3133 22.8602 13.5532C22.8152 13.5832 22.7852 13.5982 22.7402 13.6282C22.5902 13.5382 22.5902 13.6581 22.5602 13.7631C22.3952 13.943 22.2152 14.1079 21.9752 14.2129C21.8102 14.1979 21.6602 14.2279 21.6752 14.4377C21.5702 14.4977 21.4802 14.5577 21.3752 14.6177C21.1802 14.5727 20.8352 14.7376 20.7302 14.9175C20.7302 14.9475 20.7302 14.9775 20.7302 15.0075C20.8202 15.1874 21.1652 15.3523 21.3752 15.3073C21.4802 15.3673 21.5702 15.4273 21.6752 15.4872C21.6902 15.6372 21.7052 15.7721 21.9152 15.6521C22.2602 15.847 22.5452 16.1319 22.8452 16.3718C23.4602 17.0165 24.0152 17.7061 24.4502 18.4857C24.7652 19.0404 24.7652 19.0554 24.1502 19.2354C23.3252 19.4902 22.4852 19.5952 21.6152 19.5952C21.4352 19.5952 21.2552 19.5802 21.0902 19.5802C21.0602 19.4752 21.0002 19.4602 20.9102 19.5352C20.3402 19.5352 19.8002 19.4003 19.2752 19.1904C19.2602 19.0854 19.2302 18.9805 19.0952 18.9505C19.0952 18.9205 19.0952 18.8905 19.0952 18.8605C19.0952 18.7856 19.0652 18.7256 18.9902 18.7106C18.7202 18.1859 18.4352 17.6611 18.1652 17.1364C18.1652 17.0464 18.1502 16.9715 18.0452 16.9565C18.0452 16.8665 18.0302 16.7916 17.9252 16.7766C17.7452 16.5667 17.5802 16.3418 17.4002 16.1319C17.4902 15.937 17.3402 15.982 17.2352 15.952C17.1302 15.8321 17.1302 15.7871 17.3102 15.7721C17.5802 15.7571 17.8502 15.7121 18.1202 15.6821C18.8102 15.5922 19.4852 15.3673 20.1602 15.1874C20.2352 15.2473 20.2652 15.2174 20.2802 15.1424C20.3852 15.0824 20.4902 15.0375 20.6402 14.9625C20.4902 14.8875 20.3852 14.8276 20.2802 14.7826C20.2652 14.7076 20.2352 14.6776 20.1602 14.7376C19.2302 14.4527 18.2852 14.2129 17.3102 14.1379C17.1002 14.1229 17.3102 14.018 17.3402 13.958C17.3852 14.003 17.4302 14.033 17.4902 13.973C17.5502 13.913 17.5202 13.853 17.4752 13.7931C17.6552 13.5832 17.8202 13.3583 18.0002 13.1484C18.1502 13.0884 18.3452 13.0434 18.2402 12.7886C18.5102 12.2788 18.7802 11.7691 19.0502 11.2593C19.2302 11.1844 19.2452 11.1394 19.1252 11.0345C19.1402 10.9745 19.2002 10.8995 19.1402 10.8395C19.0652 10.7646 18.9902 10.8246 18.9302 10.8545C17.9102 11.2893 16.9502 11.8141 16.1252 12.5637C16.0652 12.6087 16.0052 12.6986 15.9302 12.6536C15.8552 12.6237 15.9002 12.5337 15.8852 12.4737C15.7952 11.844 15.7202 11.1994 15.5252 10.5847C15.3902 10.1349 15.2552 9.67013 15.0302 9.20537C14.5352 10.3598 14.2652 11.5292 14.1602 12.7586C14.0252 12.6686 13.9352 12.6087 13.8602 12.5337C13.0502 11.7991 12.1052 11.2743 11.1152 10.8545C11.0552 10.8246 10.9952 10.7496 10.9352 10.8395C10.8902 10.8995 10.9502 10.9745 10.9652 11.0345C11.3252 11.904 11.7752 12.7136 12.3602 13.4632C12.5252 13.6731 12.7652 13.8231 12.8552 14.1229C11.6552 14.1979 10.5152 14.4677 9.34521 14.9625C10.5002 15.4572 11.6252 15.6971 12.8402 15.8021C12.7502 15.937 12.6902 16.027 12.6152 16.1019C11.8652 16.9265 11.3402 17.886 10.9052 18.9055C10.8752 18.9655 10.8302 19.0404 10.8902 19.0854C10.9502 19.1304 11.0252 19.0854 11.0852 19.0704C11.2352 19.2354 11.2802 19.1154 11.3102 18.9955C11.8202 18.7256 12.3302 18.4557 12.8402 18.1859C13.0802 18.3058 13.1252 18.1109 13.2002 17.946C13.4102 17.7661 13.6352 17.6012 13.8452 17.4213C13.9352 17.5262 14.0402 17.4363 14.1302 17.4213C14.1902 17.7661 14.2502 18.1109 14.2952 18.4557C14.3702 18.9955 14.5952 19.4902 14.6702 20.03C14.6702 20.1199 14.6552 20.2099 14.7752 20.2398C14.8352 20.3898 14.8952 20.5547 14.9552 20.7046C14.7452 20.8695 14.6252 21.0644 14.6552 21.3493C14.5952 21.4542 14.5352 21.5442 14.4752 21.6491C14.3252 21.6641 14.1902 21.6791 14.3102 21.889C14.1302 22.2488 13.8302 22.5037 13.5902 22.8186C12.9452 23.4333 12.2552 23.988 11.4752 24.4228C10.7852 24.7976 10.9052 24.6776 10.7252 24.1229C10.4702 23.2983 10.3652 22.4587 10.3652 21.5892C10.3652 21.4093 10.3802 21.2294 10.3802 21.0644C10.4852 21.0345 10.5002 20.9745 10.4252 20.8845C10.4102 20.4348 10.5302 20 10.6502 19.5652C10.7402 19.2354 10.7252 19.2054 10.4102 19.3103C9.75021 19.5052 9.06021 19.6102 8.37021 19.6102C7.39521 19.6102 6.45021 19.4752 5.53521 19.1604C5.31021 19.0854 5.29521 18.9805 5.38521 18.8006C5.68521 18.1859 6.06021 17.6162 6.51021 17.1064C6.72021 16.8665 6.93021 16.6267 7.14021 16.3868C7.78521 15.847 8.44521 15.3223 9.27021 14.9775C8.43021 14.6177 7.77021 14.1079 7.14021 13.5682C6.52521 12.9235 5.97021 12.2189 5.52021 11.4243C5.22021 10.8995 5.23521 10.8695 5.82021 10.7046C6.66021 10.4647 7.51521 10.3448 8.38521 10.3448C9.21021 10.3448 10.0052 10.4947 10.8302 10.7496C10.5752 9.96998 10.4252 9.22036 10.4252 8.42575Z" fill="#FA40ED"/>
<path d="M14.6551 21.3792C14.6101 21.1094 14.7451 20.8995 14.9551 20.7345C15.2251 20.2998 15.3301 19.805 15.4801 19.3252C15.6901 18.6356 15.7801 17.9309 15.8551 17.2113C16.0201 17.2563 16.1251 17.3762 16.2301 17.4662C17.0401 18.1708 17.9551 18.6806 18.9451 19.1004C19.0801 19.1603 19.1251 19.1154 19.1101 18.9804C19.2451 19.0104 19.2751 19.1004 19.2901 19.2203C19.1401 19.2653 19.2301 19.3702 19.2601 19.4302C19.4701 20.1199 19.5901 20.8395 19.6051 21.5591C19.6051 22.5486 19.4851 23.5231 19.1401 24.4677C19.0651 24.6926 18.9901 24.6926 18.8101 24.6176C18.1951 24.3327 17.6401 23.9429 17.1151 23.5082C16.8901 23.3133 16.6651 23.1184 16.4401 22.9234C15.8851 22.2938 15.3751 21.6341 15.0001 20.8395C14.8501 21.0194 14.7451 21.1993 14.6551 21.3792Z" fill="#FA40ED"/>
<path d="M22.8601 16.4018C22.5451 16.162 22.2751 15.8771 21.9301 15.6822C21.8851 15.5922 21.7801 15.5623 21.6901 15.5173C21.5851 15.4573 21.4951 15.3973 21.3901 15.3374C21.1951 15.1874 20.9851 15.0825 20.7451 15.0375C20.7451 15.0075 20.7451 14.9776 20.7451 14.9476C20.9851 14.9026 21.1951 14.7827 21.3901 14.6477C21.4951 14.5877 21.5851 14.5278 21.6901 14.4678C21.8101 14.4228 21.9151 14.3479 21.9901 14.2429C22.2151 14.138 22.3951 13.9731 22.5751 13.7931C22.6501 13.7782 22.7101 13.7332 22.7551 13.6582C22.8001 13.6282 22.8301 13.6132 22.8751 13.5833C23.1751 13.7182 23.5051 13.6582 23.8201 13.7032C25.3651 13.9131 26.8801 14.2429 28.3201 14.8876C28.3801 14.9176 28.4851 14.9176 28.4851 15.0075C28.4851 15.0975 28.3801 15.1125 28.3201 15.1425C27.2401 15.5922 26.1301 15.9071 24.9751 16.117C24.2551 16.2369 23.5501 16.2969 22.8601 16.4018Z" fill="#FA9EF4"/>
<path d="M7.13978 13.5833C7.78478 14.123 8.42978 14.6477 9.26978 14.9925C8.42978 15.3524 7.78478 15.8771 7.13978 16.4018C5.51978 16.2369 3.91478 15.9671 2.38478 15.3973C2.12979 15.3074 1.88979 15.2024 1.64979 15.0975C1.60479 15.0825 1.52979 15.0525 1.52979 14.9925C1.52979 14.9176 1.60479 14.9176 1.64979 14.8876C2.36979 14.5278 3.13479 14.3029 3.91478 14.108C4.88978 13.8681 5.87978 13.6732 6.88478 13.6282C6.97478 13.6432 7.06478 13.5982 7.13978 13.5833Z" fill="#FA9EF4"/>
<path d="M16.4098 7.15149C15.8848 7.76618 15.3898 8.41086 15.0298 9.20546C14.6548 8.39586 14.1448 7.7212 13.5898 7.09152C13.7548 5.42735 14.0698 3.77817 14.6548 2.20396C14.7298 2.00906 14.8048 1.82915 14.8798 1.64924C14.9098 1.58927 14.9248 1.54429 14.9998 1.5293C15.0748 1.5293 15.0748 1.60426 15.0898 1.64924C15.4198 2.30891 15.6148 2.99856 15.8098 3.70321C16.0648 4.63275 16.2148 5.59227 16.3348 6.55179C16.3798 6.74669 16.2898 6.95658 16.4098 7.15149Z" fill="#FA9EF4"/>
<path d="M14.6548 21.3792C14.7598 21.1993 14.8648 21.0344 14.9848 20.8245C15.3448 21.6191 15.8548 22.2787 16.4248 22.9084C16.3648 23.3582 16.3048 23.823 16.2448 24.2727C16.0798 25.4721 15.7948 26.6266 15.3598 27.751C15.2848 27.9459 15.1948 28.1408 15.1198 28.3357C15.1048 28.3807 15.0748 28.4556 15.0148 28.4556C14.9398 28.4556 14.9398 28.3807 14.9098 28.3357C14.5498 27.6161 14.3248 26.8514 14.1298 26.0718C13.8898 25.0973 13.6948 24.1078 13.6498 23.1033C13.6498 23.0134 13.6048 22.9384 13.5898 22.8485C13.8298 22.5336 14.1298 22.2637 14.3098 21.9189C14.3998 21.8739 14.4298 21.769 14.4748 21.679C14.5348 21.5741 14.5948 21.4691 14.6548 21.3792Z" fill="#FA9EF4"/>
<path d="M10.4249 8.42572C10.4249 9.20533 10.5749 9.96995 10.8299 10.7646C10.0049 10.5097 9.20994 10.3448 8.38494 10.3598C7.72494 9.52017 7.06494 8.6656 6.52494 7.73606C6.13494 7.0614 5.75994 6.38674 5.50494 5.6671C5.48994 5.60713 5.42994 5.54716 5.47494 5.48719C5.53494 5.42722 5.59494 5.48719 5.65494 5.50218C6.86994 5.95196 7.97994 6.62662 9.02994 7.37625C9.50994 7.70608 9.95994 8.08089 10.4249 8.42572Z" fill="#FA9EF4"/>
<path d="M19.5749 21.5592C19.5599 20.8245 19.4549 20.1199 19.2299 19.4302C19.2149 19.3703 19.1099 19.2653 19.2599 19.2203C19.7849 19.4302 20.3249 19.5652 20.8949 19.5652C20.9399 19.6251 20.9999 19.6251 21.0749 19.6101C21.2549 19.6101 21.4349 19.6251 21.5999 19.6251C22.2599 20.4797 22.9349 21.3343 23.4749 22.2788C23.8499 22.9385 24.2249 23.6131 24.4799 24.3328C24.4949 24.3928 24.5549 24.4527 24.5099 24.5127C24.4499 24.5727 24.3899 24.5127 24.3299 24.4827C23.1149 24.0329 22.0049 23.3583 20.9549 22.6086C20.4899 22.2788 20.0399 21.904 19.5749 21.5592Z" fill="#FA9EF4"/>
<path d="M10.38 21.0794C10.38 21.2594 10.365 21.4393 10.365 21.6042C9.83996 22.009 9.29996 22.3988 8.78996 22.8336C8.30996 23.1034 7.82996 23.3883 7.36496 23.6582C6.85496 23.958 6.31496 24.2279 5.75996 24.4378C5.66996 24.4678 5.57996 24.5727 5.48996 24.4977C5.38496 24.4078 5.48996 24.2878 5.51996 24.1979C5.93996 23.1934 6.44996 22.2489 7.06496 21.3643C7.33496 20.9745 7.61996 20.6147 7.88996 20.2399C7.96496 20.1499 8.02496 20.045 8.02496 19.925V19.91H8.03996C8.11496 19.91 8.15996 19.88 8.18996 19.8351C8.24996 19.7601 8.30996 19.7001 8.35496 19.6252C9.04496 19.6252 9.71996 19.5202 10.395 19.3253C10.71 19.2354 10.725 19.2504 10.635 19.5802C10.515 20.015 10.395 20.4348 10.41 20.8995C10.38 20.9595 10.365 21.0195 10.38 21.0794Z" fill="#FA9EF4"/>
<path d="M21.6299 10.3598C21.4349 10.3598 21.2399 10.3748 21.0449 10.3748C20.9999 10.3748 20.9549 10.3748 20.9249 10.4198C20.4599 10.4198 20.0249 10.5397 19.5749 10.6596C19.2749 10.7346 19.2599 10.7346 19.3349 10.4498C19.5299 9.77509 19.6349 9.08544 19.6349 8.38079C20.2649 7.91602 20.8649 7.40628 21.5249 6.97149C22.4099 6.40178 23.3249 5.87704 24.3149 5.50223C24.3749 5.47224 24.4499 5.39728 24.5249 5.47224C24.5999 5.54721 24.5099 5.62217 24.4949 5.68214C24.1049 6.73161 23.5349 7.69113 22.9199 8.63566C22.5149 9.23536 22.0499 9.79008 21.6299 10.3598Z" fill="#FA9EF4"/>
<path d="M8.2051 19.835C8.17512 19.8949 8.13014 19.9249 8.05518 19.9099C8.08516 19.85 8.16012 19.85 8.2051 19.835Z" fill="#FEFEFE"/>
<path d="M19.0951 18.9805C19.1101 19.1154 19.0651 19.1604 18.9301 19.1004C17.9401 18.6806 17.0251 18.1709 16.2151 17.4662C16.1101 17.3763 16.0051 17.2563 15.8401 17.2114C15.7651 17.931 15.6751 18.6356 15.4651 19.3253C15.3151 19.8051 15.2101 20.2998 14.9401 20.7346C14.8801 20.5847 14.8201 20.4198 14.7601 20.2698C14.7751 20.1799 14.7151 20.1199 14.6551 20.0599C14.5801 19.5202 14.3401 19.0255 14.2801 18.4857C14.2351 18.1409 14.1751 17.7961 14.1151 17.4512C14.1151 17.3913 14.1151 17.3313 14.1151 17.2713C14.1001 17.2264 14.0701 17.2413 14.0551 17.2713C13.9651 17.3163 13.8751 17.3613 13.8301 17.4512C13.6201 17.6312 13.3951 17.7961 13.1851 17.976C13.0501 18.021 12.9301 18.0959 12.8251 18.2159C12.3151 18.4857 11.8051 18.7556 11.2951 19.0255C11.2201 19.0554 11.1451 19.0854 11.0701 19.1004C11.0101 19.1154 10.9351 19.1754 10.8751 19.1154C10.8151 19.0554 10.8601 18.9955 10.8901 18.9355C11.3251 17.916 11.8501 16.9565 12.6001 16.1319C12.6751 16.0569 12.7201 15.967 12.8251 15.8321C11.6101 15.7271 10.4851 15.4872 9.33008 14.9925C10.5001 14.4977 11.6401 14.2428 12.8401 14.1529C12.7501 13.853 12.5101 13.7031 12.3451 13.4932C11.7751 12.7436 11.3251 11.934 10.9501 11.0644C10.9201 11.0045 10.8601 10.9445 10.9201 10.8695C10.9801 10.7946 11.0401 10.8695 11.1001 10.8845C12.1051 11.3043 13.0501 11.8291 13.8451 12.5637C13.9201 12.6387 14.0101 12.6836 14.1451 12.7886C14.2501 11.5442 14.5201 10.3898 15.0151 9.23535C15.2551 9.70012 15.3751 10.1649 15.5101 10.6147C15.7051 11.2294 15.7801 11.859 15.8701 12.5037C15.8851 12.5637 15.8401 12.6536 15.9151 12.6836C15.9901 12.7136 16.0651 12.6386 16.1101 12.5937C16.9351 11.844 17.8951 11.3193 18.9151 10.8845C18.9901 10.8545 19.0651 10.7946 19.1251 10.8695C19.1851 10.9295 19.1251 11.0045 19.1101 11.0644C19.0801 11.1394 19.0501 11.2144 19.0351 11.2893C18.7651 11.7991 18.4951 12.3088 18.2251 12.8186C18.1051 12.9085 18.0301 13.0285 17.9851 13.1784C17.8051 13.3883 17.6401 13.6132 17.4601 13.8231C17.4001 13.853 17.3551 13.913 17.3401 13.988C17.3251 14.0479 17.1001 14.1529 17.3101 14.1679C18.2851 14.2428 19.2301 14.4827 20.1601 14.7676C20.1901 14.8126 20.2351 14.8126 20.2801 14.8126C20.3851 14.8725 20.4901 14.9175 20.6401 14.9925C20.4901 15.0674 20.3851 15.1274 20.2801 15.1724C20.2351 15.1724 20.1901 15.1724 20.1601 15.2174C19.4851 15.3973 18.8251 15.6372 18.1201 15.7121C17.8501 15.7421 17.5801 15.7871 17.3101 15.8021C17.1301 15.8171 17.1301 15.862 17.2351 15.982C17.2651 16.0569 17.3251 16.1169 17.4001 16.1619C17.5801 16.3718 17.7451 16.5967 17.9251 16.8066C17.9401 16.8815 17.9701 16.9415 18.0451 16.9865C18.0451 17.0614 18.0901 17.1214 18.1651 17.1664C18.4351 17.6911 18.7201 18.2159 18.9901 18.7406C18.9901 18.8156 19.0351 18.8605 19.0951 18.8905C19.0951 18.9205 19.0951 18.9505 19.0951 18.9805ZM15.6001 14.4378C15.7951 13.913 15.9001 13.4183 15.8701 12.8336C15.4951 13.2234 15.2401 13.5832 14.9851 14.033C14.7751 13.5832 14.5351 13.2383 14.1751 12.9085C14.1601 13.4632 14.2801 13.958 14.4451 14.4677C13.9501 14.2728 13.4851 14.1829 12.9451 14.1679C13.2751 14.5277 13.6351 14.7526 14.0401 14.9775C13.6051 15.2024 13.2301 15.4273 12.9001 15.8021C13.4401 15.8321 13.9051 15.7121 14.3851 15.5622C14.1901 16.0719 14.0851 16.5817 14.1151 17.1664C14.4901 16.7916 14.7451 16.4168 14.9851 15.967C15.2101 16.4018 15.4351 16.7616 15.7951 17.0764C15.8101 16.5217 15.6901 16.0419 15.5251 15.5172C16.0201 15.7121 16.4851 15.8021 17.0101 15.8171C16.6801 15.4572 16.3201 15.2473 15.9151 15.0075C16.3651 14.7976 16.7251 14.5577 17.0701 14.1829C16.5601 14.1679 16.0951 14.2728 15.6001 14.4378Z" fill="#FA9EF4"/>
<path d="M21.3898 14.6327C21.1949 14.7826 20.985 14.8876 20.7451 14.9326C20.8351 14.7676 21.1799 14.6027 21.3898 14.6327Z" fill="#FA40ED"/>
<path d="M20.7451 15.0375C20.985 15.0825 21.1949 15.2024 21.3898 15.3373C21.1799 15.3823 20.8351 15.2324 20.7451 15.0375Z" fill="#FA40ED"/>
<path d="M17.9849 13.1784C18.0298 13.0435 18.1048 12.9236 18.2247 12.8186C18.3297 13.0735 18.1348 13.1035 17.9849 13.1784Z" fill="#FA40ED"/>
<path d="M12.8252 18.2158C12.9152 18.0959 13.0351 18.0209 13.185 17.976C13.1101 18.1259 13.0801 18.3208 12.8252 18.2158Z" fill="#FA40ED"/>
<path d="M14.1149 17.2712C14.1149 17.3312 14.1149 17.3912 14.1149 17.4512C14.025 17.4512 13.92 17.5561 13.8301 17.4512C13.8751 17.3612 13.965 17.3162 14.055 17.2712C14.07 17.2712 14.0999 17.2712 14.1149 17.2712Z" fill="#FA40ED"/>
<path d="M21.99 14.2429C21.915 14.3479 21.81 14.4228 21.6901 14.4678C21.6751 14.2429 21.81 14.2279 21.99 14.2429Z" fill="#FA40ED"/>
<path d="M14.4747 21.6642C14.4297 21.7541 14.3998 21.8441 14.3098 21.9041C14.1899 21.7092 14.3248 21.6792 14.4747 21.6642Z" fill="#FA40ED"/>
<path d="M21.6748 15.5173C21.7648 15.5623 21.8547 15.5923 21.9147 15.6823C21.7198 15.8022 21.6898 15.6673 21.6748 15.5173Z" fill="#FA40ED"/>
<path d="M17.3252 13.973C17.3402 13.8981 17.3852 13.8531 17.4451 13.8081C17.5051 13.8681 17.5201 13.9131 17.4601 13.988C17.4301 14.048 17.3702 14.018 17.3252 13.973Z" fill="#FA40ED"/>
<path d="M19.0352 11.3042C19.0651 11.2293 19.0951 11.1543 19.1101 11.0793C19.2151 11.1843 19.2001 11.2293 19.0352 11.3042Z" fill="#FA40ED"/>
<path d="M11.0703 19.1005C11.1453 19.0705 11.2202 19.0555 11.2952 19.0255C11.2652 19.1455 11.2202 19.2654 11.0703 19.1005Z" fill="#FA40ED"/>
<path d="M17.3998 16.1618C17.3248 16.1169 17.2648 16.0569 17.2349 15.9819C17.3248 16.0119 17.4897 15.9669 17.3998 16.1618Z" fill="#FA40ED"/>
<path d="M22.74 13.6432C22.695 13.7182 22.635 13.7481 22.5601 13.7781C22.59 13.6882 22.5751 13.5682 22.74 13.6432Z" fill="#FA40ED"/>
<path d="M10.3801 21.0796C10.3651 21.0196 10.3801 20.9446 10.4251 20.8997C10.5001 20.9896 10.4851 21.0496 10.3801 21.0796Z" fill="#FA40ED"/>
<path d="M21.0901 19.6101C21.0301 19.6251 20.9551 19.6101 20.9102 19.5652C21.0001 19.4902 21.0601 19.5052 21.0901 19.6101Z" fill="#FA40ED"/>
<path d="M18.0447 16.9863C17.9698 16.9563 17.9398 16.8964 17.9248 16.8064C18.0298 16.8214 18.0447 16.8964 18.0447 16.9863Z" fill="#FA40ED"/>
<path d="M18.1649 17.1664C18.0899 17.1214 18.0599 17.0614 18.0449 16.9865C18.1499 17.0014 18.1649 17.0764 18.1649 17.1664Z" fill="#FA40ED"/>
<path d="M14.6553 20.0601C14.7152 20.12 14.7602 20.18 14.7602 20.2699C14.6553 20.225 14.6553 20.15 14.6553 20.0601Z" fill="#FA40ED"/>
<path d="M19.0952 18.8905C19.0352 18.8605 18.9902 18.8156 18.9902 18.7406C19.0652 18.7556 19.0952 18.8156 19.0952 18.8905Z" fill="#FA40ED"/>
<path d="M20.9102 10.4197C20.9401 10.3748 20.9851 10.3748 21.0301 10.3748C21.0151 10.4497 20.9851 10.4797 20.9102 10.4197Z" fill="#FA40ED"/>
<path d="M20.2801 14.8125C20.2351 14.8125 20.1901 14.8125 20.1602 14.7675C20.2201 14.6926 20.2501 14.7375 20.2801 14.8125Z" fill="#FA40ED"/>
<path d="M20.1602 15.2172C20.1901 15.1722 20.2351 15.1722 20.2801 15.1722C20.2501 15.2472 20.2201 15.2922 20.1602 15.2172Z" fill="#FA40ED"/>
<path d="M15.6002 14.4377C16.0952 14.2728 16.5602 14.1678 17.1002 14.1828C16.7552 14.5426 16.3802 14.7975 15.9452 15.0074C16.3502 15.2473 16.7252 15.4572 17.0402 15.817C16.5152 15.817 16.0502 15.727 15.5552 15.5172C15.7352 16.0419 15.8552 16.5217 15.8252 17.0764C15.4652 16.7465 15.2402 16.4017 15.0152 15.9669C14.7752 16.4167 14.5202 16.7765 14.1452 17.1663C14.1152 16.5816 14.2202 16.0869 14.4152 15.5621C13.9352 15.7121 13.4702 15.832 12.9302 15.802C13.2752 15.4422 13.6502 15.2023 14.0702 14.9774C13.6652 14.7525 13.3052 14.5276 12.9752 14.1678C13.5152 14.1678 13.9802 14.2578 14.4752 14.4677C14.2952 13.9429 14.1752 13.4632 14.2052 12.9085C14.5502 13.2383 14.7902 13.5831 15.0152 14.0329C15.2552 13.5831 15.5252 13.2083 15.9002 12.8335C15.9002 13.4032 15.7952 13.913 15.6002 14.4377ZM15.0602 14.8725C15.0452 14.6626 15.1202 14.4227 14.9402 14.2278C14.9402 14.4377 14.9402 14.6626 14.9402 14.8725C14.7302 14.9924 14.4752 14.8725 14.2502 15.0074C14.4752 15.0374 14.7152 15.0674 14.9402 15.0974C14.9552 15.3073 14.8802 15.5471 15.0152 15.742C15.0002 15.5321 15.1802 15.2923 14.9402 15.0974C14.9402 15.0224 14.9852 14.9324 14.9402 14.8575C14.9852 14.8725 15.0152 14.8725 15.0602 14.8725C15.2402 15.2173 15.5252 14.9774 15.7352 15.0374C15.7352 15.0074 15.7502 14.9924 15.7502 14.9624C15.5252 14.9324 15.2852 14.9025 15.0602 14.8725ZM14.5202 15.4422C14.5352 15.4422 14.5352 15.4572 14.5502 15.4422V15.4272C14.5352 15.4272 14.5352 15.4272 14.5352 15.4272C14.5202 15.4122 14.5202 15.4272 14.5202 15.4422ZM15.4802 14.5576V14.5426C15.4652 14.5426 15.4652 14.5426 15.4502 14.5576V14.5726C15.4652 14.5726 15.4802 14.5726 15.4802 14.5576Z" fill="#FA40ED"/>
<path d="M14.1151 17.2715C14.1002 17.2715 14.0702 17.2715 14.0552 17.2715C14.0702 17.2415 14.1002 17.2415 14.1151 17.2715Z" fill="#FA40ED"/>
<path d="M14.9397 14.8726C14.9846 14.9475 14.9397 15.0375 14.9397 15.1124C14.7148 15.0825 14.4749 15.0525 14.25 15.0225C14.4749 14.8726 14.7298 14.9925 14.9397 14.8726Z" fill="#FA9BF4"/>
<path d="M15.0601 14.8726C15.2849 14.9025 15.5248 14.9325 15.7497 14.9625C15.7497 14.9925 15.7347 15.0075 15.7347 15.0375C15.5098 14.9775 15.225 15.2324 15.0601 14.8726Z" fill="#FA9BF4"/>
<path d="M14.9399 14.8725C14.9399 14.6626 14.9399 14.4377 14.9399 14.2278C15.1049 14.4377 15.0299 14.6626 15.0599 14.8725C15.0149 14.8725 14.9849 14.8725 14.9399 14.8725Z" fill="#FA9BF4"/>
<path d="M14.9399 15.1125C15.1798 15.3075 14.9999 15.5473 15.0149 15.7572C14.895 15.5473 14.9699 15.3224 14.9399 15.1125Z" fill="#FA9BF4"/>
<path d="M14.52 15.4422V15.4272H14.535V15.4422H14.52Z" fill="#FA9BF4"/>
<path d="M15.4794 14.5575C15.4648 14.5575 15.4648 14.5575 15.4502 14.5721V14.5575C15.4502 14.5575 15.4648 14.5575 15.4794 14.5428V14.5575Z" fill="#FA9BF4"/>
</svg>
