<svg width="30" height="30" viewBox="0 0 30 30" fill="none" xmlns="http://www.w3.org/2000/svg">
<mask id="mask0" style="mask-type:alpha" maskUnits="userSpaceOnUse" x="0" y="0" width="30" height="30">
<circle cx="15" cy="15" r="15" fill="white"/>
</mask>
<g mask="url(#mask0)">
<circle cx="15" cy="15" r="15" fill="white"/>
<path d="M24.0902 24.4333V24.4442C24.1336 24.5964 24.1771 24.7486 24.2206 24.9008C24.2206 24.9116 24.2206 24.9225 24.2206 24.9334C24.2206 24.9443 24.1989 24.9551 24.1771 24.9551C23.677 25.0095 23.2421 24.7812 22.8942 24.4442C22.8181 24.3681 22.7529 24.2811 22.6442 24.2376C22.5355 24.1941 22.4159 24.2267 22.318 24.2593C21.644 24.5203 20.9591 24.7377 20.2524 24.8899C18.9586 25.1617 17.6214 25.2487 16.2842 25.2269C13.501 25.1943 10.7069 24.7703 8.07591 23.868C7.46709 23.6723 6.88001 23.4222 6.31467 23.1178C6.02113 22.9656 5.74934 22.7808 5.48841 22.5959C5.30359 22.4546 5.04266 22.1285 4.82523 22.4003C4.33599 22.9982 3.73804 23.8897 2.84655 23.6505L3.30317 23.0091L2.48778 23.0743L3.49886 21.4435C3.34665 21.3674 3.15096 21.2587 2.95527 21.1826C2.86829 21.15 2.77045 21.15 2.69434 21.1935C2.13988 21.4979 1.11792 21.6501 0.563458 21.2587C0.465611 21.1935 0.400381 21.1065 0.367766 20.9978C0.291663 20.7695 0.432995 20.6281 0.563458 20.4977C0.856998 20.2041 1.12879 19.878 1.37885 19.5518C1.42233 19.4975 1.45495 19.4322 1.46583 19.3561C1.45495 19.3018 1.43321 19.2365 1.38972 19.1931C0.737411 18.2581 0.313405 17.1818 0.128583 16.0511C-0.0562381 14.9204 -0.110595 13.7028 0.44387 12.6591C0.596076 12.3655 0.81351 12.0829 1.10705 11.9089C1.41146 11.7241 1.78111 11.6697 2.13988 11.6697C2.56388 11.6589 3.0205 11.7132 3.33578 11.9959C3.27055 11.9307 3.70543 11.0827 3.75979 10.9739C4.10768 10.289 4.54256 9.65844 5.06441 9.0931C5.2601 8.88654 5.71672 8.60387 5.77108 8.3212C6.032 6.81001 6.91263 5.8098 8.31509 5.25534C9.34792 4.85308 10.3481 4.92918 11.3049 5.4619C11.4788 5.55975 11.6093 5.53801 11.7941 5.49452C12.2942 5.3858 12.7943 5.3097 13.2944 5.26621C14.8056 5.13575 16.295 5.33144 17.7627 5.70108C18.1324 5.79893 18.415 5.79893 18.7629 5.59237C19.4479 5.20098 20.2306 5.17923 21.0025 5.24446C22.2202 5.34231 23.1117 5.95114 23.8292 6.9296C24.2097 7.45145 24.3076 8.0494 24.5033 8.62561C24.5468 8.7452 24.6011 8.86479 24.6664 8.96264C25.036 9.54972 25.4165 10.1368 25.7862 10.7348C26.1667 11.3436 26.482 11.985 26.7538 12.6591C26.8842 12.9852 27.0147 13.3223 27.1451 13.6593C27.2539 13.942 27.2865 14.3007 27.6018 14.4421C27.754 14.5182 27.9388 14.5399 28.1019 14.5725C29.276 14.8443 30.0805 15.9424 29.9936 17.1491C29.9392 17.7906 29.6457 18.3777 29.2978 18.9213C28.9499 19.454 28.5476 19.9541 28.2432 20.5194C28.2106 20.5738 28.1888 20.6281 28.1888 20.6934C28.1997 20.7586 28.2215 20.813 28.2649 20.8564C28.4498 21.0956 28.6998 21.2696 28.9825 21.3674C29.1673 21.4218 29.3739 21.4544 29.4608 21.661C29.4935 21.7588 29.4935 21.8675 29.4608 21.9545C29.3739 22.1719 29.1891 22.2915 28.9825 22.3785C28.3737 22.6394 27.6887 22.6394 27.069 22.3785C26.9929 22.3459 26.8951 22.3024 26.819 22.335C26.7755 22.3568 26.732 22.3894 26.6994 22.4329C26.4276 22.7481 26.1232 23.0199 25.7862 23.27C25.5578 23.4331 25.3187 23.5853 25.0578 23.7157C24.9925 23.7484 24.9164 23.7918 24.8838 23.868C24.8729 23.9332 24.8729 24.0093 24.8947 24.0745C24.9164 24.1832 24.9382 24.292 24.949 24.4007C24.949 24.4115 24.949 24.4333 24.9382 24.4442C24.9382 24.4442 24.9273 24.4442 24.9164 24.4442C24.6555 24.455 24.3837 24.4442 24.1228 24.4442C24.101 24.4224 24.0902 24.4224 24.0902 24.4333Z" fill="#010202"/>
<path d="M21.8941 21.0958C21.8832 21.5959 21.8288 22.0851 21.7418 22.5635C21.7092 22.7483 21.6657 22.944 21.5461 23.0853C21.4266 23.2266 21.2309 23.3027 21.0569 23.3571C19.1109 23.9877 16.9147 24.0094 14.8926 23.9007C12.4247 23.7702 9.64147 23.3571 7.41274 22.2156C7.02135 22.009 6.64084 21.7698 6.3473 21.4328C5.86894 20.8892 5.79283 20.0303 5.78196 19.3345C5.77109 18.5191 5.97766 17.7146 6.39079 17.0188C6.95613 16.073 8.06506 15.5076 9.10875 15.2793C10.2503 15.0293 11.4245 15.1162 12.5769 15.1923C14.7295 15.3446 16.9256 15.5076 18.8825 16.3991C19.8175 16.8231 20.709 17.4428 21.2526 18.3234C21.7745 19.1497 21.9158 20.1282 21.8941 21.0958Z" fill="#CFFEDD"/>
<path d="M3.6511 19.4431C2.8031 16.475 4.05336 12.496 5.64065 10.2346C5.66239 10.2129 5.69501 10.202 5.72762 10.2237C5.73849 10.2237 5.7385 10.2346 5.74937 10.2455C5.80373 10.3759 5.85809 10.4955 5.91245 10.6151C6.17337 11.1696 6.55389 11.6479 7.07574 11.985C7.45625 12.2242 7.88026 12.3872 8.31513 12.5177C9.13052 12.7677 10.0546 12.9091 10.8918 12.6373C11.6202 12.3981 12.2399 11.6914 12.6204 11.0717C13.0118 10.4303 13.3814 9.56055 13.4032 8.79952C13.4249 8.03849 13.2292 7.27746 12.7508 6.67951C12.7182 6.63602 12.6856 6.57079 12.7291 6.53818C12.74 6.5273 12.7617 6.5273 12.7835 6.5273C14.1424 6.36423 15.5232 6.42946 16.8604 6.73387C16.9039 6.73387 16.9365 6.75561 16.9691 6.78823C17.0017 6.84259 16.9691 6.91869 16.9365 6.97305C16.5343 7.60362 16.2516 8.32116 16.132 9.06044C16.0233 9.77799 16.0885 10.539 16.3712 11.2131C16.9148 12.5068 18.2194 13.3657 19.5892 13.6592C20.4807 13.8549 21.4483 13.8332 22.2963 13.4744C23.2965 13.0504 23.9706 12.0937 24.3946 11.1261C24.4163 11.0717 24.4707 11.05 24.5251 11.0717C24.5468 11.0826 24.5577 11.0935 24.5686 11.1152C24.6664 11.2783 24.8295 11.4957 24.8512 11.5392C24.9708 11.7567 25.0904 11.985 25.1991 12.2024C25.4165 12.659 25.6014 13.1156 25.7645 13.594C26.0797 14.5072 26.3841 15.4531 26.482 16.4316C26.5907 17.4209 26.4711 18.4211 26.3407 19.4104C26.2537 20.0519 26.1667 20.7042 25.884 21.2913C25.5253 22.0306 24.8947 22.4546 24.2315 22.8894C24.1772 22.9221 24.1228 22.9547 24.0576 22.9112C24.025 22.8786 23.9923 22.8351 23.9923 22.7916C23.7966 21.5196 24.0684 20.2041 23.7532 18.9647C23.7423 18.8995 23.6771 18.8234 23.6227 18.856C23.6118 18.8669 23.601 18.8886 23.5901 18.9103C23.5575 19.0191 23.5575 19.1278 23.5357 19.2365C23.4596 19.7257 23.4596 20.2258 23.4379 20.7151L23.3509 22.248V22.2589C23.34 22.4872 23.3183 22.7481 23.3835 22.9655C23.4487 23.1504 23.6118 23.3243 23.764 23.4439C23.9706 23.607 24.1554 23.8027 24.3511 23.9766C24.3837 24.0092 24.4163 24.0636 24.3837 24.0962C24.362 24.118 24.3294 24.1071 24.2968 24.0962C24.1772 24.0527 24.0684 23.9984 23.9488 23.944C23.7858 23.857 23.6336 23.7266 23.4814 23.6179C23.4488 23.5852 23.4053 23.5635 23.3509 23.5418C23.3292 23.5309 23.3074 23.5309 23.2857 23.5526C23.2857 23.5526 23.2857 23.5526 23.2857 23.5635C23.2639 23.6179 23.2748 23.6831 23.2965 23.7266C23.3618 23.8788 23.4379 24.0201 23.5249 24.1723C23.5792 24.2702 23.6444 24.3571 23.6879 24.4659C23.6879 24.4767 23.6988 24.4985 23.6879 24.5093C23.6771 24.5093 23.6771 24.5093 23.6662 24.5093C23.5357 24.4659 23.4488 24.3789 23.3618 24.2702C23.2748 24.1723 23.2096 24.0636 23.1443 23.9549C22.9052 23.52 23.0247 23.0525 23.0682 22.5742C23.1117 22.0741 23.1335 21.5631 23.1335 21.063C23.1335 20.2041 23.1335 19.3452 22.8073 18.5298C22.5355 17.8558 22.0898 17.2578 21.5679 16.7468C21.0352 16.2359 20.4264 15.7901 19.7632 15.4422C19.5566 15.3335 19.3501 15.2248 19.1326 15.1269C19.0239 15.0835 18.9261 15.0291 18.8173 14.9965C18.7304 14.9639 18.5999 14.8769 18.5021 14.8769C16.5669 14.1593 14.5121 14.0941 12.4682 13.9854C11.1744 13.9202 9.85893 13.8332 8.58693 14.0941C7.16271 14.3877 5.95593 15.1487 5.23839 16.4207C5.08618 16.7034 4.94485 16.9969 4.83614 17.3013C4.72742 17.5949 4.61869 17.8014 4.31428 17.9427C3.91202 18.1384 3.83592 18.5842 3.78156 19.0082C3.75982 19.1821 3.71634 19.2909 3.69459 19.4431C3.67285 19.4539 3.66197 19.4539 3.6511 19.4431C3.66197 19.4539 3.6511 19.4539 3.6511 19.4431Z" fill="#00FC4C"/>
<path d="M20.5459 12.8656C19.0021 12.833 17.3278 11.8545 17.0126 10.2672C16.893 9.6258 17.0126 8.97349 17.2626 8.36467C17.5888 7.59277 18.1541 6.8861 18.9043 6.48384C19.7196 6.04896 20.7851 6.09245 21.644 6.38599C22.2745 6.60343 22.8399 7.00569 23.1878 7.56015C23.5139 8.07113 23.6335 8.69082 23.6661 9.29965C23.6987 10.1911 23.5248 11.1261 22.9595 11.8219C22.3724 12.5286 21.4483 12.8765 20.5459 12.8656Z" fill="#FEFEFE"/>
<path d="M6.45608 9.07133C6.46695 7.88629 7.17362 6.82085 8.24993 6.34249C8.98922 6.00546 9.79374 6.00546 10.5548 6.25552C10.6091 6.26639 10.6526 6.28813 10.6961 6.30988C11.3049 6.53819 11.8376 6.85347 12.1421 7.46229C12.3377 7.85368 12.4139 8.28855 12.4139 8.72343C12.4139 9.40835 12.2399 10.1042 11.8811 10.6912C11.6963 11.0065 11.4354 11.2892 11.131 11.4957C10.707 11.7784 10.1851 11.8871 9.67415 11.9089C9.11968 11.9198 8.63045 11.7893 8.13034 11.561C7.70634 11.3653 7.29321 11.1044 6.9888 10.7456C6.61916 10.2672 6.4452 9.66928 6.45608 9.07133Z" fill="#FEFEFE"/>
<path d="M2.09635 17.9644C2.06374 17.9426 2.04199 17.9209 2.03112 17.8883C1.6506 17.149 1.41143 16.3553 1.30271 15.5399C1.20486 14.7354 1.20486 13.8765 1.62887 13.159C1.68323 13.0503 1.7702 12.9524 1.86804 12.8763C2.15071 12.6915 2.53123 12.7894 2.72692 13.0612C2.78128 13.1373 2.8139 13.2242 2.82477 13.3112C2.82477 13.4091 2.80302 13.5069 2.75954 13.6048C2.41164 14.6158 2.21594 15.6704 2.16158 16.7358C2.13984 17.1381 2.16158 17.5404 2.16158 17.9426C2.13984 17.9752 2.1181 17.9752 2.09635 17.9644Z" fill="#00FC4C"/>
<path d="M27.5692 19.2581C27.7866 18.16 27.7649 17.0402 27.6779 15.9204C27.6779 15.8552 27.6779 15.7791 27.7431 15.7573C27.7649 15.7573 27.7866 15.7573 27.8084 15.7573C28.5042 15.9313 28.8629 16.6597 28.6781 17.3337C28.5803 17.6708 28.3954 17.9752 28.2106 18.2579L27.5692 19.2581Z" fill="#00FC4C"/>
<path d="M4.42292 18.4972C4.42292 18.4646 4.44467 18.4429 4.47728 18.4429C4.49903 18.4429 4.53164 18.4646 4.53164 18.4972C4.56426 18.7147 4.57513 18.943 4.586 19.1604C4.60775 19.6388 4.61862 20.1171 4.61862 20.5846C4.61862 20.9108 4.57513 21.2261 4.49903 21.5413C4.40118 21.911 4.27072 22.2806 4.09677 22.6177C4.09677 22.6285 4.07503 22.6285 4.07503 22.6177C4.03154 22.5198 3.98805 22.4328 3.94457 22.335C3.94457 22.3241 3.93369 22.3024 3.92282 22.2915C3.91195 22.2915 3.8902 22.2915 3.87933 22.2915L3.59667 22.4111C3.58579 22.4111 3.57492 22.4002 3.57492 22.3894C3.69451 22.2263 3.8141 22.1067 3.92282 21.9654C4.0859 21.7262 4.19462 21.4544 4.22723 21.1608C4.27072 20.8347 4.2381 20.4977 4.28159 20.1715C4.31421 19.8236 4.32508 19.4648 4.34683 19.1169C4.33595 18.9212 4.36856 18.7038 4.42292 18.4972Z" fill="#00FC4C"/>
<path d="M27.2756 20.9106C27.2865 20.878 27.3191 20.8562 27.3517 20.8671C27.3626 20.8671 27.3735 20.878 27.3844 20.8888L28.0475 21.7803C28.0584 21.7912 28.0693 21.8129 28.0584 21.8347C28.0475 21.8564 28.0149 21.8564 27.9823 21.8456L27.3082 21.6825C27.243 21.6716 27.1669 21.6499 27.1343 21.5846C27.1017 21.5194 27.1125 21.4433 27.1343 21.3672L27.2756 20.9106Z" fill="#00FC4C"/>
<path d="M1.44414 20.715C1.42239 20.715 1.40065 20.6932 1.41152 20.6715C1.41152 20.6606 1.41152 20.6606 1.42239 20.6497C1.55285 20.4866 1.69419 20.3127 1.8464 20.1496C1.88988 20.1061 1.95512 20.0409 2.00947 20.0735C2.02035 20.0844 2.04209 20.0953 2.05296 20.117C2.10732 20.1931 2.33563 20.3997 2.33563 20.5084C2.33563 20.7584 1.70506 20.7476 1.44414 20.715Z" fill="#00FC4C"/>
<path d="M14.1424 12.5287C14.4033 12.5396 14.6642 12.6157 14.9034 12.7462C14.9904 12.7896 15.0665 12.8549 15.1209 12.9419C15.1752 13.0614 15.1209 13.2028 15.0447 13.3115C14.9252 13.4528 14.7512 13.5615 14.5664 13.5833C14.3816 13.6159 14.1859 13.605 14.0119 13.5507C13.7836 13.4963 13.4683 13.3767 13.3596 13.1593C13.24 12.9092 13.4792 12.6701 13.6966 12.594C13.8271 12.5505 13.9793 12.5178 14.1315 12.5287H14.1424Z" fill="#010202"/>
<path d="M22.068 9.46296C22.068 9.51732 22.0572 9.58255 22.0463 9.63691C21.8723 10.4523 21.2309 11.3112 20.3394 11.3547C19.611 11.3982 18.9913 11.1916 18.5238 10.6371C18.165 10.224 18.1433 9.71301 18.1868 9.19116C18.1977 9.04983 18.2303 8.89762 18.2629 8.75629C18.5238 7.70172 19.4588 7.21249 20.4699 7.60387C21.1657 7.87567 22.0354 8.53885 22.0789 9.36511C22.068 9.39773 22.068 9.43035 22.068 9.46296Z" fill="#010202"/>
<path d="M9.06526 6.96205C10.2938 6.88594 11.7289 8.13621 11.0548 9.40821C10.8917 9.71263 10.6526 9.96268 10.359 10.1475C10.0981 10.3214 9.80455 10.441 9.48926 10.4737C8.82608 10.5389 8.28249 10.0931 7.91285 9.59303C7.58669 9.15816 7.4671 8.59283 7.58669 8.0601C7.71715 7.49477 8.21726 7.02728 8.79346 6.98379C8.90218 6.97292 9.0109 6.96205 9.06526 6.96205Z" fill="#010202"/>
<path d="M19.5456 10.6585C19.5456 10.6477 19.5565 10.6368 19.5782 10.615C19.7522 10.4302 19.9805 10.2998 20.1871 10.1476C20.3501 10.0388 20.5024 9.8975 20.6219 9.73442C20.7415 9.57135 20.8176 9.36478 20.9699 9.22345C21.046 9.14734 21.1764 9.11473 21.2308 9.23432C21.3395 9.48437 21.3286 9.7453 21.209 9.99535C20.9372 10.5389 20.2414 10.7672 19.6652 10.7346H19.6109C19.5891 10.7346 19.5565 10.7346 19.5456 10.702C19.5348 10.6803 19.5456 10.6694 19.5456 10.6585Z" fill="#FEFEFE"/>
<path d="M19.7632 8.62573C19.7741 8.62573 19.785 8.62573 19.7958 8.62573C19.8285 8.62573 19.8502 8.63661 19.8828 8.64748C19.9263 8.68009 19.9589 8.72358 19.9589 8.77794C19.9589 8.9084 19.9154 9.03886 19.8393 9.14758C19.8067 9.20194 19.7524 9.23456 19.698 9.24543C19.4806 9.26717 19.2196 8.94102 19.4045 8.76707C19.4914 8.68009 19.6219 8.62573 19.7632 8.62573Z" fill="#FEFEFE"/>
<path d="M9.33702 9.13673C9.424 9.13673 9.48923 9.20196 9.59795 9.18022C9.67405 9.15848 9.73928 9.11499 9.79364 9.04976C9.93497 8.89755 10.0546 8.69099 10.185 8.51704C10.2829 8.38657 10.3807 8.2996 10.5438 8.39745C10.5873 8.43006 10.5982 8.53878 10.5982 8.61488C10.5655 9.04976 10.3481 9.38678 10.0763 9.70207C9.80451 10.0065 9.18481 9.74556 9.06522 9.50638C8.97825 9.32155 9.10871 9.12586 9.33702 9.13673Z" fill="#FEFEFE"/>
<path d="M9.13048 7.77764C9.14135 7.81025 9.14135 7.85374 9.14135 7.88636C9.1196 8.08205 9.02176 8.32123 8.79345 8.32123C8.66299 8.32123 8.53253 8.23426 8.47817 8.10379C8.44555 8.04944 8.44555 7.9842 8.45642 7.91897C8.47817 7.86461 8.52165 7.81025 8.57601 7.77764C8.71734 7.69066 9.06525 7.58195 9.13048 7.77764Z" fill="#FEFEFE"/>
</g>
</svg>
