<svg width="220" height="100" viewBox="0 0 220 100" fill="none" xmlns="http://www.w3.org/2000/svg">
<mask id="mask0" style="mask-type:alpha" maskUnits="userSpaceOnUse" x="0" y="0" width="220" height="100">
<rect width="220" height="100" fill="#C4C4C4"/>
</mask>
<g mask="url(#mask0)">
<path d="M64.5779 47.3472V47.3664C64.6548 47.6354 64.7317 47.9044 64.8085 48.1735C64.8085 48.1927 64.8085 48.2119 64.8085 48.2311C64.8085 48.2503 64.7701 48.2695 64.7317 48.2695C63.8478 48.3656 63.0791 47.9621 62.4643 47.3664C62.3297 47.2319 62.2144 47.0782 62.0223 47.0013C61.8301 46.9245 61.6188 46.9821 61.4458 47.0398C60.2545 47.5009 59.0439 47.8852 57.7949 48.1543C55.5083 48.6346 53.1448 48.7884 50.7813 48.7499C45.8622 48.6923 40.9238 47.9429 36.2737 46.348C35.1976 46.0021 34.16 45.5602 33.1608 45.0221C32.642 44.7531 32.1616 44.4265 31.7005 44.0998C31.3738 43.85 30.9126 43.2735 30.5283 43.7539C29.6636 44.8108 28.6068 46.3864 27.0311 45.9637L27.8382 44.83L26.397 44.9453L28.184 42.063C27.915 41.9285 27.5691 41.7363 27.2233 41.6018C27.0695 41.5442 26.8966 41.5442 26.7621 41.621C25.7821 42.1591 23.9759 42.4281 22.9959 41.7363C22.8229 41.621 22.7077 41.4673 22.65 41.2752C22.5155 40.8716 22.7653 40.6218 22.9959 40.3912C23.5147 39.8724 23.9951 39.296 24.437 38.7195C24.5139 38.6234 24.5715 38.5081 24.5908 38.3736C24.5715 38.2776 24.5331 38.1623 24.4563 38.0854C23.3033 36.4329 22.5539 34.5306 22.2273 32.5322C21.9006 30.5338 21.8045 28.3816 22.7845 26.537C23.0535 26.0181 23.4378 25.5185 23.9566 25.2111C24.4947 24.8844 25.148 24.7884 25.7821 24.7884C26.5315 24.7691 27.3386 24.8652 27.8958 25.3648C27.7805 25.2495 28.5491 23.7507 28.6452 23.5586C29.2601 22.348 30.0287 21.2335 30.951 20.2343C31.2969 19.8692 32.104 19.3696 32.2 18.87C32.6612 16.1991 34.2177 14.4313 36.6964 13.4513C38.5219 12.7403 40.2897 12.8748 41.9807 13.8164C42.2881 13.9893 42.5187 13.9509 42.8454 13.874C43.7293 13.6819 44.6132 13.5474 45.4971 13.4705C48.168 13.2399 50.8005 13.5858 53.3946 14.2391C54.0479 14.4121 54.5475 14.4121 55.1624 14.047C56.373 13.3552 57.7565 13.3168 59.1208 13.4321C61.2729 13.605 62.8486 14.6811 64.1168 16.4105C64.7893 17.3328 64.9623 18.3896 65.3081 19.4081C65.385 19.6194 65.4811 19.8308 65.5964 20.0037C66.2497 21.0414 66.9222 22.079 67.5755 23.1358C68.2481 24.2119 68.8053 25.3456 69.2857 26.537C69.5163 27.1134 69.7469 27.7091 69.9775 28.3048C70.1696 28.8044 70.2273 29.4385 70.7845 29.6883C71.0535 29.8228 71.3802 29.8612 71.6684 29.9189C73.7437 30.3993 75.1656 32.34 75.0119 34.4729C74.9158 35.6066 74.397 36.6442 73.7821 37.605C73.1672 38.5466 72.4562 39.4305 71.9182 40.4297C71.8606 40.5257 71.8221 40.6218 71.8221 40.7371C71.8413 40.8524 71.8798 40.9485 71.9566 41.0253C72.2833 41.4481 72.7253 41.7555 73.2249 41.9285C73.5515 42.0245 73.9166 42.0822 74.0703 42.4473C74.128 42.6202 74.128 42.8124 74.0703 42.9661C73.9166 43.3504 73.5899 43.5618 73.2249 43.7155C72.1488 44.1767 70.9382 44.1767 69.843 43.7155C69.7085 43.6579 69.5355 43.581 69.401 43.6386C69.3241 43.6771 69.2473 43.7347 69.1896 43.8116C68.7092 44.3688 68.1712 44.8492 67.5755 45.2912C67.172 45.5794 66.7493 45.8484 66.2881 46.079C66.1728 46.1366 66.0383 46.2135 65.9807 46.348C65.9615 46.4633 65.9615 46.5978 65.9999 46.7131C66.0383 46.9053 66.0767 47.0974 66.096 47.2896C66.096 47.3088 66.096 47.3472 66.0768 47.3664C66.0768 47.3664 66.0575 47.3664 66.0383 47.3664C65.5771 47.3856 65.0968 47.3664 64.6356 47.3664C64.5972 47.328 64.5779 47.328 64.5779 47.3472Z" fill="#010202"/>
<path d="M60.6965 41.4484C60.6773 42.3323 60.5812 43.197 60.4275 44.0425C60.3699 44.3691 60.293 44.715 60.0816 44.9648C59.8703 45.2146 59.5244 45.3491 59.2169 45.4452C55.7774 46.5597 51.8959 46.5981 48.3218 46.4059C43.9599 46.1754 39.0408 45.4452 35.1017 43.4276C34.4099 43.0625 33.7374 42.6397 33.2186 42.0441C32.3731 41.0833 32.2386 39.5653 32.2193 38.3355C32.2001 36.8943 32.5652 35.4724 33.2954 34.2426C34.2946 32.5709 36.2546 31.5717 38.0993 31.1682C40.1169 30.7262 42.1921 30.8799 44.229 31.0144C48.0336 31.2834 51.9151 31.5717 55.3739 33.1473C57.0264 33.8967 58.6021 34.992 59.5628 36.5485C60.4852 38.0088 60.735 39.7382 60.6965 41.4484Z" fill="#F99DF3"/>
<path d="M28.4531 38.5272C26.9543 33.2814 29.164 26.2486 31.9695 22.2518C32.0079 22.2134 32.0655 22.1942 32.1232 22.2326C32.1424 22.2326 32.1424 22.2518 32.1616 22.271C32.2577 22.5016 32.3538 22.713 32.4499 22.9244C32.911 23.9043 33.5836 24.7498 34.5059 25.3455C35.1784 25.7682 35.9278 26.0565 36.6965 26.2871C38.1376 26.729 39.7709 26.9788 41.2505 26.4984C42.5379 26.0757 43.6332 24.8267 44.3057 23.7314C44.9975 22.5977 45.6508 21.0605 45.6893 19.7154C45.7277 18.3703 45.3818 17.0252 44.5363 15.9684C44.4787 15.8915 44.421 15.7762 44.4979 15.7186C44.5171 15.6994 44.5555 15.6994 44.594 15.6994C46.9959 15.4112 49.4362 15.5264 51.7997 16.0645C51.8766 16.0645 51.9342 16.1029 51.9919 16.1606C52.0495 16.2566 51.9919 16.3911 51.9342 16.4872C51.2233 17.6017 50.7237 18.8699 50.5123 20.1766C50.3202 21.4448 50.4354 22.7899 50.935 23.9812C51.8958 26.2678 54.2017 27.7859 56.6228 28.3047C58.1985 28.6505 59.9086 28.6121 61.4074 27.978C63.1752 27.2286 64.3666 25.5377 65.116 23.8275C65.1544 23.7314 65.2505 23.693 65.3466 23.7314C65.385 23.7506 65.4042 23.7698 65.4234 23.8083C65.5964 24.0965 65.8846 24.4808 65.923 24.5577C66.1344 24.942 66.3458 25.3455 66.5379 25.7298C66.9222 26.5368 67.2489 27.3439 67.5371 28.1894C68.0944 29.8035 68.6324 31.4752 68.8053 33.2046C68.9975 34.9532 68.7861 36.721 68.5555 38.4696C68.4018 39.6033 68.2481 40.7562 67.7485 41.7939C67.1144 43.1005 65.9999 43.8499 64.8278 44.6185C64.7317 44.6762 64.6356 44.7338 64.5203 44.6569C64.4627 44.5993 64.405 44.5224 64.405 44.4456C64.0591 42.1974 64.5395 39.8723 63.9823 37.6818C63.9631 37.5665 63.8478 37.432 63.7517 37.4896C63.7325 37.5088 63.7133 37.5473 63.6941 37.5857C63.6364 37.7778 63.6364 37.97 63.598 38.1622C63.4635 39.0268 63.4635 39.9108 63.425 40.7754L63.2713 43.4848V43.504C63.2521 43.9075 63.2137 44.3687 63.329 44.753C63.4443 45.0797 63.7325 45.3871 64.0015 45.5985C64.3666 45.8867 64.6933 46.2326 65.0391 46.5401C65.0968 46.5977 65.1544 46.6938 65.0968 46.7514C65.0583 46.7899 65.0007 46.7706 64.9431 46.7514C64.7317 46.6746 64.5395 46.5785 64.3282 46.4824C64.0399 46.3287 63.7709 46.0981 63.5019 45.9059C63.4443 45.8483 63.3674 45.8099 63.2713 45.7714C63.2329 45.7522 63.1944 45.7522 63.156 45.7907C63.156 45.7907 63.156 45.7907 63.156 45.8099C63.1176 45.9059 63.1368 46.0212 63.1752 46.0981C63.2905 46.3671 63.425 46.6169 63.5788 46.8859C63.6748 47.0589 63.7901 47.2126 63.867 47.4047C63.867 47.424 63.8862 47.4624 63.867 47.4816C63.8478 47.4816 63.8478 47.4816 63.8286 47.4816C63.598 47.4047 63.4443 47.251 63.2905 47.0589C63.1368 46.8859 63.0215 46.6938 62.9062 46.5016C62.4835 45.733 62.6948 44.9067 62.7717 44.0613C62.8486 43.1774 62.887 42.2742 62.887 41.3903C62.887 39.8723 62.887 38.3543 62.3105 36.9132C61.8302 35.7218 61.0423 34.665 60.12 33.7618C59.1784 32.8587 58.1024 32.0709 56.9302 31.456C56.5652 31.2638 56.2001 31.0717 55.8158 30.8987C55.6236 30.8219 55.4507 30.7258 55.2585 30.6682C55.1048 30.6105 54.8742 30.4568 54.7013 30.4568C51.2809 29.1886 47.6492 29.0733 44.0367 28.8811C41.7501 28.7658 39.425 28.6121 37.1768 29.0733C34.6596 29.5921 32.5267 30.9372 31.2585 33.1854C30.9895 33.685 30.7397 34.2038 30.5475 34.7418C30.3554 35.2606 30.1632 35.6257 29.6252 35.8755C28.9142 36.2214 28.7797 37.0092 28.6837 37.7586C28.6452 38.0661 28.5684 38.2582 28.5299 38.5272C28.4915 38.5465 28.4723 38.5465 28.4531 38.5272C28.4723 38.5465 28.4531 38.5465 28.4531 38.5272Z" fill="#FB40EE"/>
<path d="M58.3139 26.902C55.5853 26.8443 52.6261 25.1149 52.0689 22.3095C51.8575 21.1758 52.0689 20.0229 52.5108 18.9468C53.0873 17.5825 54.0865 16.3335 55.4124 15.6225C56.8535 14.8539 58.7366 14.9308 60.2546 15.4496C61.3691 15.8339 62.3683 16.5449 62.9832 17.5249C63.5597 18.428 63.771 19.5233 63.8287 20.5993C63.8863 22.175 63.5789 23.8275 62.5797 25.0573C61.5421 26.3063 59.9088 26.9212 58.3139 26.902Z" fill="#FEFEFE"/>
<path d="M33.4106 20.1961C33.4299 18.1017 34.6789 16.2186 36.5812 15.3731C37.8878 14.7774 39.3098 14.7774 40.6548 15.2194C40.7509 15.2386 40.8278 15.277 40.9046 15.3154C41.9807 15.719 42.9222 16.2762 43.4603 17.3523C43.8062 18.044 43.9407 18.8126 43.9407 19.5812C43.9407 20.7918 43.6332 22.0216 42.9991 23.0592C42.6725 23.6165 42.2113 24.1161 41.6732 24.4812C40.9238 24.9808 40.0015 25.1729 39.0984 25.2114C38.1184 25.2306 37.2537 25 36.3698 24.5965C35.6204 24.2506 34.8902 23.7894 34.3522 23.1553C33.6989 22.3098 33.3914 21.253 33.4106 20.1961Z" fill="#FEFEFE"/>
<path d="M25.7052 35.9139C25.6476 35.8755 25.6092 35.837 25.5899 35.7794C24.9174 34.4728 24.4947 33.07 24.3025 31.6289C24.1296 30.2069 24.1296 28.6889 24.879 27.4207C24.9751 27.2286 25.1288 27.0556 25.3017 26.9211C25.8013 26.5944 26.4739 26.7674 26.8197 27.2478C26.9158 27.3823 26.9735 27.536 26.9927 27.6897C26.9927 27.8627 26.9542 28.0356 26.8774 28.2085C26.2625 29.9956 25.9166 31.8595 25.8205 33.7426C25.7821 34.4535 25.8205 35.1645 25.8205 35.8755C25.7821 35.9331 25.7437 35.9331 25.7052 35.9139Z" fill="#FB40EE"/>
<path d="M70.7271 38.2005C71.1114 36.2598 71.0729 34.2806 70.9192 32.3014C70.9192 32.1861 70.9192 32.0516 71.0345 32.0132C71.0729 32.0132 71.1113 32.0132 71.1498 32.0132C72.3796 32.3206 73.0137 33.6081 72.687 34.7994C72.5141 35.3951 72.1874 35.9331 71.8608 36.4327L70.7271 38.2005Z" fill="#FB40EE"/>
<path d="M29.8173 36.8557C29.8173 36.798 29.8557 36.7596 29.9134 36.7596C29.9518 36.7596 30.0094 36.798 30.0094 36.8557C30.0671 37.24 30.0863 37.6435 30.1055 38.0278C30.1439 38.8733 30.1632 39.7187 30.1632 40.545C30.1632 41.1215 30.0863 41.6787 29.9518 42.236C29.7788 42.8893 29.5483 43.5426 29.2408 44.1383C29.2408 44.1575 29.2024 44.1575 29.2024 44.1383C29.1255 43.9653 29.0487 43.8116 28.9718 43.6387C28.9718 43.6195 28.9526 43.581 28.9334 43.5618C28.9142 43.5618 28.8757 43.5618 28.8565 43.5618L28.3569 43.7732C28.3377 43.7732 28.3185 43.754 28.3185 43.7348C28.5299 43.4465 28.7412 43.2352 28.9334 42.9854C29.2216 42.5626 29.4138 42.0822 29.4714 41.5634C29.5483 40.987 29.4906 40.3913 29.5675 39.8148C29.6251 39.1999 29.6443 38.5658 29.6828 37.9509C29.6636 37.6051 29.7212 37.2208 29.8173 36.8557Z" fill="#FB40EE"/>
<path d="M70.2081 41.1215C70.2273 41.0639 70.2849 41.0255 70.3426 41.0447C70.3618 41.0447 70.381 41.0639 70.4002 41.0831L71.5724 42.6588C71.5916 42.678 71.6108 42.7164 71.5916 42.7548C71.5723 42.7933 71.5147 42.7933 71.4571 42.7741L70.2657 42.4858C70.1504 42.4666 70.0159 42.4282 69.9583 42.3129C69.9006 42.1976 69.9198 42.0631 69.9583 41.9286L70.2081 41.1215Z" fill="#FB40EE"/>
<path d="M24.5524 40.7754C24.5139 40.7754 24.4755 40.737 24.4947 40.6986C24.4947 40.6794 24.4947 40.6794 24.5139 40.6602C24.7445 40.3719 24.9943 40.0645 25.2634 39.7762C25.3402 39.6994 25.4555 39.5841 25.5516 39.6417C25.5708 39.661 25.6092 39.6802 25.6284 39.7186C25.7245 39.8531 26.128 40.2182 26.128 40.4104C26.128 40.8523 25.0135 40.8331 24.5524 40.7754Z" fill="#FB40EE"/>
<path d="M46.996 26.3066C47.4572 26.3259 47.9183 26.4604 48.3411 26.6909C48.4948 26.7678 48.6293 26.8831 48.7254 27.0368C48.8215 27.2482 48.7254 27.498 48.5909 27.6902C48.3795 27.94 48.0721 28.1321 47.7454 28.1705C47.4187 28.2282 47.0729 28.209 46.7654 28.1129C46.3619 28.0168 45.8046 27.8054 45.6125 27.4211C45.4011 26.9792 45.8239 26.5564 46.2082 26.4219C46.4388 26.3451 46.7078 26.2874 46.9768 26.3066H46.996Z" fill="#010202"/>
<path d="M61.004 20.8878C61.004 20.9839 60.9848 21.0992 60.9656 21.1952C60.6581 22.6364 59.5244 24.1544 57.9488 24.2313C56.6613 24.3081 55.5661 23.943 54.7398 22.9631C54.1057 22.2329 54.0673 21.3297 54.1441 20.4074C54.1634 20.1576 54.221 19.8886 54.2786 19.6388C54.7398 17.7749 56.3923 16.9102 58.1794 17.602C59.4091 18.0823 60.9464 19.2545 61.0232 20.7149C61.004 20.7725 61.004 20.8301 61.004 20.8878Z" fill="#010202"/>
<path d="M38.0222 16.4681C40.1935 16.3336 42.73 18.5434 41.5386 20.7916C41.2504 21.3296 40.8277 21.7716 40.3088 22.0982C39.8477 22.4057 39.3289 22.617 38.7716 22.6747C37.5995 22.79 36.6387 22.0021 35.9854 21.1182C35.4089 20.3496 35.1976 19.3504 35.4089 18.4089C35.6395 17.4097 36.5234 16.5834 37.5418 16.5066C37.734 16.4873 37.9261 16.4681 38.0222 16.4681Z" fill="#010202"/>
<path d="M56.5459 23.0015C56.5459 22.9823 56.5651 22.963 56.6035 22.9246C56.911 22.5979 57.3145 22.3674 57.6796 22.0983C57.9678 21.9062 58.2368 21.6564 58.4482 21.3682C58.6596 21.0799 58.7941 20.7148 59.0631 20.465C59.1976 20.3305 59.4282 20.2729 59.5243 20.4843C59.7164 20.9262 59.6972 21.3874 59.4858 21.8293C59.0055 22.7901 57.7757 23.1936 56.7573 23.136H56.6612C56.6228 23.136 56.5651 23.136 56.5459 23.0783C56.5267 23.0399 56.5459 23.0207 56.5459 23.0015Z" fill="#FEFEFE"/>
<path d="M56.9303 19.4083C56.9495 19.4083 56.9687 19.4083 56.9879 19.4083C57.0456 19.4083 57.084 19.4275 57.1417 19.4468C57.2185 19.5044 57.2762 19.5813 57.2762 19.6773C57.2762 19.9079 57.1993 20.1385 57.0648 20.3307C57.0072 20.4267 56.9111 20.4844 56.815 20.5036C56.4307 20.542 55.9695 19.9656 56.2962 19.6581C56.4499 19.5044 56.6805 19.4083 56.9303 19.4083Z" fill="#FEFEFE"/>
<path d="M38.5026 20.3115C38.6563 20.3115 38.7716 20.4268 38.9638 20.3884C39.0983 20.3499 39.2136 20.2731 39.3096 20.1578C39.5594 19.8888 39.7708 19.5237 40.0014 19.2162C40.1743 18.9856 40.3473 18.8319 40.6355 19.0049C40.7124 19.0625 40.7316 19.2547 40.7316 19.3892C40.6739 20.1578 40.2896 20.7535 39.8092 21.3107C39.3289 21.8487 38.2336 21.3876 38.0222 20.9648C37.8685 20.6382 38.0991 20.2923 38.5026 20.3115Z" fill="#FEFEFE"/>
<path d="M38.1375 17.9092C38.1568 17.9668 38.1567 18.0437 38.1567 18.1013C38.1183 18.4472 37.9454 18.8699 37.5419 18.8699C37.3113 18.8699 37.0807 18.7162 36.9846 18.4856C36.927 18.3896 36.927 18.2743 36.9462 18.159C36.9846 18.0629 37.0615 17.9668 37.1575 17.9092C37.4073 17.7554 38.0222 17.5633 38.1375 17.9092Z" fill="#FEFEFE"/>
<path d="M26.9189 48.532L27.1068 33.7203H70.9632V48.532H26.9189Z" fill="#595E67" stroke="#595E67" stroke-width="1.5"/>
<path d="M35.2296 46.4588C38.1435 46.4588 40.5057 44.0713 40.5057 41.1261C40.5057 38.181 38.1435 35.7935 35.2296 35.7935C32.3157 35.7935 29.9535 38.181 29.9535 41.1261C29.9535 44.0713 32.3157 46.4588 35.2296 46.4588Z" fill="#B3B8C1"/>
<path d="M62.5156 46.4588C65.4295 46.4588 67.7917 44.0713 67.7917 41.1261C67.7917 38.1809 65.4295 35.7934 62.5156 35.7934C59.6017 35.7934 57.2395 38.1809 57.2395 41.1261C57.2395 44.0713 59.6017 46.4588 62.5156 46.4588Z" fill="#491CBE"/>
<path d="M44.0447 41.1261H53.7003" stroke="#B3B8C1" stroke-miterlimit="10"/>
<path d="M46.4586 38.873L44.0447 41.1261L46.4586 43.3793" stroke="#B3B8C1" stroke-miterlimit="10"/>
<path d="M51.2865 38.873L53.7004 41.1261L51.2865 43.3793" stroke="#B3B8C1" stroke-miterlimit="10"/>
<path d="M31.7209 35.093V30.6744" stroke="#595E67" stroke-width="1.5" stroke-miterlimit="10"/>
<path d="M66.186 35.093V30.6744" stroke="#595E67" stroke-width="1.5" stroke-miterlimit="10"/>
<path d="M75.0233 51V30.6744H22V51" stroke="#595E67" stroke-width="1.5" stroke-miterlimit="10"/>
<path d="M126.439 47.3472V47.3664C126.515 47.6354 126.592 47.9044 126.669 48.1735C126.669 48.1927 126.669 48.2119 126.669 48.2311C126.669 48.2503 126.631 48.2695 126.592 48.2695C125.708 48.3656 124.94 47.9621 124.325 47.3664C124.19 47.2319 124.075 47.0782 123.883 47.0013C123.691 46.9245 123.479 46.9821 123.306 47.0398C122.115 47.5009 120.905 47.8852 119.656 48.1543C117.369 48.6346 115.005 48.7884 112.642 48.7499C107.723 48.6923 102.784 47.9429 98.1343 46.348C97.0582 46.0021 96.0206 45.5602 95.0214 45.0221C94.5026 44.7531 94.0222 44.4265 93.561 44.0998C93.2344 43.85 92.7732 43.2735 92.3889 43.7539C91.5242 44.8108 90.4674 46.3864 88.8917 45.9637L89.6987 44.83L88.2576 44.9453L90.0446 42.063C89.7756 41.9285 89.4297 41.7363 89.0839 41.6018C88.9301 41.5442 88.7572 41.5442 88.6227 41.621C87.6427 42.1591 85.8365 42.4281 84.8565 41.7363C84.6835 41.621 84.5682 41.4673 84.5106 41.2752C84.3761 40.8716 84.6259 40.6218 84.8565 40.3912C85.3753 39.8724 85.8557 39.296 86.2976 38.7195C86.3745 38.6234 86.4321 38.5081 86.4514 38.3736C86.4321 38.2776 86.3937 38.1623 86.3168 38.0854C85.1639 36.4329 84.4145 34.5306 84.0879 32.5322C83.7612 30.5338 83.6651 28.3816 84.6451 26.537C84.9141 26.0181 85.2984 25.5185 85.8172 25.2111C86.3553 24.8844 87.0086 24.7884 87.6427 24.7884C88.3921 24.7691 89.1991 24.8652 89.7564 25.3648C89.6411 25.2495 90.4097 23.7507 90.5058 23.5586C91.1207 22.348 91.8893 21.2335 92.8116 20.2343C93.1575 19.8692 93.9646 19.3696 94.0606 18.87C94.5218 16.1991 96.0783 14.4313 98.557 13.4513C100.383 12.7403 102.15 12.8748 103.841 13.8164C104.149 13.9893 104.379 13.9509 104.706 13.874C105.59 13.6819 106.474 13.5474 107.358 13.4705C110.029 13.2399 112.661 13.5858 115.255 14.2391C115.909 14.4121 116.408 14.4121 117.023 14.047C118.234 13.3552 119.617 13.3168 120.981 13.4321C123.133 13.605 124.709 14.6811 125.977 16.4105C126.65 17.3328 126.823 18.3896 127.169 19.4081C127.246 19.6194 127.342 19.8308 127.457 20.0037C128.11 21.0414 128.783 22.079 129.436 23.1358C130.109 24.2119 130.666 25.3456 131.146 26.537C131.377 27.1134 131.607 27.7091 131.838 28.3048C132.03 28.8044 132.088 29.4385 132.645 29.6883C132.914 29.8228 133.241 29.8612 133.529 29.9189C135.604 30.3993 137.026 32.34 136.872 34.4729C136.776 35.6066 136.258 36.6442 135.643 37.605C135.028 38.5466 134.317 39.4305 133.779 40.4297C133.721 40.5257 133.683 40.6218 133.683 40.7371C133.702 40.8524 133.74 40.9485 133.817 41.0253C134.144 41.4481 134.586 41.7555 135.085 41.9285C135.412 42.0245 135.777 42.0822 135.931 42.4473C135.989 42.6202 135.989 42.8124 135.931 42.9661C135.777 43.3504 135.451 43.5618 135.085 43.7155C134.009 44.1767 132.799 44.1767 131.704 43.7155C131.569 43.6579 131.396 43.581 131.262 43.6386C131.185 43.6771 131.108 43.7347 131.05 43.8116C130.57 44.3688 130.032 44.8492 129.436 45.2912C129.033 45.5794 128.61 45.8484 128.149 46.079C128.033 46.1366 127.899 46.2135 127.841 46.348C127.822 46.4633 127.822 46.5978 127.86 46.7131C127.899 46.9053 127.937 47.0974 127.957 47.2896C127.957 47.3088 127.957 47.3472 127.937 47.3664C127.937 47.3664 127.918 47.3664 127.899 47.3664C127.438 47.3856 126.957 47.3664 126.496 47.3664C126.458 47.328 126.439 47.328 126.439 47.3472Z" fill="#010202"/>
<path d="M122.557 41.4484C122.538 42.3323 122.442 43.197 122.288 44.0425C122.23 44.3691 122.153 44.715 121.942 44.9648C121.731 45.2146 121.385 45.3491 121.077 45.4452C117.638 46.5597 113.756 46.5981 110.182 46.4059C105.82 46.1754 100.901 45.4452 96.962 43.4276C96.2703 43.0625 95.5977 42.6397 95.0789 42.0441C94.2334 41.0833 94.0989 39.5653 94.0797 38.3355C94.0605 36.8943 94.4256 35.4724 95.1558 34.2426C96.155 32.5709 98.1149 31.5717 99.9596 31.1682C101.977 30.7262 104.052 30.8799 106.089 31.0144C109.894 31.2834 113.775 31.5717 117.234 33.1473C118.887 33.8967 120.462 34.992 121.423 36.5485C122.346 38.0088 122.595 39.7382 122.557 41.4484Z" fill="#F99DF3"/>
<path d="M90.3137 38.5272C88.8149 33.2814 91.0246 26.2486 93.8301 22.2518C93.8685 22.2134 93.9261 22.1942 93.9838 22.2326C94.003 22.2326 94.003 22.2518 94.0222 22.271C94.1183 22.5016 94.2144 22.713 94.3105 22.9244C94.7716 23.9043 95.4442 24.7498 96.3665 25.3455C97.039 25.7682 97.7884 26.0565 98.5571 26.2871C99.9982 26.729 101.632 26.9788 103.111 26.4984C104.399 26.0757 105.494 24.8267 106.166 23.7314C106.858 22.5977 107.511 21.0605 107.55 19.7154C107.588 18.3703 107.242 17.0252 106.397 15.9684C106.339 15.8915 106.282 15.7762 106.358 15.7186C106.378 15.6994 106.416 15.6994 106.455 15.6994C108.856 15.4112 111.297 15.5264 113.66 16.0645C113.737 16.0645 113.795 16.1029 113.852 16.1606C113.91 16.2566 113.852 16.3911 113.795 16.4872C113.084 17.6017 112.584 18.8699 112.373 20.1766C112.181 21.4448 112.296 22.7899 112.796 23.9812C113.756 26.2678 116.062 27.7859 118.483 28.3047C120.059 28.6505 121.769 28.6121 123.268 27.978C125.036 27.2286 126.227 25.5377 126.977 23.8275C127.015 23.7314 127.111 23.693 127.207 23.7314C127.246 23.7506 127.265 23.7698 127.284 23.8083C127.457 24.0965 127.745 24.4808 127.784 24.5577C127.995 24.942 128.206 25.3455 128.399 25.7298C128.783 26.5368 129.109 27.3439 129.398 28.1894C129.955 29.8035 130.493 31.4752 130.666 33.2046C130.858 34.9532 130.647 36.721 130.416 38.4696C130.262 39.6033 130.109 40.7562 129.609 41.7939C128.975 43.1005 127.861 43.8499 126.688 44.6185C126.592 44.6762 126.496 44.7338 126.381 44.6569C126.323 44.5993 126.266 44.5224 126.266 44.4456C125.92 42.1974 126.4 39.8723 125.843 37.6818C125.824 37.5665 125.708 37.432 125.612 37.4896C125.593 37.5088 125.574 37.5473 125.555 37.5857C125.497 37.7778 125.497 37.97 125.459 38.1622C125.324 39.0268 125.324 39.9108 125.286 40.7754L125.132 43.4848V43.504C125.113 43.9075 125.074 44.3687 125.19 44.753C125.305 45.0797 125.593 45.3871 125.862 45.5985C126.227 45.8867 126.554 46.2326 126.9 46.5401C126.957 46.5977 127.015 46.6938 126.957 46.7514C126.919 46.7899 126.861 46.7706 126.804 46.7514C126.592 46.6746 126.4 46.5785 126.189 46.4824C125.901 46.3287 125.632 46.0981 125.362 45.9059C125.305 45.8483 125.228 45.8099 125.132 45.7714C125.093 45.7522 125.055 45.7522 125.017 45.7907C125.017 45.7907 125.017 45.7907 125.017 45.8099C124.978 45.9059 124.997 46.0212 125.036 46.0981C125.151 46.3671 125.286 46.6169 125.439 46.8859C125.535 47.0589 125.651 47.2126 125.728 47.4047C125.728 47.424 125.747 47.4624 125.728 47.4816C125.708 47.4816 125.708 47.4816 125.689 47.4816C125.459 47.4047 125.305 47.251 125.151 47.0589C124.997 46.8859 124.882 46.6938 124.767 46.5016C124.344 45.733 124.555 44.9067 124.632 44.0613C124.709 43.1774 124.748 42.2742 124.748 41.3903C124.748 39.8723 124.748 38.3543 124.171 36.9132C123.691 35.7218 122.903 34.665 121.981 33.7618C121.039 32.8587 119.963 32.0709 118.791 31.456C118.426 31.2638 118.061 31.0717 117.676 30.8987C117.484 30.8219 117.311 30.7258 117.119 30.6682C116.965 30.6105 116.735 30.4568 116.562 30.4568C113.142 29.1886 109.51 29.0733 105.897 28.8811C103.611 28.7658 101.286 28.6121 99.0374 29.0733C96.5202 29.5921 94.3873 30.9372 93.1191 33.1854C92.8501 33.685 92.6003 34.2038 92.4081 34.7418C92.216 35.2606 92.0238 35.6257 91.4858 35.8755C90.7748 36.2214 90.6403 37.0092 90.5442 37.7586C90.5058 38.0661 90.429 38.2582 90.3905 38.5272C90.3521 38.5465 90.3329 38.5465 90.3137 38.5272C90.3329 38.5465 90.3137 38.5465 90.3137 38.5272Z" fill="#FB40EE"/>
<path d="M120.174 26.902C117.446 26.8443 114.487 25.1149 113.929 22.3095C113.718 21.1758 113.929 20.0229 114.371 18.9468C114.948 17.5825 115.947 16.3335 117.273 15.6225C118.714 14.8539 120.597 14.9308 122.115 15.4496C123.23 15.8339 124.229 16.5449 124.844 17.5249C125.42 18.428 125.632 19.5233 125.689 20.5993C125.747 22.175 125.439 23.8275 124.44 25.0573C123.403 26.3063 121.769 26.9212 120.174 26.902Z" fill="#FEFEFE"/>
<path d="M95.2712 20.1961C95.2904 18.1017 96.5394 16.2186 98.4418 15.3731C99.7484 14.7774 101.17 14.7774 102.515 15.2194C102.612 15.2386 102.688 15.277 102.765 15.3154C103.841 15.719 104.783 16.2762 105.321 17.3523C105.667 18.044 105.801 18.8126 105.801 19.5812C105.801 20.7918 105.494 22.0216 104.86 23.0592C104.533 23.6165 104.072 24.1161 103.534 24.4812C102.784 24.9808 101.862 25.1729 100.959 25.2114C99.979 25.2306 99.1143 25 98.2304 24.5965C97.481 24.2506 96.7508 23.7894 96.2128 23.1553C95.5595 22.3098 95.252 21.253 95.2712 20.1961Z" fill="#FEFEFE"/>
<path d="M87.5658 35.9139C87.5082 35.8755 87.4698 35.837 87.4505 35.7794C86.778 34.4728 86.3553 33.07 86.1631 31.6289C85.9902 30.2069 85.9902 28.6889 86.7396 27.4207C86.8357 27.2286 86.9894 27.0556 87.1623 26.9211C87.6619 26.5944 88.3345 26.7674 88.6803 27.2478C88.7764 27.3823 88.8341 27.536 88.8533 27.6897C88.8533 27.8627 88.8148 28.0356 88.738 28.2085C88.1231 29.9956 87.7772 31.8595 87.6811 33.7426C87.6427 34.4535 87.6811 35.1645 87.6811 35.8755C87.6427 35.9331 87.6043 35.9331 87.5658 35.9139Z" fill="#FB40EE"/>
<path d="M132.587 38.2005C132.972 36.2598 132.933 34.2806 132.78 32.3014C132.78 32.1861 132.78 32.0516 132.895 32.0132C132.933 32.0132 132.972 32.0132 133.01 32.0132C134.24 32.3206 134.874 33.6081 134.547 34.7994C134.374 35.3951 134.048 35.9331 133.721 36.4327L132.587 38.2005Z" fill="#FB40EE"/>
<path d="M91.6778 36.8557C91.6778 36.798 91.7162 36.7596 91.7738 36.7596C91.8123 36.7596 91.8699 36.798 91.8699 36.8557C91.9276 37.24 91.9468 37.6435 91.966 38.0278C92.0044 38.8733 92.0236 39.7187 92.0236 40.545C92.0236 41.1215 91.9468 41.6787 91.8123 42.236C91.6393 42.8893 91.4087 43.5426 91.1013 44.1383C91.1013 44.1575 91.0629 44.1575 91.0629 44.1383C90.986 43.9653 90.9091 43.8116 90.8323 43.6387C90.8323 43.6195 90.8131 43.581 90.7938 43.5618C90.7746 43.5618 90.7362 43.5618 90.717 43.5618L90.2174 43.7732C90.1982 43.7732 90.179 43.754 90.179 43.7348C90.3903 43.4465 90.6017 43.2352 90.7938 42.9854C91.0821 42.5626 91.2742 42.0822 91.3319 41.5634C91.4087 40.987 91.3511 40.3913 91.428 39.8148C91.4856 39.1999 91.5048 38.5658 91.5433 37.9509C91.524 37.6051 91.5817 37.2208 91.6778 36.8557Z" fill="#FB40EE"/>
<path d="M132.069 41.1215C132.088 41.0639 132.145 41.0255 132.203 41.0447C132.222 41.0447 132.241 41.0639 132.261 41.0831L133.433 42.6588C133.452 42.678 133.471 42.7164 133.452 42.7548C133.433 42.7933 133.375 42.7933 133.318 42.7741L132.126 42.4858C132.011 42.4666 131.876 42.4282 131.819 42.3129C131.761 42.1976 131.78 42.0631 131.819 41.9286L132.069 41.1215Z" fill="#FB40EE"/>
<path d="M86.413 40.7754C86.3745 40.7754 86.3361 40.737 86.3553 40.6986C86.3553 40.6794 86.3553 40.6794 86.3745 40.6602C86.6051 40.3719 86.8549 40.0645 87.1239 39.7762C87.2008 39.6994 87.3161 39.5841 87.4122 39.6417C87.4314 39.661 87.4698 39.6802 87.489 39.7186C87.5851 39.8531 87.9886 40.2182 87.9886 40.4104C87.9886 40.8523 86.8741 40.8331 86.413 40.7754Z" fill="#FB40EE"/>
<path d="M108.856 26.3066C109.318 26.3259 109.779 26.4604 110.201 26.6909C110.355 26.7678 110.49 26.8831 110.586 27.0368C110.682 27.2482 110.586 27.498 110.451 27.6902C110.24 27.94 109.932 28.1321 109.606 28.1705C109.279 28.2282 108.933 28.209 108.626 28.1129C108.222 28.0168 107.665 27.8054 107.473 27.4211C107.261 26.9792 107.684 26.5564 108.069 26.4219C108.299 26.3451 108.568 26.2874 108.837 26.3066H108.856Z" fill="#010202"/>
<path d="M122.865 20.8878C122.865 20.9839 122.845 21.0992 122.826 21.1952C122.519 22.6364 121.385 24.1544 119.809 24.2313C118.522 24.3081 117.427 23.943 116.6 22.9631C115.966 22.2329 115.928 21.3297 116.005 20.4074C116.024 20.1576 116.082 19.8886 116.139 19.6388C116.6 17.7749 118.253 16.9102 120.04 17.602C121.27 18.0823 122.807 19.2545 122.884 20.7149C122.865 20.7725 122.865 20.8301 122.865 20.8878Z" fill="#010202"/>
<path d="M99.8827 16.4681C102.054 16.3336 104.59 18.5434 103.399 20.7916C103.111 21.3296 102.688 21.7716 102.169 22.0982C101.708 22.4057 101.189 22.617 100.632 22.6747C99.4599 22.79 98.4992 22.0021 97.8459 21.1182C97.2694 20.3496 97.058 19.3504 97.2694 18.4089C97.5 17.4097 98.3839 16.5834 99.4023 16.5066C99.5945 16.4873 99.7866 16.4681 99.8827 16.4681Z" fill="#010202"/>
<path d="M118.406 23.0015C118.406 22.9823 118.425 22.963 118.464 22.9246C118.771 22.5979 119.175 22.3674 119.54 22.0983C119.828 21.9062 120.097 21.6564 120.309 21.3682C120.52 21.0799 120.654 20.7148 120.923 20.465C121.058 20.3305 121.289 20.2729 121.385 20.4843C121.577 20.9262 121.558 21.3874 121.346 21.8293C120.866 22.7901 119.636 23.1936 118.618 23.136H118.522C118.483 23.136 118.425 23.136 118.406 23.0783C118.387 23.0399 118.406 23.0207 118.406 23.0015Z" fill="#FEFEFE"/>
<path d="M118.791 19.4083C118.81 19.4083 118.829 19.4083 118.848 19.4083C118.906 19.4083 118.944 19.4275 119.002 19.4468C119.079 19.5044 119.137 19.5813 119.137 19.6773C119.137 19.9079 119.06 20.1385 118.925 20.3307C118.868 20.4267 118.772 20.4844 118.675 20.5036C118.291 20.542 117.83 19.9656 118.157 19.6581C118.31 19.5044 118.541 19.4083 118.791 19.4083Z" fill="#FEFEFE"/>
<path d="M100.363 20.3115C100.517 20.3115 100.632 20.4268 100.824 20.3884C100.959 20.3499 101.074 20.2731 101.17 20.1578C101.42 19.8888 101.631 19.5237 101.862 19.2162C102.035 18.9856 102.208 18.8319 102.496 19.0049C102.573 19.0625 102.592 19.2547 102.592 19.3892C102.535 20.1578 102.15 20.7535 101.67 21.3107C101.189 21.8487 100.094 21.3876 99.8828 20.9648C99.7291 20.6382 99.9597 20.2923 100.363 20.3115Z" fill="#FEFEFE"/>
<path d="M99.998 17.9092C100.017 17.9668 100.017 18.0437 100.017 18.1013C99.9788 18.4472 99.8059 18.8699 99.4023 18.8699C99.1717 18.8699 98.9412 18.7162 98.8451 18.4856C98.7874 18.3896 98.7874 18.2743 98.8067 18.159C98.8451 18.0629 98.9219 17.9668 99.018 17.9092C99.2678 17.7554 99.8827 17.5633 99.998 17.9092Z" fill="#FEFEFE"/>
<path d="M88.7792 48.532L88.9671 33.7203H132.824V48.532H88.7792Z" fill="#595E67" stroke="#595E67" stroke-width="1.5"/>
<path d="M97.0901 46.4588C100.004 46.4588 102.366 44.0713 102.366 41.1261C102.366 38.181 100.004 35.7935 97.0901 35.7935C94.1762 35.7935 91.814 38.181 91.814 41.1261C91.814 44.0713 94.1762 46.4588 97.0901 46.4588Z" fill="#00D741"/>
<path d="M124.376 46.4588C127.29 46.4588 129.652 44.0713 129.652 41.1261C129.652 38.1809 127.29 35.7934 124.376 35.7934C121.462 35.7934 119.1 38.1809 119.1 41.1261C119.1 44.0713 121.462 46.4588 124.376 46.4588Z" fill="#F99DF3"/>
<path d="M105.905 41.1261H115.561" stroke="#B3B8C1" stroke-miterlimit="10"/>
<path d="M108.319 38.873L105.905 41.1261L108.319 43.3793" stroke="#B3B8C1" stroke-miterlimit="10"/>
<path d="M113.147 38.873L115.561 41.1261L113.147 43.3793" stroke="#B3B8C1" stroke-miterlimit="10"/>
<path d="M93.5813 35.093V30.6744" stroke="#595E67" stroke-width="1.5" stroke-miterlimit="10"/>
<path d="M128.047 35.093V30.6744" stroke="#595E67" stroke-width="1.5" stroke-miterlimit="10"/>
<path d="M136.884 51V30.6744H83.8604V51" stroke="#595E67" stroke-width="1.5" stroke-miterlimit="10"/>
<path d="M188.299 47.3472V47.3664C188.376 47.6354 188.453 47.9044 188.529 48.1735C188.529 48.1927 188.529 48.2119 188.529 48.2311C188.529 48.2503 188.491 48.2695 188.453 48.2695C187.569 48.3656 186.8 47.9621 186.185 47.3664C186.051 47.2319 185.935 47.0782 185.743 47.0013C185.551 46.9245 185.34 46.9821 185.167 47.0398C183.975 47.5009 182.765 47.8852 181.516 48.1543C179.229 48.6346 176.866 48.7884 174.502 48.7499C169.583 48.6923 164.645 47.9429 159.995 46.348C158.919 46.0021 157.881 45.5602 156.882 45.0221C156.363 44.7531 155.883 44.4265 155.421 44.0998C155.095 43.85 154.634 43.2735 154.249 43.7539C153.385 44.8108 152.328 46.3864 150.752 45.9637L151.559 44.83L150.118 44.9453L151.905 42.063C151.636 41.9285 151.29 41.7363 150.944 41.6018C150.79 41.5442 150.618 41.5442 150.483 41.621C149.503 42.1591 147.697 42.4281 146.717 41.7363C146.544 41.621 146.429 41.4673 146.371 41.2752C146.236 40.8716 146.486 40.6218 146.717 40.3912C147.236 39.8724 147.716 39.296 148.158 38.7195C148.235 38.6234 148.292 38.5081 148.312 38.3736C148.292 38.2776 148.254 38.1623 148.177 38.0854C147.024 36.4329 146.275 34.5306 145.948 32.5322C145.622 30.5338 145.525 28.3816 146.505 26.537C146.774 26.0181 147.159 25.5185 147.678 25.2111C148.216 24.8844 148.869 24.7884 149.503 24.7884C150.252 24.7691 151.059 24.8652 151.617 25.3648C151.501 25.2495 152.27 23.7507 152.366 23.5586C152.981 22.348 153.75 21.2335 154.672 20.2343C155.018 19.8692 155.825 19.3696 155.921 18.87C156.382 16.1991 157.939 14.4313 160.417 13.4513C162.243 12.7403 164.011 12.8748 165.702 13.8164C166.009 13.9893 166.24 13.9509 166.566 13.874C167.45 13.6819 168.334 13.5474 169.218 13.4705C171.889 13.2399 174.521 13.5858 177.116 14.2391C177.769 14.4121 178.268 14.4121 178.883 14.047C180.094 13.3552 181.477 13.3168 182.842 13.4321C184.994 13.605 186.57 14.6811 187.838 16.4105C188.51 17.3328 188.683 18.3896 189.029 19.4081C189.106 19.6194 189.202 19.8308 189.317 20.0037C189.971 21.0414 190.643 22.079 191.296 23.1358C191.969 24.2119 192.526 25.3456 193.007 26.537C193.237 27.1134 193.468 27.7091 193.698 28.3048C193.891 28.8044 193.948 29.4385 194.505 29.6883C194.774 29.8228 195.101 29.8612 195.389 29.9189C197.465 30.3993 198.887 32.34 198.733 34.4729C198.637 35.6066 198.118 36.6442 197.503 37.605C196.888 38.5466 196.177 39.4305 195.639 40.4297C195.582 40.5257 195.543 40.6218 195.543 40.7371C195.562 40.8524 195.601 40.9485 195.678 41.0253C196.004 41.4481 196.446 41.7555 196.946 41.9285C197.272 42.0245 197.638 42.0822 197.791 42.4473C197.849 42.6202 197.849 42.8124 197.791 42.9661C197.638 43.3504 197.311 43.5618 196.946 43.7155C195.87 44.1767 194.659 44.1767 193.564 43.7155C193.429 43.6579 193.256 43.581 193.122 43.6386C193.045 43.6771 192.968 43.7347 192.911 43.8116C192.43 44.3688 191.892 44.8492 191.296 45.2912C190.893 45.5794 190.47 45.8484 190.009 46.079C189.894 46.1366 189.759 46.2135 189.702 46.348C189.682 46.4633 189.682 46.5978 189.721 46.7131C189.759 46.9053 189.798 47.0974 189.817 47.2896C189.817 47.3088 189.817 47.3472 189.798 47.3664C189.798 47.3664 189.778 47.3664 189.759 47.3664C189.298 47.3856 188.818 47.3664 188.357 47.3664C188.318 47.328 188.299 47.328 188.299 47.3472Z" fill="#010202"/>
<path d="M184.417 41.4484C184.398 42.3323 184.302 43.197 184.148 44.0425C184.091 44.3691 184.014 44.715 183.803 44.9648C183.591 45.2146 183.245 45.3491 182.938 45.4452C179.498 46.5597 175.617 46.5981 172.043 46.4059C167.681 46.1754 162.762 45.4452 158.823 43.4276C158.131 43.0625 157.458 42.6397 156.939 42.0441C156.094 41.0833 155.96 39.5653 155.94 38.3355C155.921 36.8943 156.286 35.4724 157.016 34.2426C158.016 32.5709 159.976 31.5717 161.82 31.1682C163.838 30.7262 165.913 30.8799 167.95 31.0144C171.755 31.2834 175.636 31.5717 179.095 33.1473C180.747 33.8967 182.323 34.992 183.284 36.5485C184.206 38.0088 184.456 39.7382 184.417 41.4484Z" fill="#F99DF3"/>
<path d="M152.174 38.5272C150.675 33.2814 152.885 26.2486 155.69 22.2518C155.729 22.2134 155.786 22.1942 155.844 22.2326C155.863 22.2326 155.863 22.2518 155.883 22.271C155.979 22.5016 156.075 22.713 156.171 22.9244C156.632 23.9043 157.305 24.7498 158.227 25.3455C158.899 25.7682 159.649 26.0565 160.417 26.2871C161.859 26.729 163.492 26.9788 164.971 26.4984C166.259 26.0757 167.354 24.8267 168.027 23.7314C168.718 22.5977 169.372 21.0605 169.41 19.7154C169.449 18.3703 169.103 17.0252 168.257 15.9684C168.2 15.8915 168.142 15.7762 168.219 15.7186C168.238 15.6994 168.276 15.6994 168.315 15.6994C170.717 15.4112 173.157 15.5264 175.521 16.0645C175.598 16.0645 175.655 16.1029 175.713 16.1606C175.77 16.2566 175.713 16.3911 175.655 16.4872C174.944 17.6017 174.445 18.8699 174.233 20.1766C174.041 21.4448 174.156 22.7899 174.656 23.9812C175.617 26.2678 177.923 27.7859 180.344 28.3047C181.919 28.6505 183.63 28.6121 185.128 27.978C186.896 27.2286 188.088 25.5377 188.837 23.8275C188.875 23.7314 188.971 23.693 189.068 23.7314C189.106 23.7506 189.125 23.7698 189.144 23.8083C189.317 24.0965 189.606 24.4808 189.644 24.5577C189.855 24.942 190.067 25.3455 190.259 25.7298C190.643 26.5368 190.97 27.3439 191.258 28.1894C191.815 29.8035 192.353 31.4752 192.526 33.2046C192.718 34.9532 192.507 36.721 192.276 38.4696C192.123 39.6033 191.969 40.7562 191.469 41.7939C190.835 43.1005 189.721 43.8499 188.549 44.6185C188.453 44.6762 188.357 44.7338 188.241 44.6569C188.184 44.5993 188.126 44.5224 188.126 44.4456C187.78 42.1974 188.26 39.8723 187.703 37.6818C187.684 37.5665 187.569 37.432 187.473 37.4896C187.453 37.5088 187.434 37.5473 187.415 37.5857C187.357 37.7778 187.357 37.97 187.319 38.1622C187.184 39.0268 187.184 39.9108 187.146 40.7754L186.992 43.4848V43.504C186.973 43.9075 186.935 44.3687 187.05 44.753C187.165 45.0797 187.453 45.3871 187.722 45.5985C188.088 45.8867 188.414 46.2326 188.76 46.5401C188.818 46.5977 188.875 46.6938 188.818 46.7514C188.779 46.7899 188.722 46.7706 188.664 46.7514C188.453 46.6746 188.26 46.5785 188.049 46.4824C187.761 46.3287 187.492 46.0981 187.223 45.9059C187.165 45.8483 187.088 45.8099 186.992 45.7714C186.954 45.7522 186.915 45.7522 186.877 45.7907C186.877 45.7907 186.877 45.7907 186.877 45.8099C186.839 45.9059 186.858 46.0212 186.896 46.0981C187.011 46.3671 187.146 46.6169 187.3 46.8859C187.396 47.0589 187.511 47.2126 187.588 47.4047C187.588 47.424 187.607 47.4624 187.588 47.4816C187.569 47.4816 187.569 47.4816 187.55 47.4816C187.319 47.4047 187.165 47.251 187.011 47.0589C186.858 46.8859 186.742 46.6938 186.627 46.5016C186.204 45.733 186.416 44.9067 186.493 44.0613C186.57 43.1774 186.608 42.2742 186.608 41.3903C186.608 39.8723 186.608 38.3543 186.031 36.9132C185.551 35.7218 184.763 34.665 183.841 33.7618C182.899 32.8587 181.823 32.0709 180.651 31.456C180.286 31.2638 179.921 31.0717 179.537 30.8987C179.345 30.8219 179.172 30.7258 178.979 30.6682C178.826 30.6105 178.595 30.4568 178.422 30.4568C175.002 29.1886 171.37 29.0733 167.758 28.8811C165.471 28.7658 163.146 28.6121 160.898 29.0733C158.381 29.5921 156.248 30.9372 154.979 33.1854C154.71 33.685 154.461 34.2038 154.268 34.7418C154.076 35.2606 153.884 35.6257 153.346 35.8755C152.635 36.2214 152.501 37.0092 152.405 37.7586C152.366 38.0661 152.289 38.2582 152.251 38.5272C152.212 38.5465 152.193 38.5465 152.174 38.5272C152.193 38.5465 152.174 38.5465 152.174 38.5272Z" fill="#FB40EE"/>
<path d="M182.035 26.902C179.306 26.8443 176.347 25.1149 175.79 22.3095C175.578 21.1758 175.79 20.0229 176.232 18.9468C176.808 17.5825 177.807 16.3335 179.133 15.6225C180.574 14.8539 182.458 14.9308 183.976 15.4496C185.09 15.8339 186.089 16.5449 186.704 17.5249C187.281 18.428 187.492 19.5233 187.55 20.5993C187.607 22.175 187.3 23.8275 186.301 25.0573C185.263 26.3063 183.63 26.9212 182.035 26.902Z" fill="#FEFEFE"/>
<path d="M157.132 20.1961C157.151 18.1017 158.4 16.2186 160.302 15.3731C161.609 14.7774 163.031 14.7774 164.376 15.2194C164.472 15.2386 164.549 15.277 164.626 15.3154C165.702 15.719 166.643 16.2762 167.181 17.3523C167.527 18.044 167.662 18.8126 167.662 19.5812C167.662 20.7918 167.354 22.0216 166.72 23.0592C166.393 23.6165 165.932 24.1161 165.394 24.4812C164.645 24.9808 163.722 25.1729 162.819 25.2114C161.839 25.2306 160.975 25 160.091 24.5965C159.341 24.2506 158.611 23.7894 158.073 23.1553C157.42 22.3098 157.112 21.253 157.132 20.1961Z" fill="#FEFEFE"/>
<path d="M149.426 35.9139C149.369 35.8755 149.33 35.837 149.311 35.7794C148.638 34.4728 148.216 33.07 148.023 31.6289C147.851 30.2069 147.851 28.6889 148.6 27.4207C148.696 27.2286 148.85 27.0556 149.023 26.9211C149.522 26.5944 150.195 26.7674 150.541 27.2478C150.637 27.3823 150.694 27.536 150.714 27.6897C150.714 27.8627 150.675 28.0356 150.598 28.2085C149.983 29.9956 149.638 31.8595 149.541 33.7426C149.503 34.4535 149.541 35.1645 149.541 35.8755C149.503 35.9331 149.465 35.9331 149.426 35.9139Z" fill="#FB40EE"/>
<path d="M194.448 38.2005C194.832 36.2598 194.794 34.2806 194.64 32.3014C194.64 32.1861 194.64 32.0516 194.755 32.0132C194.794 32.0132 194.832 32.0132 194.871 32.0132C196.1 32.3206 196.734 33.6081 196.408 34.7994C196.235 35.3951 195.908 35.9331 195.582 36.4327L194.448 38.2005Z" fill="#FB40EE"/>
<path d="M153.538 36.8557C153.538 36.798 153.577 36.7596 153.634 36.7596C153.673 36.7596 153.73 36.798 153.73 36.8557C153.788 37.24 153.807 37.6435 153.826 38.0278C153.865 38.8733 153.884 39.7187 153.884 40.545C153.884 41.1215 153.807 41.6787 153.673 42.236C153.5 42.8893 153.269 43.5426 152.962 44.1383C152.962 44.1575 152.923 44.1575 152.923 44.1383C152.846 43.9653 152.77 43.8116 152.693 43.6387C152.693 43.6195 152.674 43.581 152.654 43.5618C152.635 43.5618 152.597 43.5618 152.577 43.5618L152.078 43.7732C152.059 43.7732 152.039 43.754 152.039 43.7348C152.251 43.4465 152.462 43.2352 152.654 42.9854C152.943 42.5626 153.135 42.0822 153.192 41.5634C153.269 40.987 153.212 40.3913 153.288 39.8148C153.346 39.1999 153.365 38.5658 153.404 37.9509C153.385 37.6051 153.442 37.2208 153.538 36.8557Z" fill="#FB40EE"/>
<path d="M193.929 41.1215C193.948 41.0639 194.006 41.0255 194.064 41.0447C194.083 41.0447 194.102 41.0639 194.121 41.0831L195.293 42.6588C195.313 42.678 195.332 42.7164 195.313 42.7548C195.293 42.7933 195.236 42.7933 195.178 42.7741L193.987 42.4858C193.871 42.4666 193.737 42.4282 193.679 42.3129C193.622 42.1976 193.641 42.0631 193.679 41.9286L193.929 41.1215Z" fill="#FB40EE"/>
<path d="M148.273 40.7754C148.235 40.7754 148.196 40.737 148.216 40.6986C148.216 40.6794 148.216 40.6794 148.235 40.6602C148.465 40.3719 148.715 40.0645 148.984 39.7762C149.061 39.6994 149.176 39.5841 149.273 39.6417C149.292 39.661 149.33 39.6802 149.349 39.7186C149.445 39.8531 149.849 40.2182 149.849 40.4104C149.849 40.8523 148.734 40.8331 148.273 40.7754Z" fill="#FB40EE"/>
<path d="M170.717 26.3066C171.178 26.3259 171.639 26.4604 172.062 26.6909C172.216 26.7678 172.35 26.8831 172.446 27.0368C172.542 27.2482 172.446 27.498 172.312 27.6902C172.1 27.94 171.793 28.1321 171.466 28.1705C171.14 28.2282 170.794 28.209 170.486 28.1129C170.083 28.0168 169.525 27.8054 169.333 27.4211C169.122 26.9792 169.545 26.5564 169.929 26.4219C170.16 26.3451 170.429 26.2874 170.698 26.3066H170.717Z" fill="#010202"/>
<path d="M184.725 20.8878C184.725 20.9839 184.706 21.0992 184.687 21.1952C184.379 22.6364 183.245 24.1544 181.67 24.2313C180.382 24.3081 179.287 23.943 178.461 22.9631C177.827 22.2329 177.788 21.3297 177.865 20.4074C177.884 20.1576 177.942 19.8886 178 19.6388C178.461 17.7749 180.113 16.9102 181.9 17.602C183.13 18.0823 184.667 19.2545 184.744 20.7149C184.725 20.7725 184.725 20.8301 184.725 20.8878Z" fill="#010202"/>
<path d="M161.743 16.4681C163.914 16.3336 166.451 18.5434 165.26 20.7916C164.971 21.3296 164.549 21.7716 164.03 22.0982C163.569 22.4057 163.05 22.617 162.493 22.6747C161.32 22.79 160.36 22.0021 159.706 21.1182C159.13 20.3496 158.919 19.3504 159.13 18.4089C159.36 17.4097 160.244 16.5834 161.263 16.5066C161.455 16.4873 161.647 16.4681 161.743 16.4681Z" fill="#010202"/>
<path d="M180.267 23.0015C180.267 22.9823 180.286 22.963 180.324 22.9246C180.632 22.5979 181.035 22.3674 181.4 22.0983C181.689 21.9062 181.958 21.6564 182.169 21.3682C182.38 21.0799 182.515 20.7148 182.784 20.465C182.918 20.3305 183.149 20.2729 183.245 20.4843C183.437 20.9262 183.418 21.3874 183.207 21.8293C182.726 22.7901 181.496 23.1936 180.478 23.136H180.382C180.344 23.136 180.286 23.136 180.267 23.0783C180.248 23.0399 180.267 23.0207 180.267 23.0015Z" fill="#FEFEFE"/>
<path d="M180.651 19.4083C180.67 19.4083 180.69 19.4083 180.709 19.4083C180.767 19.4083 180.805 19.4275 180.863 19.4468C180.939 19.5044 180.997 19.5813 180.997 19.6773C180.997 19.9079 180.92 20.1385 180.786 20.3307C180.728 20.4267 180.632 20.4844 180.536 20.5036C180.152 20.542 179.69 19.9656 180.017 19.6581C180.171 19.5044 180.401 19.4083 180.651 19.4083Z" fill="#FEFEFE"/>
<path d="M162.224 20.3115C162.377 20.3115 162.493 20.4268 162.685 20.3884C162.819 20.3499 162.935 20.2731 163.031 20.1578C163.28 19.8888 163.492 19.5237 163.722 19.2162C163.895 18.9856 164.068 18.8319 164.356 19.0049C164.433 19.0625 164.453 19.2547 164.453 19.3892C164.395 20.1578 164.011 20.7535 163.53 21.3107C163.05 21.8487 161.955 21.3876 161.743 20.9648C161.589 20.6382 161.82 20.2923 162.224 20.3115Z" fill="#FEFEFE"/>
<path d="M161.858 17.9092C161.878 17.9668 161.878 18.0437 161.878 18.1013C161.839 18.4472 161.666 18.8699 161.263 18.8699C161.032 18.8699 160.802 18.7162 160.706 18.4856C160.648 18.3896 160.648 18.2743 160.667 18.159C160.706 18.0629 160.782 17.9668 160.878 17.9092C161.128 17.7554 161.743 17.5633 161.858 17.9092Z" fill="#FEFEFE"/>
<path d="M150.64 48.532L150.828 33.7203H194.684V48.532H150.64Z" fill="#595E67" stroke="#595E67" stroke-width="1.5"/>
<path d="M158.951 46.4588C161.864 46.4588 164.227 44.0713 164.227 41.1261C164.227 38.181 161.864 35.7935 158.951 35.7935C156.037 35.7935 153.674 38.181 153.674 41.1261C153.674 44.0713 156.037 46.4588 158.951 46.4588Z" fill="#FBA30B"/>
<path d="M186.237 46.4588C189.15 46.4588 191.513 44.0713 191.513 41.1261C191.513 38.1809 189.15 35.7934 186.237 35.7934C183.323 35.7934 180.96 38.1809 180.96 41.1261C180.96 44.0713 183.323 46.4588 186.237 46.4588Z" fill="#3BB7FB"/>
<path d="M167.766 41.1261H177.421" stroke="#B3B8C1" stroke-miterlimit="10"/>
<path d="M170.18 38.873L167.766 41.1261L170.18 43.3793" stroke="#B3B8C1" stroke-miterlimit="10"/>
<path d="M175.007 38.873L177.421 41.1261L175.007 43.3793" stroke="#B3B8C1" stroke-miterlimit="10"/>
<path d="M155.442 35.093V30.6744" stroke="#595E67" stroke-width="1.5" stroke-miterlimit="10"/>
<path d="M189.907 35.093V30.6744" stroke="#595E67" stroke-width="1.5" stroke-miterlimit="10"/>
<path d="M198.744 51V30.6744H145.721V51" stroke="#595E67" stroke-width="1.5" stroke-miterlimit="10"/>
<path d="M150.5 43C139.736 43 131 51.736 131 62.5C131 65.9905 131.916 69.2665 133.515 72.094L141.881 68.5255L144.455 71.0995L139.346 78.334C139.346 78.334 139.405 78.5485 139.541 78.6265C142.661 80.752 146.424 81.9805 150.48 81.9805C161.244 81.9805 169.98 73.2445 169.98 62.4805C170 51.736 161.264 43 150.5 43Z" fill="#39B002"/>
<path d="M149.291 43C150.11 43 150.91 43 151.729 43C151.767 43.117 151.884 43.078 151.962 43.078C152.528 43.0585 153.093 43.156 153.639 43.2535C155.433 43.5655 157.169 44.092 158.826 44.872C161.498 46.12 163.74 47.914 165.612 50.176C166.938 51.7945 167.972 53.5885 168.713 55.558C169.278 57.0595 169.668 58.6 169.863 60.199C169.903 60.5695 169.824 60.94 170 61.291C170 62.1295 170 62.968 170 63.8065C169.903 63.8455 169.922 63.9235 169.922 64.0015C169.942 64.7035 169.805 65.4055 169.668 66.088C169.356 67.726 168.849 69.325 168.128 70.846C166.88 73.5175 165.086 75.76 162.824 77.632C161.205 78.958 159.412 79.9915 157.442 80.7325C155.941 81.298 154.4 81.688 152.801 81.883C152.431 81.922 152.06 81.844 151.709 82.0195C150.87 82.0195 150.032 82.0195 149.194 82.0195C149.174 81.9415 149.096 81.9415 149.037 81.9415C147.868 81.9025 146.736 81.688 145.606 81.3955C143.441 80.83 141.413 79.933 139.561 78.6655C139.443 78.5875 139.385 78.5095 139.346 78.3535C139.209 77.6515 139.561 77.125 139.872 76.579C140.652 75.253 141.53 73.9855 142.407 72.718C143.051 72.133 143.772 71.6455 144.455 71.119C144.455 72.2305 144.591 73.342 144.923 74.4145C145.157 75.136 145.001 75.292 145.898 74.8045C146.912 74.2585 147.809 73.5175 148.647 72.718C148.667 72.835 148.726 72.9325 148.726 73.0495C148.764 74.356 149.037 75.643 149.349 76.9105C149.603 77.9245 149.896 78.919 150.364 79.855C150.403 79.9135 150.383 80.011 150.5 80.011C150.597 80.011 150.617 79.9135 150.636 79.855C150.753 79.6015 150.851 79.348 150.948 79.0945C151.494 77.632 151.865 76.111 152.099 74.5705C152.177 73.9855 152.255 73.381 152.333 72.796C152.625 73.0495 152.918 73.3225 153.21 73.5565C153.893 74.122 154.614 74.629 155.414 74.9995C155.628 75.097 155.745 75.097 155.843 74.8045C156.272 73.576 156.428 72.3085 156.447 71.0215C157.052 71.4895 157.637 71.977 158.261 72.406C159.626 73.381 161.069 74.239 162.648 74.8435C162.726 74.8825 162.804 74.9605 162.882 74.8825C162.96 74.8045 162.882 74.7265 162.844 74.6485C162.512 73.7125 162.024 72.835 161.537 71.977C160.835 70.7485 159.958 69.637 159.1 68.5255C160.211 68.5255 161.322 68.389 162.395 68.0575C163.194 67.8235 163.194 67.804 162.785 67.0825C162.219 66.0685 161.498 65.1715 160.698 64.333C161.615 64.1965 162.531 64.1185 163.448 63.943C164.93 63.67 166.392 63.2605 167.796 62.6755C167.874 62.6365 168.011 62.617 168.011 62.5C168.011 62.383 167.874 62.383 167.796 62.344C165.924 61.5055 163.955 61.0765 161.946 60.8035C161.537 60.745 161.108 60.823 160.718 60.6475C160.991 60.3355 161.284 60.0235 161.537 59.7115C162.103 59.029 162.61 58.3075 163 57.508C163.117 57.274 163.097 57.1375 162.805 57.04C161.615 56.6305 160.386 56.455 159.119 56.455C159.684 55.714 160.289 54.9925 160.796 54.2125C161.595 53.0035 162.337 51.7555 162.844 50.371C162.882 50.293 162.98 50.1955 162.882 50.098C162.785 50.0005 162.688 50.1175 162.61 50.137C161.323 50.6245 160.133 51.307 158.982 52.048C158.124 52.594 157.344 53.257 156.525 53.881C156.525 52.7695 156.389 51.658 156.057 50.5855C155.823 49.786 155.804 49.786 155.082 50.1955C154.068 50.761 153.171 51.4825 152.333 52.282C152.157 52.048 152.274 51.7555 152.255 51.502C152.079 50.254 151.904 49.006 151.572 47.797C151.319 46.8805 151.065 45.9835 150.636 45.1255C150.617 45.067 150.617 44.95 150.519 44.9695C150.441 44.9695 150.403 45.0475 150.364 45.1255C150.266 45.3595 150.149 45.613 150.071 45.847C149.31 47.8945 148.901 50.02 148.686 52.204C148.394 51.9505 148.101 51.6775 147.809 51.4435C147.126 50.878 146.405 50.371 145.606 50.0005C145.391 49.903 145.274 49.903 145.176 50.1955C144.747 51.424 144.591 52.6915 144.572 53.9785C143.967 53.5105 143.382 53.023 142.758 52.594C141.393 51.619 139.95 50.761 138.371 50.1565C138.293 50.1175 138.215 50.059 138.137 50.137C138.059 50.215 138.137 50.293 138.176 50.371C138.507 51.3265 138.995 52.204 139.502 53.062C140.204 54.271 141.062 55.3825 141.92 56.4745C140.789 56.4745 139.677 56.6305 138.586 56.9425C137.825 57.157 137.825 57.2155 138.195 57.8785C138.78 58.8925 139.502 59.809 140.301 60.667C140.184 60.6865 140.068 60.745 139.97 60.745C138.663 60.784 137.377 61.057 136.109 61.369C135.095 61.6225 134.101 61.915 133.164 62.383C133.106 62.422 133.008 62.4025 133.008 62.5195C133.008 62.617 133.106 62.6365 133.164 62.656C133.477 62.7925 133.808 62.929 134.12 63.046C136.109 63.787 138.195 64.138 140.301 64.3525C140.028 64.6645 139.736 64.9765 139.483 65.2885C138.917 65.971 138.41 66.6925 138.02 67.492C137.903 67.726 137.922 67.8625 138.215 67.96C139.405 68.3695 140.633 68.545 141.901 68.545C141.823 68.6425 141.744 68.7205 141.686 68.818C141.627 68.8375 141.53 68.8375 141.491 68.9155H141.471V68.935C140.243 69.637 139.014 70.3585 137.766 71.041C136.831 71.5675 135.875 72.0745 134.861 72.445C134.178 72.6985 133.769 72.5425 133.535 72.1135C132.267 69.793 131.429 67.375 131.136 64.7815C131.097 64.45 131.195 64.099 131 63.8065C131 62.9485 131 62.071 131 61.213C131.097 61.174 131.078 61.096 131.078 61.018C131.058 60.316 131.195 59.614 131.312 58.9315C131.624 57.2935 132.131 55.6945 132.852 54.1735C134.12 51.502 135.914 49.2595 138.176 47.3875C139.775 46.0615 141.589 45.028 143.538 44.287C145.04 43.7215 146.58 43.3315 148.179 43.1365C148.55 43.0975 148.94 43.1755 149.291 43Z" fill="#39B002"/>
<path d="M144.553 53.959C144.553 52.672 144.709 51.4045 145.157 50.176C145.255 49.8835 145.372 49.8835 145.586 49.981C146.386 50.3515 147.107 50.8585 147.79 51.424C148.082 51.6775 148.375 51.931 148.667 52.1845C149.389 53.0035 150.052 53.8615 150.539 54.934C151.007 53.9005 151.651 53.062 152.333 52.2625C153.172 51.463 154.069 50.7415 155.083 50.176C155.804 49.7665 155.824 49.7665 156.058 50.566C156.389 51.6385 156.526 52.7305 156.526 53.8615C156.526 54.778 156.389 55.675 156.136 56.5525C156.038 56.923 156.058 56.9425 156.448 56.8255C157.013 56.6695 157.598 56.5135 158.203 56.5135C158.3 56.5915 158.339 56.5525 158.359 56.455C158.612 56.455 158.866 56.4355 159.119 56.4355C160.387 56.4355 161.615 56.611 162.805 57.0205C163.097 57.118 163.117 57.2545 163 57.4885C162.61 58.288 162.122 59.029 161.537 59.692C161.264 60.004 160.991 60.316 160.718 60.628C160.66 60.667 160.621 60.6865 160.562 60.7255C160.367 60.6085 160.367 60.7645 160.328 60.901C160.114 61.135 159.88 61.3495 159.568 61.486C159.353 61.4665 159.158 61.5055 159.178 61.7785C159.041 61.8565 158.924 61.9345 158.788 62.0125C158.534 61.954 158.086 62.1685 157.949 62.4025C157.949 62.4415 157.949 62.4805 157.949 62.5195C158.066 62.7535 158.515 62.968 158.788 62.9095C158.924 62.9875 159.041 63.0655 159.178 63.1435C159.197 63.3385 159.217 63.514 159.49 63.358C159.938 63.6115 160.309 63.982 160.699 64.294C161.498 65.1325 162.22 66.0295 162.785 67.0435C163.195 67.765 163.195 67.7845 162.395 68.0185C161.323 68.35 160.231 68.4865 159.1 68.4865C158.866 68.4865 158.632 68.467 158.417 68.467C158.378 68.3305 158.3 68.311 158.183 68.4085C157.442 68.4085 156.74 68.233 156.058 67.96C156.038 67.8235 155.999 67.687 155.824 67.648C155.824 67.609 155.824 67.57 155.824 67.531C155.824 67.4335 155.785 67.3555 155.687 67.336C155.336 66.6535 154.966 65.971 154.615 65.2885C154.615 65.1715 154.595 65.074 154.459 65.0545C154.459 64.9375 154.439 64.84 154.303 64.8205C154.069 64.5475 153.854 64.255 153.62 63.982C153.737 63.7285 153.542 63.787 153.406 63.748C153.269 63.592 153.269 63.5335 153.503 63.514C153.854 63.4945 154.205 63.436 154.556 63.397C155.453 63.28 156.331 62.9875 157.208 62.7535C157.306 62.8315 157.345 62.7925 157.364 62.695C157.501 62.617 157.637 62.5585 157.832 62.461C157.637 62.3635 157.501 62.2855 157.364 62.227C157.345 62.1295 157.306 62.0905 157.208 62.1685C155.999 61.798 154.771 61.486 153.503 61.3885C153.23 61.369 153.503 61.2325 153.542 61.1545C153.601 61.213 153.659 61.252 153.737 61.174C153.815 61.096 153.776 61.018 153.718 60.94C153.952 60.667 154.166 60.3745 154.4 60.1015C154.595 60.0235 154.849 59.965 154.712 59.6335C155.063 58.9705 155.414 58.3075 155.765 57.6445C155.999 57.547 156.019 57.4885 155.863 57.352C155.882 57.274 155.96 57.1765 155.882 57.0985C155.785 57.001 155.687 57.079 155.609 57.118C154.283 57.6835 153.035 58.366 151.963 59.341C151.885 59.3995 151.807 59.5165 151.709 59.458C151.612 59.419 151.67 59.302 151.651 59.224C151.534 58.405 151.436 57.5665 151.183 56.767C151.007 56.182 150.832 55.5775 150.539 54.973C149.896 56.4745 149.545 57.9955 149.408 59.5945C149.233 59.4775 149.116 59.3995 149.018 59.302C147.965 58.3465 146.737 57.664 145.45 57.118C145.372 57.079 145.294 56.9815 145.216 57.0985C145.157 57.1765 145.235 57.274 145.255 57.352C145.723 58.483 146.308 59.536 147.068 60.511C147.283 60.784 147.595 60.979 147.712 61.369C146.152 61.4665 144.67 61.8175 143.149 62.461C144.65 63.1045 146.113 63.4165 147.692 63.553C147.575 63.7285 147.497 63.8455 147.4 63.943C146.425 65.0155 145.742 66.2635 145.177 67.5895C145.138 67.6675 145.079 67.765 145.157 67.8235C145.235 67.882 145.333 67.8235 145.411 67.804C145.606 68.0185 145.664 67.8625 145.703 67.7065C146.366 67.3555 147.029 67.0045 147.692 66.6535C148.004 66.8095 148.063 66.556 148.16 66.3415C148.433 66.1075 148.726 65.893 148.999 65.659C149.116 65.7955 149.252 65.6785 149.369 65.659C149.447 66.1075 149.525 66.556 149.584 67.0045C149.681 67.7065 149.974 68.35 150.071 69.052C150.071 69.169 150.052 69.286 150.208 69.325C150.286 69.52 150.364 69.7345 150.442 69.9295C150.169 70.144 150.013 70.3975 150.052 70.768C149.974 70.9045 149.896 71.0215 149.818 71.158C149.623 71.1775 149.447 71.197 149.603 71.47C149.369 71.938 148.979 72.2695 148.667 72.679C147.829 73.4785 146.932 74.2 145.918 74.7655C145.021 75.253 145.177 75.097 144.943 74.3755C144.611 73.303 144.475 72.211 144.475 71.08C144.475 70.846 144.494 70.612 144.494 70.3975C144.631 70.3585 144.65 70.2805 144.553 70.1635C144.533 69.5785 144.689 69.013 144.845 68.4475C144.962 68.0185 144.943 67.9795 144.533 68.116C143.675 68.3695 142.778 68.506 141.881 68.506C140.614 68.506 139.385 68.3305 138.196 67.921C137.903 67.8235 137.884 67.687 138.001 67.453C138.391 66.6535 138.878 65.9125 139.463 65.2495C139.736 64.9375 140.009 64.6255 140.282 64.3135C141.121 63.6115 141.979 62.929 143.051 62.4805C141.959 62.0125 141.101 61.3495 140.282 60.6475C139.483 59.809 138.761 58.8925 138.176 57.859C137.786 57.1765 137.806 57.1375 138.566 56.923C139.658 56.611 140.77 56.455 141.901 56.455C142.973 56.455 144.007 56.65 145.079 56.9815C144.748 55.9675 144.553 54.9925 144.553 53.959Z" fill="#FA40ED"/>
<path d="M150.052 70.807C149.993 70.456 150.169 70.183 150.442 69.9685C150.793 69.403 150.929 68.7595 151.124 68.1355C151.397 67.2385 151.514 66.322 151.612 65.386C151.826 65.4445 151.963 65.6005 152.099 65.7175C153.152 66.634 154.342 67.297 155.629 67.843C155.804 67.921 155.863 67.8625 155.843 67.687C156.019 67.726 156.058 67.843 156.077 67.999C155.882 68.0575 155.999 68.194 156.038 68.272C156.311 69.169 156.467 70.105 156.487 71.041C156.487 72.328 156.331 73.5955 155.882 74.824C155.785 75.1165 155.687 75.1165 155.453 75.019C154.654 74.6485 153.932 74.1415 153.25 73.576C152.957 73.3225 152.665 73.069 152.372 72.8155C151.651 71.9965 150.988 71.1385 150.5 70.105C150.305 70.339 150.169 70.573 150.052 70.807Z" fill="#FA40ED"/>
<path d="M160.718 64.333C160.309 64.021 159.958 63.6505 159.509 63.397C159.451 63.28 159.314 63.241 159.197 63.1825C159.061 63.1045 158.944 63.0265 158.807 62.9485C158.554 62.7535 158.281 62.617 157.969 62.5585C157.969 62.5195 157.969 62.4805 157.969 62.4415C158.281 62.383 158.554 62.227 158.807 62.0515C158.944 61.9735 159.061 61.8955 159.197 61.8175C159.353 61.759 159.49 61.6615 159.587 61.525C159.88 61.3885 160.114 61.174 160.348 60.94C160.445 60.9205 160.523 60.862 160.582 60.7645C160.64 60.7255 160.679 60.706 160.738 60.667C161.128 60.8425 161.557 60.7645 161.966 60.823C163.975 61.096 165.944 61.525 167.816 62.3635C167.894 62.4025 168.031 62.4025 168.031 62.5195C168.031 62.6365 167.894 62.656 167.816 62.695C166.412 63.28 164.969 63.6895 163.468 63.9625C162.532 64.1185 161.615 64.1965 160.718 64.333Z" fill="#FA9EF4"/>
<path d="M140.282 60.667C141.12 61.369 141.959 62.0515 143.051 62.5C141.959 62.968 141.12 63.6505 140.282 64.333C138.176 64.1185 136.089 63.7675 134.1 63.0265C133.769 62.9095 133.457 62.773 133.145 62.6365C133.086 62.617 132.989 62.578 132.989 62.5C132.989 62.4025 133.086 62.4025 133.145 62.3635C134.081 61.8955 135.075 61.603 136.089 61.3495C137.357 61.0375 138.644 60.784 139.95 60.7255C140.067 60.745 140.184 60.6865 140.282 60.667Z" fill="#FA9EF4"/>
<path d="M152.333 52.3015C151.651 53.101 151.007 53.9395 150.539 54.973C150.052 53.92 149.389 53.0425 148.667 52.2235C148.882 50.059 149.291 47.914 150.052 45.8665C150.149 45.613 150.247 45.379 150.344 45.145C150.383 45.067 150.403 45.0085 150.5 44.989C150.598 44.989 150.598 45.0865 150.617 45.145C151.046 46.003 151.3 46.9 151.553 47.8165C151.885 49.0255 152.08 50.2735 152.236 51.5215C152.294 51.775 152.177 52.048 152.333 52.3015Z" fill="#FA9EF4"/>
<path d="M150.052 70.807C150.188 70.573 150.325 70.3584 150.481 70.0854C150.949 71.1189 151.612 71.977 152.353 72.796C152.275 73.381 152.197 73.9854 152.119 74.5704C151.904 76.1304 151.534 77.632 150.968 79.0945C150.871 79.348 150.754 79.6015 150.656 79.855C150.637 79.9135 150.598 80.011 150.52 80.011C150.422 80.011 150.422 79.9135 150.383 79.855C149.915 78.919 149.623 77.9244 149.369 76.9104C149.057 75.643 148.804 74.356 148.745 73.0495C148.745 72.9325 148.687 72.8349 148.667 72.7179C148.979 72.3084 149.369 71.9575 149.603 71.5089C149.72 71.4504 149.759 71.314 149.818 71.197C149.896 71.0605 149.974 70.924 150.052 70.807Z" fill="#FA9EF4"/>
<path d="M144.553 53.959C144.553 54.973 144.748 55.9675 145.079 57.001C144.007 56.6695 142.973 56.455 141.901 56.4745C141.043 55.3825 140.185 54.271 139.483 53.062C138.976 52.1845 138.488 51.307 138.157 50.371C138.137 50.293 138.059 50.215 138.118 50.137C138.196 50.059 138.274 50.137 138.352 50.1565C139.931 50.7415 141.374 51.619 142.739 52.594C143.363 53.023 143.948 53.5105 144.553 53.959Z" fill="#FA9EF4"/>
<path d="M156.448 71.041C156.428 70.0855 156.292 69.169 155.999 68.272C155.98 68.194 155.843 68.0575 156.038 67.999C156.721 68.272 157.423 68.4475 158.164 68.4475C158.222 68.5255 158.3 68.5255 158.398 68.506C158.632 68.506 158.866 68.5255 159.08 68.5255C159.938 69.637 160.816 70.7485 161.518 71.977C162.005 72.835 162.493 73.7125 162.824 74.6485C162.844 74.7265 162.922 74.8045 162.863 74.8825C162.785 74.9605 162.707 74.8825 162.629 74.8435C161.05 74.2585 159.607 73.381 158.242 72.406C157.637 71.977 157.052 71.4895 156.448 71.041Z" fill="#FA9EF4"/>
<path d="M144.494 70.417C144.494 70.651 144.475 70.885 144.475 71.0995C143.792 71.626 143.09 72.133 142.427 72.6985C141.803 73.0495 141.179 73.42 140.575 73.771C139.912 74.161 139.21 74.512 138.488 74.785C138.371 74.824 138.254 74.9605 138.137 74.863C138.001 74.746 138.137 74.59 138.176 74.473C138.722 73.1665 139.385 71.938 140.185 70.7875C140.536 70.2805 140.906 69.8125 141.257 69.325C141.355 69.208 141.433 69.0715 141.433 68.9155V68.896H141.452C141.55 68.896 141.608 68.857 141.647 68.7985C141.725 68.701 141.803 68.623 141.862 68.5255C142.759 68.5255 143.636 68.389 144.514 68.1355C144.923 68.0185 144.943 68.038 144.826 68.467C144.67 69.0325 144.514 69.5785 144.533 70.183C144.494 70.261 144.475 70.339 144.494 70.417Z" fill="#FA9EF4"/>
<path d="M159.119 56.4745C158.865 56.4745 158.612 56.494 158.358 56.494C158.3 56.494 158.241 56.494 158.202 56.5525C157.598 56.5525 157.032 56.7085 156.447 56.8645C156.057 56.962 156.038 56.962 156.135 56.5915C156.389 55.714 156.525 54.817 156.525 53.9005C157.344 53.296 158.124 52.633 158.982 52.0675C160.133 51.3265 161.322 50.644 162.609 50.1565C162.687 50.1175 162.785 50.02 162.882 50.1175C162.98 50.215 162.863 50.3125 162.843 50.3905C162.336 51.7555 161.595 53.0035 160.796 54.232C160.269 55.012 159.665 55.7335 159.119 56.4745Z" fill="#FA9EF4"/>
<path d="M141.667 68.7985C141.628 68.8765 141.569 68.9155 141.472 68.896C141.511 68.818 141.608 68.818 141.667 68.7985Z" fill="#FEFEFE"/>
<path d="M155.824 67.687C155.843 67.8625 155.785 67.921 155.609 67.843C154.322 67.297 153.133 66.634 152.08 65.7175C151.943 65.6005 151.807 65.4445 151.592 65.386C151.495 66.322 151.378 67.2385 151.105 68.1355C150.91 68.7595 150.773 69.403 150.422 69.9685C150.344 69.7735 150.266 69.559 150.188 69.364C150.208 69.247 150.13 69.169 150.052 69.091C149.954 68.389 149.642 67.7455 149.564 67.0435C149.506 66.595 149.428 66.1465 149.35 65.698C149.35 65.62 149.35 65.542 149.35 65.464C149.33 65.4055 149.291 65.425 149.272 65.464C149.155 65.5225 149.038 65.581 148.979 65.698C148.706 65.932 148.414 66.1465 148.141 66.3805C147.965 66.439 147.809 66.5365 147.673 66.6925C147.01 67.0435 146.347 67.3945 145.684 67.7455C145.586 67.7845 145.489 67.8235 145.391 67.843C145.313 67.8625 145.216 67.9405 145.138 67.8625C145.06 67.7845 145.118 67.7065 145.157 67.6285C145.723 66.3025 146.405 65.0545 147.38 63.982C147.478 63.8845 147.536 63.7675 147.673 63.592C146.093 63.4555 144.631 63.1435 143.129 62.5C144.65 61.8565 146.132 61.525 147.692 61.408C147.575 61.018 147.263 60.823 147.049 60.55C146.308 59.575 145.723 58.522 145.235 57.391C145.196 57.313 145.118 57.235 145.196 57.1375C145.274 57.04 145.352 57.1375 145.43 57.157C146.737 57.703 147.965 58.3855 148.999 59.341C149.096 59.4385 149.213 59.497 149.389 59.6335C149.525 58.015 149.876 56.5135 150.52 55.012C150.832 55.6165 150.988 56.221 151.163 56.806C151.417 57.6055 151.514 58.4245 151.631 59.263C151.651 59.341 151.592 59.458 151.69 59.497C151.787 59.536 151.885 59.4385 151.943 59.38C153.016 58.405 154.264 57.7225 155.59 57.157C155.687 57.118 155.785 57.04 155.863 57.1375C155.941 57.2155 155.863 57.313 155.843 57.391C155.804 57.4885 155.765 57.586 155.746 57.6835C155.395 58.3465 155.044 59.0095 154.693 59.6725C154.537 59.7895 154.439 59.9455 154.381 60.1405C154.147 60.4135 153.932 60.706 153.698 60.979C153.62 61.018 153.562 61.096 153.542 61.1935C153.523 61.2715 153.23 61.408 153.503 61.4275C154.771 61.525 155.999 61.837 157.208 62.2075C157.247 62.266 157.306 62.266 157.364 62.266C157.501 62.344 157.637 62.4025 157.832 62.5C157.637 62.5975 157.501 62.6755 157.364 62.734C157.306 62.734 157.247 62.734 157.208 62.7925C156.331 63.0265 155.473 63.3385 154.556 63.436C154.205 63.475 153.854 63.5335 153.503 63.553C153.269 63.5725 153.269 63.631 153.406 63.787C153.445 63.8845 153.523 63.9625 153.62 64.021C153.854 64.294 154.069 64.5865 154.303 64.8595C154.322 64.957 154.361 65.035 154.459 65.0935C154.459 65.191 154.517 65.269 154.615 65.3275C154.966 66.01 155.336 66.6925 155.687 67.375C155.687 67.4725 155.746 67.531 155.824 67.57C155.824 67.609 155.824 67.648 155.824 67.687ZM151.28 61.7785C151.534 61.096 151.67 60.4525 151.631 59.692C151.144 60.199 150.812 60.667 150.481 61.252C150.208 60.667 149.896 60.2185 149.428 59.7895C149.408 60.511 149.564 61.1545 149.779 61.8175C149.135 61.564 148.531 61.447 147.829 61.4275C148.258 61.8955 148.726 62.188 149.252 62.4805C148.687 62.773 148.199 63.0655 147.77 63.553C148.472 63.592 149.077 63.436 149.701 63.241C149.447 63.904 149.311 64.567 149.35 65.3275C149.837 64.84 150.169 64.3525 150.481 63.7675C150.773 64.333 151.066 64.801 151.534 65.2105C151.553 64.489 151.397 63.865 151.183 63.1825C151.826 63.436 152.431 63.553 153.113 63.5725C152.684 63.1045 152.216 62.8315 151.69 62.5195C152.275 62.2465 152.743 61.9345 153.191 61.447C152.528 61.4275 151.924 61.564 151.28 61.7785Z" fill="#FA9EF4"/>
<path d="M158.807 62.032C158.554 62.227 158.281 62.3635 157.969 62.422C158.086 62.2075 158.534 61.993 158.807 62.032Z" fill="#FA40ED"/>
<path d="M157.969 62.5585C158.281 62.617 158.554 62.773 158.807 62.9485C158.534 63.007 158.086 62.812 157.969 62.5585Z" fill="#FA40ED"/>
<path d="M154.38 60.1405C154.439 59.965 154.536 59.809 154.692 59.6725C154.829 60.004 154.575 60.043 154.38 60.1405Z" fill="#FA40ED"/>
<path d="M147.672 66.6925C147.789 66.5365 147.945 66.439 148.14 66.3805C148.043 66.5755 148.004 66.829 147.672 66.6925Z" fill="#FA40ED"/>
<path d="M149.35 65.4639C149.35 65.5419 149.35 65.6199 149.35 65.6979C149.233 65.6979 149.096 65.8344 148.979 65.6979C149.038 65.5809 149.155 65.5224 149.272 65.4639C149.291 65.4639 149.33 65.4639 149.35 65.4639Z" fill="#FA40ED"/>
<path d="M159.587 61.525C159.49 61.6615 159.353 61.759 159.197 61.8175C159.178 61.525 159.353 61.5055 159.587 61.525Z" fill="#FA40ED"/>
<path d="M149.817 71.1775C149.759 71.2945 149.72 71.4115 149.603 71.4895C149.447 71.236 149.622 71.197 149.817 71.1775Z" fill="#FA40ED"/>
<path d="M159.177 63.1825C159.294 63.241 159.411 63.28 159.489 63.397C159.236 63.553 159.197 63.3775 159.177 63.1825Z" fill="#FA40ED"/>
<path d="M153.522 61.174C153.542 61.0765 153.6 61.018 153.678 60.9595C153.756 61.0375 153.776 61.096 153.698 61.1935C153.659 61.2715 153.581 61.2325 153.522 61.174Z" fill="#FA40ED"/>
<path d="M155.746 57.703C155.785 57.6055 155.824 57.508 155.843 57.4105C155.98 57.547 155.96 57.6055 155.746 57.703Z" fill="#FA40ED"/>
<path d="M145.391 67.843C145.488 67.804 145.586 67.7845 145.683 67.7455C145.644 67.9015 145.586 68.0575 145.391 67.843Z" fill="#FA40ED"/>
<path d="M153.62 64.0209C153.523 63.9624 153.445 63.8844 153.406 63.7869C153.523 63.8259 153.737 63.7674 153.62 64.0209Z" fill="#FA40ED"/>
<path d="M160.562 60.745C160.504 60.8425 160.426 60.8815 160.328 60.9205C160.367 60.8035 160.348 60.6475 160.562 60.745Z" fill="#FA40ED"/>
<path d="M144.494 70.417C144.475 70.339 144.494 70.2415 144.553 70.183C144.65 70.3 144.631 70.378 144.494 70.417Z" fill="#FA40ED"/>
<path d="M158.417 68.506C158.339 68.5255 158.241 68.506 158.183 68.4475C158.3 68.35 158.378 68.3695 158.417 68.506Z" fill="#FA40ED"/>
<path d="M154.458 65.0934C154.361 65.0544 154.322 64.9764 154.302 64.8594C154.439 64.8789 154.458 64.9764 154.458 65.0934Z" fill="#FA40ED"/>
<path d="M154.614 65.3274C154.517 65.2689 154.478 65.1909 154.458 65.0934C154.595 65.1129 154.614 65.2104 154.614 65.3274Z" fill="#FA40ED"/>
<path d="M150.052 69.091C150.13 69.169 150.188 69.247 150.188 69.364C150.052 69.3055 150.052 69.208 150.052 69.091Z" fill="#FA40ED"/>
<path d="M155.824 67.57C155.746 67.531 155.687 67.4725 155.687 67.375C155.785 67.3945 155.824 67.4725 155.824 67.57Z" fill="#FA40ED"/>
<path d="M158.183 56.5525C158.222 56.494 158.28 56.494 158.339 56.494C158.319 56.5915 158.28 56.6305 158.183 56.5525Z" fill="#FA40ED"/>
<path d="M157.364 62.266C157.306 62.266 157.247 62.266 157.208 62.2075C157.286 62.11 157.325 62.1685 157.364 62.266Z" fill="#FA40ED"/>
<path d="M157.208 62.7924C157.247 62.7339 157.306 62.7339 157.364 62.7339C157.325 62.8314 157.286 62.8899 157.208 62.7924Z" fill="#FA40ED"/>
<path d="M151.28 61.7785C151.923 61.564 152.528 61.4275 153.23 61.447C152.781 61.915 152.294 62.2465 151.728 62.5195C152.255 62.8315 152.742 63.1045 153.152 63.5725C152.469 63.5725 151.865 63.4555 151.221 63.1825C151.455 63.865 151.611 64.489 151.572 65.2105C151.104 64.7815 150.812 64.333 150.519 63.7675C150.207 64.3525 149.876 64.8205 149.388 65.3275C149.349 64.567 149.486 63.9235 149.739 63.241C149.115 63.436 148.511 63.592 147.809 63.553C148.257 63.085 148.745 62.773 149.291 62.4805C148.764 62.188 148.296 61.8955 147.867 61.4275C148.569 61.4275 149.174 61.5445 149.817 61.8175C149.583 61.135 149.427 60.511 149.466 59.7895C149.915 60.2185 150.227 60.667 150.519 61.252C150.831 60.667 151.182 60.1795 151.67 59.692C151.67 60.433 151.533 61.096 151.28 61.7785ZM150.578 62.344C150.558 62.071 150.656 61.759 150.422 61.5055C150.422 61.7785 150.422 62.071 150.422 62.344C150.149 62.5 149.817 62.344 149.525 62.5195C149.817 62.5585 150.129 62.5975 150.422 62.6365C150.441 62.9095 150.344 63.2215 150.519 63.475C150.5 63.202 150.734 62.89 150.422 62.6365C150.422 62.539 150.48 62.422 150.422 62.3245C150.48 62.344 150.519 62.344 150.578 62.344C150.812 62.7925 151.182 62.4805 151.455 62.5585C151.455 62.5195 151.475 62.5 151.475 62.461C151.182 62.422 150.87 62.383 150.578 62.344ZM149.876 63.085C149.895 63.085 149.895 63.1045 149.915 63.085V63.0655C149.895 63.0655 149.895 63.0655 149.895 63.0655C149.876 63.046 149.876 63.0655 149.876 63.085ZM151.124 61.9345V61.915C151.104 61.915 151.104 61.915 151.085 61.9345V61.954C151.104 61.954 151.124 61.954 151.124 61.9345Z" fill="#FA40ED"/>
<path d="M149.349 65.464C149.33 65.464 149.291 65.464 149.271 65.464C149.291 65.425 149.33 65.425 149.349 65.464Z" fill="#FA40ED"/>
<path d="M150.422 62.344C150.48 62.4415 150.422 62.5585 150.422 62.656C150.129 62.617 149.817 62.578 149.525 62.539C149.817 62.344 150.149 62.5 150.422 62.344Z" fill="#FA9BF4"/>
<path d="M150.578 62.344C150.871 62.383 151.183 62.422 151.475 62.461C151.475 62.5 151.456 62.5195 151.456 62.5585C151.163 62.4805 150.793 62.812 150.578 62.344Z" fill="#FA9BF4"/>
<path d="M150.422 62.344C150.422 62.071 150.422 61.7785 150.422 61.5055C150.636 61.7785 150.539 62.071 150.578 62.344C150.519 62.344 150.48 62.344 150.422 62.344Z" fill="#FA9BF4"/>
<path d="M150.422 62.6559C150.734 62.9094 150.5 63.2214 150.519 63.4944C150.363 63.2214 150.461 62.9289 150.422 62.6559Z" fill="#FA9BF4"/>
<path d="M149.876 63.0851V63.0656H149.895V63.0851H149.876Z" fill="#FA9BF4"/>
<path d="M151.123 61.934C151.104 61.934 151.104 61.934 151.085 61.953V61.934C151.085 61.934 151.104 61.934 151.123 61.915V61.934Z" fill="#FA9BF4"/>
<path d="M135.766 84.8402L127.421 53.3851H122" stroke="#595E67" stroke-width="1.5" stroke-miterlimit="10"/>
<path d="M129.204 60.1612H172L165.402 84.8402H134.233L131.879 90.8674H162.763" stroke="#595E67" stroke-width="1.5" stroke-miterlimit="10"/>
<path d="M144.218 60.1612V84.8402" stroke="#595E67" stroke-width="1.5" stroke-miterlimit="10"/>
<path d="M157.093 60.1612V84.8402" stroke="#595E67" stroke-width="1.5" stroke-miterlimit="10"/>
<path d="M169.682 68.756H131.486" stroke="#595E67" stroke-width="1.5" stroke-miterlimit="10"/>
<path d="M167.506 76.8873H133.662" stroke="#595E67" stroke-width="1.5" stroke-miterlimit="10"/>
<path d="M138.227 98C140.196 98 141.793 96.4033 141.793 94.4336C141.793 92.464 140.196 90.8673 138.227 90.8673C136.257 90.8673 134.66 92.464 134.66 94.4336C134.66 96.4033 136.257 98 138.227 98Z" stroke="#595E67" stroke-width="1.5" stroke-miterlimit="10"/>
<path d="M155.381 98C157.351 98 158.947 96.4033 158.947 94.4336C158.947 92.464 157.351 90.8673 155.381 90.8673C153.411 90.8673 151.815 92.464 151.815 94.4336C151.815 96.4033 153.411 98 155.381 98Z" stroke="#595E67" stroke-width="1.5" stroke-miterlimit="10"/>
<path d="M112.24 95.8221V95.8511C112.356 96.257 112.472 96.6629 112.588 97.0687C112.588 97.0977 112.588 97.1267 112.588 97.1557C112.588 97.1847 112.53 97.2137 112.472 97.2137C111.139 97.3587 109.979 96.7498 109.051 95.8511C108.848 95.6482 108.674 95.4162 108.385 95.3003C108.095 95.1843 107.776 95.2713 107.515 95.3582C105.717 96.054 103.891 96.6339 102.006 97.0398C98.5564 97.7645 94.9904 97.9965 91.4244 97.9385C84.0026 97.8515 76.5517 96.7208 69.5358 94.3145C67.9122 93.7927 66.3467 93.1259 64.8391 92.3141C64.0563 91.9082 63.3316 91.4154 62.6358 90.9225C62.1429 90.5456 61.4471 89.6759 60.8673 90.4007C59.5626 91.9952 57.9681 94.3725 55.5908 93.7347L56.8084 92.0242L54.6341 92.1982L57.3303 87.8494C56.9244 87.6465 56.4026 87.3566 55.8807 87.1536C55.6488 87.0666 55.3879 87.0666 55.1849 87.1826C53.7063 87.9944 50.9811 88.4003 49.5026 87.3566C49.2416 87.1826 49.0677 86.9507 48.9807 86.6608C48.7778 86.0519 49.1547 85.675 49.5026 85.3271C50.2853 84.5444 51.0101 83.6746 51.6769 82.8049C51.7929 82.6599 51.8799 82.486 51.9089 82.283C51.8799 82.1381 51.8219 81.9641 51.7059 81.8481C49.9664 79.3549 48.8357 76.4847 48.3429 73.4696C47.85 70.4544 47.7051 67.2074 49.1837 64.4242C49.5895 63.6414 50.1694 62.8876 50.9521 62.4238C51.7639 61.9309 52.7496 61.786 53.7063 61.786C54.837 61.757 56.0547 61.9019 56.8954 62.6557C56.7215 62.4818 57.8811 60.2204 58.0261 59.9305C58.9538 58.104 60.1135 56.4225 61.5051 54.9149C62.0269 54.3641 63.2446 53.6103 63.3895 52.8565C64.0853 48.8267 66.4337 46.1595 70.1736 44.6809C72.9278 43.6082 75.595 43.8111 78.1463 45.2317C78.6101 45.4927 78.958 45.4347 79.4509 45.3187C80.7845 45.0288 82.1181 44.8259 83.4517 44.7099C87.4816 44.362 91.4534 44.8838 95.3673 45.8696C96.353 46.1305 97.1068 46.1305 98.0345 45.5796C99.861 44.5359 101.948 44.478 104.007 44.6519C107.254 44.9128 109.631 46.5364 111.545 49.1456C112.559 50.5372 112.82 52.1317 113.342 53.6683C113.458 53.9872 113.603 54.3061 113.777 54.567C114.763 56.1326 115.777 57.6981 116.763 59.2927C117.778 60.9162 118.619 62.6267 119.343 64.4242C119.691 65.2939 120.039 66.1927 120.387 67.0914C120.677 67.8452 120.764 68.8019 121.605 69.1788C122.011 69.3818 122.503 69.4397 122.938 69.5267C126.069 70.2515 128.215 73.1797 127.983 76.3977C127.838 78.1082 127.055 79.6738 126.127 81.1234C125.2 82.5439 124.127 83.8776 123.315 85.3851C123.228 85.5301 123.17 85.675 123.17 85.849C123.199 86.0229 123.257 86.1679 123.373 86.2839C123.866 86.9217 124.533 87.3855 125.287 87.6465C125.779 87.7914 126.33 87.8784 126.562 88.4292C126.649 88.6902 126.649 88.9801 126.562 89.212C126.33 89.7918 125.837 90.1108 125.287 90.3427C123.663 91.0385 121.837 91.0385 120.184 90.3427C119.981 90.2557 119.72 90.1397 119.517 90.2267C119.401 90.2847 119.285 90.3717 119.198 90.4876C118.474 91.3284 117.662 92.0532 116.763 92.72C116.154 93.1549 115.516 93.5608 114.821 93.9087C114.647 93.9956 114.444 94.1116 114.357 94.3145C114.328 94.4885 114.328 94.6914 114.386 94.8654C114.444 95.1553 114.502 95.4452 114.531 95.7351C114.531 95.7641 114.531 95.8221 114.502 95.8511C114.502 95.8511 114.473 95.8511 114.444 95.8511C113.748 95.8801 113.023 95.8511 112.327 95.8511C112.269 95.7931 112.24 95.7931 112.24 95.8221Z" fill="#010202"/>
<path d="M106.384 86.9219C106.355 88.2556 106.21 89.5602 105.978 90.8358C105.891 91.3287 105.775 91.8505 105.456 92.2274C105.137 92.6043 104.616 92.8072 104.152 92.9522C98.9623 94.6337 93.106 94.6917 87.7136 94.4018C81.1325 94.0539 73.7106 92.9522 67.7673 89.9081C66.7236 89.3572 65.7089 88.7194 64.9261 87.8207C63.6505 86.3711 63.4476 84.0808 63.4186 82.2253C63.3896 80.0509 63.9404 77.9055 65.0421 76.0501C66.5497 73.5278 69.5068 72.0202 72.29 71.4114C75.3341 70.7446 78.4652 70.9765 81.5383 71.1795C87.2787 71.5854 93.135 72.0202 98.3535 74.3976C100.847 75.5282 103.224 77.1808 104.674 79.5291C106.065 81.7324 106.442 84.3417 106.384 86.9219Z" fill="#CFFEDD"/>
<path d="M57.7363 82.5149C55.4749 74.6002 58.809 63.9893 63.0417 57.9591C63.0997 57.9011 63.1867 57.8721 63.2737 57.9301C63.3027 57.9301 63.3027 57.959 63.3316 57.988C63.4766 58.3359 63.6216 58.6549 63.7665 58.9738C64.4623 60.4523 65.477 61.728 66.8686 62.6267C67.8833 63.2645 69.014 63.6994 70.1737 64.0473C72.3481 64.7141 74.8123 65.091 77.0447 64.3662C78.9871 63.7284 80.6396 61.8439 81.6544 60.1914C82.698 58.4809 83.6838 56.1616 83.7418 54.1322C83.7997 52.1027 83.2779 50.0733 82.0023 48.4788C81.9153 48.3628 81.8283 48.1889 81.9443 48.1019C81.9733 48.0729 82.0312 48.0729 82.0892 48.0729C85.7132 47.638 89.3951 47.812 92.9611 48.6238C93.077 48.6238 93.164 48.6817 93.251 48.7687C93.338 48.9137 93.251 49.1166 93.164 49.2616C92.0913 50.9431 91.3375 52.8565 91.0186 54.828C90.7287 56.7414 90.9027 58.7708 91.6565 60.5683C93.106 64.0183 96.585 66.3086 100.238 67.0914C102.615 67.6133 105.196 67.5553 107.457 66.5986C110.124 65.4679 111.922 62.9166 113.052 60.3364C113.11 60.1914 113.255 60.1334 113.4 60.1914C113.458 60.2204 113.487 60.2494 113.516 60.3074C113.777 60.7422 114.212 61.3221 114.27 61.438C114.589 62.0179 114.908 62.6267 115.198 63.2065C115.777 64.4242 116.27 65.6418 116.705 66.9175C117.546 69.3528 118.358 71.875 118.619 74.4843C118.909 77.1225 118.59 79.7897 118.242 82.428C118.01 84.1385 117.778 85.878 117.024 87.4435C116.067 89.4149 114.386 90.5456 112.617 91.7053C112.472 91.7923 112.327 91.8792 112.154 91.7633C112.067 91.6763 111.98 91.5603 111.98 91.4444C111.458 88.0523 112.183 84.5444 111.342 81.2393C111.313 81.0654 111.139 80.8624 110.994 80.9494C110.965 80.9784 110.936 81.0364 110.907 81.0944C110.82 81.3843 110.82 81.6742 110.762 81.9641C110.559 83.2687 110.559 84.6023 110.501 85.907L110.269 89.9948V90.0238C110.24 90.6326 110.182 91.3284 110.356 91.9082C110.53 92.4011 110.965 92.865 111.371 93.1839C111.922 93.6187 112.414 94.1406 112.936 94.6045C113.023 94.6914 113.11 94.8364 113.023 94.9234C112.965 94.9813 112.878 94.9524 112.791 94.9234C112.472 94.8074 112.183 94.6624 111.864 94.5175C111.429 94.2855 111.023 93.9376 110.617 93.6477C110.53 93.5607 110.414 93.5028 110.269 93.4448C110.211 93.4158 110.153 93.4158 110.095 93.4738C110.095 93.4738 110.095 93.4738 110.095 93.5028C110.037 93.6477 110.066 93.8217 110.124 93.9376C110.298 94.3435 110.501 94.7204 110.733 95.1263C110.878 95.3872 111.052 95.6191 111.168 95.9091C111.168 95.9381 111.197 95.996 111.168 96.025C111.139 96.025 111.139 96.025 111.11 96.025C110.762 95.9091 110.53 95.6771 110.298 95.3872C110.066 95.1263 109.892 94.8364 109.718 94.5465C109.08 93.3868 109.399 92.1402 109.515 90.8645C109.631 89.5309 109.689 88.1683 109.689 86.8347C109.689 84.5444 109.689 82.254 108.819 80.0797C108.095 78.2822 106.906 76.6876 105.514 75.325C104.094 73.9624 102.47 72.7738 100.702 71.846C100.151 71.5561 99.6002 71.2662 99.0203 71.0053C98.7304 70.8893 98.4695 70.7444 98.1796 70.6574C97.9476 70.5704 97.5997 70.3385 97.3388 70.3385C92.1783 68.425 86.6989 68.2511 81.2485 67.9612C77.7985 67.7872 74.2905 67.5553 70.8985 68.2511C67.1006 69.0338 63.8825 71.0633 61.969 74.4553C61.5632 75.2091 61.1863 75.9918 60.8964 76.8036C60.6064 77.5864 60.3165 78.1372 59.5048 78.5141C58.4321 79.036 58.2291 80.2246 58.0842 81.3553C58.0262 81.8191 57.9102 82.1091 57.8522 82.5149C57.7943 82.5439 57.7653 82.5439 57.7363 82.5149C57.7653 82.5439 57.7363 82.5439 57.7363 82.5149Z" fill="#00FC4C"/>
<path d="M102.789 64.9751C98.6725 64.8881 94.2077 62.2789 93.367 58.0461C93.0481 56.3356 93.367 54.5961 94.0338 52.9726C94.9035 50.9141 96.4111 49.0297 98.4115 47.957C100.586 46.7973 103.427 46.9133 105.717 47.6961C107.399 48.2759 108.906 49.3486 109.834 50.8272C110.704 52.1898 111.023 53.8423 111.11 55.4658C111.197 57.8431 110.733 60.3364 109.225 62.1919C107.66 64.0763 105.196 65.0041 102.789 64.9751Z" fill="#FEFEFE"/>
<path d="M65.2161 54.8573C65.2451 51.6972 67.1296 48.8561 69.9997 47.5804C71.9712 46.6817 74.1166 46.6817 76.146 47.3485C76.2909 47.3775 76.4069 47.4355 76.5229 47.4935C78.1464 48.1023 79.567 48.943 80.3787 50.5666C80.9006 51.6103 81.1035 52.7699 81.1035 53.9296C81.1035 55.7561 80.6397 57.6115 79.6829 59.1771C79.1901 60.0178 78.4943 60.7716 77.6825 61.3224C76.5518 62.0762 75.1603 62.3661 73.7977 62.4241C72.3191 62.4531 71.0145 62.1052 69.6808 61.4964C68.5502 60.9745 67.4485 60.2787 66.6367 59.322C65.651 58.0464 65.1871 56.4519 65.2161 54.8573Z" fill="#FEFEFE"/>
<path d="M53.5904 78.5721C53.5034 78.5141 53.4454 78.4561 53.4164 78.3691C52.4017 76.3977 51.7639 74.2813 51.474 72.107C51.2131 69.9616 51.2131 67.6712 52.3438 65.7578C52.4887 65.4679 52.7206 65.207 52.9816 65.004C53.7353 64.5112 54.7501 64.7721 55.2719 65.4969C55.4169 65.6998 55.5039 65.9317 55.5328 66.1637C55.5328 66.4246 55.4748 66.6855 55.3589 66.9465C54.4312 69.6427 53.9093 72.4549 53.7643 75.296C53.7064 76.3687 53.7643 77.4414 53.7643 78.5141C53.7064 78.6011 53.6484 78.6011 53.5904 78.5721Z" fill="#00FC4C"/>
<path d="M121.518 82.0222C122.098 79.094 122.04 76.1079 121.808 73.1218C121.808 72.9478 121.808 72.7449 121.982 72.6869C122.04 72.6869 122.098 72.6869 122.156 72.6869C124.011 73.1508 124.968 75.0932 124.475 76.8907C124.214 77.7894 123.721 78.6012 123.228 79.355L121.518 82.0222Z" fill="#00FC4C"/>
<path d="M59.7945 79.9929C59.7945 79.9059 59.8525 79.848 59.9395 79.848C59.9975 79.848 60.0845 79.9059 60.0845 79.9929C60.1714 80.5728 60.2004 81.1816 60.2294 81.7614C60.2874 83.037 60.3164 84.3127 60.3164 85.5593C60.3164 86.4291 60.2004 87.2698 59.9975 88.1106C59.7366 89.0963 59.3887 90.082 58.9248 90.9807C58.9248 91.0097 58.8668 91.0097 58.8668 90.9807C58.7509 90.7198 58.6349 90.4879 58.5189 90.227C58.5189 90.198 58.4899 90.14 58.4609 90.111C58.4319 90.111 58.374 90.111 58.345 90.111L57.5912 90.4299C57.5622 90.4299 57.5332 90.4009 57.5332 90.3719C57.8521 89.937 58.171 89.6181 58.4609 89.2412C58.8958 88.6034 59.1857 87.8786 59.2727 87.0959C59.3887 86.2261 59.3017 85.3274 59.4177 84.4576C59.5046 83.5299 59.5336 82.5732 59.5916 81.6454C59.5626 81.1236 59.6496 80.5438 59.7945 79.9929Z" fill="#00FC4C"/>
<path d="M120.735 86.429C120.764 86.3421 120.851 86.2841 120.938 86.3131C120.967 86.3131 120.996 86.3421 121.025 86.3711L122.793 88.7484C122.822 88.7774 122.851 88.8354 122.822 88.8933C122.793 88.9513 122.706 88.9513 122.619 88.9223L120.822 88.4875C120.648 88.4585 120.445 88.4005 120.358 88.2265C120.271 88.0526 120.3 87.8496 120.358 87.6467L120.735 86.429Z" fill="#00FC4C"/>
<path d="M51.8509 85.9072C51.7929 85.9072 51.7349 85.8492 51.7639 85.7913C51.7639 85.7623 51.7639 85.7623 51.7929 85.7333C52.1408 85.2984 52.5177 84.8345 52.9236 84.3997C53.0396 84.2837 53.2135 84.1097 53.3585 84.1967C53.3875 84.2257 53.4454 84.2547 53.4744 84.3127C53.6194 84.5156 54.2282 85.0665 54.2282 85.3564C54.2282 86.0232 52.5467 85.9942 51.8509 85.9072Z" fill="#00FC4C"/>
<path d="M85.7131 64.0765C86.4089 64.1055 87.1047 64.3084 87.7425 64.6563C87.9745 64.7723 88.1774 64.9462 88.3224 65.1782C88.4673 65.4971 88.3224 65.874 88.1194 66.1639C87.8005 66.5408 87.3367 66.8307 86.8438 66.8887C86.3509 66.9756 85.8291 66.9467 85.3652 66.8017C84.7564 66.6567 83.9156 66.3378 83.6257 65.758C83.3068 65.0912 83.9446 64.4534 84.5245 64.2504C84.8724 64.1345 85.2782 64.0475 85.6841 64.0765H85.7131Z" fill="#010202"/>
<path d="M106.848 55.9009C106.848 56.0458 106.819 56.2198 106.79 56.3647C106.326 58.5391 104.616 60.8294 102.238 60.9454C100.296 61.0614 98.6433 60.5105 97.3967 59.032C96.44 57.9303 96.382 56.5677 96.498 55.1761C96.5269 54.7992 96.6139 54.3933 96.7009 54.0164C97.3967 51.2042 99.89 49.8996 102.586 50.9433C104.442 51.6681 106.761 53.4366 106.877 55.6399C106.848 55.7269 106.848 55.8139 106.848 55.9009Z" fill="#010202"/>
<path d="M72.1739 49.2327C75.45 49.0298 79.2769 52.3638 77.4794 55.7558C77.0445 56.5676 76.4067 57.2344 75.624 57.7272C74.9282 58.1911 74.1454 58.51 73.3046 58.597C71.5361 58.7709 70.0866 57.5823 69.1008 56.2487C68.2311 55.089 67.9122 53.5814 68.2311 52.1608C68.579 50.6533 69.9126 49.4066 71.4492 49.2907C71.7391 49.2617 72.029 49.2327 72.1739 49.2327Z" fill="#010202"/>
<path d="M100.122 59.09C100.122 59.061 100.151 59.032 100.209 58.974C100.673 58.4812 101.281 58.1333 101.832 57.7274C102.267 57.4375 102.673 57.0606 102.992 56.6257C103.311 56.1908 103.514 55.64 103.92 55.2631C104.123 55.0602 104.47 54.9732 104.615 55.2921C104.905 55.9589 104.876 56.6547 104.557 57.3215C103.833 58.7711 101.977 59.3799 100.441 59.2929H100.296C100.238 59.2929 100.151 59.2929 100.122 59.206C100.093 59.148 100.122 59.119 100.122 59.09Z" fill="#FEFEFE"/>
<path d="M100.702 53.6685C100.731 53.6685 100.76 53.6685 100.789 53.6685C100.876 53.6685 100.934 53.6975 101.021 53.7265C101.137 53.8135 101.224 53.9294 101.224 54.0744C101.224 54.4223 101.108 54.7702 100.905 55.0601C100.818 55.2051 100.673 55.2921 100.528 55.321C99.9479 55.379 99.2522 54.5093 99.745 54.0454C99.9769 53.8135 100.325 53.6685 100.702 53.6685Z" fill="#FEFEFE"/>
<path d="M72.8987 55.0312C73.1307 55.0312 73.3046 55.2051 73.5945 55.1472C73.7975 55.0892 73.9714 54.9732 74.1164 54.7992C74.4933 54.3934 74.8122 53.8425 75.1601 53.3787C75.421 53.0308 75.6819 52.7988 76.1168 53.0598C76.2328 53.1467 76.2618 53.4366 76.2618 53.6396C76.1748 54.7992 75.5949 55.698 74.8701 56.5387C74.1454 57.3505 72.4928 56.6547 72.1739 56.0169C71.942 55.524 72.2899 55.0022 72.8987 55.0312Z" fill="#FEFEFE"/>
<path d="M72.3479 51.407C72.3769 51.4939 72.3769 51.6099 72.3769 51.6969C72.3189 52.2187 72.058 52.8565 71.4492 52.8565C71.1013 52.8565 70.7534 52.6246 70.6084 52.2767C70.5214 52.1317 70.5214 51.9578 70.5504 51.7838C70.6084 51.6389 70.7244 51.4939 70.8693 51.407C71.2462 51.175 72.174 50.8851 72.3479 51.407Z" fill="#FEFEFE"/>
</g>
</svg>
