<svg width="220" height="100" viewBox="0 0 220 100" fill="none" xmlns="http://www.w3.org/2000/svg">
<mask id="mask0" style="mask-type:alpha" maskUnits="userSpaceOnUse" x="0" y="0" width="220" height="100">
<rect width="220" height="100" fill="#C4C4C4"/>
</mask>
<g mask="url(#mask0)">
<path d="M66.259 28.8344V11C66.259 8.79086 68.0499 7 70.259 7H150.323C152.532 7 154.323 8.79086 154.323 11V88C154.323 90.2091 152.532 92 150.323 92H70.259C68.0499 92 66.259 90.2091 66.259 88V70.1656" stroke="#595E67" stroke-width="1.5" stroke-miterlimit="10"/>
<path d="M73.0569 16.6122C74.5235 16.6122 75.7125 15.4232 75.7125 13.9566C75.7125 12.49 74.5235 11.3011 73.0569 11.3011C71.5903 11.3011 70.4014 12.49 70.4014 13.9566C70.4014 15.4232 71.5903 16.6122 73.0569 16.6122Z" stroke="#595E67" stroke-width="1.5" stroke-miterlimit="10"/>
<path d="M147.525 16.6122C148.992 16.6122 150.181 15.4232 150.181 13.9566C150.181 12.49 148.992 11.3011 147.525 11.3011C146.059 11.3011 144.87 12.49 144.87 13.9566C144.87 15.4232 146.059 16.6122 147.525 16.6122Z" stroke="#595E67" stroke-width="1.5" stroke-miterlimit="10"/>
<path d="M73.0567 87.6989C74.5233 87.6989 75.7122 86.51 75.7122 85.0434C75.7122 83.5767 74.5233 82.3878 73.0567 82.3878C71.5901 82.3878 70.4011 83.5767 70.4011 85.0434C70.4011 86.51 71.5901 87.6989 73.0567 87.6989Z" stroke="#595E67" stroke-width="1.5" stroke-miterlimit="10"/>
<path d="M147.525 87.6989C148.992 87.6989 150.181 86.51 150.181 85.0434C150.181 83.5767 148.992 82.3878 147.525 82.3878C146.059 82.3878 144.87 83.5767 144.87 85.0434C144.87 86.51 146.059 87.6989 147.525 87.6989Z" stroke="#595E67" stroke-width="1.5" stroke-miterlimit="10"/>
<path d="M110.288 80.4245C127.361 80.4245 141.201 66.5842 141.201 49.5113C141.201 32.4384 127.361 18.5981 110.288 18.5981C93.2153 18.5981 79.375 32.4384 79.375 49.5113C79.375 66.5842 93.2153 80.4245 110.288 80.4245Z" stroke="#595E67" stroke-width="1.5" stroke-miterlimit="10"/>
<path d="M75.8118 20.2664H72.1403C71.0357 20.2664 70.1403 21.1618 70.1403 22.2664V25.9507C70.1403 26.5029 70.588 26.9507 71.1403 26.9507H76.8118C77.3641 26.9507 77.8118 26.503 77.8118 25.9507V22.2664C77.8118 21.1618 76.9164 20.2664 75.8118 20.2664Z" stroke="#595E67" stroke-width="1.5" stroke-miterlimit="10"/>
<path d="M76.8118 72.0495H71.1403C70.588 72.0495 70.1403 72.4972 70.1403 73.0495V76.7337C70.1403 77.8383 71.0357 78.7337 72.1403 78.7337H75.8118C76.9164 78.7337 77.8118 77.8383 77.8118 76.7337V73.0495C77.8118 72.4972 77.3641 72.0495 76.8118 72.0495Z" stroke="#595E67" stroke-width="1.5" stroke-miterlimit="10"/>
<path d="M67.0535 68.4861H71.8425V72.0495H76.6089V26.9507H71.8425V30.5141H67.0535" stroke="#595E67" stroke-width="1.5" stroke-miterlimit="10"/>
<path d="M59.2231 72.2764V26.7237C59.2231 25.2946 58.0647 24.1362 56.6357 24.1362C55.2067 24.1362 54.0482 25.2946 54.0482 26.7237V72.2764C54.0482 73.7054 55.2067 74.8638 56.6357 74.8638C58.0647 74.8638 59.2231 73.7054 59.2231 72.2764Z" stroke="#595E67" stroke-width="1.5" stroke-miterlimit="10"/>
<path d="M54.0707 46.8332H50.7369C49.6324 46.8332 48.7369 47.7286 48.7369 48.8332V50.1669C48.7369 51.2715 49.6324 52.1669 50.7369 52.1669H54.0707V46.8332Z" stroke="#595E67" stroke-width="1.5" stroke-miterlimit="10"/>
<path d="M53.5941 80.1977C63.0581 80.1977 70.7302 66.459 70.7302 49.5114C70.7302 32.5639 63.0581 18.8252 53.5941 18.8252C44.13 18.8252 36.4579 32.5639 36.4579 49.5114C36.4579 66.459 44.13 80.1977 53.5941 80.1977Z" stroke="#595E67" stroke-width="1.5" stroke-miterlimit="10"/>
<path d="M29.785 63.7877C25.1095 60.7237 22 55.4353 22 49.4206C22 43.5194 24.996 38.2991 29.5581 35.2123" stroke="#595E67" stroke-width="1.5" stroke-miterlimit="10"/>
<path d="M53.6622 18.8252C53.6622 18.8252 49.4633 18.8252 44.8331 18.8252C35.3685 18.8252 27.6969 32.5568 27.6969 49.5114C27.6969 66.466 35.3912 80.175 44.8558 80.175C48.6008 80.175 50.1442 80.175 53.6849 80.175" stroke="#595E67" stroke-width="1.5" stroke-miterlimit="10"/>
<path d="M59.2229 28.1763C63.036 32.0802 65.6688 40.1603 65.6688 49.5114C65.6688 58.8625 63.036 66.9426 59.2229 70.8465" stroke="#595E67" stroke-width="1.5" stroke-miterlimit="10"/>
<path d="M54.0481 73.3206C47.6248 73.3206 42.4272 62.653 42.4272 49.5115C42.4272 36.3699 47.6248 25.7024 54.0481 25.7024" stroke="#595E67" stroke-width="1.5" stroke-miterlimit="10"/>
<path d="M40.2142 29H40.9642V27.5H40.2142V29ZM37.7856 27.5C37.3714 27.5 37.0356 27.8358 37.0356 28.25C37.0356 28.6642 37.3714 29 37.7856 29V27.5ZM40.2142 27.5H37.7856V29H40.2142V27.5Z" fill="#595E67"/>
<path d="M36.5715 39.1786H34.1429" stroke="#595E67" stroke-width="1.5" stroke-linecap="round" stroke-linejoin="round"/>
<path d="M35.357 50.1071H32.9285" stroke="#595E67" stroke-width="1.5" stroke-linecap="round" stroke-linejoin="round"/>
<path d="M36.5715 61.7858H37.3215V60.2858H36.5715V61.7858ZM34.1429 60.2858C33.7287 60.2858 33.3929 60.6216 33.3929 61.0358C33.3929 61.45 33.7287 61.7858 34.1429 61.7858V60.2858ZM36.5715 60.2858H34.1429V61.7858H36.5715V60.2858Z" fill="#595E67"/>
<path d="M41.4285 72.7143H42.1785V71.2143H41.4285V72.7143ZM37.7856 71.2143C37.3714 71.2143 37.0356 71.5501 37.0356 71.9643C37.0356 72.3785 37.3714 72.7143 37.7856 72.7143V71.2143ZM41.4285 71.2143H37.7856V72.7143H41.4285V71.2143Z" fill="#595E67"/>
<mask id="mask1" style="mask-type:alpha" maskUnits="userSpaceOnUse" x="78" y="17" width="64" height="65">
<path d="M110.288 80.4245C127.361 80.4245 141.201 66.5842 141.201 49.5113C141.201 32.4384 127.361 18.5981 110.288 18.5981C93.2153 18.5981 79.375 32.4384 79.375 49.5113C79.375 66.5842 93.2153 80.4245 110.288 80.4245Z" fill="black" stroke="#595E67" stroke-width="1.5" stroke-miterlimit="10"/>
</mask>
<g mask="url(#mask1)">
<path d="M110.288 80.4245C127.361 80.4245 141.201 66.5842 141.201 49.5113C141.201 32.4384 127.361 18.5981 110.288 18.5981C93.2153 18.5981 79.375 32.4384 79.375 49.5113C79.375 66.5842 93.2153 80.4245 110.288 80.4245Z" fill="#0E1117"/>
<g filter="url(#filter0_d)">
<path d="M131.5 38C124.6 38 119 43.5972 119 50.4938C119 52.7301 119.587 54.8291 120.612 56.6407L125.975 54.3543L127.625 56.0035L124.35 60.6387C124.35 60.6387 124.387 60.7761 124.475 60.8261C126.475 62.1879 128.888 62.975 131.488 62.975C138.388 62.975 143.987 57.3778 143.987 50.4813C144 43.5972 138.4 38 131.5 38Z" fill="#39B002"/>
<path d="M130.725 38C131.25 38 131.763 38 132.288 38C132.312 38.075 132.387 38.05 132.438 38.05C132.8 38.0375 133.162 38.1 133.512 38.1624C134.662 38.3623 135.775 38.6997 136.837 39.1994C138.55 39.999 139.987 41.1484 141.188 42.5977C142.038 43.6347 142.7 44.7841 143.175 46.046C143.537 47.008 143.788 47.995 143.913 49.0195C143.938 49.2569 143.888 49.4943 144 49.7191C144 50.2564 144 50.7936 144 51.3308C143.938 51.3558 143.95 51.4058 143.95 51.4558C143.963 51.9055 143.875 52.3553 143.788 52.7926C143.587 53.8421 143.262 54.8666 142.8 55.8411C142 57.5527 140.85 58.9895 139.4 60.1889C138.362 61.0385 137.213 61.7006 135.95 62.1754C134.988 62.5377 134 62.7876 132.975 62.9125C132.738 62.9375 132.5 62.8876 132.275 63C131.737 63 131.2 63 130.663 63C130.65 62.95 130.6 62.95 130.562 62.95C129.812 62.925 129.088 62.7876 128.363 62.6002C126.975 62.2379 125.675 61.6632 124.488 60.8511C124.413 60.8011 124.375 60.7511 124.35 60.6512C124.262 60.2014 124.488 59.8641 124.688 59.5142C125.188 58.6647 125.75 57.8526 126.312 57.0405C126.725 56.6657 127.188 56.3533 127.625 56.016C127.625 56.7281 127.713 57.4403 127.925 58.1274C128.075 58.5897 127.975 58.6897 128.55 58.3773C129.2 58.0275 129.775 57.5527 130.312 57.0405C130.325 57.1154 130.363 57.1779 130.363 57.2529C130.387 58.09 130.562 58.9145 130.762 59.7266C130.925 60.3763 131.113 61.0135 131.413 61.6132C131.438 61.6507 131.425 61.7131 131.5 61.7131C131.562 61.7131 131.575 61.6507 131.587 61.6132C131.662 61.4508 131.725 61.2884 131.788 61.1259C132.138 60.1889 132.375 59.2144 132.525 58.2274C132.575 57.8526 132.625 57.4653 132.675 57.0905C132.863 57.2529 133.05 57.4278 133.238 57.5777C133.675 57.94 134.137 58.2649 134.65 58.5022C134.787 58.5647 134.863 58.5647 134.925 58.3773C135.2 57.5902 135.3 56.7781 135.312 55.9535C135.7 56.2534 136.075 56.5657 136.475 56.8406C137.35 57.4653 138.275 58.015 139.288 58.4023C139.337 58.4273 139.388 58.4773 139.438 58.4273C139.487 58.3773 139.438 58.3273 139.413 58.2774C139.2 57.6777 138.888 57.1154 138.575 56.5657C138.125 55.7786 137.562 55.0665 137.013 54.3543C137.725 54.3543 138.438 54.2669 139.125 54.0545C139.638 53.9045 139.638 53.8921 139.375 53.4298C139.013 52.7801 138.55 52.2054 138.038 51.6682C138.625 51.5807 139.212 51.5307 139.8 51.4183C140.75 51.2434 141.688 50.981 142.587 50.6062C142.637 50.5812 142.725 50.5687 142.725 50.4938C142.725 50.4188 142.637 50.4188 142.587 50.3938C141.387 49.8566 140.125 49.5817 138.837 49.4068C138.575 49.3693 138.3 49.4193 138.05 49.3068C138.225 49.1069 138.413 48.907 138.575 48.7071C138.938 48.2699 139.263 47.8076 139.513 47.2954C139.588 47.1454 139.575 47.058 139.388 46.9955C138.625 46.7331 137.837 46.6207 137.025 46.6207C137.387 46.1459 137.775 45.6837 138.1 45.1839C138.613 44.4093 139.087 43.6097 139.413 42.7226C139.438 42.6727 139.5 42.6102 139.438 42.5477C139.375 42.4853 139.312 42.5602 139.263 42.5727C138.438 42.8851 137.675 43.3223 136.938 43.7971C136.388 44.1469 135.887 44.5717 135.362 44.9715C135.362 44.2594 135.275 43.5472 135.062 42.8601C134.913 42.3478 134.9 42.3478 134.438 42.6102C133.788 42.9725 133.213 43.4348 132.675 43.947C132.562 43.7971 132.637 43.6097 132.625 43.4473C132.512 42.6477 132.4 41.8481 132.188 41.0735C132.025 40.4863 131.862 39.9115 131.587 39.3618C131.575 39.3243 131.575 39.2494 131.512 39.2619C131.462 39.2619 131.438 39.3118 131.413 39.3618C131.35 39.5117 131.275 39.6742 131.225 39.8241C130.738 41.1359 130.475 42.4978 130.337 43.8971C130.15 43.7346 129.962 43.5597 129.775 43.4098C129.337 43.0475 128.875 42.7226 128.363 42.4853C128.225 42.4228 128.15 42.4228 128.087 42.6102C127.812 43.3973 127.712 44.2094 127.7 45.034C127.312 44.7341 126.938 44.4218 126.537 44.1469C125.662 43.5222 124.738 42.9725 123.725 42.5852C123.675 42.5602 123.625 42.5227 123.575 42.5727C123.525 42.6227 123.575 42.6727 123.6 42.7226C123.812 43.3348 124.125 43.8971 124.45 44.4468C124.9 45.2214 125.45 45.9335 126 46.6332C125.275 46.6332 124.562 46.7331 123.863 46.933C123.375 47.0705 123.375 47.1079 123.613 47.5327C123.988 48.1824 124.45 48.7696 124.963 49.3193C124.888 49.3318 124.812 49.3693 124.75 49.3693C123.912 49.3943 123.088 49.5692 122.275 49.7691C121.625 49.9315 120.988 50.1189 120.388 50.4188C120.35 50.4438 120.288 50.4313 120.288 50.5062C120.288 50.5687 120.35 50.5812 120.388 50.5937C120.588 50.6812 120.8 50.7686 121 50.8436C122.275 51.3183 123.613 51.5432 124.963 51.6807C124.787 51.8806 124.6 52.0805 124.438 52.2804C124.075 52.7176 123.75 53.1799 123.5 53.6922C123.425 53.8421 123.438 53.9295 123.625 53.992C124.387 54.2544 125.175 54.3668 125.988 54.3668C125.938 54.4293 125.887 54.4793 125.85 54.5417C125.812 54.5542 125.75 54.5542 125.725 54.6042H125.713V54.6167C124.925 55.0665 124.138 55.5287 123.338 55.966C122.738 56.3033 122.125 56.6282 121.475 56.8656C121.037 57.028 120.775 56.928 120.625 56.6532C119.812 55.1664 119.275 53.6172 119.087 51.9555C119.062 51.7431 119.125 51.5182 119 51.3308C119 50.7811 119 50.2189 119 49.6692C119.062 49.6442 119.05 49.5942 119.05 49.5442C119.038 49.0945 119.125 48.6447 119.2 48.2074C119.4 47.1579 119.725 46.1334 120.188 45.1589C121 43.4473 122.15 42.0105 123.6 40.8111C124.625 39.9615 125.788 39.2994 127.038 38.8246C128 38.4623 128.988 38.2124 130.012 38.0875C130.25 38.0625 130.5 38.1124 130.725 38Z" fill="#39B002"/>
<path d="M127.688 45.0215C127.688 44.1969 127.788 43.3848 128.075 42.5977C128.138 42.4103 128.213 42.4103 128.35 42.4728C128.863 42.7102 129.325 43.035 129.763 43.3973C129.95 43.5598 130.138 43.7222 130.325 43.8846C130.788 44.4093 131.213 44.9591 131.525 45.6462C131.825 44.984 132.238 44.4468 132.675 43.9346C133.213 43.4223 133.788 42.9601 134.438 42.5977C134.9 42.3354 134.913 42.3354 135.063 42.8476C135.275 43.5348 135.363 44.2344 135.363 44.9591C135.363 45.5463 135.275 46.121 135.113 46.6832C135.05 46.9206 135.063 46.9331 135.313 46.8581C135.675 46.7582 136.05 46.6582 136.438 46.6582C136.5 46.7082 136.525 46.6832 136.538 46.6207C136.7 46.6207 136.863 46.6082 137.025 46.6082C137.838 46.6082 138.625 46.7207 139.388 46.983C139.575 47.0455 139.588 47.133 139.513 47.2829C139.263 47.7951 138.95 48.2699 138.575 48.6947C138.4 48.8946 138.225 49.0945 138.05 49.2944C138.013 49.3194 137.988 49.3319 137.95 49.3569C137.825 49.2819 137.825 49.3818 137.8 49.4693C137.663 49.6192 137.513 49.7567 137.313 49.8441C137.175 49.8316 137.05 49.8566 137.063 50.0315C136.975 50.0815 136.9 50.1315 136.813 50.1814C136.65 50.144 136.363 50.2814 136.275 50.4313C136.275 50.4563 136.275 50.4813 136.275 50.5063C136.35 50.6562 136.638 50.7936 136.813 50.7562C136.9 50.8061 136.975 50.8561 137.063 50.9061C137.075 51.031 137.088 51.1435 137.263 51.0435C137.55 51.2059 137.788 51.4433 138.038 51.6432C138.55 52.1804 139.013 52.7552 139.375 53.4048C139.638 53.8671 139.638 53.8796 139.125 54.0295C138.438 54.2419 137.738 54.3294 137.013 54.3294C136.863 54.3294 136.713 54.3169 136.575 54.3169C136.55 54.2294 136.5 54.2169 136.425 54.2794C135.95 54.2794 135.5 54.167 135.063 53.992C135.05 53.9046 135.025 53.8171 134.913 53.7921C134.913 53.7672 134.913 53.7422 134.913 53.7172C134.913 53.6547 134.888 53.6047 134.825 53.5922C134.6 53.155 134.363 52.7177 134.138 52.2804C134.138 52.2054 134.125 52.143 134.038 52.1305C134.038 52.0555 134.025 51.993 133.938 51.9805C133.788 51.8056 133.65 51.6182 133.5 51.4433C133.575 51.2809 133.45 51.3184 133.363 51.2934C133.275 51.1934 133.275 51.156 133.425 51.1435C133.65 51.131 133.875 51.0935 134.1 51.0685C134.675 50.9935 135.238 50.8061 135.8 50.6562C135.863 50.7062 135.888 50.6812 135.9 50.6187C135.988 50.5688 136.075 50.5313 136.2 50.4688C136.075 50.4063 135.988 50.3564 135.9 50.3189C135.888 50.2564 135.863 50.2314 135.8 50.2814C135.025 50.044 134.238 49.8441 133.425 49.7816C133.25 49.7692 133.425 49.6817 133.45 49.6317C133.488 49.6692 133.525 49.6942 133.575 49.6442C133.625 49.5942 133.6 49.5443 133.563 49.4943C133.713 49.3194 133.85 49.132 134 48.9571C134.125 48.9071 134.288 48.8696 134.2 48.6572C134.425 48.2324 134.65 47.8076 134.875 47.3828C135.025 47.3204 135.038 47.2829 134.938 47.1954C134.95 47.1455 135 47.083 134.95 47.033C134.888 46.9705 134.825 47.0205 134.775 47.0455C133.925 47.4078 133.125 47.8451 132.438 48.4698C132.388 48.5073 132.338 48.5822 132.275 48.5448C132.213 48.5198 132.25 48.4448 132.238 48.3948C132.163 47.8701 132.1 47.3329 131.938 46.8206C131.825 46.4458 131.713 46.0585 131.525 45.6712C131.113 46.6332 130.888 47.6077 130.8 48.6322C130.688 48.5573 130.613 48.5073 130.55 48.4448C129.875 47.8326 129.088 47.3953 128.263 47.0455C128.213 47.0205 128.163 46.9581 128.113 47.033C128.075 47.083 128.125 47.1455 128.138 47.1954C128.438 47.9201 128.813 48.5947 129.3 49.2194C129.438 49.3943 129.638 49.5193 129.713 49.7691C128.713 49.8316 127.763 50.0565 126.788 50.4688C127.75 50.8811 128.688 51.081 129.7 51.1685C129.625 51.2809 129.575 51.3559 129.513 51.4183C128.888 52.1055 128.45 52.9051 128.088 53.7547C128.063 53.8046 128.025 53.8671 128.075 53.9046C128.125 53.9421 128.188 53.9046 128.238 53.8921C128.363 54.0295 128.4 53.9296 128.425 53.8296C128.85 53.6047 129.275 53.3798 129.7 53.155C129.9 53.2549 129.938 53.0925 130 52.9551C130.175 52.8051 130.363 52.6677 130.538 52.5178C130.613 52.6052 130.7 52.5303 130.775 52.5178C130.825 52.8051 130.875 53.0925 130.913 53.3798C130.975 53.8296 131.163 54.2419 131.225 54.6917C131.225 54.7667 131.213 54.8416 131.313 54.8666C131.363 54.9915 131.413 55.129 131.463 55.2539C131.288 55.3913 131.188 55.5538 131.213 55.7911C131.163 55.8786 131.113 55.9536 131.063 56.041C130.938 56.0535 130.825 56.066 130.925 56.2409C130.775 56.5408 130.525 56.7532 130.325 57.0155C129.788 57.5278 129.213 57.99 128.563 58.3524C127.988 58.6647 128.088 58.5648 127.938 58.1025C127.725 57.4153 127.638 56.7157 127.638 55.991C127.638 55.8411 127.65 55.6912 127.65 55.5538C127.738 55.5288 127.75 55.4788 127.688 55.4038C127.675 55.029 127.775 54.6667 127.875 54.3044C127.95 54.0295 127.938 54.0045 127.675 54.092C127.125 54.2544 126.55 54.3419 125.975 54.3419C125.163 54.3419 124.375 54.2294 123.613 53.9671C123.425 53.9046 123.413 53.8171 123.488 53.6672C123.738 53.155 124.05 52.6802 124.425 52.2554C124.6 52.0555 124.775 51.8556 124.95 51.6557C125.488 51.2059 126.038 50.7687 126.725 50.4813C126.025 50.1814 125.475 49.7567 124.95 49.3069C124.438 48.7696 123.975 48.1824 123.6 47.5203C123.35 47.083 123.363 47.058 123.85 46.9206C124.55 46.7207 125.263 46.6207 125.988 46.6207C126.675 46.6207 127.338 46.7457 128.025 46.9581C127.813 46.3084 127.688 45.6837 127.688 45.0215Z" fill="#FA40ED"/>
<path d="M131.213 55.8161C131.175 55.5912 131.288 55.4163 131.463 55.2788C131.688 54.9165 131.775 54.5042 131.9 54.1044C132.075 53.5297 132.15 52.9425 132.213 52.3428C132.35 52.3803 132.438 52.4802 132.525 52.5552C133.2 53.1424 133.963 53.5672 134.788 53.917C134.9 53.967 134.938 53.9295 134.925 53.8171C135.038 53.8421 135.063 53.917 135.075 54.017C134.95 54.0544 135.025 54.1419 135.05 54.1919C135.225 54.7666 135.325 55.3663 135.338 55.966C135.338 56.7906 135.238 57.6027 134.95 58.3898C134.888 58.5772 134.825 58.5772 134.675 58.5147C134.163 58.2773 133.7 57.9525 133.263 57.5902C133.075 57.4278 132.888 57.2653 132.7 57.1029C132.238 56.5782 131.813 56.0285 131.5 55.3663C131.375 55.5162 131.288 55.6661 131.213 55.8161Z" fill="#FA40ED"/>
<path d="M138.05 51.6682C137.788 51.4683 137.563 51.2309 137.275 51.0685C137.238 50.9935 137.15 50.9685 137.075 50.9311C136.988 50.8811 136.913 50.8311 136.825 50.7811C136.663 50.6562 136.488 50.5687 136.288 50.5313C136.288 50.5063 136.288 50.4813 136.288 50.4563C136.488 50.4188 136.663 50.3189 136.825 50.2064C136.913 50.1564 136.988 50.1065 137.075 50.0565C137.175 50.019 137.263 49.9565 137.325 49.8691C137.513 49.7816 137.663 49.6442 137.813 49.4943C137.875 49.4818 137.925 49.4443 137.963 49.3818C138 49.3568 138.025 49.3444 138.063 49.3194C138.313 49.4318 138.588 49.3818 138.85 49.4193C140.138 49.5942 141.4 49.8691 142.6 50.4063C142.65 50.4313 142.738 50.4313 142.738 50.5063C142.738 50.5812 142.65 50.5937 142.6 50.6187C141.7 50.9935 140.775 51.2559 139.813 51.4308C139.213 51.5308 138.625 51.5807 138.05 51.6682Z" fill="#FA9EF4"/>
<path d="M124.949 49.3194C125.487 49.7691 126.024 50.2064 126.724 50.4938C126.024 50.7936 125.487 51.2309 124.949 51.6682C123.599 51.5308 122.262 51.3059 120.987 50.8311C120.774 50.7561 120.574 50.6687 120.374 50.5812C120.337 50.5687 120.274 50.5438 120.274 50.4938C120.274 50.4313 120.337 50.4313 120.374 50.4063C120.974 50.1065 121.612 49.9191 122.262 49.7566C123.074 49.5567 123.899 49.3943 124.737 49.3568C124.812 49.3693 124.887 49.3319 124.949 49.3194Z" fill="#FA9EF4"/>
<path d="M132.675 43.9595C132.238 44.4718 131.825 45.009 131.525 45.6712C131.213 44.9965 130.788 44.4343 130.325 43.9096C130.463 42.5228 130.725 41.1484 131.213 39.8366C131.275 39.6742 131.338 39.5243 131.4 39.3743C131.425 39.3244 131.438 39.2869 131.5 39.2744C131.563 39.2744 131.563 39.3369 131.575 39.3743C131.85 39.9241 132.013 40.4988 132.175 41.086C132.388 41.8606 132.513 42.6602 132.613 43.4598C132.65 43.6222 132.575 43.7971 132.675 43.9595Z" fill="#FA9EF4"/>
<path d="M131.213 55.8161C131.3 55.6662 131.388 55.5287 131.488 55.3538C131.788 56.016 132.213 56.5657 132.688 57.0905C132.638 57.4653 132.588 57.8526 132.538 58.2274C132.4 59.2269 132.163 60.1889 131.8 61.1259C131.738 61.2884 131.663 61.4508 131.6 61.6132C131.588 61.6507 131.563 61.7131 131.513 61.7131C131.45 61.7131 131.45 61.6507 131.425 61.6132C131.125 61.0135 130.938 60.3763 130.775 59.7266C130.575 58.9145 130.413 58.09 130.375 57.2529C130.375 57.1779 130.338 57.1154 130.325 57.0405C130.525 56.7781 130.775 56.5532 130.925 56.2659C131 56.2284 131.025 56.1409 131.063 56.066C131.113 55.9785 131.163 55.8911 131.213 55.8161Z" fill="#FA9EF4"/>
<path d="M127.688 45.0215C127.688 45.6712 127.813 46.3083 128.025 46.9705C127.338 46.7581 126.675 46.6207 125.988 46.6332C125.438 45.9335 124.888 45.2214 124.438 44.4468C124.113 43.8846 123.8 43.3223 123.588 42.7226C123.575 42.6727 123.525 42.6227 123.563 42.5727C123.613 42.5227 123.663 42.5727 123.713 42.5852C124.725 42.96 125.65 43.5222 126.525 44.1469C126.925 44.4218 127.3 44.7341 127.688 45.0215Z" fill="#FA9EF4"/>
<path d="M135.313 55.9661C135.3 55.3539 135.213 54.7667 135.025 54.1919C135.013 54.142 134.925 54.0545 135.05 54.017C135.488 54.1919 135.938 54.3044 136.413 54.3044C136.45 54.3544 136.5 54.3544 136.563 54.3419C136.713 54.3419 136.863 54.3544 137 54.3544C137.55 55.0665 138.113 55.7786 138.563 56.5658C138.875 57.1155 139.188 57.6777 139.4 58.2774C139.413 58.3274 139.463 58.3774 139.425 58.4273C139.375 58.4773 139.325 58.4273 139.275 58.4023C138.263 58.0275 137.338 57.4653 136.463 56.8406C136.075 56.5658 135.7 56.2534 135.313 55.9661Z" fill="#FA9EF4"/>
<path d="M127.65 55.5662C127.65 55.7161 127.638 55.866 127.638 56.0035C127.2 56.3408 126.75 56.6656 126.325 57.0279C125.925 57.2528 125.525 57.4902 125.138 57.7151C124.713 57.965 124.263 58.1899 123.8 58.3648C123.725 58.3898 123.65 58.4772 123.575 58.4147C123.488 58.3398 123.575 58.2398 123.6 58.1649C123.95 57.3278 124.375 56.5407 124.888 55.8036C125.113 55.4787 125.35 55.1789 125.575 54.8665C125.638 54.7916 125.688 54.7041 125.688 54.6042V54.5917H125.7C125.763 54.5917 125.8 54.5667 125.825 54.5292C125.875 54.4667 125.925 54.4167 125.963 54.3543C126.538 54.3543 127.1 54.2668 127.663 54.1044C127.925 54.0294 127.938 54.0419 127.863 54.3168C127.763 54.6791 127.663 55.0289 127.675 55.4162C127.65 55.4662 127.638 55.5162 127.65 55.5662Z" fill="#FA9EF4"/>
<path d="M137.025 46.6331C136.862 46.6331 136.7 46.6456 136.537 46.6456C136.5 46.6456 136.462 46.6456 136.437 46.6831C136.05 46.6831 135.687 46.7831 135.312 46.883C135.062 46.9455 135.05 46.9455 135.112 46.7081C135.275 46.1459 135.362 45.5712 135.362 44.984C135.887 44.5967 136.387 44.1719 136.937 43.8096C137.675 43.3348 138.437 42.8975 139.262 42.5852C139.312 42.5602 139.375 42.4977 139.437 42.5602C139.5 42.6227 139.425 42.6851 139.412 42.7351C139.087 43.6097 138.612 44.4093 138.1 45.1964C137.762 45.6961 137.375 46.1584 137.025 46.6331Z" fill="#FA9EF4"/>
<path d="M125.838 54.5292C125.813 54.5792 125.775 54.6042 125.713 54.5917C125.738 54.5417 125.8 54.5417 125.838 54.5292Z" fill="#FEFEFE"/>
<path d="M134.912 53.817C134.925 53.9295 134.887 53.967 134.775 53.917C133.95 53.5672 133.187 53.1424 132.512 52.5552C132.425 52.4802 132.337 52.3803 132.2 52.3428C132.137 52.9425 132.062 53.5297 131.887 54.1044C131.762 54.5042 131.675 54.9165 131.45 55.2788C131.4 55.1539 131.35 55.0164 131.3 54.8915C131.312 54.8165 131.262 54.7666 131.212 54.7166C131.15 54.2668 130.95 53.8545 130.9 53.4048C130.862 53.1174 130.812 52.83 130.762 52.5427C130.762 52.4927 130.762 52.4427 130.762 52.3928C130.75 52.3553 130.725 52.3678 130.712 52.3928C130.637 52.4302 130.562 52.4677 130.525 52.5427C130.35 52.6926 130.162 52.83 129.987 52.98C129.875 53.0174 129.775 53.0799 129.687 53.1799C129.262 53.4048 128.837 53.6296 128.412 53.8545C128.35 53.8795 128.287 53.9045 128.225 53.917C128.175 53.9295 128.112 53.9795 128.062 53.9295C128.012 53.8795 128.05 53.8295 128.075 53.7796C128.437 52.93 128.875 52.1304 129.5 51.4432C129.562 51.3808 129.6 51.3058 129.687 51.1934C128.675 51.1059 127.737 50.906 126.775 50.4937C127.75 50.0814 128.7 49.869 129.7 49.7941C129.625 49.5442 129.425 49.4192 129.287 49.2443C128.812 48.6196 128.437 47.945 128.125 47.2203C128.1 47.1704 128.05 47.1204 128.1 47.0579C128.15 46.9955 128.2 47.0579 128.25 47.0704C129.087 47.4202 129.875 47.8575 130.537 48.4697C130.6 48.5322 130.675 48.5697 130.787 48.6571C130.875 47.6201 131.1 46.6581 131.512 45.6961C131.712 46.0834 131.812 46.4707 131.925 46.8455C132.087 47.3578 132.15 47.8825 132.225 48.4197C132.237 48.4697 132.2 48.5447 132.262 48.5697C132.325 48.5947 132.387 48.5322 132.425 48.4947C133.112 47.87 133.912 47.4327 134.762 47.0704C134.825 47.0454 134.887 46.9955 134.937 47.0579C134.987 47.1079 134.937 47.1704 134.925 47.2203C134.9 47.2828 134.875 47.3453 134.862 47.4078C134.637 47.8325 134.412 48.2573 134.187 48.6821C134.087 48.7571 134.025 48.857 133.987 48.982C133.837 49.1569 133.7 49.3443 133.55 49.5192C133.5 49.5442 133.462 49.5942 133.45 49.6566C133.437 49.7066 133.25 49.7941 133.425 49.8066C134.237 49.869 135.025 50.0689 135.8 50.3063C135.825 50.3438 135.862 50.3438 135.9 50.3438C135.987 50.3938 136.075 50.4312 136.2 50.4937C136.075 50.5562 135.987 50.6061 135.9 50.6436C135.862 50.6436 135.825 50.6436 135.8 50.6811C135.237 50.831 134.687 51.0309 134.1 51.0934C133.875 51.1184 133.65 51.1559 133.425 51.1684C133.275 51.1809 133.275 51.2183 133.362 51.3183C133.387 51.3808 133.437 51.4307 133.5 51.4682C133.65 51.6431 133.787 51.8305 133.937 52.0054C133.95 52.0679 133.975 52.1179 134.037 52.1554C134.037 52.2178 134.075 52.2678 134.137 52.3053C134.362 52.7426 134.6 53.1799 134.825 53.6171C134.825 53.6796 134.862 53.7171 134.912 53.7421C134.912 53.7671 134.912 53.7921 134.912 53.817ZM132 50.0314C132.162 49.5942 132.25 49.1819 132.225 48.6946C131.912 49.0194 131.7 49.3193 131.487 49.6941C131.312 49.3193 131.112 49.0319 130.812 48.7571C130.8 49.2193 130.9 49.6316 131.037 50.0564C130.625 49.894 130.237 49.819 129.787 49.8066C130.062 50.1064 130.362 50.2938 130.7 50.4812C130.337 50.6686 130.025 50.856 129.75 51.1684C130.2 51.1934 130.587 51.0934 130.987 50.9685C130.825 51.3933 130.737 51.818 130.762 52.3053C131.075 51.993 131.287 51.6806 131.487 51.3058C131.675 51.6681 131.862 51.968 132.162 52.2303C132.175 51.7681 132.075 51.3683 131.937 50.931C132.35 51.0934 132.737 51.1684 133.175 51.1809C132.9 50.881 132.6 50.7061 132.262 50.5062C132.637 50.3313 132.937 50.1314 133.225 49.819C132.8 49.8066 132.412 49.894 132 50.0314Z" fill="#FA9EF4"/>
<path d="M136.825 50.1939C136.663 50.3189 136.488 50.4064 136.288 50.4439C136.363 50.3064 136.65 50.1689 136.825 50.1939Z" fill="#FA40ED"/>
<path d="M136.288 50.5312C136.488 50.5687 136.663 50.6687 136.825 50.7812C136.65 50.8187 136.363 50.6937 136.288 50.5312Z" fill="#FA40ED"/>
<path d="M133.988 48.9822C134.025 48.8697 134.088 48.7697 134.188 48.6822C134.275 48.8947 134.113 48.9197 133.988 48.9822Z" fill="#FA40ED"/>
<path d="M129.688 53.18C129.762 53.08 129.863 53.0175 129.987 52.98C129.925 53.105 129.9 53.2675 129.688 53.18Z" fill="#FA40ED"/>
<path d="M130.762 52.3928C130.762 52.4428 130.762 52.4928 130.762 52.5428C130.687 52.5428 130.6 52.6303 130.525 52.5428C130.562 52.4678 130.637 52.4303 130.712 52.3928C130.725 52.3928 130.75 52.3928 130.762 52.3928Z" fill="#FA40ED"/>
<path d="M137.325 49.869C137.262 49.9565 137.175 50.019 137.075 50.0565C137.062 49.869 137.175 49.8565 137.325 49.869Z" fill="#FA40ED"/>
<path d="M131.062 56.0534C131.025 56.1284 131 56.2034 130.925 56.2534C130.825 56.0909 130.937 56.0659 131.062 56.0534Z" fill="#FA40ED"/>
<path d="M137.062 50.931C137.138 50.9685 137.213 50.9935 137.263 51.0685C137.1 51.1685 137.075 51.056 137.062 50.931Z" fill="#FA40ED"/>
<path d="M133.438 49.6442C133.45 49.5817 133.488 49.5442 133.538 49.5067C133.588 49.5567 133.6 49.5942 133.55 49.6567C133.525 49.7067 133.475 49.6817 133.438 49.6442Z" fill="#FA40ED"/>
<path d="M134.863 47.4204C134.888 47.3579 134.913 47.2954 134.925 47.2329C135.013 47.3204 135 47.3579 134.863 47.4204Z" fill="#FA40ED"/>
<path d="M128.225 53.9171C128.287 53.8921 128.35 53.8796 128.412 53.8546C128.387 53.9546 128.35 54.0546 128.225 53.9171Z" fill="#FA40ED"/>
<path d="M133.5 51.4684C133.438 51.4309 133.388 51.3809 133.363 51.3184C133.438 51.3434 133.575 51.3059 133.5 51.4684Z" fill="#FA40ED"/>
<path d="M137.95 49.3693C137.913 49.4318 137.863 49.4568 137.8 49.4818C137.825 49.4068 137.813 49.3068 137.95 49.3693Z" fill="#FA40ED"/>
<path d="M127.65 55.5663C127.637 55.5163 127.65 55.4538 127.687 55.4163C127.75 55.4913 127.737 55.5413 127.65 55.5663Z" fill="#FA40ED"/>
<path d="M136.575 54.3418C136.525 54.3543 136.463 54.3418 136.425 54.3043C136.5 54.2418 136.55 54.2543 136.575 54.3418Z" fill="#FA40ED"/>
<path d="M134.038 52.1554C133.975 52.1304 133.95 52.0804 133.938 52.0054C134.025 52.0179 134.038 52.0804 134.038 52.1554Z" fill="#FA40ED"/>
<path d="M134.138 52.3055C134.075 52.268 134.05 52.218 134.038 52.1555C134.125 52.168 134.138 52.2305 134.138 52.3055Z" fill="#FA40ED"/>
<path d="M131.213 54.7167C131.263 54.7667 131.3 54.8167 131.3 54.8917C131.213 54.8542 131.213 54.7917 131.213 54.7167Z" fill="#FA40ED"/>
<path d="M134.913 53.7422C134.863 53.7172 134.825 53.6797 134.825 53.6172C134.888 53.6297 134.913 53.6797 134.913 53.7422Z" fill="#FA40ED"/>
<path d="M136.425 46.6832C136.45 46.6457 136.488 46.6457 136.525 46.6457C136.513 46.7082 136.488 46.7332 136.425 46.6832Z" fill="#FA40ED"/>
<path d="M135.9 50.3438C135.862 50.3438 135.825 50.3438 135.8 50.3063C135.85 50.2438 135.875 50.2813 135.9 50.3438Z" fill="#FA40ED"/>
<path d="M135.8 50.6812C135.825 50.6437 135.862 50.6437 135.9 50.6437C135.875 50.7062 135.85 50.7437 135.8 50.6812Z" fill="#FA40ED"/>
<path d="M132 50.0314C132.413 49.894 132.8 49.8065 133.25 49.819C132.963 50.1189 132.65 50.3313 132.288 50.5062C132.625 50.7061 132.938 50.881 133.2 51.1808C132.763 51.1808 132.375 51.1059 131.963 50.931C132.113 51.3682 132.213 51.768 132.188 52.2303C131.888 51.9554 131.7 51.6681 131.513 51.3058C131.313 51.6806 131.1 51.9804 130.788 52.3053C130.763 51.818 130.85 51.4057 131.013 50.9684C130.613 51.0934 130.225 51.1933 129.775 51.1683C130.063 50.8685 130.375 50.6686 130.725 50.4812C130.388 50.2938 130.088 50.1064 129.813 49.8065C130.263 49.8065 130.65 49.8815 131.063 50.0564C130.913 49.6191 130.813 49.2193 130.838 48.757C131.125 49.0319 131.325 49.3193 131.513 49.6941C131.713 49.3193 131.938 49.0069 132.25 48.6946C132.25 49.1693 132.163 49.5941 132 50.0314ZM131.55 50.3937C131.538 50.2188 131.6 50.0189 131.45 49.8565C131.45 50.0314 131.45 50.2188 131.45 50.3937C131.275 50.4937 131.063 50.3937 130.875 50.5062C131.063 50.5312 131.263 50.5561 131.45 50.5811C131.463 50.756 131.4 50.9559 131.513 51.1184C131.5 50.9435 131.65 50.7436 131.45 50.5811C131.45 50.5187 131.488 50.4437 131.45 50.3812C131.488 50.3937 131.513 50.3937 131.55 50.3937C131.7 50.6811 131.938 50.4812 132.113 50.5312C132.113 50.5062 132.125 50.4937 132.125 50.4687C131.938 50.4437 131.738 50.4187 131.55 50.3937ZM131.1 50.8685C131.113 50.8685 131.113 50.881 131.125 50.8685V50.856C131.113 50.856 131.113 50.856 131.113 50.856C131.1 50.8435 131.1 50.856 131.1 50.8685ZM131.9 50.1314V50.1189C131.888 50.1189 131.888 50.1189 131.875 50.1314V50.1439C131.888 50.1439 131.9 50.1439 131.9 50.1314Z" fill="#FA40ED"/>
<path d="M130.763 52.3928C130.75 52.3928 130.725 52.3928 130.713 52.3928C130.725 52.3678 130.75 52.3678 130.763 52.3928Z" fill="#FA40ED"/>
<path d="M131.45 50.3938C131.487 50.4563 131.45 50.5313 131.45 50.5938C131.262 50.5688 131.062 50.5438 130.875 50.5188C131.062 50.3938 131.275 50.4938 131.45 50.3938Z" fill="#FA9BF4"/>
<path d="M131.55 50.3938C131.738 50.4188 131.938 50.4438 132.125 50.4688C132.125 50.4938 132.113 50.5063 132.113 50.5313C131.925 50.4813 131.688 50.6938 131.55 50.3938Z" fill="#FA9BF4"/>
<path d="M131.45 50.3941C131.45 50.2191 131.45 50.0316 131.45 49.8566C131.587 50.0316 131.525 50.2191 131.55 50.3941C131.512 50.3941 131.487 50.3941 131.45 50.3941Z" fill="#FA9BF4"/>
<path d="M131.45 50.5938C131.65 50.7563 131.5 50.9562 131.512 51.1312C131.412 50.9562 131.475 50.7688 131.45 50.5938Z" fill="#FA9BF4"/>
<path d="M131.1 50.8686V50.8561H131.113V50.8686H131.1Z" fill="#FA9BF4"/>
<path d="M131.899 50.131C131.887 50.131 131.887 50.131 131.875 50.1432V50.131C131.875 50.131 131.887 50.131 131.899 50.1189V50.131Z" fill="#FA9BF4"/>
</g>
<g filter="url(#filter1_d)">
<path d="M88.5 63C95.4275 63 101 57.4275 101 50.5C101 43.5725 95.4275 38 88.5 38C81.5725 38 76 43.5725 76 50.5C76 57.4275 81.5725 63 88.5 63Z" fill="#2775CA"/>
<path d="M91.9374 52.4787C91.9374 50.6562 90.8437 50.0312 88.6562 49.77C87.0937 49.5612 86.7812 49.145 86.7812 48.4162C86.7812 47.6875 87.3024 47.2187 88.3437 47.2187C89.2812 47.2187 89.8024 47.5312 90.0624 48.3125C90.1149 48.4687 90.2712 48.5725 90.4274 48.5725H91.2612C91.4699 48.5725 91.6262 48.4162 91.6262 48.2075V48.155C91.4174 47.0087 90.4799 46.1237 89.2824 46.02V44.77C89.2824 44.5612 89.1262 44.405 88.8662 44.3537H88.0849C87.8762 44.3537 87.7199 44.51 87.6687 44.77V45.9675C86.1062 46.1762 85.1162 47.2175 85.1162 48.52C85.1162 50.2387 86.1575 50.9162 88.3449 51.1762C89.8037 51.4362 90.2724 51.7487 90.2724 52.5825C90.2724 53.4163 89.5437 53.9888 88.5537 53.9888C87.1999 53.9888 86.7312 53.4163 86.5749 52.635C86.5224 52.4262 86.3662 52.3225 86.21 52.3225H85.325C85.1162 52.3225 84.96 52.4787 84.96 52.6875V52.74C85.1687 54.0425 86.0012 54.98 87.7199 55.24V56.49C87.7199 56.6988 87.8762 56.855 88.1362 56.9063H88.9174C89.1262 56.9063 89.2824 56.75 89.3337 56.49V55.24C90.8962 54.9788 91.9374 53.885 91.9374 52.4787Z" fill="white"/>
<path d="M85.8438 57.9476C81.7813 56.4888 79.6975 51.9576 81.2088 47.9476C81.99 45.7601 83.7088 44.0938 85.8438 43.3126C86.0525 43.2088 86.1563 43.0526 86.1563 42.7913V42.0626C86.1563 41.8538 86.0525 41.6976 85.8438 41.6463C85.7913 41.6463 85.6875 41.6463 85.635 41.6988C80.6875 43.2613 77.9788 48.5213 79.5413 53.47C80.4788 56.3863 82.7188 58.6263 85.635 59.5638C85.8438 59.6675 86.0513 59.5638 86.1038 59.355C86.1563 59.3025 86.1563 59.2513 86.1563 59.1463V58.4175C86.1563 58.26 86 58.0526 85.8438 57.9476ZM91.365 41.6976C91.1563 41.5938 90.9488 41.6976 90.8963 41.9063C90.8438 41.9588 90.8438 42.0101 90.8438 42.1151V42.8438C90.8438 43.0526 91 43.2601 91.1563 43.3651C95.2188 44.8238 97.3025 49.3551 95.7913 53.365C95.01 55.5525 93.2913 57.2188 91.1563 58.0001C90.9475 58.1038 90.8438 58.26 90.8438 58.5213V59.2501C90.8438 59.4588 90.9475 59.6151 91.1563 59.6663C91.2088 59.6663 91.3125 59.6663 91.365 59.6138C96.3125 58.0513 99.0213 52.7913 97.4588 47.8426C96.5213 44.8751 94.2288 42.6351 91.365 41.6976Z" fill="white"/>
</g>
<g filter="url(#filter2_d)">
<path d="M109.5 68C116.404 68 122 62.4036 122 55.5C122 48.5964 116.404 43 109.5 43C102.596 43 97 48.5964 97 55.5C97 62.4036 102.596 68 109.5 68Z" fill="#F3BA2F"/>
<path d="M106.475 54.2584L109.5 51.2334L112.525 54.2584L114.283 52.5L109.5 47.7084L104.717 52.4917L106.475 54.2584ZM101.708 55.5L103.467 53.7417L105.233 55.5L103.475 57.2584L101.708 55.5ZM106.475 56.7417L109.5 59.7667L112.525 56.7417L114.283 58.5L109.5 63.2917L104.717 58.5084L106.475 56.7417ZM113.767 55.5L115.525 53.7417L117.283 55.5L115.525 57.2584L113.767 55.5Z" fill="white"/>
<path d="M111.283 55.5L109.5 53.7083L108.183 55.025L108.033 55.175L107.717 55.4917L109.5 57.275L111.283 55.5Z" fill="white"/>
</g>
<g filter="url(#filter3_d)">
<path d="M126.5 79C133.404 79 139 73.4036 139 66.5C139 59.5964 133.404 54 126.5 54C119.596 54 114 59.5964 114 66.5C114 73.4036 119.596 79 126.5 79Z" fill="#ECEFF0"/>
<path d="M126.5 55.9334L126.358 56.4168V70.3918L126.5 70.5334L132.983 66.7001L126.5 55.9334Z" fill="#343434"/>
<path d="M126.5 55.9333L120.008 66.7L126.5 70.5333V63.75V55.9333Z" fill="#8C8C8C"/>
<path d="M126.5 71.7585L126.417 71.8585V76.8335L126.5 77.0668L132.992 67.9251L126.5 71.7585Z" fill="#3C3C3B"/>
<path d="M126.5 77.0668V71.7585L120.008 67.9251L126.5 77.0668Z" fill="#8C8C8C"/>
<path d="M126.5 70.5334L132.983 66.7001L126.5 63.7501V70.5334Z" fill="#141414"/>
<path d="M120.008 66.7001L126.5 70.5334V63.7501L120.008 66.7001Z" fill="#393939"/>
</g>
<g filter="url(#filter4_d)">
<path d="M104.627 70.5235C102.96 77.2237 96.1765 81.2988 89.4762 79.6238C82.7842 77.957 78.7007 71.1735 80.3758 64.4733C82.0425 57.7814 88.8262 53.7063 95.5265 55.373C102.219 57.0397 106.294 63.8233 104.627 70.5235Z" fill="#F7931A"/>
<path d="M98.0182 65.715C98.2682 64.0483 97.0014 63.1566 95.268 62.5565L95.8264 60.3065L94.4513 59.9648L93.9096 62.1649C93.5513 62.0732 93.1762 61.9899 92.8096 61.9065L93.3596 59.6981L91.9845 59.3564L91.4262 61.6065C91.1261 61.5398 90.8345 61.4732 90.5511 61.3982V61.3898L88.6594 60.9148L88.2927 62.3815C88.2927 62.3815 89.3094 62.6149 89.2927 62.6315C89.8511 62.7732 89.9511 63.1399 89.9344 63.4316L89.2927 65.9983C89.3344 66.0066 89.3844 66.0233 89.4344 66.04C89.3927 66.0316 89.3427 66.015 89.2927 66.0066L88.3927 69.6068C88.326 69.7734 88.151 70.0318 87.7676 69.9318C87.7843 69.9484 86.7676 69.6818 86.7676 69.6818L86.0842 71.2568L87.8677 71.6985C88.201 71.7818 88.526 71.8652 88.8427 71.9485L88.276 74.2319L89.6427 74.5736L90.2011 72.3152C90.5761 72.4152 90.9428 72.5068 91.2928 72.5985L90.7345 74.8402L92.1095 75.1819L92.6762 72.9069C95.018 73.3485 96.7764 73.1735 97.5181 71.0568C98.1182 69.3567 97.4848 68.3734 96.2597 67.7317C97.1598 67.5234 97.8348 66.94 98.0182 65.715ZM94.8763 70.1151C94.4513 71.8152 91.5845 70.8985 90.6511 70.6651L91.4012 67.6484C92.3429 67.8817 95.3264 68.34 94.8763 70.1151ZM95.3014 65.69C94.918 67.24 92.5262 66.4483 91.7512 66.2567L92.4345 63.5149C93.2096 63.7149 95.7097 64.0816 95.3014 65.69Z" fill="white"/>
</g>
<g filter="url(#filter5_d)">
<path d="M117.075 81.1944V81.2035C117.111 81.3303 117.148 81.4571 117.184 81.584C117.184 81.593 117.184 81.6021 117.184 81.6112C117.184 81.6202 117.166 81.6293 117.148 81.6293C116.731 81.6746 116.368 81.4843 116.079 81.2035C116.015 81.1401 115.961 81.0676 115.87 81.0313C115.78 80.9951 115.68 81.0223 115.598 81.0495C115.037 81.2669 114.466 81.4481 113.877 81.5749C112.799 81.8014 111.685 81.8739 110.57 81.8558C108.251 81.8286 105.922 81.4753 103.73 80.7233C103.223 80.5602 102.733 80.3518 102.262 80.0982C102.018 79.9713 101.791 79.8173 101.574 79.6633C101.42 79.5455 101.202 79.2737 101.021 79.5002C100.613 79.9985 100.115 80.7414 99.3721 80.5421L99.7526 80.0076L99.0731 80.0619L99.9157 78.7029C99.7889 78.6395 99.6258 78.5489 99.4627 78.4855C99.3902 78.4583 99.3087 78.4583 99.2453 78.4946C98.7832 78.7482 97.9316 78.8751 97.4695 78.5489C97.388 78.4946 97.3337 78.4221 97.3065 78.3315C97.2431 78.1412 97.3608 78.0235 97.4695 77.9147C97.7142 77.6701 97.9407 77.3983 98.149 77.1265C98.1853 77.0812 98.2125 77.0269 98.2215 76.9634C98.2125 76.9181 98.1943 76.8638 98.1581 76.8275C97.6145 76.0484 97.2612 75.1515 97.1072 74.2092C96.9531 73.267 96.9078 72.2523 97.3699 71.3826C97.4967 71.1379 97.6779 70.9024 97.9225 70.7574C98.1762 70.6034 98.4843 70.5581 98.7832 70.5581C99.1366 70.549 99.5171 70.5943 99.7798 70.8299C99.7255 70.7755 100.088 70.0689 100.133 69.9783C100.423 69.4075 100.785 68.882 101.22 68.4109C101.383 68.2388 101.764 68.0032 101.809 67.7677C102.027 66.5083 102.761 65.6748 103.929 65.2128C104.79 64.8776 105.623 64.941 106.421 65.3849C106.566 65.4665 106.674 65.4483 106.828 65.4121C107.245 65.3215 107.662 65.2581 108.079 65.2218C109.338 65.1131 110.579 65.2762 111.802 65.5842C112.11 65.6658 112.346 65.6658 112.636 65.4936C113.207 65.1675 113.859 65.1494 114.502 65.2037C115.517 65.2853 116.26 65.7926 116.858 66.608C117.175 67.0429 117.256 67.5412 117.419 68.0213C117.456 68.121 117.501 68.2207 117.555 68.3022C117.863 68.7914 118.18 69.2807 118.488 69.779C118.806 70.2863 119.068 70.8208 119.295 71.3826C119.404 71.6544 119.512 71.9352 119.621 72.2161C119.712 72.4516 119.739 72.7506 120.001 72.8684C120.128 72.9318 120.282 72.9499 120.418 72.9771C121.397 73.2036 122.067 74.1186 121.995 75.1243C121.949 75.6588 121.705 76.1481 121.415 76.601C121.125 77.045 120.79 77.4617 120.536 77.9328C120.509 77.9781 120.491 78.0234 120.491 78.0778C120.5 78.1322 120.518 78.1775 120.554 78.2137C120.708 78.413 120.917 78.558 121.152 78.6395C121.306 78.6848 121.478 78.712 121.551 78.8841C121.578 78.9657 121.578 79.0563 121.551 79.1288C121.478 79.31 121.324 79.4096 121.152 79.4821C120.645 79.6995 120.074 79.6995 119.558 79.4821C119.494 79.4549 119.413 79.4187 119.349 79.4459C119.313 79.464 119.277 79.4911 119.249 79.5274C119.023 79.7901 118.769 80.0166 118.488 80.225C118.298 80.3609 118.099 80.4877 117.881 80.5965C117.827 80.6236 117.764 80.6599 117.737 80.7233C117.727 80.7777 117.727 80.8411 117.746 80.8954C117.764 80.986 117.782 81.0766 117.791 81.1672C117.791 81.1763 117.791 81.1944 117.782 81.2035C117.782 81.2035 117.773 81.2035 117.764 81.2035C117.546 81.2125 117.32 81.2035 117.102 81.2035C117.084 81.1854 117.075 81.1853 117.075 81.1944Z" fill="#010202"/>
<path d="M115.245 78.4131C115.236 78.8298 115.191 79.2375 115.118 79.6361C115.091 79.7902 115.055 79.9532 114.955 80.071C114.855 80.1888 114.692 80.2522 114.547 80.2975C112.926 80.823 111.096 80.8411 109.41 80.7505C107.354 80.6418 105.034 80.2975 103.177 79.3462C102.851 79.1741 102.534 78.9748 102.289 78.6939C101.891 78.2409 101.827 77.5252 101.818 76.9454C101.809 76.2659 101.981 75.5954 102.326 75.0156C102.797 74.2274 103.721 73.7563 104.591 73.566C105.542 73.3576 106.52 73.4301 107.481 73.4935C109.274 73.6204 111.105 73.7563 112.735 74.4992C113.515 74.8525 114.257 75.3689 114.71 76.1028C115.145 76.7913 115.263 77.6067 115.245 78.4131Z" fill="#CFFEDD"/>
<path d="M100.043 77.036C99.336 74.5626 100.378 71.2467 101.701 69.3623C101.719 69.3441 101.746 69.3351 101.773 69.3532C101.782 69.3532 101.782 69.3623 101.791 69.3713C101.836 69.48 101.882 69.5797 101.927 69.6793C102.145 70.1414 102.462 70.54 102.896 70.8209C103.214 71.0202 103.567 71.1561 103.929 71.2648C104.609 71.4732 105.379 71.591 106.077 71.3645C106.684 71.1652 107.2 70.5763 107.517 70.0599C107.843 69.5253 108.151 68.8005 108.169 68.1663C108.187 67.5322 108.024 66.898 107.626 66.3997C107.599 66.3634 107.571 66.3091 107.608 66.2819C107.617 66.2728 107.635 66.2728 107.653 66.2728C108.785 66.1369 109.936 66.1913 111.05 66.445C111.087 66.445 111.114 66.4631 111.141 66.4903C111.168 66.5356 111.141 66.599 111.114 66.6443C110.779 67.1698 110.543 67.7677 110.443 68.3838C110.353 68.9817 110.407 69.6159 110.643 70.1776C111.096 71.2558 112.183 71.9715 113.324 72.2161C114.067 72.3792 114.874 72.3611 115.58 72.0621C116.414 71.7088 116.976 70.9115 117.329 70.1052C117.347 70.0599 117.392 70.0417 117.438 70.0599C117.456 70.0689 117.465 70.078 117.474 70.0961C117.555 70.232 117.691 70.4132 117.709 70.4494C117.809 70.6306 117.909 70.8209 117.999 71.0021C118.181 71.3826 118.335 71.7631 118.47 72.1618C118.733 72.9228 118.987 73.711 119.068 74.5264C119.159 75.3508 119.059 76.1843 118.951 77.0088C118.878 77.5433 118.806 78.0869 118.57 78.5761C118.271 79.1922 117.746 79.5456 117.193 79.908C117.148 79.9351 117.102 79.9623 117.048 79.9261C117.021 79.8989 116.994 79.8627 116.994 79.8264C116.831 78.7664 117.057 77.6702 116.794 76.6373C116.785 76.583 116.731 76.5196 116.686 76.5467C116.677 76.5558 116.668 76.5739 116.658 76.592C116.631 76.6826 116.631 76.7732 116.613 76.8638C116.55 77.2715 116.55 77.6883 116.532 78.096L116.459 79.3734V79.3825C116.45 79.5727 116.432 79.7902 116.486 79.9714C116.541 80.1254 116.677 80.2703 116.803 80.37C116.976 80.5059 117.13 80.669 117.293 80.8139C117.32 80.8411 117.347 80.8864 117.32 80.9136C117.302 80.9317 117.275 80.9227 117.247 80.9136C117.148 80.8774 117.057 80.8321 116.957 80.7868C116.822 80.7143 116.695 80.6056 116.568 80.515C116.541 80.4878 116.504 80.4697 116.459 80.4515C116.441 80.4425 116.423 80.4425 116.405 80.4606C116.405 80.4606 116.405 80.4606 116.405 80.4697C116.387 80.515 116.396 80.5693 116.414 80.6056C116.468 80.7324 116.532 80.8502 116.604 80.977C116.649 81.0586 116.704 81.131 116.74 81.2216C116.74 81.2307 116.749 81.2488 116.74 81.2579C116.731 81.2579 116.731 81.2579 116.722 81.2579C116.613 81.2216 116.541 81.1492 116.468 81.0586C116.396 80.977 116.341 80.8864 116.287 80.7958C116.088 80.4334 116.187 80.0439 116.224 79.6452C116.26 79.2285 116.278 78.8026 116.278 78.3859C116.278 77.6702 116.278 76.9544 116.006 76.2749C115.78 75.7132 115.408 75.2149 114.973 74.7891C114.529 74.3633 114.022 73.9919 113.469 73.7019C113.297 73.6113 113.125 73.5207 112.944 73.4392C112.853 73.403 112.772 73.3577 112.681 73.3305C112.609 73.3033 112.5 73.2308 112.418 73.2308C110.806 72.6329 109.093 72.5785 107.39 72.4879C106.312 72.4336 105.216 72.3611 104.156 72.5785C102.969 72.8231 101.963 73.4573 101.365 74.5173C101.239 74.7529 101.121 74.9975 101.03 75.2512C100.94 75.4958 100.849 75.6679 100.595 75.7857C100.26 75.9488 100.197 76.3202 100.151 76.6736C100.133 76.8185 100.097 76.9091 100.079 77.036C100.061 77.045 100.052 77.045 100.043 77.036C100.052 77.045 100.043 77.045 100.043 77.036Z" fill="#00FC4C"/>
<path d="M114.122 71.5548C112.835 71.5276 111.44 70.7122 111.177 69.3895C111.077 68.8549 111.177 68.3113 111.385 67.804C111.657 67.1607 112.128 66.5718 112.754 66.2366C113.433 65.8742 114.321 65.9105 115.037 66.1551C115.562 66.3363 116.033 66.6715 116.323 67.1335C116.595 67.5594 116.695 68.0758 116.722 68.5831C116.749 69.326 116.604 70.1052 116.133 70.685C115.644 71.2739 114.874 71.5638 114.122 71.5548Z" fill="#FEFEFE"/>
<path d="M102.38 68.3929C102.389 67.4054 102.978 66.5175 103.875 66.1189C104.491 65.838 105.161 65.8381 105.796 66.0464C105.841 66.0555 105.877 66.0736 105.913 66.0917C106.421 66.282 106.865 66.5447 107.118 67.0521C107.281 67.3782 107.345 67.7406 107.345 68.103C107.345 68.6738 107.2 69.2536 106.901 69.7429C106.747 70.0056 106.529 70.2411 106.276 70.4133C105.922 70.6488 105.488 70.7394 105.062 70.7576C104.6 70.7666 104.192 70.6579 103.775 70.4676C103.422 70.3046 103.078 70.0871 102.824 69.7882C102.516 69.3895 102.371 68.8912 102.38 68.3929Z" fill="#FEFEFE"/>
<path d="M98.7471 75.8037C98.7199 75.7856 98.7018 75.7674 98.6927 75.7403C98.3756 75.1242 98.1763 74.4628 98.0857 73.7833C98.0042 73.1129 98.0042 72.3972 98.3575 71.7992C98.4028 71.7086 98.4753 71.6271 98.5568 71.5637C98.7924 71.4096 99.1095 71.4912 99.2726 71.7177C99.3179 71.7811 99.345 71.8536 99.3541 71.9261C99.3541 72.0076 99.336 72.0891 99.2997 72.1707C99.0098 73.0132 98.8467 73.892 98.8014 74.7799C98.7833 75.1151 98.8014 75.4503 98.8014 75.7856C98.7833 75.8127 98.7652 75.8127 98.7471 75.8037Z" fill="#00FC4C"/>
<path d="M119.974 76.882C120.156 75.967 120.137 75.0338 120.065 74.1007C120.065 74.0463 120.065 73.9829 120.119 73.9648C120.137 73.9648 120.156 73.9648 120.174 73.9648C120.754 74.1097 121.052 74.7167 120.898 75.2784C120.817 75.5593 120.663 75.813 120.509 76.0485L119.974 76.882Z" fill="#00FC4C"/>
<path d="M100.686 76.2477C100.686 76.2205 100.704 76.2024 100.731 76.2024C100.749 76.2024 100.777 76.2205 100.777 76.2477C100.804 76.4289 100.813 76.6192 100.822 76.8004C100.84 77.199 100.849 77.5976 100.849 77.9872C100.849 78.259 100.813 78.5218 100.749 78.7845C100.668 79.0925 100.559 79.4006 100.414 79.6814C100.414 79.6905 100.396 79.6905 100.396 79.6814C100.36 79.5999 100.324 79.5274 100.287 79.4459C100.287 79.4368 100.278 79.4187 100.269 79.4096C100.26 79.4096 100.242 79.4096 100.233 79.4096L99.9974 79.5093C99.9883 79.5093 99.9792 79.5002 99.9792 79.4912C100.079 79.3553 100.179 79.2556 100.269 79.1378C100.405 78.9385 100.496 78.712 100.523 78.4674C100.559 78.1956 100.532 77.9147 100.568 77.6429C100.595 77.353 100.604 77.054 100.623 76.7641C100.613 76.6011 100.641 76.4199 100.686 76.2477Z" fill="#00FC4C"/>
<path d="M119.73 78.2591C119.739 78.2319 119.766 78.2138 119.793 78.2228C119.802 78.2228 119.811 78.2319 119.82 78.241L120.373 78.9839C120.382 78.9929 120.391 79.0111 120.382 79.0292C120.373 79.0473 120.346 79.0473 120.319 79.0382L119.757 78.9023C119.703 78.8933 119.639 78.8752 119.612 78.8208C119.585 78.7664 119.594 78.703 119.612 78.6396L119.73 78.2591Z" fill="#00FC4C"/>
<path d="M98.2035 78.0961C98.1854 78.0961 98.1673 78.078 98.1764 78.0599C98.1764 78.0508 98.1764 78.0508 98.1854 78.0417C98.2941 77.9058 98.4119 77.7609 98.5388 77.625C98.575 77.5888 98.6294 77.5344 98.6747 77.5616C98.6837 77.5706 98.7018 77.5797 98.7109 77.5978C98.7562 77.6612 98.9464 77.8334 98.9464 77.924C98.9464 78.1323 98.421 78.1233 98.2035 78.0961Z" fill="#00FC4C"/>
<path d="M108.785 71.2739C109.003 71.2829 109.22 71.3463 109.42 71.455C109.492 71.4913 109.555 71.5456 109.601 71.6181C109.646 71.7178 109.601 71.8356 109.537 71.9262C109.438 72.0439 109.293 72.1345 109.139 72.1527C108.985 72.1798 108.822 72.1708 108.677 72.1255C108.486 72.0802 108.224 71.9805 108.133 71.7993C108.033 71.5909 108.233 71.3916 108.414 71.3282C108.523 71.292 108.649 71.2648 108.776 71.2739H108.785Z" fill="#010202"/>
<path d="M115.39 68.719C115.39 68.7643 115.381 68.8187 115.372 68.864C115.227 69.5435 114.692 70.2592 113.949 70.2954C113.342 70.3317 112.826 70.1595 112.436 69.6975C112.137 69.3532 112.119 68.9274 112.156 68.4925C112.165 68.3747 112.192 68.2479 112.219 68.1301C112.436 67.2513 113.216 66.8436 114.058 67.1698C114.638 67.3963 115.363 67.9489 115.399 68.6375C115.39 68.6647 115.39 68.6918 115.39 68.719Z" fill="#010202"/>
<path d="M104.554 66.6351C105.578 66.5717 106.774 67.6135 106.212 68.6736C106.076 68.9272 105.877 69.1356 105.633 69.2896C105.415 69.4346 105.17 69.5342 104.908 69.5614C104.355 69.6158 103.902 69.2443 103.594 68.8276C103.322 68.4652 103.223 67.9941 103.322 67.5501C103.431 67.079 103.848 66.6894 104.328 66.6532C104.418 66.6441 104.509 66.6351 104.554 66.6351Z" fill="#010202"/>
<path d="M113.288 69.7156C113.288 69.7065 113.297 69.6975 113.315 69.6794C113.46 69.5253 113.65 69.4166 113.823 69.2898C113.959 69.1992 114.085 69.0814 114.185 68.9455C114.285 68.8096 114.348 68.6375 114.475 68.5197C114.538 68.4563 114.647 68.4291 114.692 68.5288C114.783 68.7371 114.774 68.9546 114.674 69.163C114.448 69.6159 113.868 69.8062 113.388 69.779H113.342C113.324 69.779 113.297 69.779 113.288 69.7518C113.279 69.7337 113.288 69.7247 113.288 69.7156Z" fill="#FEFEFE"/>
<path d="M113.469 68.0214C113.478 68.0214 113.487 68.0214 113.497 68.0214C113.524 68.0214 113.542 68.0305 113.569 68.0395C113.605 68.0667 113.632 68.1029 113.632 68.1482C113.632 68.2569 113.596 68.3657 113.533 68.4563C113.506 68.5016 113.46 68.5287 113.415 68.5378C113.234 68.5559 113.016 68.2841 113.17 68.1392C113.243 68.0667 113.352 68.0214 113.469 68.0214Z" fill="#FEFEFE"/>
<path d="M104.781 68.4472C104.853 68.4472 104.908 68.5016 104.998 68.4834C105.062 68.4653 105.116 68.4291 105.161 68.3747C105.279 68.2479 105.379 68.0757 105.488 67.9308C105.569 67.8221 105.651 67.7496 105.787 67.8311C105.823 67.8583 105.832 67.9489 105.832 68.0123C105.805 68.3747 105.623 68.6556 105.397 68.9183C105.17 69.172 104.654 68.9545 104.554 68.7552C104.482 68.6012 104.591 68.4381 104.781 68.4472Z" fill="#FEFEFE"/>
<path d="M104.609 67.3145C104.618 67.3417 104.618 67.378 104.618 67.4051C104.6 67.5682 104.518 67.7675 104.328 67.7675C104.219 67.7675 104.11 67.6951 104.065 67.5863C104.038 67.541 104.038 67.4867 104.047 67.4323C104.065 67.387 104.101 67.3417 104.147 67.3145C104.264 67.2421 104.554 67.1515 104.609 67.3145Z" fill="#FEFEFE"/>
</g>
<path d="M110.288 80.4245C127.361 80.4245 141.201 66.5842 141.201 49.5113C141.201 32.4384 127.361 18.5981 110.288 18.5981C93.2153 18.5981 79.375 32.4384 79.375 49.5113C79.375 66.5842 93.2153 80.4245 110.288 80.4245Z" stroke="#595E67" stroke-width="1.5" stroke-miterlimit="10"/>
</g>
</g>
<defs>
<filter id="filter0_d" x="115" y="38" width="33" height="33" filterUnits="userSpaceOnUse" color-interpolation-filters="sRGB">
<feFlood flood-opacity="0" result="BackgroundImageFix"/>
<feColorMatrix in="SourceAlpha" type="matrix" values="0 0 0 0 0 0 0 0 0 0 0 0 0 0 0 0 0 0 127 0" result="hardAlpha"/>
<feOffset dy="4"/>
<feGaussianBlur stdDeviation="2"/>
<feColorMatrix type="matrix" values="0 0 0 0 0 0 0 0 0 0 0 0 0 0 0 0 0 0 0.5 0"/>
<feBlend mode="normal" in2="BackgroundImageFix" result="effect1_dropShadow"/>
<feBlend mode="normal" in="SourceGraphic" in2="effect1_dropShadow" result="shape"/>
</filter>
<filter id="filter1_d" x="72" y="38" width="33" height="33" filterUnits="userSpaceOnUse" color-interpolation-filters="sRGB">
<feFlood flood-opacity="0" result="BackgroundImageFix"/>
<feColorMatrix in="SourceAlpha" type="matrix" values="0 0 0 0 0 0 0 0 0 0 0 0 0 0 0 0 0 0 127 0" result="hardAlpha"/>
<feOffset dy="4"/>
<feGaussianBlur stdDeviation="2"/>
<feColorMatrix type="matrix" values="0 0 0 0 0 0 0 0 0 0 0 0 0 0 0 0 0 0 0.5 0"/>
<feBlend mode="normal" in2="BackgroundImageFix" result="effect1_dropShadow"/>
<feBlend mode="normal" in="SourceGraphic" in2="effect1_dropShadow" result="shape"/>
</filter>
<filter id="filter2_d" x="93" y="43" width="33" height="33" filterUnits="userSpaceOnUse" color-interpolation-filters="sRGB">
<feFlood flood-opacity="0" result="BackgroundImageFix"/>
<feColorMatrix in="SourceAlpha" type="matrix" values="0 0 0 0 0 0 0 0 0 0 0 0 0 0 0 0 0 0 127 0" result="hardAlpha"/>
<feOffset dy="4"/>
<feGaussianBlur stdDeviation="2"/>
<feColorMatrix type="matrix" values="0 0 0 0 0 0 0 0 0 0 0 0 0 0 0 0 0 0 0.5 0"/>
<feBlend mode="normal" in2="BackgroundImageFix" result="effect1_dropShadow"/>
<feBlend mode="normal" in="SourceGraphic" in2="effect1_dropShadow" result="shape"/>
</filter>
<filter id="filter3_d" x="110" y="54" width="33" height="33" filterUnits="userSpaceOnUse" color-interpolation-filters="sRGB">
<feFlood flood-opacity="0" result="BackgroundImageFix"/>
<feColorMatrix in="SourceAlpha" type="matrix" values="0 0 0 0 0 0 0 0 0 0 0 0 0 0 0 0 0 0 127 0" result="hardAlpha"/>
<feOffset dy="4"/>
<feGaussianBlur stdDeviation="2"/>
<feColorMatrix type="matrix" values="0 0 0 0 0 0 0 0 0 0 0 0 0 0 0 0 0 0 0.5 0"/>
<feBlend mode="normal" in2="BackgroundImageFix" result="effect1_dropShadow"/>
<feBlend mode="normal" in="SourceGraphic" in2="effect1_dropShadow" result="shape"/>
</filter>
<filter id="filter4_d" x="76" y="55" width="33" height="33" filterUnits="userSpaceOnUse" color-interpolation-filters="sRGB">
<feFlood flood-opacity="0" result="BackgroundImageFix"/>
<feColorMatrix in="SourceAlpha" type="matrix" values="0 0 0 0 0 0 0 0 0 0 0 0 0 0 0 0 0 0 127 0" result="hardAlpha"/>
<feOffset dy="4"/>
<feGaussianBlur stdDeviation="2"/>
<feColorMatrix type="matrix" values="0 0 0 0 0 0 0 0 0 0 0 0 0 0 0 0 0 0 0.5 0"/>
<feBlend mode="normal" in2="BackgroundImageFix" result="effect1_dropShadow"/>
<feBlend mode="normal" in="SourceGraphic" in2="effect1_dropShadow" result="shape"/>
</filter>
<filter id="filter5_d" x="93" y="65" width="33" height="24.8584" filterUnits="userSpaceOnUse" color-interpolation-filters="sRGB">
<feFlood flood-opacity="0" result="BackgroundImageFix"/>
<feColorMatrix in="SourceAlpha" type="matrix" values="0 0 0 0 0 0 0 0 0 0 0 0 0 0 0 0 0 0 127 0" result="hardAlpha"/>
<feOffset dy="4"/>
<feGaussianBlur stdDeviation="2"/>
<feColorMatrix type="matrix" values="0 0 0 0 0 0 0 0 0 0 0 0 0 0 0 0 0 0 0.5 0"/>
<feBlend mode="normal" in2="BackgroundImageFix" result="effect1_dropShadow"/>
<feBlend mode="normal" in="SourceGraphic" in2="effect1_dropShadow" result="shape"/>
</filter>
</defs>
</svg>
