<svg width="24" height="24" viewBox="0 0 24 24" fill="none" xmlns="http://www.w3.org/2000/svg">
<g clip-path="url(#clip0)">
<path d="M23.6 21.6H2.4V0.4C2.4 0.16 2.24 0 2 0C1.76 0 1.6 0.16 1.6 0.4V21.6H0.4C0.16 21.6 0 21.76 0 22C0 22.24 0.16 22.4 0.4 22.4H1.6V23.6C1.6 23.84 1.76 24 2 24C2.24 24 2.4 23.84 2.4 23.6V22.4H23.6C23.84 22.4 24 22.24 24 22C24 21.76 23.84 21.6 23.6 21.6Z" fill="white"/>
<path d="M4.4 20C4.48 20 4.64 19.92 4.72 19.84L8.4 15.36L9.68 16.64C9.76 16.72 9.92 16.8 10 16.72C10.08 16.72 10.24 16.64 10.32 16.56L13.28 12.16L15.36 14.24C15.44 14.32 15.6 14.4 15.76 14.32C15.92 14.24 16 14.16 16 14L17.44 5.20004L20.08 7.84004C20.24 8.00004 20.32 8.00004 20.4 8.00004C20.48 8.00004 20.64 7.92004 20.72 7.84004L23.92 3.04004C24.08 2.88004 24 2.64004 23.84 2.48004C23.68 2.32004 23.44 2.40004 23.28 2.56004L20.32 6.96004L17.44 4.08004C17.36 4.00004 17.2 4.00004 17.04 4.00004C16.96 4.08004 16.8 4.16004 16.8 4.32004L15.36 13.12L13.52 11.28C13.36 11.2 13.28 11.2 13.2 11.2C13.12 11.2 12.96 11.28 12.88 11.36L9.92 15.76L8.64 14.48C8.64 14.4 8.48 14.4 8.4 14.4C8.32 14.4 8.16 14.48 8.08 14.56L4.08 19.36C3.92 19.52 4 19.76 4.16 19.92C4.24 20 4.32 20 4.4 20Z" fill="white"/>
</g>
<defs>
<clipPath id="clip0">
<rect width="24" height="24" fill="white"/>
</clipPath>
</defs>
</svg>
