<svg width="24" height="24" viewBox="0 0 24 24" fill="none" xmlns="http://www.w3.org/2000/svg">
<path d="M12 15C9.243 15 7 12.757 7 10C7 7.243 9.243 5 12 5C14.757 5 17 7.243 17 10C17 12.757 14.757 15 12 15ZM12 6C9.794 6 8 7.794 8 10C8 12.206 9.794 14 12 14C14.206 14 16 12.206 16 10C16 7.794 14.206 6 12 6Z" fill="white"/>
<path d="M12 12C10.897 12 10 11.103 10 10C10 8.897 10.897 8 12 8C13.103 8 14 8.897 14 10C14 11.103 13.103 12 12 12ZM12 9C11.449 9 11 9.449 11 10C11 10.551 11.449 11 12 11C12.551 11 13 10.551 13 10C13 9.449 12.551 9 12 9Z" fill="white"/>
<path d="M19.5 23H4.5C2.019 23 0 20.981 0 18.5V4.5C0 2.019 2.019 0 4.5 0H19.5C21.981 0 24 2.019 24 4.5V18.5C24 20.981 21.981 23 19.5 23ZM4.5 1C2.57 1 1 2.57 1 4.5V18.5C1 20.43 2.57 22 4.5 22H19.5C21.43 22 23 20.43 23 18.5V4.5C23 2.57 21.43 1 19.5 1H4.5Z" fill="white"/>
<path d="M19.5 21H4.5C3.122 21 2 19.878 2 18.5V4.5C2 3.122 3.122 2 4.5 2H19.5C20.878 2 22 3.122 22 4.5V18.5C22 19.878 20.878 21 19.5 21ZM4.5 3C3.673 3 3 3.673 3 4.5V18.5C3 19.327 3.673 20 4.5 20H19.5C20.327 20 21 19.327 21 18.5V4.5C21 3.673 20.327 3 19.5 3H4.5Z" fill="white"/>
<path d="M4.5 5.00007C4.37 5.00007 4.24 4.95007 4.15 4.85007C4.05 4.76007 4 4.63007 4 4.50007C4 4.37007 4.05 4.24007 4.15 4.15007C4.33 3.96007 4.67 3.96007 4.85 4.15007C4.95 4.24007 5 4.37007 5 4.50007C5 4.63007 4.95 4.76007 4.85 4.85007C4.76 4.95007 4.63 5.00007 4.5 5.00007Z" fill="white"/>
<path d="M19.5 5.00007C19.37 5.00007 19.24 4.95007 19.15 4.86007C19.05 4.76007 19 4.63007 19 4.50007C19 4.37007 19.05 4.24007 19.15 4.15007C19.34 3.96007 19.67 3.96007 19.85 4.15007C19.95 4.24007 20 4.37007 20 4.50007C20 4.63007 19.95 4.76007 19.86 4.85007C19.76 4.95007 19.63 5.00007 19.5 5.00007Z" fill="white"/>
<path d="M19.5 18.9999C19.37 18.9999 19.24 18.9499 19.15 18.8599C19.05 18.7599 19 18.6299 19 18.4999C19 18.3699 19.05 18.2399 19.14 18.1499C19.35 17.9499 19.67 17.9599 19.85 18.1499C19.95 18.2399 20 18.3699 20 18.4999C20 18.6299 19.95 18.7599 19.85 18.8499C19.76 18.9499 19.63 18.9999 19.5 18.9999Z" fill="white"/>
<path d="M4.5 19.0001C4.37 19.0001 4.24 18.9501 4.15 18.8501C4.05 18.7601 4 18.6301 4 18.5001C4 18.3701 4.05 18.2401 4.14 18.1501C4.33 17.9601 4.67 17.9601 4.85 18.1501C4.95 18.2401 5 18.3701 5 18.5001C5 18.6301 4.95 18.7601 4.85 18.8501C4.76 18.9501 4.63 19.0001 4.5 19.0001Z" fill="white"/>
<path d="M5.5 24C5.224 24 5 23.776 5 23.5V22.5C5 22.224 5.224 22 5.5 22C5.776 22 6 22.224 6 22.5V23.5C6 23.776 5.776 24 5.5 24Z" fill="white"/>
<path d="M18.5 24C18.224 24 18 23.776 18 23.5V22.5C18 22.224 18.224 22 18.5 22C18.776 22 19 22.224 19 22.5V23.5C19 23.776 18.776 24 18.5 24Z" fill="white"/>
<path d="M10.5 19C9.673 19 9 18.327 9 17.5C9 16.673 9.673 16 10.5 16C11.327 16 12 16.673 12 17.5C12 18.327 11.327 19 10.5 19ZM10.5 17C10.224 17 10 17.224 10 17.5C10 17.776 10.224 18 10.5 18C10.776 18 11 17.776 11 17.5C11 17.224 10.776 17 10.5 17Z" fill="white"/>
<path d="M14.5 18H11.5C11.224 18 11 17.776 11 17.5C11 17.224 11.224 17 11.5 17H14.5C14.776 17 15 17.224 15 17.5C15 17.776 14.776 18 14.5 18Z" fill="white"/>
</svg>
