<svg width="24" height="24" viewBox="0 0 24 24" fill="none" xmlns="http://www.w3.org/2000/svg">
<path d="M20.99 4.451C20.989 4.441 20.986 4.433 20.984 4.423C20.971 4.345 20.942 4.275 20.898 4.213C20.892 4.204 20.893 4.192 20.886 4.183C20.882 4.178 20.5 3.678 20.5 2.5C20.5 1.325 20.88 0.825 20.88 0.825C21.007 0.677 21.035 0.468 20.954 0.291C20.873 0.114 20.695 0 20.5 0H5.5C4.122 0 3 1.122 3 2.5V21.5C3 22.878 4.122 24 5.5 24H20.5C20.776 24 21 23.776 21 23.5V4.5C21 4.482 20.992 4.468 20.99 4.451ZM5.5 1H19.709C19.627 1.26 19.57 1.611 19.535 2.007C19.523 2.006 19.513 2 19.5 2H5.5C5.224 2 5 2.224 5 2.5C5 2.776 5.224 3 5.5 3H19.5C19.513 3 19.523 2.994 19.535 2.993C19.57 3.389 19.627 3.74 19.709 4H5.5C4.673 4 4 3.327 4 2.5C4 1.673 4.673 1 5.5 1ZM20 23H5.5C4.673 23 4 22.327 4 21.5V4.487C4.419 4.804 4.935 5 5.5 5H20V23Z" fill="white"/>
</svg>
