<svg width="148" height="88" viewBox="0 0 148 88" fill="none" xmlns="http://www.w3.org/2000/svg">
<path d="M74 28.031C33.3417 28.031 0.34375 41.4573 0.34375 58.0004C0.34375 63.365 3.80559 68.3998 9.8454 72.7454L41.4439 67.261L51.1666 71.217L31.8686 82.3356C31.8686 82.3356 32.0896 82.6653 32.6052 82.7852C44.3902 86.0518 58.6058 87.9399 73.9263 87.9399C114.585 87.9399 147.583 74.5136 147.583 57.9705C147.656 41.4573 114.658 28.031 74 28.031Z" fill="#39B002"/>
<path d="M69.4333 28.031C72.5269 28.031 75.5468 28.031 78.6403 28.031C78.7877 28.2108 79.2296 28.1509 79.5242 28.1509C81.6602 28.1209 83.7963 28.2708 85.8587 28.4206C92.635 28.9001 99.1904 29.7093 105.451 30.9081C115.542 32.8261 124.013 35.5833 131.084 39.0598C136.092 41.5472 139.996 44.3044 142.795 47.3313C144.931 49.639 146.404 52.0066 147.141 54.4641C147.288 55.0335 146.993 55.6029 147.656 56.1423C147.656 57.431 147.656 58.7197 147.656 60.0084C147.288 60.0683 147.362 60.1882 147.362 60.3081C147.435 61.387 146.92 62.4659 146.404 63.5148C145.226 66.0323 143.311 68.4898 140.585 70.8274C135.871 74.9332 129.095 78.3797 120.551 81.2567C114.437 83.2947 107.661 84.883 100.222 86.0219C94.5501 86.891 88.7312 87.4904 82.6914 87.7901C81.292 87.85 79.8925 87.7301 78.5667 87.9999C75.3995 87.9999 72.2322 87.9999 69.065 87.9999C68.9914 87.88 68.6967 87.88 68.4758 87.88C64.0564 87.8201 59.7843 87.4904 55.5123 87.0408C47.3364 86.1717 39.6762 84.7931 32.6788 82.8451C32.2369 82.7252 32.0159 82.6054 31.8686 82.3656C31.353 81.2867 32.6788 80.4775 33.8573 79.6384C36.8036 77.6005 40.1181 75.6525 43.4327 73.7044C45.8633 72.8054 48.5886 72.0561 51.1666 71.2469C51.1666 72.9552 51.6822 74.6635 52.9343 76.3118C53.8182 77.4207 53.2289 77.6604 56.6171 76.9112C60.4472 76.072 63.8354 74.9332 67.0026 73.7044C67.0763 73.8843 67.2973 74.0341 67.2973 74.2139C67.4446 76.2219 68.4758 78.1999 69.6543 80.1479C70.6118 81.7063 71.7167 83.2347 73.4844 84.6733C73.6317 84.7632 73.5581 84.913 74 84.913C74.3683 84.913 74.4419 84.7632 74.5156 84.6733C74.9575 84.2837 75.3258 83.8941 75.6941 83.5045C77.7565 81.2567 79.1559 78.9191 80.0398 76.5515C80.3344 75.6525 80.6291 74.7234 80.9237 73.8243C82.0285 74.2139 83.1334 74.6335 84.2382 74.9931C86.8162 75.8622 89.5415 76.6415 92.5614 77.2109C93.3716 77.3607 93.8135 77.3607 94.1818 76.9112C95.8022 75.0231 96.3915 73.0751 96.4651 71.0971C98.7485 71.8164 100.958 72.5656 103.315 73.2249C108.471 74.7234 113.922 76.0421 119.888 76.9711C120.182 77.0311 120.477 77.1509 120.772 77.0311C121.066 76.9112 120.772 76.7913 120.624 76.6714C119.372 75.2329 117.531 73.8843 115.689 72.5656C113.038 70.6775 109.723 68.9693 106.482 67.261C110.681 67.261 114.879 67.0512 118.93 66.5417C121.95 66.1821 121.95 66.1521 120.403 65.0433C118.267 63.4849 115.542 62.1063 112.522 60.8176C115.984 60.6078 119.446 60.4879 122.908 60.2182C128.506 59.7986 134.03 59.1693 139.333 58.2702C139.628 58.2102 140.143 58.1803 140.143 58.0005C140.143 57.8206 139.628 57.8206 139.333 57.7607C132.262 56.472 124.823 55.8127 117.236 55.3931C115.689 55.3032 114.069 55.4231 112.596 55.1534C113.627 54.6738 114.732 54.1943 115.689 53.7148C117.825 52.6659 119.741 51.557 121.214 50.3283C121.656 49.9686 121.582 49.7589 120.477 49.609C115.984 48.9797 111.344 48.7099 106.556 48.7099C108.692 47.5711 110.975 46.4622 112.89 45.2634C115.91 43.4053 118.709 41.4873 120.624 39.3595C120.772 39.2396 121.14 39.0897 120.772 38.9399C120.403 38.79 120.035 38.9699 119.741 38.9998C114.879 39.7491 110.386 40.798 106.04 41.9368C102.8 42.776 99.8533 43.7949 96.7598 44.754C96.7598 43.0457 96.2442 41.3374 94.992 39.6891C94.1081 38.4604 94.0345 38.4604 91.3092 39.0897C87.4791 39.9588 84.0909 41.0677 80.9237 42.2965C80.2608 41.9368 80.7027 41.4873 80.6291 41.0977C79.9661 39.1796 79.3032 37.2616 78.0511 35.4035C77.0936 33.9949 76.136 32.6163 74.5156 31.2977C74.4419 31.2078 74.4419 31.028 74.0736 31.0579C73.779 31.0579 73.6317 31.1778 73.4844 31.2977C73.1161 31.6573 72.6742 32.0469 72.3796 32.4065C69.507 35.5533 67.9602 38.82 67.15 42.1766C66.0451 41.787 64.9403 41.3674 63.8354 41.0078C61.2575 40.1387 58.5322 39.3595 55.5123 38.79C54.7021 38.6402 54.2601 38.6402 53.8918 39.0897C52.2714 40.9778 51.6822 42.9258 51.6085 44.9038C49.3251 44.1845 47.1155 43.4353 44.7585 42.776C39.6025 41.2775 34.152 39.9588 28.1858 39.0298C27.8912 38.9699 27.5966 38.8799 27.3019 38.9998C27.0073 39.1197 27.3019 39.2396 27.4492 39.3595C28.7014 40.828 30.5428 42.1766 32.4579 43.4952C35.1095 45.3533 38.3504 47.0616 41.5912 48.7399C37.3192 48.7399 33.1208 48.9797 28.996 49.4592C26.1234 49.7888 26.1234 49.8787 27.5229 50.8977C29.7326 52.4561 32.4579 53.8647 35.4778 55.1833C35.0358 55.2133 34.5939 55.3032 34.2256 55.3032C29.2907 55.3631 24.4293 55.7827 19.6417 56.2622C15.8116 56.6518 12.0551 57.1014 8.51959 57.8206C8.29862 57.8806 7.93034 57.8506 7.93034 58.0304C7.93034 58.1803 8.29862 58.2102 8.51959 58.2402C9.69809 58.45 10.9502 58.6598 12.1287 58.8396C19.6417 59.9784 27.5229 60.5179 35.4778 60.8475C34.4466 61.3271 33.3417 61.8066 32.3842 62.2861C30.2482 63.335 28.3331 64.4439 26.86 65.6726C26.4181 66.0323 26.4917 66.2421 27.5966 66.3919C32.0896 67.0213 36.7299 67.291 41.5176 67.291C41.223 67.4408 40.9283 67.5607 40.7074 67.7106C40.4864 67.7405 40.1181 67.7405 39.9708 67.8604H39.8972V67.8904C35.2568 68.9693 30.6165 70.0781 25.9025 71.1271C22.367 71.9362 18.7578 72.7155 14.9277 73.2849C12.3497 73.6745 10.8029 73.4347 9.91906 72.7754C5.13141 69.209 1.96419 65.4928 0.859344 61.5069C0.712031 60.9974 1.08031 60.4579 0.34375 60.0084C0.34375 58.6898 0.34375 57.3411 0.34375 56.0225C0.712031 55.9625 0.638375 55.8427 0.638375 55.7228C0.564719 54.6439 1.08031 53.565 1.52225 52.516C2.70075 49.9986 4.61581 47.5411 7.34109 45.2035C12.1287 41.0977 18.9051 37.6512 27.4492 34.7741C33.4891 32.7362 40.3391 31.1478 47.7047 30.009C53.3762 29.1399 59.1951 28.5405 65.2349 28.2408C66.6344 28.1809 68.1075 28.3007 69.4333 28.031Z" fill="#39B002"/>
<path d="M51.5356 44.8739C51.5356 42.8959 52.1249 40.9479 53.8189 39.0598C54.1872 38.6103 54.6292 38.6103 55.4394 38.7601C58.4593 39.3296 61.1846 40.1088 63.7625 40.9779C64.8674 41.3675 65.9722 41.7571 67.0771 42.1467C69.8024 43.4054 72.3067 44.7241 74.1481 46.3724C75.9158 44.784 78.3465 43.4953 80.9244 42.2666C84.0917 41.0378 87.4799 39.929 91.31 39.0598C94.0353 38.4305 94.1089 38.4305 94.9928 39.6592C96.2449 41.3075 96.7605 42.9858 96.7605 44.7241C96.7605 46.1326 96.2449 47.5112 95.2874 48.8598C94.9191 49.4293 94.9928 49.4592 96.4659 49.2794C98.602 49.0397 100.812 48.7999 103.095 48.7999C103.463 48.9198 103.611 48.8598 103.684 48.71C104.642 48.71 105.599 48.68 106.557 48.68C111.344 48.68 115.985 48.9498 120.478 49.5791C121.583 49.729 121.656 49.9387 121.214 50.2984C119.741 51.5271 117.9 52.666 115.69 53.6849C114.659 54.1644 113.628 54.6439 112.597 55.1235C112.376 55.1834 112.228 55.2134 112.007 55.2733C111.271 55.0935 111.271 55.3332 111.124 55.543C110.313 55.9027 109.429 56.2323 108.251 56.4421C107.441 56.4121 106.704 56.4721 106.778 56.8917C106.262 57.0115 105.82 57.1314 105.305 57.2513C104.347 57.1614 102.653 57.491 102.137 57.8507C102.137 57.9106 102.137 57.9706 102.137 58.0305C102.579 58.3901 104.273 58.7198 105.305 58.6299C105.82 58.7498 106.262 58.8696 106.778 58.9895C106.851 59.2892 106.925 59.5589 107.956 59.3192C109.65 59.7088 111.05 60.2782 112.523 60.7577C115.543 62.0464 118.268 63.425 120.404 64.9834C121.951 66.0923 121.951 66.1222 118.931 66.4819C114.88 66.9914 110.755 67.2011 106.483 67.2011C105.599 67.2011 104.715 67.1712 103.905 67.1712C103.758 66.9614 103.463 66.9314 103.021 67.0813C100.222 67.0813 97.5708 66.8115 94.9928 66.392C94.9191 66.1822 94.7718 65.9724 94.1089 65.9125C94.1089 65.8525 94.1089 65.7926 94.1089 65.7326C94.1089 65.5828 93.9616 65.4629 93.5933 65.4329C92.2675 64.384 90.868 63.3351 89.5422 62.2862C89.5422 62.1063 89.4686 61.9565 88.953 61.9265C88.953 61.7467 88.8793 61.5969 88.3637 61.5669C87.4799 61.1473 86.6696 60.6978 85.7858 60.2782C86.2277 59.8886 85.4911 59.9785 84.9755 59.9186C84.4599 59.6788 84.4599 59.5889 85.3438 59.5589C86.6696 59.529 87.9954 59.4391 89.3213 59.3791C92.7094 59.1993 96.024 58.7498 99.3385 58.3901C99.7068 58.51 99.8541 58.4501 99.9278 58.3002C100.443 58.1803 100.959 58.0904 101.696 57.9406C100.959 57.7907 100.443 57.6709 99.9278 57.581C99.8541 57.4311 99.7068 57.3712 99.3385 57.491C94.7718 56.9216 90.1315 56.4421 85.3438 56.2923C84.3126 56.2623 85.3438 56.0525 85.4911 55.9326C85.7121 56.0225 85.9331 56.0825 86.2277 55.9626C86.5223 55.8427 86.375 55.7228 86.154 55.603C87.0379 55.1834 87.8481 54.7339 88.732 54.3143C89.4686 54.1944 90.4261 54.1045 89.9105 53.595C91.2363 52.5761 92.5621 51.5571 93.8879 50.5381C94.7718 50.3883 94.8455 50.2984 94.2562 50.0886C94.3299 49.9687 94.6245 49.8189 94.3299 49.699C93.9616 49.5491 93.5933 49.669 93.2987 49.729C88.2901 50.5981 83.5761 51.647 79.525 53.1455C79.2304 53.2354 78.9357 53.4152 78.5674 53.3253C78.1992 53.2654 78.4201 53.0855 78.3465 52.9657C77.9045 51.7069 77.5363 50.4183 76.5787 49.1895C75.9158 48.2904 75.2529 47.3614 74.1481 46.4323C71.7174 48.74 70.3916 51.0776 69.876 53.5351C69.2131 53.3553 68.7712 53.2354 68.4029 53.0855C64.4254 51.617 59.7851 50.5681 54.9238 49.729C54.6292 49.669 54.3345 49.5192 54.0399 49.699C53.819 49.8189 54.1136 49.9687 54.1872 50.0886C55.955 51.8268 58.1647 53.4452 61.0373 54.9436C61.8475 55.3632 63.026 55.6629 63.4679 56.2623C57.5754 56.4121 51.9775 56.9516 46.2324 57.9406C51.9039 58.9296 57.4281 59.4091 63.3943 59.6189C62.9523 59.8886 62.6577 60.0684 62.2894 60.2183C58.6066 61.8666 56.0286 63.7846 53.8926 65.8225C53.7453 65.9424 53.5243 66.0923 53.8189 66.1822C54.1136 66.2721 54.4819 66.1822 54.7765 66.1522C55.513 66.4819 55.734 66.2421 55.8813 66.0024C58.3856 65.4629 60.8899 64.9235 63.3943 64.384C64.5728 64.6238 64.7937 64.2342 65.162 63.9045C66.1932 63.5449 67.298 63.2152 68.3292 62.8556C68.7712 63.0654 69.2868 62.8855 69.7287 62.8556C70.0233 63.5449 70.318 64.2342 70.5389 64.9235C70.9072 66.0024 72.012 66.9914 72.3803 68.0703C72.3803 68.2501 72.3067 68.4299 72.8959 68.4898C73.1905 68.7895 73.4852 69.1192 73.7798 69.4189C72.7486 69.7485 72.1594 70.1381 72.3067 70.7076C72.012 70.9174 71.7174 71.0972 71.4228 71.307C70.6862 71.3369 70.0233 71.3669 70.6126 71.7865C69.7287 72.5057 68.2556 73.0152 67.0771 73.6446C63.9099 74.8733 60.5217 75.9822 56.6915 76.8513C53.3034 77.6005 53.8926 77.3608 53.0087 76.2519C51.7566 74.6036 51.241 72.9253 51.241 71.1871C51.241 70.8274 51.3146 70.4678 51.3146 70.1381C51.8302 70.0782 51.9039 69.9583 51.5356 69.7785C51.4619 68.8794 52.0512 68.0103 52.6404 67.1412C53.0824 66.4819 53.0087 66.4219 51.462 66.6317C48.2211 67.0213 44.8329 67.2311 41.4447 67.2311C36.657 67.2311 32.0167 66.9614 27.5237 66.332C26.4188 66.1822 26.3452 65.9724 26.7871 65.6128C28.2602 64.384 30.1016 63.2452 32.3113 62.2262C33.3425 61.7467 34.3737 61.2672 35.4049 60.7877C38.5721 59.7088 41.813 58.6599 45.8641 57.9706C41.7393 57.2513 38.4984 56.2323 35.4049 55.1534C32.385 53.8647 29.6597 52.4562 27.45 50.8678C25.9769 49.8189 26.0505 49.7589 28.9231 49.4293C33.0479 48.9498 37.2463 48.71 41.5184 48.71C45.5695 48.71 49.4732 49.0097 53.5243 49.5192C52.2722 47.9608 51.5356 46.4623 51.5356 44.8739Z" fill="#FA40ED"/>
<path d="M72.3067 70.7675C72.0857 70.2281 72.7486 69.8085 73.7798 69.4789C75.1056 68.6097 75.6212 67.6207 76.3578 66.6617C77.3889 65.2831 77.8309 63.8746 78.1992 62.436C79.0094 62.5259 79.525 62.7657 80.0406 62.9455C84.018 64.3541 88.511 65.373 93.3723 66.2122C94.0352 66.3321 94.2562 66.2422 94.1826 65.9724C94.8455 66.0324 94.9928 66.2122 95.0664 66.4519C94.3299 66.5418 94.7718 66.7516 94.9191 66.8715C95.9503 68.2501 96.5396 69.6886 96.6132 71.1272C96.6132 73.1052 96.024 75.0532 94.3299 76.9412C93.9616 77.3908 93.5933 77.3908 92.7094 77.2409C89.6895 76.6715 86.9642 75.8923 84.3863 75.0232C83.2814 74.6336 82.1766 74.244 81.0718 73.8544C78.3465 72.5957 75.8422 71.277 74.0008 69.6886C73.2642 70.0483 72.7486 70.4079 72.3067 70.7675Z" fill="#FA40ED"/>
<path d="M112.596 60.8174C111.049 60.3378 109.723 59.7684 108.029 59.3788C107.808 59.199 107.293 59.1391 106.851 59.0492C106.335 58.9293 105.893 58.8094 105.378 58.6895C104.42 58.3898 103.389 58.18 102.21 58.0901C102.21 58.0302 102.21 57.9703 102.21 57.9103C103.389 57.8204 104.42 57.5807 105.378 57.3109C105.893 57.1911 106.335 57.0712 106.851 56.9513C107.44 56.8614 107.956 56.7115 108.324 56.5018C109.429 56.292 110.313 55.9623 111.197 55.6027C111.565 55.5727 111.859 55.4828 112.08 55.333C112.301 55.273 112.449 55.243 112.67 55.1831C114.143 55.4528 115.763 55.333 117.31 55.4229C124.897 55.8424 132.336 56.5018 139.407 57.7904C139.701 57.8504 140.217 57.8504 140.217 58.0302C140.217 58.21 139.701 58.24 139.407 58.2999C134.104 59.199 128.653 59.8284 122.982 60.2479C119.446 60.4877 115.984 60.6076 112.596 60.8174Z" fill="#FA9EF4"/>
<path d="M35.4039 55.1831C38.5711 56.262 41.7383 57.3109 45.8631 58.0002C41.7383 58.7195 38.5711 59.7684 35.4039 60.8174C27.449 60.4877 19.5678 59.9482 12.0549 58.8094C10.8027 58.6296 9.6242 58.4198 8.4457 58.21C8.22473 58.18 7.85645 58.1201 7.85645 58.0002C7.85645 57.8504 8.22473 57.8504 8.4457 57.7904C11.9812 57.0712 15.7377 56.6216 19.5678 56.232C24.3554 55.7525 29.2168 55.3629 34.1517 55.273C34.5937 55.303 35.0356 55.2131 35.4039 55.1831Z" fill="#FA9EF4"/>
<path d="M80.9231 42.3264C78.3451 43.5552 75.9144 44.8439 74.1467 46.4322C72.3053 44.8139 69.801 43.4653 67.0757 42.2066C67.8859 38.8799 69.4327 35.5833 72.3053 32.4365C72.6736 32.0469 73.0418 31.6873 73.4101 31.3276C73.5574 31.2078 73.6311 31.1179 73.9994 31.0879C74.3676 31.0879 74.3676 31.2377 74.4413 31.3276C76.0617 32.6463 77.0193 34.0249 77.9768 35.4335C79.229 37.2916 79.9655 39.2096 80.5548 41.1277C80.7757 41.5173 80.3338 41.9368 80.9231 42.3264Z" fill="#FA9EF4"/>
<path d="M72.3053 70.7673C72.8209 70.4077 73.3365 70.078 73.9257 69.6584C75.6935 71.2468 78.1978 72.5655 80.9967 73.8242C80.7021 74.7233 80.4075 75.6523 80.1128 76.5514C79.3026 78.949 77.9032 81.2566 75.7671 83.5043C75.3988 83.8939 74.9569 84.2835 74.5886 84.6731C74.515 84.763 74.3677 84.9129 74.073 84.9129C73.7047 84.9129 73.7048 84.763 73.5574 84.6731C71.7897 83.2346 70.6848 81.7062 69.7273 80.1478C68.5488 78.1997 67.5913 76.2218 67.3703 74.2138C67.3703 74.034 67.1493 73.8841 67.0757 73.7043C68.2542 73.075 69.7273 72.5355 70.6112 71.8462C71.0531 71.7563 71.2004 71.5465 71.4214 71.3667C71.716 71.1569 72.0107 70.9471 72.3053 70.7673Z" fill="#FA9EF4"/>
<path d="M51.5353 44.8738C51.5353 46.4322 52.2718 47.9606 53.524 49.549C49.4729 49.0395 45.5691 48.7098 41.518 48.7398C38.2771 47.0615 35.0363 45.3533 32.3846 43.4952C30.4696 42.1465 28.6282 40.7979 27.376 39.3594C27.3024 39.2395 27.0077 39.1196 27.2287 38.9997C27.5233 38.8799 27.818 38.9997 28.1126 39.0297C34.0787 39.9288 39.5293 41.2774 44.6852 42.7759C47.0422 43.4352 49.2519 44.1845 51.5353 44.8738Z" fill="#FA9EF4"/>
<path d="M96.4649 71.1276C96.3913 69.6591 95.8757 68.2506 94.7709 66.872C94.6972 66.7521 94.1816 66.5423 94.9182 66.4524C97.4961 66.872 100.148 67.1417 102.947 67.1417C103.168 67.2616 103.462 67.2616 103.831 67.2316C104.714 67.2316 105.598 67.2616 106.409 67.2616C109.649 68.9698 112.964 70.6781 115.616 72.5662C117.457 73.8848 119.298 75.2334 120.551 76.672C120.624 76.7919 120.919 76.9117 120.698 77.0316C120.403 77.1515 120.109 77.0316 119.814 76.9717C113.848 76.0726 108.397 74.724 103.241 73.2255C100.958 72.5662 98.7483 71.8169 96.4649 71.1276Z" fill="#FA9EF4"/>
<path d="M51.3136 70.168C51.3136 70.5276 51.24 70.8873 51.24 71.2169C48.662 72.0261 46.0104 72.8053 43.5061 73.6744C41.1491 74.2139 38.7921 74.7833 36.5087 75.3228C34.0044 75.9221 31.3528 76.4616 28.6275 76.8812C28.1856 76.9411 27.7436 77.1509 27.3017 77.001C26.7861 76.8212 27.3017 76.5815 27.449 76.4016C29.5114 74.3937 32.0157 72.5056 35.0356 70.7374C36.3614 69.9582 37.7609 69.239 39.0867 68.4897C39.455 68.3099 39.7496 68.1001 39.7496 67.8604V67.8304H39.8232C40.1915 67.8304 40.4125 67.7705 40.5598 67.6805C40.8544 67.5307 41.1491 67.4108 41.37 67.261C44.7582 67.261 48.0727 67.0512 51.3873 66.6616C52.9341 66.4818 53.0077 66.5117 52.5658 67.1711C51.9765 68.0402 51.3873 68.8793 51.4609 69.8084C51.3136 69.9282 51.24 70.0481 51.3136 70.168Z" fill="#FA9EF4"/>
<path d="M106.556 48.7399C105.598 48.7399 104.641 48.7699 103.683 48.7699C103.462 48.7699 103.241 48.7699 103.094 48.8598C100.81 48.8598 98.6744 49.0995 96.4647 49.3393C94.9916 49.4891 94.9179 49.4891 95.2862 48.9197C96.2437 47.5711 96.7593 46.1925 96.7593 44.7839C99.8529 43.8549 102.799 42.8359 106.04 41.9668C110.386 40.828 114.879 39.779 119.74 39.0298C120.035 38.9698 120.403 38.82 120.771 38.9698C121.14 39.1197 120.698 39.2695 120.624 39.3894C118.709 41.4873 115.91 43.4053 112.89 45.2934C110.901 46.4922 108.618 47.601 106.556 48.7399Z" fill="#FA9EF4"/>
<path d="M40.634 67.6804C40.4867 67.8003 40.2657 67.8602 39.8975 67.8303C40.0448 67.7104 40.4131 67.7104 40.634 67.6804Z" fill="#FEFEFE"/>
<path d="M94.1079 65.9723C94.1816 66.2421 93.9606 66.332 93.2977 66.2121C88.4364 65.3729 83.9434 64.354 79.9659 62.9454C79.4503 62.7656 78.9347 62.5258 78.1245 62.4359C77.7562 63.8745 77.3143 65.283 76.2831 66.6616C75.5466 67.6206 75.031 68.6096 73.7051 69.4788C73.4105 69.1791 73.1159 68.8494 72.8213 68.5497C72.8949 68.3699 72.6003 68.25 72.3057 68.1301C71.9374 67.0512 70.7589 66.0622 70.4643 64.9833C70.2433 64.294 69.9487 63.6047 69.6541 62.9154C69.6541 62.7956 69.6541 62.6757 69.6541 62.5558C69.5804 62.4659 69.4331 62.4959 69.3594 62.5558C68.9175 62.6457 68.4756 62.7356 68.2546 62.9154C67.2234 63.2751 66.1186 63.6047 65.0874 63.9644C64.4245 64.0543 63.8352 64.2041 63.3196 64.4439C60.8153 64.9833 58.311 65.5228 55.8067 66.0622C55.4384 66.1222 55.0701 66.1821 54.7018 66.2121C54.4072 66.2421 54.0389 66.3619 53.7443 66.2421C53.4497 66.1222 53.6706 66.0023 53.818 65.8824C55.954 63.8445 58.532 61.9265 62.2148 60.2781C62.5831 60.1283 62.804 59.9485 63.3196 59.6787C57.3535 59.469 51.8292 58.9894 46.1577 58.0005C51.9029 57.0115 57.5008 56.502 63.3933 56.3222C62.9513 55.7228 61.7728 55.4231 60.9626 55.0035C58.1637 53.505 55.954 51.8867 54.1126 50.1485C53.9653 50.0286 53.6707 49.9087 53.9653 49.7589C54.2599 49.609 54.5545 49.7589 54.8492 49.7888C59.7841 50.628 64.4245 51.6769 68.3282 53.1454C68.6965 53.2953 69.1385 53.3852 69.8014 53.5949C70.317 51.1075 71.6428 48.7998 74.0734 46.4922C75.2519 47.4212 75.8412 48.3503 76.5041 49.2494C77.4616 50.4781 77.8299 51.7368 78.2718 53.0255C78.3455 53.1454 78.1245 53.3252 78.4928 53.3852C78.8611 53.4451 79.2294 53.2953 79.4503 53.2053C83.5014 51.7069 88.2154 50.6579 93.224 49.7888C93.5923 49.7289 93.9606 49.609 94.2552 49.7589C94.5499 49.8787 94.2552 50.0286 94.1816 50.1485C94.0343 50.2983 93.887 50.4482 93.8133 50.598C92.4875 51.617 91.1617 52.6359 89.8359 53.6549C89.2466 53.8347 88.8783 54.0745 88.6574 54.3742C87.7735 54.7937 86.9633 55.2433 86.0794 55.6628C85.7848 55.7228 85.5638 55.8427 85.4901 55.9925C85.4165 56.1124 84.3116 56.3222 85.3428 56.3521C90.1305 56.502 94.7708 56.9815 99.3375 57.5509C99.4848 57.6408 99.7058 57.6408 99.9268 57.6408C100.442 57.7607 100.958 57.8506 101.695 58.0005C100.958 58.1503 100.442 58.2702 99.9268 58.3601C99.7058 58.3601 99.4848 58.3601 99.3375 58.45C96.023 58.8096 92.7821 59.2891 89.3203 59.439C87.9945 59.4989 86.6686 59.5888 85.3428 59.6188C84.459 59.6488 84.459 59.7387 84.9746 59.9784C85.1219 60.1283 85.4165 60.2482 85.7848 60.3381C86.6686 60.7576 87.4789 61.2072 88.3627 61.6268C88.4364 61.7766 88.5837 61.8965 88.952 61.9864C88.952 62.1362 89.173 62.2561 89.5412 62.346C90.8671 63.395 92.2665 64.4439 93.5923 65.4928C93.5923 65.6427 93.8133 65.7326 94.1079 65.7925C94.1079 65.8524 94.1079 65.9124 94.1079 65.9723ZM76.946 56.8916C77.9036 55.8427 78.4191 54.8537 78.2718 53.6849C76.4304 54.4641 75.1783 55.1833 73.9261 56.0824C72.8949 55.1833 71.7164 54.494 69.9487 53.8347C69.875 54.9436 70.4643 55.9326 71.2745 56.9515C68.8438 56.5619 66.5605 56.3821 63.9089 56.3521C65.5293 57.0714 67.2971 57.5209 69.2858 57.9705C67.1497 58.42 65.3083 58.8696 63.6879 59.6188C66.3395 59.6787 68.6229 59.439 70.9799 59.1393C70.0223 60.1583 69.5067 61.1772 69.6541 62.346C71.4955 61.5968 72.7476 60.8476 73.9261 59.9485C75.031 60.8176 76.1358 61.5368 77.9036 62.1662C77.9772 61.0573 77.388 60.0983 76.5777 59.0494C79.0084 59.439 81.2917 59.6188 83.8697 59.6488C82.2493 58.9295 80.4815 58.5099 78.4928 58.0304C80.7025 57.6109 82.4702 57.1313 84.1643 56.3821C81.66 56.3521 79.3767 56.5619 76.946 56.8916Z" fill="#FA9EF4"/>
<path d="M105.378 57.2815C104.42 57.5812 103.389 57.791 102.21 57.8809C102.652 57.5512 104.346 57.2216 105.378 57.2815Z" fill="#FA40ED"/>
<path d="M102.21 58.0908C103.389 58.1807 104.42 58.4205 105.378 58.6902C104.346 58.7801 102.652 58.4804 102.21 58.0908Z" fill="#FA40ED"/>
<path d="M88.6572 54.3743C88.8782 54.1046 89.2465 53.8648 89.8357 53.655C90.3513 54.1645 89.3938 54.2244 88.6572 54.3743Z" fill="#FA40ED"/>
<path d="M63.3193 64.4441C63.7613 64.2044 64.3505 64.0545 65.0871 63.9646C64.7188 64.2643 64.5715 64.6539 63.3193 64.4441Z" fill="#FA40ED"/>
<path d="M69.6543 62.5559C69.6543 62.6758 69.6543 62.7957 69.6543 62.9155C69.2124 62.9155 68.6968 63.1253 68.2549 62.9155C68.4759 62.7357 68.9178 62.6458 69.3597 62.5559C69.4334 62.5559 69.5807 62.5559 69.6543 62.5559Z" fill="#FA40ED"/>
<path d="M108.323 56.502C107.955 56.7118 107.44 56.8616 106.85 56.9515C106.777 56.502 107.44 56.472 108.323 56.502Z" fill="#FA40ED"/>
<path d="M71.4211 71.3372C71.2002 71.517 71.0529 71.6968 70.6109 71.8167C70.0217 71.4271 70.6846 71.3671 71.4211 71.3372Z" fill="#FA40ED"/>
<path d="M106.777 59.0496C107.219 59.1395 107.661 59.1994 107.956 59.3792C106.998 59.619 106.851 59.3493 106.777 59.0496Z" fill="#FA40ED"/>
<path d="M85.4165 55.9627C85.4902 55.8129 85.7111 55.723 86.0058 55.6331C86.3004 55.7529 86.374 55.8428 86.0794 55.9927C85.9321 56.1126 85.6375 56.0526 85.4165 55.9627Z" fill="#FA40ED"/>
<path d="M93.8135 50.628C93.9608 50.4782 94.1081 50.3283 94.1817 50.1785C94.6973 50.3883 94.6237 50.4782 93.8135 50.628Z" fill="#FA40ED"/>
<path d="M54.7021 66.2121C55.0704 66.1522 55.4387 66.1222 55.807 66.0623C55.6597 66.302 55.4387 66.5418 54.7021 66.2121Z" fill="#FA40ED"/>
<path d="M85.7848 60.3382C85.4165 60.2482 85.1219 60.1284 84.9746 59.9785C85.4165 60.0385 86.2268 59.9485 85.7848 60.3382Z" fill="#FA40ED"/>
<path d="M112.006 55.3032C111.785 55.4531 111.49 55.513 111.122 55.5729C111.269 55.3931 111.196 55.1534 112.006 55.3032Z" fill="#FA40ED"/>
<path d="M51.3138 70.168C51.2401 70.0481 51.3138 69.8983 51.5347 69.8083C51.903 69.9882 51.8293 70.108 51.3138 70.168Z" fill="#FA40ED"/>
<path d="M103.904 67.2302C103.61 67.2602 103.241 67.2302 103.021 67.1403C103.462 66.9904 103.757 67.0204 103.904 67.2302Z" fill="#FA40ED"/>
<path d="M88.953 61.9868C88.5847 61.9269 88.4374 61.807 88.3638 61.6272C88.8794 61.6572 88.953 61.807 88.953 61.9868Z" fill="#FA40ED"/>
<path d="M89.5419 62.346C89.1736 62.256 89.0263 62.1362 88.9526 61.9863C89.4682 62.0163 89.5419 62.1661 89.5419 62.346Z" fill="#FA40ED"/>
<path d="M72.3071 68.1296C72.6018 68.2495 72.8227 68.3694 72.8227 68.5492C72.3071 68.4593 72.3071 68.3095 72.3071 68.1296Z" fill="#FA40ED"/>
<path d="M94.1084 65.7926C93.8137 65.7327 93.5928 65.6428 93.5928 65.4929C93.9611 65.5229 94.1084 65.6428 94.1084 65.7926Z" fill="#FA40ED"/>
<path d="M103.021 48.8599C103.168 48.77 103.389 48.77 103.61 48.77C103.536 48.9199 103.389 48.9798 103.021 48.8599Z" fill="#FA40ED"/>
<path d="M99.9276 57.6403C99.7067 57.6403 99.4857 57.6403 99.3384 57.5504C99.633 57.4005 99.7803 57.4905 99.9276 57.6403Z" fill="#FA40ED"/>
<path d="M99.3384 58.45C99.4857 58.3601 99.7067 58.3601 99.9276 58.3601C99.7803 58.51 99.633 58.5999 99.3384 58.45Z" fill="#FA40ED"/>
<path d="M76.9458 56.8918C79.3764 56.5621 81.6598 56.3523 84.3114 56.3823C82.6173 57.1016 80.7759 57.6111 78.6399 58.0306C80.6286 58.5101 82.47 58.9297 84.0168 59.649C81.4388 59.649 79.1555 59.4692 76.7248 59.0496C77.6087 60.0985 78.1979 61.0575 78.0506 62.1664C76.2829 61.5071 75.178 60.8178 74.0732 59.9487C72.8947 60.8478 71.6425 61.567 69.8011 62.3462C69.6538 61.1774 70.1694 60.1884 71.1269 59.1395C68.7699 59.4392 66.4866 59.6789 63.835 59.619C65.5291 58.8997 67.3705 58.4202 69.4328 57.9707C67.4441 57.5211 65.6764 57.0716 64.0559 56.3523C66.7076 56.3523 68.9909 56.5322 71.4216 56.9517C70.5377 55.9028 69.9484 54.9438 70.0957 53.8349C71.7898 54.4942 72.9683 55.1835 74.0732 56.0826C75.2517 55.1835 76.5775 54.4343 78.4189 53.6851C78.4189 54.8239 77.9033 55.8429 76.9458 56.8918ZM74.2941 57.7609C74.2205 57.3413 74.5888 56.8618 73.7049 56.4722C73.7049 56.8918 73.7049 57.3413 73.7049 57.7609C72.6737 58.0007 71.4216 57.7609 70.3167 58.0306C71.4216 58.0906 72.6001 58.1505 73.7049 58.2104C73.7786 58.63 73.4103 59.1095 74.0732 59.4991C73.9995 59.0796 74.8834 58.6 73.7049 58.2104C73.7049 58.0606 73.9259 57.8808 73.7049 57.7309C73.9259 57.7609 74.0732 57.7609 74.2941 57.7609C75.178 58.4502 76.5775 57.9707 77.6087 58.0906C77.6087 58.0306 77.6823 58.0007 77.6823 57.9407C76.5775 57.8808 75.399 57.8208 74.2941 57.7609ZM71.6425 58.8997C71.7162 58.8997 71.7162 58.9297 71.7898 58.8997V58.8698C71.7162 58.8698 71.7162 58.8698 71.7162 58.8698C71.6425 58.8398 71.6425 58.8698 71.6425 58.8997ZM76.3565 57.1315V57.1016C76.2829 57.1016 76.2829 57.1016 76.2092 57.1315V57.1615C76.2829 57.1615 76.3565 57.1615 76.3565 57.1315Z" fill="#FA40ED"/>
<path d="M69.6535 62.5557C69.5799 62.5557 69.4325 62.5557 69.3589 62.5557C69.4325 62.4958 69.5799 62.4958 69.6535 62.5557Z" fill="#FA40ED"/>
<path d="M73.7056 57.761C73.9265 57.9108 73.7056 58.0907 73.7056 58.2405C72.6007 58.1806 71.4222 58.1206 70.3174 58.0607C71.4222 57.761 72.6744 58.0007 73.7056 57.761Z" fill="#FA9BF4"/>
<path d="M74.2939 57.761C75.3988 57.8209 76.5773 57.8809 77.6821 57.9408C77.6821 58.0007 77.6085 58.0307 77.6085 58.0907C76.5036 57.9708 75.1042 58.4803 74.2939 57.761Z" fill="#FA9BF4"/>
<path d="M73.7051 57.7606C73.7051 57.341 73.7051 56.8915 73.7051 56.4719C74.5153 56.8915 74.147 57.341 74.2943 57.7606C74.0734 57.7606 73.926 57.7606 73.7051 57.7606Z" fill="#FA9BF4"/>
<path d="M73.7051 58.2402C74.8836 58.6298 73.9997 59.1093 74.0734 59.5289C73.4841 59.1093 73.8524 58.6598 73.7051 58.2402Z" fill="#FA9BF4"/>
<path d="M71.6426 58.8996V58.8696H71.7162V58.8996H71.6426Z" fill="#FA9BF4"/>
<path d="M76.3563 57.1315C76.2826 57.1315 76.2826 57.1315 76.209 57.1615V57.1315C76.209 57.1315 76.2826 57.1315 76.3563 57.1016V57.1315Z" fill="#FA9BF4"/>
<path d="M105.7 67.2428V67.2804C105.851 67.8071 106.001 68.3337 106.152 68.8604C106.152 68.898 106.152 68.9357 106.152 68.9733C106.152 69.0109 106.076 69.0485 106.001 69.0485C104.271 69.2366 102.766 68.4466 101.562 67.2804C101.299 67.0171 101.073 66.7161 100.697 66.5657C100.321 66.4152 99.9069 66.5281 99.5683 66.6409C97.236 67.5438 94.866 68.2961 92.4208 68.8228C87.9442 69.7633 83.3171 70.0642 78.69 69.989C69.0596 69.8761 59.3916 68.409 50.2879 65.2866C48.1813 64.6095 46.1499 63.7443 44.1937 62.691C43.178 62.1643 42.2375 61.5248 41.3347 60.8853C40.6952 60.3962 39.7923 59.2677 39.0399 60.2081C37.3471 62.2772 35.2781 65.3619 32.1933 64.5343L33.7733 62.3148L30.9519 62.5405L34.4505 56.8977C33.9238 56.6343 33.2467 56.2582 32.5695 55.9948C32.2686 55.882 31.93 55.882 31.6667 56.0325C29.7481 57.0858 26.212 57.6124 24.2934 56.2582C23.9549 56.0325 23.7291 55.7315 23.6163 55.3553C23.353 54.5653 23.842 54.0763 24.2934 53.6249C25.3091 52.6092 26.2496 51.4806 27.1148 50.352C27.2653 50.1639 27.3782 49.9382 27.4158 49.6749C27.3782 49.4868 27.3029 49.2611 27.1524 49.1106C24.8953 45.8754 23.4282 42.1512 22.7887 38.2388C22.1492 34.3265 21.9611 30.1132 23.8796 26.5018C24.4063 25.4861 25.1586 24.508 26.1744 23.9061C27.2277 23.2666 28.5067 23.0785 29.7481 23.0785C31.2152 23.0409 32.7952 23.229 33.8862 24.2071C33.6605 23.9814 35.1652 21.0471 35.3533 20.6709C36.5571 18.301 38.0619 16.1191 39.8675 14.1629C40.5447 13.4482 42.1247 12.4701 42.3128 11.492C43.2156 6.26299 46.2627 2.80207 51.1155 0.883515C54.6893 -0.508375 58.1502 -0.245047 61.4607 1.59827C62.0626 1.93683 62.514 1.8616 63.1535 1.71113C64.884 1.33494 66.6144 1.07161 68.3449 0.921136C73.5739 0.469712 78.7276 1.14685 83.8061 2.42588C85.0852 2.76445 86.0632 2.76445 87.267 2.0497C89.637 0.695424 92.3455 0.620182 95.0165 0.845894C99.2298 1.18446 102.314 3.29111 104.797 6.67678C106.114 8.48248 106.453 10.5515 107.13 12.5453C107.28 12.9591 107.468 13.3729 107.694 13.7115C108.973 15.7429 110.29 17.7743 111.569 19.8433C112.885 21.95 113.976 24.1695 114.917 26.5018C115.368 27.6304 115.82 28.7966 116.271 29.9627C116.647 30.9408 116.76 32.1822 117.851 32.6713C118.378 32.9346 119.017 33.0098 119.581 33.1227C123.644 34.0632 126.428 37.8626 126.127 42.0383C125.939 44.2578 124.923 46.2892 123.72 48.1702C122.516 50.0135 121.124 51.7439 120.07 53.7001C119.958 53.8882 119.882 54.0763 119.882 54.302C119.92 54.5277 119.995 54.7158 120.146 54.8663C120.785 55.6939 121.65 56.2958 122.629 56.6344C123.268 56.8224 123.983 56.9353 124.284 57.6501C124.397 57.9886 124.397 58.3648 124.284 58.6658C123.983 59.4181 123.343 59.8319 122.629 60.1329C120.522 61.0357 118.152 61.0357 116.008 60.1329C115.744 60.02 115.406 59.8696 115.142 59.9824C114.992 60.0577 114.842 60.1705 114.729 60.321C113.788 61.4119 112.735 62.3524 111.569 63.2176C110.779 63.7819 109.951 64.3086 109.048 64.76C108.823 64.8728 108.559 65.0233 108.446 65.2866C108.409 65.5124 108.409 65.7757 108.484 66.0014C108.559 66.3776 108.634 66.7538 108.672 67.13C108.672 67.1676 108.672 67.2428 108.634 67.2804C108.634 67.2804 108.597 67.2804 108.559 67.2804C107.656 67.3181 106.716 67.2804 105.813 67.2804C105.738 67.2052 105.7 67.2052 105.7 67.2428Z" fill="#010202"/>
<path d="M98.1014 55.6943C98.0638 57.4248 97.8757 59.1176 97.5747 60.7728C97.4619 61.4123 97.3114 62.0895 96.8976 62.5785C96.4838 63.0675 95.8066 63.3309 95.2047 63.519C88.471 65.7008 80.872 65.7761 73.875 65.3999C65.3355 64.9485 55.7051 63.519 47.9933 59.569C46.6391 58.8543 45.3224 58.0267 44.3067 56.8605C42.6515 54.9795 42.3882 52.0077 42.3505 49.6001C42.3129 46.7787 43.0277 43.9949 44.4572 41.5873C46.4134 38.3145 50.2505 36.3583 53.8618 35.5683C57.8118 34.7031 61.8746 35.004 65.8622 35.2674C73.3107 35.794 80.9096 36.3583 87.681 39.443C90.9162 40.9102 94.0009 43.0544 95.8819 46.1015C97.6876 48.9606 98.1766 52.3462 98.1014 55.6943Z" fill="#CFFEDD"/>
<path d="M34.9772 49.9754C32.043 39.7055 36.3691 25.9371 41.8614 18.1124C41.9367 18.0372 42.0495 17.9996 42.1624 18.0748C42.2 18.0748 42.2 18.1124 42.2376 18.1501C42.4257 18.6015 42.6138 19.0153 42.8019 19.4291C43.7047 21.3477 45.0214 23.0029 46.8271 24.169C48.1438 24.9967 49.6109 25.5609 51.1156 26.0124C53.937 26.8776 57.1346 27.3666 60.0312 26.4262C62.5517 25.5985 64.696 23.1533 66.0126 21.0091C67.3669 18.7896 68.6459 15.7801 68.7212 13.1468C68.7964 10.5135 68.1193 7.88017 66.464 5.81115C66.3512 5.66067 66.2383 5.43496 66.3888 5.32211C66.4264 5.28449 66.5017 5.28449 66.5769 5.28449C71.2792 4.72021 76.0568 4.94592 80.6839 5.99924C80.8344 5.99924 80.9472 6.07448 81.0601 6.18733C81.1729 6.37543 81.0601 6.63876 80.9472 6.82685C79.5553 9.00874 78.5772 11.4916 78.1634 14.0496C77.7872 16.5325 78.013 19.1658 78.991 21.4981C80.872 25.9747 85.3862 28.9466 90.1262 29.9623C93.2109 30.6395 96.559 30.5642 99.4932 29.3228C102.954 27.8557 105.286 24.5452 106.754 21.1972C106.829 21.0091 107.017 20.9338 107.205 21.0091C107.28 21.0467 107.318 21.0843 107.356 21.1595C107.694 21.7238 108.258 22.4762 108.334 22.6267C108.747 23.3791 109.161 24.169 109.537 24.9214C110.29 26.5014 110.929 28.0814 111.494 29.7366C112.585 32.8966 113.638 36.1694 113.976 39.5551C114.353 42.9784 113.939 46.4393 113.487 49.8626C113.186 52.0821 112.885 54.3392 111.907 56.3706C110.666 58.9287 108.484 60.3958 106.189 61.9005C106.001 62.0134 105.813 62.1263 105.587 61.9758C105.475 61.8629 105.362 61.7125 105.362 61.562C104.685 57.1606 105.625 52.6087 104.534 48.3202C104.496 48.0945 104.271 47.8312 104.083 47.944C104.045 47.9816 104.007 48.0569 103.97 48.1321C103.857 48.5083 103.857 48.8845 103.782 49.2607C103.518 50.9535 103.518 52.684 103.443 54.3768L103.142 59.681V59.7187C103.105 60.5086 103.029 61.4115 103.255 62.1639C103.481 62.8034 104.045 63.4053 104.572 63.8191C105.286 64.3834 105.926 65.0605 106.603 65.6624C106.716 65.7753 106.829 65.9634 106.716 66.0762C106.641 66.1515 106.528 66.1138 106.415 66.0762C106.001 65.9257 105.625 65.7376 105.211 65.5495C104.647 65.2486 104.12 64.7972 103.594 64.421C103.481 64.3081 103.33 64.2329 103.142 64.1577C103.067 64.12 102.992 64.12 102.916 64.1953C102.916 64.1953 102.916 64.1953 102.916 64.2329C102.841 64.421 102.879 64.6467 102.954 64.7972C103.18 65.3238 103.443 65.8129 103.744 66.3395C103.932 66.6781 104.158 66.979 104.308 67.3552C104.308 67.3929 104.346 67.4681 104.308 67.5057C104.271 67.5057 104.271 67.5057 104.233 67.5057C103.782 67.3552 103.481 67.0543 103.18 66.6781C102.879 66.3395 102.653 65.9634 102.427 65.5872C101.6 64.0824 102.014 62.4648 102.164 60.8096C102.315 59.0791 102.39 57.3111 102.39 55.5806C102.39 52.6087 102.39 49.6369 101.261 46.8155C100.321 44.4831 98.7785 42.4141 96.9728 40.646C95.1295 38.8779 93.0228 37.3356 90.7281 36.1318C90.0133 35.7556 89.2986 35.3794 88.5462 35.0408C88.17 34.8904 87.8314 34.7023 87.4552 34.5894C87.1543 34.4766 86.7029 34.1756 86.3643 34.1756C79.6682 31.6928 72.5583 31.4671 65.4859 31.0909C61.0093 30.8652 56.4575 30.5642 52.0561 31.4671C47.1281 32.4828 42.9524 35.1161 40.4695 39.5175C39.9429 40.4955 39.4539 41.5112 39.0777 42.5646C38.7015 43.5803 38.3253 44.295 37.272 44.7841C35.8801 45.4612 35.6167 47.0036 35.4287 48.4707C35.3534 49.0726 35.2029 49.4488 35.1277 49.9754C35.0525 50.0131 35.0148 50.0131 34.9772 49.9754C35.0148 50.0131 34.9772 50.0131 34.9772 49.9754Z" fill="#00FC4C"/>
<path d="M93.4365 27.2162C88.0947 27.1034 82.3014 23.7177 81.2105 18.2254C80.7966 16.0059 81.2104 13.7488 82.0757 11.6421C83.2042 8.97119 85.1604 6.52598 87.7561 5.13409C90.5775 3.62934 94.2641 3.77981 97.236 4.79551C99.4179 5.54788 101.374 6.93978 102.578 8.85833C103.706 10.6264 104.12 12.7707 104.233 14.8773C104.346 17.962 103.744 21.1972 101.788 23.6048C99.7564 26.05 96.5589 27.2538 93.4365 27.2162Z" fill="#FEFEFE"/>
<path d="M44.6828 14.088C44.7204 9.98754 47.1656 6.30091 50.8899 4.64569C53.448 3.47951 56.2317 3.47952 58.865 4.34475C59.0531 4.38237 59.2036 4.4576 59.3541 4.53284C61.4607 5.32283 63.304 6.41378 64.3574 8.52042C65.0345 9.87469 65.2978 11.3794 65.2978 12.8842C65.2978 15.2541 64.6959 17.6617 63.4545 19.6932C62.815 20.7841 61.9122 21.7622 60.8588 22.4769C59.3917 23.455 57.586 23.8312 55.8179 23.9064C53.8994 23.9441 52.2065 23.4926 50.4761 22.7026C49.009 22.0255 47.5795 21.1227 46.5261 19.8812C45.2471 18.226 44.6452 16.157 44.6828 14.088Z" fill="#FEFEFE"/>
<path d="M29.5977 44.8592C29.4849 44.784 29.4096 44.7088 29.372 44.5959C28.0553 42.0378 27.2277 39.2917 26.8516 36.4703C26.513 33.6865 26.513 30.7146 27.9801 28.2318C28.1682 27.8556 28.4691 27.517 28.8077 27.2537C29.7858 26.6142 31.1025 26.9528 31.7796 27.8932C31.9677 28.1566 32.0806 28.4575 32.1182 28.7585C32.1182 29.097 32.0429 29.4356 31.8924 29.7742C30.6886 33.2727 30.0115 36.9217 29.8234 40.6083C29.7482 42.0002 29.8234 43.3921 29.8234 44.784C29.7482 44.8969 29.673 44.8969 29.5977 44.8592Z" fill="#00FC4C"/>
<path d="M117.738 49.3354C118.491 45.5359 118.415 41.6612 118.114 37.7864C118.114 37.5607 118.114 37.2974 118.34 37.2222C118.415 37.2222 118.491 37.2222 118.566 37.2222C120.973 37.8241 122.215 40.3445 121.575 42.6769C121.237 43.843 120.597 44.8964 119.958 45.8745L117.738 49.3354Z" fill="#00FC4C"/>
<path d="M37.6481 46.703C37.6481 46.5901 37.7234 46.5149 37.8362 46.5149C37.9114 46.5149 38.0243 46.5901 38.0243 46.703C38.1372 47.4554 38.1748 48.2453 38.2124 48.9977C38.2876 50.6529 38.3253 52.3082 38.3253 53.9258C38.3253 55.0543 38.1748 56.1453 37.9115 57.2362C37.5729 58.5152 37.1215 59.7943 36.5196 60.9604C36.5196 60.9981 36.4443 60.9981 36.4443 60.9604C36.2939 60.6219 36.1434 60.3209 35.9929 59.9824C35.9929 59.9447 35.9553 59.8695 35.9177 59.8319C35.88 59.8319 35.8048 59.8319 35.7672 59.8319L34.7891 60.2457C34.7515 60.2457 34.7139 60.2081 34.7139 60.1705C35.1277 59.6062 35.5415 59.1924 35.9177 58.7033C36.4819 57.8757 36.8581 56.9353 36.971 55.9196C37.1215 54.791 37.0086 53.6248 37.1591 52.4963C37.2719 51.2925 37.3096 50.051 37.3848 48.8472C37.3472 48.1701 37.46 47.4177 37.6481 46.703Z" fill="#00FC4C"/>
<path d="M116.723 55.0543C116.761 54.9414 116.873 54.8662 116.986 54.9038C117.024 54.9038 117.061 54.9415 117.099 54.9791L119.394 58.0638C119.431 58.1014 119.469 58.1766 119.431 58.2519C119.394 58.3271 119.281 58.3271 119.168 58.2895L116.836 57.7252C116.61 57.6876 116.347 57.6124 116.234 57.3867C116.121 57.1609 116.159 56.8976 116.234 56.6343L116.723 55.0543Z" fill="#00FC4C"/>
<path d="M27.3411 54.377C27.2659 54.377 27.1906 54.3017 27.2283 54.2265C27.2283 54.1889 27.2283 54.1889 27.2659 54.1512C27.7173 53.587 28.2064 52.9851 28.733 52.4208C28.8835 52.2703 29.1092 52.0446 29.2973 52.1575C29.3349 52.1951 29.4101 52.2327 29.4478 52.3079C29.6358 52.5713 30.4259 53.286 30.4259 53.6622C30.4259 54.5274 28.244 54.4898 27.3411 54.377Z" fill="#00FC4C"/>
<path d="M71.279 26.0505C72.1819 26.0881 73.0847 26.3515 73.9123 26.8029C74.2133 26.9534 74.4766 27.1791 74.6647 27.48C74.8528 27.8938 74.6647 28.3829 74.4014 28.7591C73.9876 29.2481 73.3857 29.6243 72.7462 29.6995C72.1067 29.8124 71.4295 29.7748 70.8276 29.5867C70.0376 29.3986 68.9467 28.9848 68.5705 28.2324C68.1567 27.3672 68.9843 26.5395 69.7367 26.2762C70.1881 26.1257 70.7148 26.0129 71.2414 26.0505H71.279Z" fill="#010202"/>
<path d="M98.7032 15.4421C98.7032 15.6302 98.6656 15.8559 98.628 16.044C98.0261 18.8654 95.8066 21.8373 92.7219 21.9878C90.2014 22.1382 88.0571 21.4235 86.4395 19.5049C85.1981 18.0754 85.1229 16.3074 85.2734 14.5017C85.311 14.0126 85.4239 13.486 85.5367 12.9969C86.4396 9.34791 89.6747 7.65507 93.1733 9.00934C95.5809 9.9498 98.5904 12.2445 98.7408 15.1036C98.7032 15.2164 98.7032 15.3293 98.7032 15.4421Z" fill="#010202"/>
<path d="M53.7111 6.78952C57.962 6.52619 62.9277 10.8523 60.5953 15.2537C60.031 16.307 59.2034 17.1723 58.1877 17.8118C57.2849 18.4137 56.2692 18.8275 55.1782 18.9403C52.8835 19.166 51.0026 17.6237 49.7235 15.8932C48.595 14.3885 48.1812 12.4323 48.595 10.589C49.0464 8.63283 50.7768 7.01522 52.7706 6.86475C53.1468 6.82713 53.523 6.78952 53.7111 6.78952Z" fill="#010202"/>
<path d="M89.9752 19.5797C89.9752 19.5421 90.0128 19.5045 90.0881 19.4293C90.69 18.7897 91.4799 18.3383 92.1947 17.8116C92.759 17.4355 93.2856 16.9464 93.6994 16.3821C94.1133 15.8179 94.3766 15.1031 94.9033 14.6141C95.1666 14.3507 95.618 14.2379 95.8061 14.6517C96.1823 15.5169 96.1447 16.4198 95.7309 17.285C94.7904 19.1659 92.3828 19.9559 90.389 19.8431H90.2009C90.1257 19.8431 90.0128 19.8431 89.9752 19.7302C89.9376 19.655 89.9752 19.6173 89.9752 19.5797Z" fill="#FEFEFE"/>
<path d="M90.7283 12.5457C90.7659 12.5457 90.8035 12.5457 90.8411 12.5457C90.954 12.5457 91.0292 12.5833 91.1421 12.6209C91.2926 12.7338 91.4054 12.8842 91.4054 13.0723C91.4054 13.5237 91.255 13.9752 90.9916 14.3514C90.8788 14.5394 90.6907 14.6523 90.5026 14.6899C89.7502 14.7652 88.8474 13.6366 89.4869 13.0347C89.7878 12.7338 90.2392 12.5457 90.7283 12.5457Z" fill="#FEFEFE"/>
<path d="M54.6516 14.3139C54.9525 14.3139 55.1782 14.5396 55.5544 14.4644C55.8177 14.3892 56.0435 14.2387 56.2315 14.013C56.7206 13.4863 57.1344 12.7715 57.5858 12.1697C57.9244 11.7182 58.263 11.4173 58.8272 11.7558C58.9777 11.8687 59.0153 12.2449 59.0153 12.5082C58.9025 14.013 58.1501 15.1791 57.2096 16.2701C56.2692 17.3234 54.1249 16.4206 53.7111 15.5929C53.4101 14.9534 53.8616 14.2763 54.6516 14.3139Z" fill="#FEFEFE"/>
<path d="M53.9369 9.61093C53.9745 9.72378 53.9745 9.87426 53.9745 9.98711C53.8993 10.6642 53.5607 11.4919 52.7707 11.4919C52.3193 11.4919 51.8679 11.1909 51.6798 10.7395C51.5669 10.5514 51.5669 10.3257 51.6045 10.1C51.6798 9.91187 51.8302 9.72378 52.0183 9.61093C52.5074 9.30998 53.7112 8.93379 53.9369 9.61093Z" fill="#FEFEFE"/>
</svg>
