                  <svg viewBox="0 0 512 512" width="28px" fill="#e075f3" xmlns="http://www.w3.org/2000/svg" class="sc-bdfBwQ egsOrl">
                     <path d="m219.128 313.617c8.231 5.384 14.697 7.961 21.872 9.122v8.255c0 8.284 6.716 14.999 15 14.999s15-6.715 15-14.999v-10.298c35.757-13.578 40.225-65.568.955-79.448-6.506-2.299-17.239-6.152-22.238-9.843-11.154-8.234 3.277-21.621 19.436-9.005 6.091 5.618 15.58 5.231 21.196-.857 5.616-6.089 5.232-15.578-.858-21.194-1.155-.9-6.503-7.273-18.49-10.949v-8.395c0-8.284-6.716-14.999-15-14.999s-15 6.715-15 14.999v8.87c-27.512 9.399-34.143 46.772-13.315 63.107 7.777 6.099 18.301 10.686 29.009 14.649 5.387 1.993 16.042 4.231 12.288 15.857-1.039 3.218-3.448 7.088-7.901 8.971-.37.156-12.308 4.7-25.529-3.946-6.933-4.536-16.229-2.592-20.764 4.341-4.537 6.932-2.594 16.228 4.339 20.763z"></path>
                     <path d="m474.719 409.783-46.743-33.385c24.285-34.358 38.024-76.054 38.024-120.398 0-115.176-93.22-208.977-208.177-209.961-11.928-1.518-13.246-.965-91.823-1.012v-30.009c0-12.176-13.801-19.288-23.719-12.205l-105 74.994c-8.369 5.977-8.367 18.434 0 24.41l46.687 33.345c-24.262 34.58-37.968 76.143-37.968 120.438 0 115.785 94.206 209.984 210 209.984v-.076c12.969 1.863 17.068.757 90 1.076v29.998c0 12.172 13.798 19.289 23.719 12.205l105-74.994c8.368-5.977 8.367-18.435 0-24.41zm-338.719-365.62v15.851c0 8.279 6.708 14.992 14.987 14.999h90.325c41.779 0 67.926 23.853 73.59 60.419-19.264-19.048-45.642-30.422-73.902-30.422h-90c-8.284 0-15 6.715-15 14.999v15.851l-64.193-45.848zm-27.619 108.836 33.9 24.213c9.909 7.076 23.719-.019 23.719-12.205v-29.998h75c31.748 0 60.17 20.089 70.726 49.989 3.641 10.315 14.498 10.124 14.145 10.006 6.349 0 12.011-3.998 14.136-9.981 10.79-30.392 6.551-66.394-8.943-92.593 103.593 47.722 135.875 176.71 72.503 266.532l-33.847-24.174c-9.91-7.076-23.72.019-23.72 12.205v29.998h-75c-31.748 0-60.17-20.089-70.726-49.989-3.641-10.315-14.498-10.124-14.145-10.006-6.349 0-12.011 3.998-14.136 9.981-10.708 30.161-7.358 65.373 12.232 94.065-104.264-45.513-140.793-175.194-75.844-268.043zm267.619 314.838v-15.851c0-8.284-6.716-14.999-15-14.999h-90c-36.229 0-66.541-25.821-73.499-60.023 19.228 18.807 45.437 30.025 73.499 30.025h90c8.284 0 15-6.715 15-14.999v-15.851l64.193 45.849z"></path>
                  </svg>
