<svg width="55" height="30" viewBox="0 0 55 30" fill="none" xmlns="http://www.w3.org/2000/svg">
<path d="M40 30C48.2843 30 55 23.2843 55 15C55 6.71573 48.2843 0 40 0C31.7157 0 25 6.71573 25 15C25 23.2843 31.7157 30 40 30Z" fill="#F3BA2F"/>
<path d="M39.9999 5.62012L42.3199 7.99012L36.4899 13.8201L34.1699 11.5001L39.9999 5.62012Z" fill="white"/>
<path d="M43.5199 9.14014L45.8399 11.5101L36.4899 20.8601L34.1699 18.5401L43.5199 9.14014Z" fill="white"/>
<path d="M32.9699 12.6602L35.2899 15.0302L32.9699 17.3502L30.6499 15.0302L32.9699 12.6602Z" fill="white"/>
<path d="M47.0302 12.6602L49.3502 15.0302L40.0002 24.3802L37.6802 22.0602L47.0302 12.6602Z" fill="white"/>
<path d="M15 30C23.2843 30 30 23.2843 30 15C30 6.71573 23.2843 0 15 0C6.71573 0 0 6.71573 0 15C0 23.2843 6.71573 30 15 30Z" fill="#F3BA2F"/>
<path d="M11.3699 13.5101L14.9999 9.88015L18.6299 13.5101L20.7399 11.4001L14.9999 5.65015L9.2599 11.3901L11.3699 13.5101ZM5.6499 15.0001L7.7599 12.8901L9.8799 15.0001L7.7699 17.1101L5.6499 15.0001ZM11.3699 16.4901L14.9999 20.1201L18.6299 16.4901L20.7399 18.6001L14.9999 24.3501L9.2599 18.6101L11.3699 16.4901ZM20.1199 15.0001L22.2299 12.8901L24.3399 15.0001L22.2299 17.1101L20.1199 15.0001Z" fill="white"/>
<path d="M17.1399 15.0001L14.9999 12.8501L13.4199 14.4301L13.2399 14.6101L12.8599 14.9901L14.9999 17.1301L17.1399 15.0001Z" fill="white"/>
</svg>
