<svg width="104" height="70" viewBox="0 0 104 70" fill="none" xmlns="http://www.w3.org/2000/svg">
<path d="M83.4536 67.2428V67.2804C83.6041 67.8071 83.7546 68.3337 83.905 68.8604C83.905 68.898 83.905 68.9357 83.905 68.9733C83.905 69.0109 83.8298 69.0485 83.7546 69.0485C82.0241 69.2366 80.5194 68.4466 79.3156 67.2804C79.0522 67.0171 78.8265 66.7161 78.4503 66.5657C78.0741 66.4152 77.6603 66.5281 77.3218 66.6409C74.9894 67.5438 72.6194 68.2961 70.1742 68.8228C65.6976 69.7633 61.0705 70.0642 56.4434 69.989C46.8131 69.8761 37.1451 68.409 28.0414 65.2866C25.9347 64.6095 23.9033 63.7443 21.9471 62.691C20.9314 62.1643 19.991 61.5248 19.0881 60.8853C18.4486 60.3962 17.5458 59.2677 16.7934 60.2081C15.1005 62.2772 13.0315 65.3619 9.94678 64.5343L11.5268 62.3148L8.70537 62.5405L12.2039 56.8977C11.6772 56.6343 11.0001 56.2582 10.323 55.9948C10.022 55.882 9.68347 55.882 9.42013 56.0325C7.50158 57.0858 3.96542 57.6124 2.04687 56.2582C1.7083 56.0325 1.48259 55.7315 1.36974 55.3553C1.10641 54.5653 1.59544 54.0763 2.04687 53.6249C3.06257 52.6092 4.00304 51.4806 4.86827 50.352C5.01874 50.1639 5.13161 49.9382 5.16923 49.6749C5.13161 49.4868 5.05637 49.2611 4.9059 49.1106C2.64878 45.8754 1.18164 42.1512 0.542121 38.2388C-0.0973958 34.3265 -0.28548 30.1132 1.63307 26.5018C2.15973 25.4861 2.9121 24.508 3.9278 23.9061C4.98112 23.2666 6.26015 23.0785 7.50157 23.0785C8.9687 23.0409 10.5487 23.229 11.6396 24.2071C11.4139 23.9814 12.9187 21.0471 13.1068 20.6709C14.3106 18.301 15.8153 16.1191 17.621 14.1629C18.2981 13.4482 19.8781 12.4701 20.0662 11.492C20.9691 6.26299 24.0162 2.80207 28.869 0.883515C32.4427 -0.508375 35.9037 -0.245047 39.2141 1.59827C39.816 1.93683 40.2674 1.8616 40.9069 1.71113C42.6374 1.33494 44.3679 1.07161 46.0983 0.921136C51.3273 0.469712 56.481 1.14685 61.5596 2.42588C62.8386 2.76445 63.8167 2.76445 65.0205 2.0497C67.3905 0.695424 70.099 0.620182 72.7699 0.845894C76.9832 1.18446 80.0679 3.29111 82.5508 6.67678C83.8674 8.48248 84.206 10.5515 84.8831 12.5453C85.0336 12.9591 85.2217 13.3729 85.4474 13.7115C86.7265 15.7429 88.0431 17.7743 89.3221 19.8433C90.6388 21.95 91.7297 24.1695 92.6702 26.5018C93.1216 27.6304 93.573 28.7966 94.0245 29.9627C94.4006 30.9408 94.5135 32.1822 95.6045 32.6713C96.1311 32.9346 96.7706 33.0098 97.3349 33.1227C101.398 34.0632 104.182 37.8626 103.881 42.0383C103.692 44.2578 102.677 46.2892 101.473 48.1702C100.269 50.0135 98.8772 51.7439 97.8239 53.7001C97.7111 53.8882 97.6358 54.0763 97.6358 54.302C97.6734 54.5277 97.7487 54.7158 97.8992 54.8663C98.5387 55.6939 99.4039 56.2958 100.382 56.6344C101.022 56.8224 101.736 56.9353 102.037 57.6501C102.15 57.9886 102.15 58.3648 102.037 58.6658C101.736 59.4181 101.097 59.8319 100.382 60.1329C98.2754 61.0357 95.9054 61.0357 93.7611 60.1329C93.4978 60.02 93.1592 59.8696 92.8959 59.9824C92.7454 60.0577 92.595 60.1705 92.4821 60.321C91.5416 61.4119 90.4883 62.3524 89.3221 63.2176C88.5321 63.7819 87.7045 64.3086 86.8017 64.76C86.576 64.8728 86.3127 65.0233 86.1998 65.2866C86.1622 65.5124 86.1622 65.7757 86.2374 66.0014C86.3126 66.3776 86.3879 66.7538 86.4255 67.13C86.4255 67.1676 86.4255 67.2428 86.3879 67.2804C86.3879 67.2804 86.3503 67.2804 86.3126 67.2804C85.4098 67.3181 84.4693 67.2804 83.5665 67.2804C83.4913 67.2052 83.4536 67.2052 83.4536 67.2428Z" fill="#010202"/>
<path d="M75.8547 55.6943C75.8171 57.4248 75.629 59.1176 75.328 60.7728C75.2152 61.4123 75.0647 62.0895 74.6509 62.5785C74.2371 63.0675 73.5599 63.3309 72.958 63.519C66.2243 65.7008 58.6253 65.7761 51.6283 65.3999C43.0888 64.9485 33.4585 63.519 25.7466 59.569C24.3924 58.8543 23.0757 58.0267 22.06 56.8605C20.4048 54.9795 20.1415 52.0077 20.1038 49.6001C20.0662 46.7787 20.781 43.9949 22.2105 41.5873C24.1667 38.3145 28.0038 36.3583 31.6152 35.5683C35.5651 34.7031 39.6279 35.004 43.6155 35.2674C51.064 35.794 58.6629 36.3583 65.4343 39.443C68.6695 40.9102 71.7542 43.0544 73.6352 46.1015C75.4409 48.9606 75.9299 52.3462 75.8547 55.6943Z" fill="#CFFEDD"/>
<path d="M12.7307 49.9754C9.79642 39.7055 14.1226 25.9371 19.6149 18.1124C19.6901 18.0372 19.803 17.9996 19.9158 18.0748C19.9534 18.0748 19.9535 18.1124 19.9911 18.1501C20.1792 18.6015 20.3673 19.0153 20.5554 19.4291C21.4582 21.3477 22.7749 23.0029 24.5806 24.169C25.8972 24.9967 27.3643 25.5609 28.8691 26.0124C31.6905 26.8776 34.8881 27.3666 37.7847 26.4262C40.3051 25.5985 42.4494 23.1533 43.7661 21.0091C45.1203 18.7896 46.3994 15.7801 46.4746 13.1468C46.5498 10.5135 45.8727 7.88017 44.2175 5.81115C44.1046 5.66067 43.9918 5.43496 44.1423 5.32211C44.1799 5.28449 44.2551 5.28449 44.3303 5.28449C49.0327 4.72021 53.8102 4.94592 58.4373 5.99924C58.5878 5.99924 58.7007 6.07448 58.8135 6.18733C58.9264 6.37543 58.8135 6.63876 58.7007 6.82685C57.3088 9.00874 56.3307 11.4916 55.9169 14.0496C55.5407 16.5325 55.7664 19.1658 56.7445 21.4981C58.6254 25.9747 63.1397 28.9466 67.8796 29.9623C70.9643 30.6395 74.3124 30.5642 77.2467 29.3228C80.7076 27.8557 83.0399 24.5452 84.5071 21.1972C84.5823 21.0091 84.7704 20.9338 84.9585 21.0091C85.0337 21.0467 85.0713 21.0843 85.109 21.1595C85.4475 21.7238 86.0118 22.4762 86.087 22.6267C86.5008 23.3791 86.9146 24.169 87.2908 24.9214C88.0432 26.5014 88.6827 28.0814 89.247 29.7366C90.338 32.8966 91.3913 36.1694 91.7298 39.5551C92.106 42.9784 91.6922 46.4393 91.2408 49.8626C90.9398 52.0821 90.6389 54.3392 89.6608 56.3706C88.4194 58.9287 86.2375 60.3958 83.9428 61.9005C83.7547 62.0134 83.5666 62.1263 83.3409 61.9758C83.228 61.8629 83.1152 61.7125 83.1152 61.562C82.438 57.1606 83.3785 52.6087 82.2876 48.3202C82.2499 48.0945 82.0242 47.8312 81.8361 47.944C81.7985 47.9816 81.7609 48.0569 81.7233 48.1321C81.6104 48.5083 81.6104 48.8845 81.5352 49.2607C81.2719 50.9535 81.2719 52.684 81.1966 54.3768L80.8956 59.681V59.7187C80.858 60.5086 80.7828 61.4115 81.0085 62.1639C81.2342 62.8034 81.7985 63.4053 82.3252 63.8191C83.0399 64.3834 83.6795 65.0605 84.3566 65.6624C84.4694 65.7753 84.5823 65.9634 84.4694 66.0762C84.3942 66.1515 84.2814 66.1138 84.1685 66.0762C83.7547 65.9257 83.3785 65.7376 82.9647 65.5495C82.4004 65.2486 81.8738 64.7972 81.3471 64.421C81.2342 64.3081 81.0837 64.2329 80.8956 64.1577C80.8204 64.12 80.7452 64.12 80.6699 64.1953C80.6699 64.1953 80.6699 64.1953 80.6699 64.2329C80.5947 64.421 80.6323 64.6467 80.7076 64.7972C80.9333 65.3238 81.1966 65.8129 81.4976 66.3395C81.6857 66.6781 81.9114 66.979 82.0619 67.3552C82.0619 67.3929 82.0995 67.4681 82.0619 67.5057C82.0242 67.5057 82.0242 67.5057 81.9866 67.5057C81.5352 67.3552 81.2343 67.0543 80.9333 66.6781C80.6324 66.3395 80.4066 65.9634 80.1809 65.5872C79.3533 64.0824 79.7671 62.4648 79.9176 60.8096C80.068 59.0791 80.1433 57.3111 80.1433 55.5806C80.1433 52.6087 80.1433 49.6369 79.0147 46.8155C78.0742 44.4831 76.5319 42.4141 74.7262 40.646C72.8829 38.8779 70.7763 37.3356 68.4815 36.1318C67.7668 35.7556 67.052 35.3794 66.2996 35.0408C65.9235 34.8904 65.5849 34.7023 65.2087 34.5894C64.9077 34.4766 64.4563 34.1756 64.1177 34.1756C57.4216 31.6928 50.3117 31.4671 43.2394 31.0909C38.7628 30.8652 34.2109 30.5642 29.8096 31.4671C24.8815 32.4828 20.7058 35.1161 18.223 39.5175C17.6963 40.4955 17.2073 41.5112 16.8311 42.5646C16.4549 43.5803 16.0787 44.295 15.0254 44.7841C13.6335 45.4612 13.3702 47.0036 13.1821 48.4707C13.1069 49.0726 12.9564 49.4488 12.8812 49.9754C12.8059 50.0131 12.7683 50.0131 12.7307 49.9754C12.7683 50.0131 12.7307 50.0131 12.7307 49.9754Z" fill="#00FC4C"/>
<path d="M71.1899 27.2162C65.8481 27.1034 60.0548 23.7177 58.9639 18.2254C58.55 16.0059 58.9638 13.7488 59.8291 11.6421C60.9576 8.97119 62.9138 6.52598 65.5095 5.13409C68.3309 3.62934 72.0175 3.77981 74.9894 4.79551C77.1713 5.54788 79.1274 6.93978 80.3312 8.85833C81.4598 10.6264 81.8736 12.7707 81.9864 14.8773C82.0993 17.962 81.4974 21.1972 79.5412 23.6048C77.5098 26.05 74.3123 27.2538 71.1899 27.2162Z" fill="#FEFEFE"/>
<path d="M22.4363 14.088C22.4739 9.98754 24.9191 6.30091 28.6434 4.64569C31.2014 3.47951 33.9852 3.47952 36.6185 4.34475C36.8066 4.38237 36.9571 4.4576 37.1076 4.53284C39.2142 5.32283 41.0575 6.41378 42.1108 8.52042C42.788 9.87469 43.0513 11.3794 43.0513 12.8842C43.0513 15.2541 42.4494 17.6617 41.208 19.6932C40.5685 20.7841 39.6656 21.7622 38.6123 22.4769C37.1452 23.455 35.3395 23.8312 33.5714 23.9064C31.6529 23.9441 29.96 23.4926 28.2296 22.7026C26.7624 22.0255 25.3329 21.1227 24.2796 19.8812C23.0006 18.226 22.3987 16.157 22.4363 14.088Z" fill="#FEFEFE"/>
<path d="M7.35102 44.8592C7.23816 44.784 7.16291 44.7088 7.12529 44.5959C5.80864 42.0378 4.98105 39.2917 4.60486 36.4703C4.2663 33.6865 4.2663 30.7146 5.73342 28.2318C5.92152 27.8556 6.22245 27.517 6.56101 27.2537C7.5391 26.6142 8.85576 26.9528 9.5329 27.8932C9.72099 28.1566 9.83385 28.4575 9.87147 28.7585C9.87147 29.097 9.79622 29.4356 9.64575 29.7742C8.44195 33.2727 7.76482 36.9217 7.57672 40.6083C7.50149 42.0002 7.57672 43.3921 7.57672 44.784C7.50149 44.8969 7.42626 44.8969 7.35102 44.8592Z" fill="#00FC4C"/>
<path d="M95.4917 49.3354C96.2441 45.5359 96.1688 41.6612 95.8679 37.7864C95.8679 37.5607 95.8679 37.2974 96.0936 37.2222C96.1688 37.2222 96.244 37.2222 96.3193 37.2222C98.7269 37.8241 99.9683 40.3445 99.3288 42.6769C98.9902 43.843 98.3507 44.8964 97.7112 45.8745L95.4917 49.3354Z" fill="#00FC4C"/>
<path d="M15.4013 46.703C15.4013 46.5901 15.4766 46.5149 15.5894 46.5149C15.6647 46.5149 15.7775 46.5901 15.7775 46.703C15.8904 47.4554 15.928 48.2453 15.9656 48.9977C16.0409 50.6529 16.0785 52.3082 16.0785 53.9258C16.0785 55.0543 15.928 56.1453 15.6647 57.2362C15.3261 58.5152 14.8747 59.7943 14.2728 60.9604C14.2728 60.9981 14.1976 60.9981 14.1976 60.9604C14.0471 60.6219 13.8966 60.3209 13.7461 59.9824C13.7461 59.9447 13.7085 59.8695 13.6709 59.8319C13.6333 59.8319 13.558 59.8319 13.5204 59.8319L12.5423 60.2457C12.5047 60.2457 12.4671 60.2081 12.4671 60.1705C12.8809 59.6062 13.2947 59.1924 13.6709 58.7033C14.2352 57.8757 14.6113 56.9353 14.7242 55.9196C14.8747 54.791 14.7618 53.6248 14.9123 52.4963C15.0252 51.2925 15.0628 50.051 15.138 48.8472C15.1004 48.1701 15.2132 47.4177 15.4013 46.703Z" fill="#00FC4C"/>
<path d="M94.476 55.0543C94.5136 54.9414 94.6265 54.8662 94.7393 54.9038C94.7769 54.9038 94.8146 54.9415 94.8522 54.9791L97.1469 58.0638C97.1845 58.1014 97.2221 58.1766 97.1845 58.2519C97.1469 58.3271 97.0341 58.3271 96.9212 58.2895L94.5888 57.7252C94.3631 57.6876 94.0998 57.6124 93.9869 57.3867C93.8741 57.1609 93.9117 56.8976 93.9869 56.6343L94.476 55.0543Z" fill="#00FC4C"/>
<path d="M5.0942 54.377C5.01896 54.377 4.94373 54.3017 4.98135 54.2265C4.98135 54.1889 4.98134 54.1889 5.01896 54.1512C5.47038 53.587 5.95944 52.9851 6.4861 52.4208C6.63657 52.2703 6.86228 52.0446 7.05038 52.1575C7.08799 52.1951 7.16322 52.2327 7.20084 52.3079C7.38893 52.5713 8.17894 53.286 8.17894 53.6622C8.17894 54.5274 5.99705 54.4898 5.0942 54.377Z" fill="#00FC4C"/>
<path d="M49.0325 26.0505C49.9354 26.0881 50.8382 26.3515 51.6658 26.8029C51.9668 26.9534 52.2301 27.1791 52.4182 27.48C52.6063 27.8938 52.4182 28.3829 52.1548 28.7591C51.741 29.2481 51.1392 29.6243 50.4996 29.6995C49.8601 29.8124 49.183 29.7748 48.5811 29.5867C47.7911 29.3986 46.7001 28.9848 46.324 28.2324C45.9102 27.3672 46.7378 26.5395 47.4902 26.2762C47.9416 26.1257 48.4682 26.0129 48.9949 26.0505H49.0325Z" fill="#010202"/>
<path d="M76.4567 15.4421C76.4567 15.6302 76.4191 15.8559 76.3815 16.044C75.7796 18.8654 73.5601 21.8373 70.4754 21.9878C67.9549 22.1382 65.8107 21.4235 64.1931 19.5049C62.9516 18.0754 62.8764 16.3074 63.0269 14.5017C63.0645 14.0126 63.1774 13.486 63.2902 12.9969C64.1931 9.34791 67.4282 7.65507 70.9268 9.00934C73.3344 9.9498 76.3439 12.2445 76.4944 15.1036C76.4567 15.2164 76.4567 15.3293 76.4567 15.4421Z" fill="#010202"/>
<path d="M31.4647 6.78952C35.7156 6.52619 40.6812 10.8523 38.3489 15.2537C37.7846 16.307 36.957 17.1723 35.9413 17.8118C35.0384 18.4137 34.0227 18.8275 32.9318 18.9403C30.637 19.166 28.7561 17.6237 27.4771 15.8932C26.3485 14.3885 25.9347 12.4323 26.3485 10.589C26.7999 8.63283 28.5304 7.01522 30.5242 6.86475C30.9004 6.82713 31.2766 6.78952 31.4647 6.78952Z" fill="#010202"/>
<path d="M67.7289 19.5797C67.7289 19.5421 67.7665 19.5045 67.8417 19.4293C68.4436 18.7897 69.2336 18.3383 69.9484 17.8116C70.5126 17.4355 71.0393 16.9464 71.4531 16.3821C71.8669 15.8179 72.1303 15.1031 72.6569 14.6141C72.9203 14.3507 73.3717 14.2379 73.5597 14.6517C73.9359 15.5169 73.8983 16.4198 73.4845 17.285C72.5441 19.1659 70.1365 19.9559 68.1427 19.8431H67.9546C67.8793 19.8431 67.7665 19.8431 67.7289 19.7302C67.6913 19.655 67.7289 19.6173 67.7289 19.5797Z" fill="#FEFEFE"/>
<path d="M68.4816 12.5457C68.5193 12.5457 68.5569 12.5457 68.5945 12.5457C68.7073 12.5457 68.7826 12.5833 68.8954 12.6209C69.0459 12.7338 69.1588 12.8842 69.1588 13.0723C69.1588 13.5237 69.0083 13.9752 68.745 14.3514C68.6321 14.5394 68.444 14.6523 68.2559 14.6899C67.5035 14.7652 66.6007 13.6366 67.2402 13.0347C67.5412 12.7338 67.9926 12.5457 68.4816 12.5457Z" fill="#FEFEFE"/>
<path d="M32.405 14.3139C32.7059 14.3139 32.9317 14.5396 33.3078 14.4644C33.5712 14.3892 33.7969 14.2387 33.985 14.013C34.474 13.4863 34.8878 12.7715 35.3392 12.1697C35.6778 11.7182 36.0164 11.4173 36.5807 11.7558C36.7311 11.8687 36.7688 12.2449 36.7688 12.5082C36.6559 14.013 35.9035 15.1791 34.963 16.2701C34.0226 17.3234 31.8783 16.4206 31.4645 15.5929C31.1636 14.9534 31.615 14.2763 32.405 14.3139Z" fill="#FEFEFE"/>
<path d="M31.6904 9.61093C31.728 9.72378 31.728 9.87426 31.728 9.98711C31.6527 10.6642 31.3142 11.4919 30.5242 11.4919C30.0727 11.4919 29.6213 11.1909 29.4332 10.7395C29.3204 10.5514 29.3204 10.3257 29.358 10.1C29.4332 9.91187 29.5837 9.72378 29.7718 9.61093C30.2608 9.30998 31.4646 8.93379 31.6904 9.61093Z" fill="#FEFEFE"/>
</svg>
