<svg width="189" height="32" viewBox="0 0 189 32" fill="none" xmlns="http://www.w3.org/2000/svg">
<path d="M38.0948 30.7435C38.0948 30.7518 38.0948 30.76 38.0948 30.7683C38.1607 31.0074 38.2267 31.2548 38.2927 31.494C38.3009 31.5105 38.3009 31.5269 38.2927 31.5434C38.2844 31.5682 38.2515 31.5764 38.2267 31.5764C37.4433 31.6589 36.7506 31.296 36.1981 30.76C36.0826 30.6446 35.9672 30.4961 35.8105 30.4302C35.6373 30.356 35.4559 30.4054 35.291 30.4714C34.2272 30.892 33.1387 31.2218 32.0171 31.461C29.9638 31.898 27.8527 32.0217 25.7498 31.997C21.3462 31.9475 16.9344 31.2796 12.7782 29.8447C11.8216 29.5313 10.8897 29.1355 9.99913 28.6654C9.53733 28.418 9.10027 28.1377 8.68794 27.8325C8.39932 27.6099 7.987 27.0904 7.64065 27.5192C6.87373 28.4593 5.91714 29.8694 4.507 29.4983L5.23269 28.484L3.94624 28.5912L5.54605 26.0101C5.29866 25.8864 5.00178 25.7132 4.68842 25.5895C4.54823 25.54 4.39979 25.54 4.26785 25.606C3.38548 26.0843 1.77742 26.3234 0.895053 25.705C0.746617 25.606 0.639414 25.4576 0.581689 25.2926C0.466238 24.9298 0.688891 24.7071 0.895053 24.5092C1.35685 24.0392 1.78567 23.5361 2.1815 23.0084C2.25572 22.9259 2.3052 22.8187 2.31344 22.7033C2.29695 22.6125 2.25572 22.5218 2.19799 22.4476C1.16719 20.9633 0.49098 19.2645 0.202354 17.4832C-0.0862716 15.6938 -0.176982 13.7641 0.697141 12.1148C0.944534 11.6448 1.28264 11.1995 1.74444 10.9273C2.23098 10.6387 2.80823 10.5562 3.37724 10.548C4.0452 10.5315 4.77089 10.6222 5.27392 11.0593C5.16671 10.9603 5.85941 9.60789 5.94188 9.45121C6.48614 8.36268 7.17885 7.36486 8.01174 6.47424C8.3251 6.14439 9.05079 5.70732 9.13326 5.25377C9.54558 2.8623 10.931 1.27898 13.1575 0.404859C14.7821 -0.230117 16.3654 -0.114667 17.891 0.72647C18.1631 0.883153 18.3693 0.850168 18.6661 0.784196C19.4496 0.611021 20.2412 0.487322 21.0411 0.421351C23.4326 0.21519 25.7911 0.528557 28.1083 1.11405C28.6938 1.26249 29.1391 1.26249 29.6834 0.949125C30.7719 0.322395 32.0006 0.297655 33.2294 0.396612C35.159 0.553295 36.5692 1.51813 37.6989 3.06846C38.3009 3.89311 38.4576 4.8332 38.7627 5.74856C38.8287 5.93822 38.9112 6.11965 39.0184 6.28457C39.6039 7.21642 40.2059 8.14002 40.7914 9.08012C41.3851 10.045 41.8881 11.0593 42.317 12.1148C42.5314 12.6343 42.7375 13.1621 42.9437 13.6899C43.1169 14.1434 43.1746 14.7042 43.6694 14.9269C43.9168 15.0423 44.1971 15.0753 44.461 15.1413C46.3247 15.5701 47.5947 17.3018 47.4462 19.215C47.3638 20.2211 46.8937 21.1612 46.3412 22.0105C45.7887 22.8599 45.1537 23.6516 44.6754 24.5422C44.626 24.6247 44.593 24.7154 44.593 24.8143C44.6095 24.9133 44.6507 25.004 44.7084 25.07C44.9971 25.4493 45.3929 25.7297 45.8464 25.8699C46.1351 25.9606 46.4732 26.0018 46.6051 26.3317C46.6628 26.4801 46.6628 26.6533 46.6051 26.8017C46.4732 27.1398 46.168 27.3295 45.8464 27.4697C44.8816 27.8903 43.7931 27.8903 42.8282 27.4697C42.7045 27.412 42.5561 27.346 42.4324 27.4037C42.3582 27.4367 42.3005 27.4944 42.251 27.5522C41.8222 28.0469 41.3356 28.484 40.7996 28.8716C40.4368 29.1355 40.0574 29.3746 39.6534 29.5808C39.5461 29.6385 39.4224 29.7045 39.373 29.8199C39.3482 29.9271 39.3565 30.0426 39.3977 30.1415C39.4389 30.3147 39.4719 30.4879 39.4884 30.6611C39.4967 30.6858 39.4884 30.7188 39.4637 30.727C39.4554 30.727 39.4472 30.7353 39.4307 30.727C39.0101 30.7518 38.5896 30.7188 38.169 30.7188C38.1113 30.7353 38.0948 30.7353 38.0948 30.7435Z" fill="#010202"/>
<path d="M34.6313 25.4738C34.6066 26.2573 34.5241 27.0324 34.3922 27.7993C34.3427 28.0962 34.2767 28.4013 34.0871 28.624C33.8974 28.8466 33.5923 28.9621 33.3119 29.0528C30.236 30.0424 26.7642 30.0836 23.5646 29.9187C19.6558 29.7125 15.2604 29.0611 11.7392 27.2468C11.1125 26.9252 10.5105 26.5459 10.0487 26.0099C9.29 25.144 9.16631 23.7998 9.15806 22.6866C9.14157 21.4001 9.47143 20.1302 10.1229 19.0169C11.0135 17.516 12.7618 16.6254 14.4193 16.2708C16.217 15.8832 18.0725 16.0069 19.9032 16.1389C23.3007 16.378 26.7807 16.6337 29.8731 18.052C31.3575 18.7283 32.7594 19.7096 33.617 21.095C34.4334 22.3979 34.6643 23.94 34.6313 25.4738Z" fill="#CFFEDD"/>
<path d="M5.77692 22.8682C4.43274 18.1842 6.42014 11.8922 8.92706 8.31321C8.96004 8.27198 9.01777 8.26373 9.059 8.29672C9.07549 8.30497 9.08374 8.32146 9.09199 8.32971C9.1827 8.53587 9.26516 8.72553 9.35588 8.9152C9.75995 9.79757 10.3619 10.5562 11.1866 11.0758C11.7886 11.4551 12.4565 11.719 13.141 11.9169C14.4274 12.3127 15.8953 12.5271 17.2065 12.1066C18.3527 11.7355 19.3423 10.614 19.9443 9.6244C20.5628 8.61833 21.1483 7.23293 21.1895 6.03719C21.2308 4.84146 20.9091 3.62923 20.1587 2.68089C20.101 2.61492 20.0515 2.50771 20.1175 2.44999C20.1422 2.4335 20.167 2.42525 20.2 2.42525C22.3523 2.16961 24.5293 2.27682 26.6404 2.75511C26.7064 2.76336 26.7641 2.7881 26.8054 2.83757C26.8631 2.92004 26.8054 3.03549 26.7559 3.1262C26.1127 4.12402 25.6756 5.25378 25.4859 6.42478C25.3127 7.56279 25.4117 8.75852 25.857 9.82231C26.7146 11.8674 28.7763 13.2281 30.9368 13.6981C32.3387 14.0033 33.8726 13.9703 35.2085 13.4095C36.7836 12.7416 37.8638 11.2325 38.5318 9.69037C38.5648 9.60791 38.6555 9.57492 38.738 9.60791C38.7709 9.6244 38.7957 9.64089 38.8122 9.67388C38.9689 9.92952 39.2163 10.2676 39.2575 10.3501C39.4472 10.6964 39.6286 11.051 39.8018 11.4056C40.1399 12.1231 40.4367 12.857 40.6924 13.5992C41.1954 15.0506 41.6655 16.5432 41.8304 18.077C41.9953 19.6438 41.8139 21.2271 41.6077 22.7857C41.4758 23.8 41.3356 24.8308 40.8903 25.7544C40.3213 26.9254 39.3317 27.5852 38.2762 28.2779C38.1937 28.3273 38.103 28.3851 38.004 28.3108C37.9463 28.2614 37.9051 28.1954 37.8968 28.1212C37.5835 26.1173 38.0123 24.0309 37.5175 22.0683C37.4927 21.9693 37.402 21.8456 37.3196 21.9034C37.2948 21.9281 37.2783 21.9528 37.2701 21.9858C37.2124 22.159 37.2124 22.3322 37.1876 22.5053C37.0639 23.2723 37.0722 24.0722 37.031 24.8473L36.899 27.2718V27.2965C36.8825 27.6511 36.8413 28.0635 36.9567 28.4098C37.0639 28.7067 37.3113 28.9706 37.5505 29.1685C37.8721 29.4324 38.169 29.7292 38.4741 30.0096C38.5236 30.0591 38.5813 30.1498 38.5236 30.191C38.4906 30.224 38.4328 30.2075 38.3916 30.1828C38.2102 30.1086 38.0288 30.0261 37.8473 29.9354C37.5835 29.8035 37.3443 29.589 37.1052 29.4241C37.0474 29.3746 36.9815 29.3417 36.9073 29.3087C36.8743 29.2839 36.833 29.2922 36.8083 29.3252C36.8083 29.3252 36.8 29.3334 36.8 29.3417C36.7671 29.4324 36.7753 29.5231 36.8165 29.6055C36.9237 29.8447 37.0392 30.0756 37.1711 30.3065C37.2618 30.4549 37.3526 30.6034 37.4268 30.7683C37.435 30.7848 37.4433 30.8178 37.4185 30.8343C37.402 30.8425 37.3938 30.8425 37.3773 30.8343C37.1711 30.7683 37.0392 30.6199 36.899 30.4549C36.7671 30.3065 36.6516 30.1333 36.5527 29.9601C36.1733 29.2674 36.3712 28.5253 36.4372 27.7831C36.5032 26.9914 36.5444 26.1915 36.5444 25.3916C36.5527 24.0392 36.5444 22.6703 36.0249 21.3921C35.5878 20.3283 34.8869 19.3799 34.0705 18.58C33.2211 17.7636 32.2645 17.0709 31.2255 16.5102C30.9038 16.337 30.574 16.1721 30.2359 16.0154C30.0709 15.9412 29.906 15.867 29.7411 15.801C29.6091 15.7433 29.3947 15.6113 29.2463 15.6113C26.1869 14.4816 22.9378 14.3744 19.7134 14.2094C17.66 14.1105 15.5902 13.962 13.5781 14.3744C11.3268 14.8362 9.42185 16.0401 8.28384 18.0605C8.03644 18.5058 7.82203 18.9759 7.64886 19.4542C7.47568 19.9242 7.30251 20.2376 6.82421 20.4685C6.18099 20.7818 6.06554 21.491 5.97483 22.159C5.9336 22.4394 5.87587 22.6126 5.83464 22.8517C5.82639 22.8764 5.80166 22.8847 5.78516 22.8764C5.79341 22.8847 5.78516 22.8764 5.77692 22.8682Z" fill="#00FC4C"/>
<path d="M32.4869 12.4613H32.4704C30.0377 12.4118 27.3906 10.8697 26.9041 8.34629C26.7144 7.34022 26.9041 6.29293 27.2917 5.34459C27.8029 4.11586 28.6936 3.00259 29.881 2.36762C31.1757 1.67492 32.858 1.75738 34.2187 2.21918C35.2083 2.55729 36.1071 3.19226 36.6679 4.07463C37.1792 4.89103 37.3771 5.86411 37.4183 6.82895C37.476 8.23909 37.1957 9.72345 36.2968 10.812C35.3897 11.9252 33.9218 12.486 32.4869 12.4613Z" fill="#FEFEFE"/>
<path d="M10.2134 6.45786C10.2381 4.58592 11.3431 2.90365 13.0501 2.13673C14.2129 1.60071 15.4828 1.60895 16.6868 1.99654C16.7693 2.02128 16.8435 2.04601 16.9177 2.079C17.8826 2.4336 18.7154 2.94488 19.202 3.89322C19.5153 4.50346 19.639 5.2044 19.639 5.88886C19.6308 6.96914 19.3669 8.07417 18.7979 9.00602C18.501 9.50905 18.097 9.94611 17.6104 10.2842C16.9342 10.7378 16.1178 10.9109 15.3097 10.9357C14.4355 10.9604 13.6604 10.7543 12.8687 10.3832C12.1925 10.0698 11.5493 9.65748 11.071 9.08848C10.469 8.35455 10.1969 7.40621 10.2134 6.45786Z" fill="#FEFEFE"/>
<path d="M3.31942 20.5179C3.26994 20.4849 3.23696 20.4519 3.21222 20.4024C2.61847 19.2397 2.23089 17.9862 2.06596 16.6915C1.90928 15.4216 1.91752 14.0609 2.58548 12.9311C2.67619 12.758 2.80814 12.6095 2.96482 12.4858C3.41838 12.189 4.01212 12.3456 4.32549 12.7745C4.4162 12.8899 4.46567 13.0301 4.48217 13.1703C4.48217 13.327 4.44918 13.4836 4.38321 13.6321C3.8307 15.2319 3.51734 16.8977 3.43487 18.5882C3.40189 19.2232 3.42662 19.8664 3.42662 20.5014C3.39364 20.5426 3.35241 20.5426 3.31942 20.5179Z" fill="#00FC4C"/>
<path d="M43.6033 22.5715C43.9414 20.8397 43.9084 19.0585 43.7764 17.2937C43.7682 17.1948 43.7847 17.0628 43.8754 17.0381C43.9084 17.0298 43.9414 17.0381 43.9744 17.0463C45.0711 17.3185 45.6401 18.4647 45.3433 19.5368C45.1948 20.0645 44.898 20.5428 44.6011 21.0046L43.6033 22.5715Z" fill="#00FC4C"/>
<path d="M7.00582 21.3676C7.00582 21.3181 7.04706 21.2852 7.08829 21.2852C7.12952 21.2852 7.17075 21.3264 7.17075 21.3676C7.22023 21.714 7.23672 22.0686 7.25322 22.4149C7.2862 23.1653 7.31094 23.924 7.30269 24.6744C7.29445 25.1857 7.22848 25.697 7.11303 26.1918C6.96459 26.7773 6.75018 27.3545 6.47805 27.8988C6.4698 27.9153 6.44506 27.9235 6.43682 27.9071C6.42857 27.9071 6.42857 27.8988 6.42857 27.8988C6.35435 27.7504 6.28838 27.6019 6.23066 27.4453C6.22241 27.4205 6.21416 27.3958 6.18942 27.3793C6.16468 27.371 6.1317 27.371 6.11521 27.3875L5.6699 27.5689C5.64516 27.5772 5.62866 27.5525 5.63691 27.536C5.81833 27.2803 6.008 27.0907 6.18942 26.8598C6.45331 26.4804 6.62649 26.0434 6.67597 25.5816C6.75018 25.062 6.70071 24.5343 6.75843 24.023C6.81616 23.4705 6.83265 22.9097 6.86563 22.3572C6.86563 22.0273 6.91511 21.6975 7.00582 21.3676Z" fill="#00FC4C"/>
<path d="M43.1416 25.1855C43.1581 25.136 43.2158 25.103 43.2653 25.1195C43.29 25.1278 43.3065 25.136 43.3147 25.1525L44.362 26.5544C44.3868 26.5791 44.395 26.6039 44.3868 26.6369C44.3703 26.6781 44.3126 26.6781 44.2631 26.6616L43.1993 26.406C43.0921 26.3812 42.9766 26.3482 42.9189 26.2493C42.8612 26.1503 42.8859 26.0184 42.9189 25.9029L43.1416 25.1855Z" fill="#00FC4C"/>
<path d="M2.29704 24.8722C2.26405 24.8639 2.23107 24.831 2.23932 24.798C2.23932 24.7815 2.24756 24.7732 2.25581 24.765C2.47022 24.5011 2.69287 24.2372 2.92377 23.9733C2.98974 23.8991 3.0887 23.8084 3.17941 23.8579C3.20415 23.8744 3.22889 23.8991 3.24538 23.9238C3.33609 24.0475 3.69069 24.3774 3.69894 24.5341C3.69894 24.9382 2.70112 24.9217 2.29704 24.8722Z" fill="#00FC4C"/>
<path d="M22.3688 11.925C22.7894 11.9497 23.1935 12.0652 23.5645 12.2631C23.7047 12.3291 23.8284 12.4363 23.9026 12.5765C23.9851 12.7661 23.9109 12.997 23.7789 13.162C23.5893 13.3929 23.3172 13.5495 23.0203 13.599C22.7234 13.6485 22.4265 13.632 22.1379 13.5495C21.7833 13.4588 21.2803 13.2692 21.1071 12.9228C20.9174 12.5352 21.2968 12.1477 21.6349 12.024C21.8493 11.9497 22.0884 11.9085 22.3193 11.925H22.3688Z" fill="#010202"/>
<path d="M34.9034 7.08443C34.8951 7.17514 34.8786 7.26585 34.8621 7.35656C34.59 8.643 33.5674 9.99542 32.1573 10.0779C31.0028 10.1521 30.0297 9.814 29.2793 8.93988C28.7103 8.28841 28.6773 7.47201 28.7433 6.65561C28.768 6.42471 28.8092 6.19381 28.867 5.97116C29.2875 4.30537 30.7636 3.52196 32.3635 4.14869C33.4685 4.57751 34.8456 5.6248 34.9116 6.93599C34.9034 6.98547 34.9034 7.03495 34.9034 7.08443Z" fill="#010202"/>
<path d="M14.3453 3.12636C16.2914 3.00266 18.5509 4.98181 17.4954 6.9857C17.2315 7.46399 16.8522 7.86807 16.3904 8.15669C15.978 8.43707 15.508 8.61849 15.0132 8.67622C13.9659 8.77518 13.1083 8.07423 12.5145 7.28257C11.995 6.58987 11.8053 5.7075 11.995 4.85811C12.1929 3.95925 12.9846 3.21707 13.8999 3.15935C14.0814 3.14285 14.2545 3.13461 14.3453 3.12636Z" fill="#010202"/>
<path d="M30.9202 8.97285C30.9284 8.94811 30.9449 8.93162 30.9697 8.90688C31.25 8.61825 31.6046 8.40384 31.9345 8.17294C32.1984 7.99977 32.4375 7.77711 32.6272 7.52147C32.8169 7.25759 32.9323 6.93598 33.1797 6.70508C33.2951 6.58963 33.5096 6.5319 33.592 6.72157C33.7569 7.10915 33.7405 7.53797 33.5508 7.91731C33.122 8.78318 32.0252 9.12953 31.1181 9.0883L31.0274 9.08005C30.9861 9.08005 30.9367 9.07181 30.9202 9.03058C30.9037 9.01408 30.9119 8.98934 30.9202 8.97285Z" fill="#FEFEFE"/>
<path d="M31.2503 5.76489C31.2668 5.76489 31.2833 5.76489 31.2998 5.76489C31.3493 5.76489 31.3905 5.78138 31.4317 5.79788C31.4977 5.84736 31.5472 5.92158 31.5472 6.01229C31.5472 6.22669 31.4812 6.43286 31.3575 6.59778C31.308 6.68025 31.2173 6.73797 31.1266 6.75447C30.7885 6.7957 30.3762 6.27617 30.6648 5.99579C30.8215 5.84736 31.0359 5.76489 31.2503 5.76489Z" fill="#FEFEFE"/>
<path d="M14.782 6.56499C14.9221 6.57324 15.0293 6.66395 15.186 6.63097C15.3097 6.59798 15.4169 6.52376 15.4994 6.4248C15.7303 6.17741 15.9117 5.8558 16.1261 5.58367C16.2828 5.37751 16.4395 5.23732 16.6869 5.394C16.7611 5.44348 16.7776 5.61665 16.7693 5.7321C16.7199 6.41656 16.3818 6.96082 15.9365 7.45561C15.5076 7.9339 14.5263 7.52983 14.3366 7.14224C14.2047 6.85362 14.4109 6.54025 14.782 6.56499Z" fill="#FEFEFE"/>
<path d="M14.4523 4.42098C14.4688 4.47871 14.477 4.53643 14.4688 4.58591C14.4358 4.89103 14.2874 5.27037 13.9245 5.27037C13.7101 5.26212 13.5122 5.13018 13.4215 4.93226C13.372 4.84155 13.3638 4.7426 13.3885 4.64364C13.4215 4.55293 13.4875 4.47871 13.5782 4.42098C13.8008 4.27255 14.3451 4.11586 14.4523 4.42098Z" fill="#FEFEFE"/>
<path d="M65.8467 11.9521V10.2031H55.8799V11.9521H59.7998V23H61.9004V11.9521H65.8467ZM67.4941 18.1572V18.3418C67.4941 19.0391 67.5938 19.6807 67.793 20.2666C67.9922 20.8525 68.2822 21.3623 68.6631 21.7959C69.0381 22.2295 69.501 22.5693 70.0518 22.8154C70.6025 23.0615 71.2266 23.1846 71.9238 23.1846C72.6152 23.1846 73.2334 23.0615 73.7783 22.8154C74.3291 22.5693 74.792 22.2295 75.167 21.7959C75.542 21.3623 75.8291 20.8525 76.0283 20.2666C76.2275 19.6807 76.3271 19.0391 76.3271 18.3418V18.1572C76.3271 17.4658 76.2275 16.8271 76.0283 16.2412C75.8291 15.6494 75.542 15.1367 75.167 14.7031C74.7861 14.2695 74.3203 13.9297 73.7695 13.6836C73.2246 13.4375 72.6035 13.3145 71.9062 13.3145C71.209 13.3145 70.5879 13.4375 70.043 13.6836C69.498 13.9297 69.0381 14.2695 68.6631 14.7031C68.2822 15.1367 67.9922 15.6494 67.793 16.2412C67.5938 16.8271 67.4941 17.4658 67.4941 18.1572ZM69.5947 18.3418V18.1572C69.5947 17.7412 69.6387 17.3428 69.7266 16.9619C69.8203 16.5811 69.9609 16.2471 70.1484 15.96C70.3418 15.6729 70.582 15.4443 70.8691 15.2744C71.1621 15.1045 71.5078 15.0195 71.9062 15.0195C72.3105 15.0195 72.6562 15.1045 72.9434 15.2744C73.2363 15.4443 73.4766 15.6729 73.6641 15.96C73.8516 16.2471 73.9922 16.5811 74.0859 16.9619C74.1797 17.3428 74.2266 17.7412 74.2266 18.1572V18.3418C74.2266 18.7695 74.1797 19.1738 74.0859 19.5547C73.998 19.9355 73.8604 20.2695 73.6729 20.5566C73.4854 20.8438 73.2451 21.0723 72.9521 21.2422C72.6592 21.4062 72.3164 21.4883 71.9238 21.4883C71.5195 21.4883 71.1709 21.4062 70.8779 21.2422C70.585 21.0723 70.3418 20.8438 70.1484 20.5566C69.9609 20.2695 69.8203 19.9355 69.7266 19.5547C69.6387 19.1738 69.5947 18.7695 69.5947 18.3418ZM85.0146 23H87.1592V22.8506C87.042 22.6045 86.9512 22.3115 86.8867 21.9717C86.8281 21.626 86.7988 21.2393 86.7988 20.8115V16.584C86.7988 16.0449 86.6992 15.5703 86.5 15.1602C86.3008 14.7441 86.0254 14.4014 85.6738 14.1318C85.3223 13.8623 84.9033 13.6602 84.417 13.5254C83.9365 13.3848 83.418 13.3145 82.8613 13.3145C82.2402 13.3145 81.6865 13.3965 81.2002 13.5605C80.7197 13.7188 80.3125 13.9355 79.9785 14.2109C79.6445 14.4805 79.3896 14.791 79.2139 15.1426C79.0381 15.4941 78.9473 15.8604 78.9414 16.2412H81.0508C81.0508 16.0596 81.083 15.8896 81.1475 15.7314C81.2178 15.5674 81.3232 15.4297 81.4639 15.3184C81.6045 15.1953 81.7803 15.0986 81.9912 15.0283C82.208 14.958 82.46 14.9229 82.7471 14.9229C83.0635 14.9229 83.3418 14.9639 83.582 15.0459C83.8281 15.1221 84.0361 15.2334 84.2061 15.3799C84.3643 15.5264 84.4844 15.6992 84.5664 15.8984C84.6543 16.0977 84.6982 16.3203 84.6982 16.5664V17.208H83.1689C82.4834 17.208 81.8682 17.2725 81.3232 17.4014C80.7842 17.5303 80.3301 17.7178 79.9609 17.9639C79.5625 18.2275 79.2578 18.5615 79.0469 18.9658C78.8418 19.3643 78.7393 19.8242 78.7393 20.3457C78.7393 20.75 78.8184 21.1279 78.9766 21.4795C79.1406 21.8252 79.3662 22.1211 79.6533 22.3672C79.9463 22.6191 80.2949 22.8184 80.6992 22.9648C81.1094 23.1055 81.5605 23.1758 82.0527 23.1758C82.3574 23.1758 82.6416 23.1465 82.9053 23.0879C83.1689 23.0293 83.415 22.9473 83.6436 22.8418C83.8721 22.7422 84.0771 22.625 84.2588 22.4902C84.4463 22.3496 84.6133 22.2031 84.7598 22.0508C84.7891 22.2324 84.8213 22.4082 84.8564 22.5781C84.8975 22.7422 84.9502 22.8828 85.0146 23ZM82.457 21.4883C82.1875 21.4883 81.9531 21.4561 81.7539 21.3916C81.5547 21.3213 81.3877 21.2275 81.2529 21.1104C81.1182 20.9932 81.0156 20.8525 80.9453 20.6885C80.875 20.5186 80.8398 20.3369 80.8398 20.1436C80.8398 19.9092 80.8809 19.6982 80.9629 19.5107C81.0508 19.3232 81.1826 19.1621 81.3584 19.0273C81.5576 18.8691 81.8242 18.749 82.1582 18.667C82.4922 18.5791 82.8877 18.5352 83.3447 18.5352H84.6982V20.293C84.6221 20.4453 84.5137 20.5918 84.373 20.7324C84.2324 20.873 84.0654 20.999 83.8721 21.1104C83.6787 21.2217 83.4619 21.3125 83.2217 21.3828C82.9873 21.4531 82.7324 21.4883 82.457 21.4883ZM89.7207 18.1748V18.3594C89.7207 19.0449 89.8086 19.6836 89.9844 20.2754C90.1602 20.8613 90.4092 21.3682 90.7314 21.7959C91.0537 22.2295 91.4463 22.5693 91.9092 22.8154C92.3721 23.0557 92.8936 23.1758 93.4736 23.1758C94.0244 23.1758 94.5107 23.0762 94.9326 22.877C95.3545 22.6719 95.7178 22.3818 96.0225 22.0068L96.1191 23H98.0264V9.5H95.9258V14.3779C95.6211 14.0381 95.2695 13.7773 94.8711 13.5957C94.4785 13.4082 94.0186 13.3145 93.4912 13.3145C92.9053 13.3145 92.3779 13.4346 91.9092 13.6748C91.4463 13.9092 91.0537 14.2402 90.7314 14.668C90.4033 15.0957 90.1514 15.6084 89.9756 16.2061C89.8057 16.7979 89.7207 17.4541 89.7207 18.1748ZM91.8213 18.3594V18.1748C91.8213 17.7471 91.8623 17.3457 91.9443 16.9707C92.0264 16.5898 92.1553 16.2559 92.3311 15.9688C92.5068 15.6816 92.7324 15.4561 93.0078 15.292C93.2891 15.1279 93.626 15.0459 94.0186 15.0459C94.4873 15.0459 94.874 15.1514 95.1787 15.3623C95.4893 15.5674 95.7383 15.8457 95.9258 16.1973V20.2842C95.7383 20.6416 95.4893 20.9258 95.1787 21.1367C94.8682 21.3418 94.4756 21.4443 94.001 21.4443C93.6143 21.4443 93.2832 21.3652 93.0078 21.207C92.7324 21.043 92.5068 20.8203 92.3311 20.5391C92.1553 20.2578 92.0264 19.9297 91.9443 19.5547C91.8623 19.1797 91.8213 18.7812 91.8213 18.3594ZM120.332 23V10.2031H118.205L118.188 18.9746L114.057 10.2031H111.912V23H114.048L114.057 14.1934L118.214 23H120.332ZM127.622 23.1758C128.548 23.1758 129.336 22.9941 129.986 22.6309C130.643 22.2676 131.129 21.8574 131.445 21.4004L130.32 20.3105C130.027 20.6855 129.655 20.9756 129.204 21.1807C128.753 21.3799 128.267 21.4795 127.745 21.4795C127.364 21.4795 127.013 21.415 126.69 21.2861C126.374 21.1572 126.099 20.9756 125.864 20.7412C125.63 20.5186 125.445 20.2666 125.311 19.9854C125.176 19.7041 125.076 19.3555 125.012 18.9395V18.8955H131.604V17.9902C131.604 17.3105 131.513 16.6836 131.331 16.1094C131.149 15.5352 130.88 15.04 130.522 14.624C130.165 14.2139 129.723 13.8945 129.195 13.666C128.668 13.4316 128.062 13.3145 127.376 13.3145C126.761 13.3145 126.181 13.4316 125.636 13.666C125.097 13.8945 124.622 14.2227 124.212 14.6504C123.802 15.0781 123.479 15.5938 123.245 16.1973C123.011 16.8008 122.894 17.4746 122.894 18.2188V18.5791C122.894 19.2295 123.005 19.8359 123.228 20.3984C123.456 20.9551 123.778 21.4385 124.194 21.8486C124.61 22.2646 125.108 22.5898 125.688 22.8242C126.274 23.0586 126.919 23.1758 127.622 23.1758ZM127.367 15.0195C127.719 15.0195 128.026 15.0811 128.29 15.2041C128.56 15.3213 128.782 15.4795 128.958 15.6787C129.14 15.8838 129.28 16.124 129.38 16.3994C129.479 16.6689 129.529 16.9414 129.529 17.2168V17.3574H125.056C125.12 16.9941 125.22 16.6689 125.354 16.3818C125.489 16.0947 125.656 15.8486 125.855 15.6436C126.055 15.4443 126.28 15.292 126.532 15.1865C126.79 15.0752 127.068 15.0195 127.367 15.0195ZM138.463 11.1699H136.354V13.4902H134.051V15.0635H136.354V19.7393C136.354 20.3486 136.433 20.8701 136.591 21.3037C136.755 21.7373 136.98 22.0947 137.268 22.376C137.555 22.6514 137.897 22.8564 138.296 22.9912C138.7 23.1201 139.143 23.1846 139.623 23.1846C139.887 23.1846 140.15 23.1699 140.414 23.1406C140.684 23.1172 140.941 23.082 141.188 23.0352C141.434 22.9883 141.662 22.9326 141.873 22.8682C142.09 22.7979 142.274 22.7158 142.427 22.6221L142.198 21.1719C142.093 21.1953 141.961 21.2246 141.803 21.2598C141.65 21.2891 141.483 21.3154 141.302 21.3389C141.126 21.3682 140.941 21.3916 140.748 21.4092C140.555 21.4268 140.367 21.4355 140.186 21.4355C139.934 21.4355 139.702 21.4062 139.491 21.3477C139.28 21.2891 139.099 21.1895 138.946 21.0488C138.794 20.9141 138.674 20.7295 138.586 20.4951C138.504 20.2549 138.463 19.959 138.463 19.6074V15.0635H142.04V13.4902H138.463V11.1699ZM146.096 23H147.88L149.084 17.6035L149.295 16.4258L149.515 17.6035L150.745 23H152.529L154.366 13.4902H152.459L151.606 19.291L151.439 20.4512L151.237 19.2998L149.998 13.4902H148.618L147.379 19.3174L147.186 20.416L147.036 19.3174L146.157 13.4902H144.259L146.096 23ZM155.979 18.1572V18.3418C155.979 19.0391 156.078 19.6807 156.277 20.2666C156.477 20.8525 156.767 21.3623 157.147 21.7959C157.522 22.2295 157.985 22.5693 158.536 22.8154C159.087 23.0615 159.711 23.1846 160.408 23.1846C161.1 23.1846 161.718 23.0615 162.263 22.8154C162.813 22.5693 163.276 22.2295 163.651 21.7959C164.026 21.3623 164.313 20.8525 164.513 20.2666C164.712 19.6807 164.812 19.0391 164.812 18.3418V18.1572C164.812 17.4658 164.712 16.8271 164.513 16.2412C164.313 15.6494 164.026 15.1367 163.651 14.7031C163.271 14.2695 162.805 13.9297 162.254 13.6836C161.709 13.4375 161.088 13.3145 160.391 13.3145C159.693 13.3145 159.072 13.4375 158.527 13.6836C157.982 13.9297 157.522 14.2695 157.147 14.7031C156.767 15.1367 156.477 15.6494 156.277 16.2412C156.078 16.8271 155.979 17.4658 155.979 18.1572ZM158.079 18.3418V18.1572C158.079 17.7412 158.123 17.3428 158.211 16.9619C158.305 16.5811 158.445 16.2471 158.633 15.96C158.826 15.6729 159.066 15.4443 159.354 15.2744C159.646 15.1045 159.992 15.0195 160.391 15.0195C160.795 15.0195 161.141 15.1045 161.428 15.2744C161.721 15.4443 161.961 15.6729 162.148 15.96C162.336 16.2471 162.477 16.5811 162.57 16.9619C162.664 17.3428 162.711 17.7412 162.711 18.1572V18.3418C162.711 18.7695 162.664 19.1738 162.57 19.5547C162.482 19.9355 162.345 20.2695 162.157 20.5566C161.97 20.8438 161.729 21.0723 161.437 21.2422C161.144 21.4062 160.801 21.4883 160.408 21.4883C160.004 21.4883 159.655 21.4062 159.362 21.2422C159.069 21.0723 158.826 20.8438 158.633 20.5566C158.445 20.2695 158.305 19.9355 158.211 19.5547C158.123 19.1738 158.079 18.7695 158.079 18.3418ZM174 13.3145C173.344 13.3145 172.743 13.4668 172.198 13.7715C171.659 14.0762 171.196 14.4951 170.81 15.0283L170.801 14.8086L170.713 13.4902H168.744V23H170.845V17.1289C170.956 16.8477 171.094 16.5986 171.258 16.3818C171.422 16.165 171.621 15.9863 171.855 15.8457C172.072 15.6992 172.321 15.5908 172.603 15.5205C172.884 15.4502 173.2 15.415 173.552 15.415C173.862 15.415 174.173 15.4326 174.483 15.4678C174.8 15.5029 175.119 15.5557 175.441 15.626L175.74 13.5518C175.559 13.4873 175.307 13.4316 174.984 13.3848C174.668 13.3379 174.34 13.3145 174 13.3145ZM181.756 18.8604L184.788 23H187.39L183.153 17.4541L186.854 13.4902H184.322L181.483 16.4785L180.613 17.4453V9.5H178.504V23H180.613V19.9414L181.756 18.8604Z" fill="white"/>
</svg>
