<svg width="16" height="20" viewBox="0 0 16 20" fill="none" xmlns="http://www.w3.org/2000/svg">
<path d="M14.6484 3.18831C11.4052 3.18831 8.0441 0.182022 8.01082 0.151904C7.78742 -0.0506348 7.44692 -0.0506348 7.22356 0.151904C7.19008 0.182256 3.83781 3.18831 0.585938 3.18831C0.262344 3.18831 0 3.45066 0 3.77425V10.7914C0 16.4759 4.22797 18.7474 7.40821 19.9615C7.47551 19.9872 7.54633 20 7.61719 20C7.68805 20 7.75887 19.9871 7.82618 19.9615C12.2853 18.2591 15.2344 15.6037 15.2344 10.7914V3.77425C15.2344 3.45066 14.972 3.18831 14.6484 3.18831Z" fill="url(#paint0_linear)"/>
<path d="M7.61719 5.89844C5.35559 5.89844 3.51562 7.7384 3.51562 10C3.51562 12.2616 5.35559 14.1016 7.61719 14.1016C9.87879 14.1016 11.7188 12.2616 11.7188 10C11.7188 7.7384 9.87879 5.89844 7.61719 5.89844ZM9.20336 9.82836L7.44555 11.5862C7.33117 11.7006 7.18121 11.7578 7.03125 11.7578C6.88129 11.7578 6.73133 11.7006 6.61695 11.5862L6.03102 11.0002C5.80219 10.7714 5.80219 10.4004 6.03102 10.1716C6.25981 9.94278 6.63082 9.94278 6.85965 10.1716L7.03129 10.3432L8.37481 8.99973C8.6036 8.7709 8.97461 8.7709 9.20344 8.99973C9.43223 9.22856 9.43223 9.59954 9.20336 9.82836Z" fill="url(#paint1_linear)"/>
<defs>
<linearGradient id="paint0_linear" x1="7.61719" y1="20" x2="7.61719" y2="-9.53675e-06" gradientUnits="userSpaceOnUse">
<stop stop-color="#FA40ED"/>
<stop offset="1" stop-color="#F3A9EE"/>
</linearGradient>
<linearGradient id="paint1_linear" x1="7.61719" y1="14.1016" x2="7.61719" y2="5.89844" gradientUnits="userSpaceOnUse">
<stop stop-color="#C3FFE8"/>
<stop offset="0.9973" stop-color="#F0FFF4"/>
</linearGradient>
</defs>
</svg>
